<?xml version="1.0" encoding="iso-8859-1"?>
<!-- Uploaded to: SVG Repo, www.svgrepo.com, Generator: SVG Repo Mixer Tools -->
<svg version="1.1" id="Layer_1" xmlns="http://www.w3.org/2000/svg" xmlns:xlink="http://www.w3.org/1999/xlink" 
	 viewBox="0 0 512 512" xml:space="preserve">
<rect x="144.054" y="360.302" style="fill:#CCC3A8;" width="182.201" height="56.644"/>
<path style="fill:#C9B585;" d="M281.744,375.555c0,14.785,3.269,28.807,9.113,41.389h35.394V360.3h-43.329
	C282.147,365.271,281.744,370.365,281.744,375.555z"/>
<path style="fill:#FFB92E;" d="M271.404,165.359h-28.681H25.865L185.95,361.435l-0.001-0.001l0.003,0.004l2.128,2.606
	c3.842,4.08,13.147,11.509,29.968,11.509c0.029,0,0.054,0.001,0.082,0.001h95.67V165.359H271.404z"/>
<g>
	<path style="fill:#F9D19B;" d="M280.683,347.287c-4.629,0-8.38-3.751-8.38-8.38V196.201c0-4.629,3.751-8.38,8.38-8.38
		c4.628,0,8.38,3.751,8.38,8.38v142.705C289.063,343.535,285.311,347.287,280.683,347.287z"/>
	<path style="fill:#F9D19B;" d="M240.859,347.287c-4.629,0-8.38-3.751-8.38-8.38V196.201c0-4.629,3.751-8.38,8.38-8.38
		c4.628,0,8.38,3.751,8.38,8.38v142.705C249.239,343.535,245.486,347.287,240.859,347.287z"/>
	<path style="fill:#F9D19B;" d="M121.388,223.948c-4.628,0-8.38-3.751-8.38-8.38v-19.367c0-4.629,3.752-8.38,8.38-8.38
		c4.629,0,8.38,3.751,8.38,8.38v19.367C129.768,220.196,126.016,223.948,121.388,223.948z"/>
	<path style="fill:#F9D19B;" d="M161.211,270.346c-4.629,0-8.38-3.751-8.38-8.38v-65.764c0-4.629,3.751-8.38,8.38-8.38
		c4.628,0,8.38,3.751,8.38,8.38v65.764C169.592,266.595,165.84,270.346,161.211,270.346z"/>
	<path style="fill:#F9D19B;" d="M201.034,319.673c-4.628,0-8.38-3.752-8.38-8.38V196.201c0-4.629,3.752-8.38,8.38-8.38
		c4.629,0,8.38,3.751,8.38,8.38v115.091C209.414,315.921,205.663,319.673,201.034,319.673z"/>
</g>
<path style="fill:#EF9A1D;" d="M217.504,364.046l-2.128-2.606l-0.002-0.004v0.001L55.291,165.359H25.865L185.95,361.435
	l-0.001-0.001l0.003,0.004l2.128,2.606c3.842,4.08,13.147,11.509,29.968,11.509c0.029,0,0.054,0.001,0.082,0.001h29.425
	c-0.028,0-0.054-0.001-0.083-0.001C230.651,375.553,221.348,368.125,217.504,364.046z"/>
<polyline style="fill:#CCC3A8;" points="313.802,364.822 313.802,171.081 380.431,171.081 380.431,312.855 "/>
<path style="fill:#FFB92E;" d="M510.617,234.151l-74.867-97.718c-1.268-1.655-3.237-2.627-5.322-2.627h-59.388
	c-8.584,0-15.565,6.981-15.565,15.563v235.527c0,3.702,3.001,6.704,6.704,6.704h134.257c8.582,0,15.565-6.983,15.565-15.565V238.229
	C512,236.755,511.513,235.321,510.617,234.151z"/>
<path style="fill:#F28838;" d="M512,290.433h-22.37c-7.405,0-13.409,6.004-13.409,13.409v6.704c0,7.405,6.004,13.409,13.409,13.409
	H512V290.433z"/>
<path style="fill:#36A1CB;" d="M495.99,215.06l-34.285-44.748h-40.236c-7.405,0-13.409,6.004-13.409,13.409v57.548
	c0,7.405,6.004,13.409,13.409,13.409H512v-16.448c0-1.474-0.487-2.906-1.381-4.076L495.99,215.06z"/>
<path style="fill:#7C7A75;" d="M62.448,137.156c0,0,10.1-33.201,42.003-39.225c31.9-6.022,68.181-17.195,83.632-31.348
	c15.453-14.155,43.731,3.723,52.098,19.367s43.975,11.534,55.398,51.208L62.448,137.156z"/>
<path style="fill:#6B6861;" d="M132.014,111.065c26.183-7.964,55.961-22.739,68.643-41.455c2.977-4.391,6.535-6.427,10.32-6.741
	c-8.285-2.494-16.641-2.015-22.895,3.714c-15.451,14.153-51.732,25.327-83.632,31.348c-31.903,6.024-42.003,39.225-42.003,39.225
	h43.832C111.684,126.037,119.948,114.736,132.014,111.065z"/>
<path style="fill:#F28838;" d="M313.801,171.429v-36.507H113.963H16.257C7.279,134.922,0,142.2,0,151.178v3.994
	c0,8.978,7.279,16.257,16.257,16.257h9.614"/>
<path style="fill:#666155;" d="M463.822,86.199H313.801c-4.628,0-8.38,3.751-8.38,8.38v280.974h16.761V102.96h141.64
	c4.628,0,8.38-3.752,8.38-8.38S468.449,86.199,463.822,86.199z"/>
<path style="fill:#EF9A1D;" d="M377.822,384.896V149.369c0-8.582,6.981-15.563,15.565-15.563h-22.348
	c-8.584,0-15.565,6.981-15.565,15.563v235.527c0,3.702,3.001,6.704,6.704,6.704h22.348
	C380.823,391.6,377.822,388.598,377.822,384.896z"/>
<path style="fill:#EF711D;" d="M498.569,310.546v-6.704c0-7.405,6.004-13.409,13.409-13.409H489.63
	c-7.405,0-13.409,6.004-13.409,13.409v6.704c0,7.405,6.004,13.409,13.409,13.409h22.348
	C504.574,323.955,498.569,317.951,498.569,310.546z"/>
<path style="fill:#2B80AF;" d="M430.408,241.268V183.72c0-7.405,6.004-13.409,13.409-13.409h-22.348
	c-7.405,0-13.409,6.004-13.409,13.409v57.548c0,7.405,6.004,13.409,13.409,13.409h22.348
	C436.413,254.677,430.408,248.673,430.408,241.268z"/>
<path style="fill:#EF711D;" d="M22.348,155.172v-3.994c0-8.978,7.279-16.257,16.257-16.257H16.257C7.279,134.922,0,142.2,0,151.178
	v3.994c0,8.978,7.279,16.257,16.257,16.257h9.614h12.734C29.626,171.429,22.348,164.15,22.348,155.172z"/>
<circle style="fill:#7C7A75;" cx="98.017" cy="375.555" r="75.01"/>
<path style="fill:#CCC3A8;" d="M130.509,383.012c0.088-0.383,0.171-0.769,0.246-1.156c0.044-0.231,0.085-0.465,0.124-0.701
	c0.066-0.381,0.122-0.765,0.174-1.151c0.03-0.232,0.061-0.465,0.087-0.698c0.048-0.418,0.083-0.837,0.114-1.258
	c0.016-0.203,0.035-0.403,0.047-0.607c0.035-0.626,0.056-1.254,0.056-1.887c0-1.15-0.058-2.287-0.172-3.409
	c-1.25-12.326-9.22-22.668-20.188-27.307c-3.988-1.687-8.373-2.62-12.975-2.62h-0.001H98.02c-4.603,0-8.987,0.933-12.975,2.62
	c-10.968,4.638-18.938,14.981-20.188,27.307c-0.115,1.122-0.172,2.259-0.172,3.409c0,0.634,0.021,1.263,0.056,1.887
	c0.012,0.203,0.031,0.403,0.047,0.607c0.03,0.421,0.066,0.84,0.113,1.258c0.027,0.234,0.058,0.466,0.088,0.698
	c0.053,0.387,0.11,0.77,0.174,1.151c0.039,0.236,0.08,0.469,0.124,0.701c0.074,0.389,0.158,0.773,0.246,1.156
	c0.034,0.149,0.058,0.299,0.095,0.446l0.011,0.015c2.37,9.725,9.001,17.779,17.808,22.068l0.003,0.004
	c0.017,0.008,0.032,0.015,0.048,0.022c0.525,0.255,1.056,0.495,1.597,0.722c0.102,0.044,0.204,0.079,0.306,0.121
	c0.437,0.179,0.875,0.352,1.321,0.512c0.191,0.069,0.385,0.131,0.579,0.197c0.362,0.122,0.723,0.242,1.091,0.353
	c0.221,0.066,0.445,0.126,0.669,0.19c0.345,0.096,0.692,0.188,1.044,0.274c0.235,0.058,0.472,0.112,0.708,0.163
	c0.348,0.076,0.696,0.147,1.047,0.212c0.24,0.045,0.48,0.089,0.722,0.129c0.361,0.059,0.725,0.109,1.092,0.158
	c0.234,0.03,0.466,0.064,0.701,0.089c0.4,0.044,0.807,0.074,1.21,0.105c0.203,0.015,0.401,0.035,0.605,0.046
	c0.607,0.032,1.216,0.053,1.83,0.053c0.003,0,0.006,0,0.006,0h0.003h0.001h0.008c0.615,0,1.224-0.02,1.83-0.053
	c0.203-0.011,0.401-0.031,0.605-0.046c0.403-0.03,0.81-0.061,1.21-0.105c0.235-0.026,0.467-0.059,0.701-0.089
	c0.365-0.048,0.73-0.098,1.092-0.158c0.241-0.039,0.482-0.084,0.721-0.129c0.351-0.066,0.699-0.136,1.047-0.212
	c0.237-0.053,0.474-0.106,0.708-0.163c0.351-0.086,0.698-0.178,1.044-0.274c0.223-0.064,0.447-0.124,0.669-0.19
	c0.367-0.112,0.727-0.231,1.091-0.353c0.192-0.066,0.388-0.127,0.579-0.197c0.446-0.162,0.886-0.334,1.325-0.513
	c0.099-0.041,0.202-0.077,0.302-0.121c0.54-0.227,1.072-0.468,1.598-0.722c0.016-0.008,0.031-0.015,0.048-0.022l0.003-0.004
	c8.807-4.29,15.437-12.344,17.807-22.068l0.012-0.015C130.45,383.312,130.475,383.161,130.509,383.012z"/>
<circle style="fill:#7C7A75;" cx="380.426" cy="375.555" r="75.01"/>
<path style="fill:#CCC3A8;" d="M412.92,383.012c0.088-0.383,0.171-0.769,0.246-1.156c0.044-0.231,0.085-0.465,0.124-0.701
	c0.066-0.381,0.122-0.765,0.174-1.151c0.03-0.232,0.061-0.465,0.087-0.698c0.048-0.418,0.083-0.837,0.114-1.258
	c0.016-0.203,0.035-0.403,0.047-0.607c0.035-0.626,0.056-1.254,0.056-1.887c0-1.15-0.058-2.287-0.172-3.409
	c-1.25-12.326-9.22-22.668-20.188-27.307c-3.988-1.687-8.373-2.62-12.975-2.62h-0.001h-0.001c-4.603,0-8.987,0.933-12.975,2.62
	c-10.968,4.638-18.938,14.981-20.188,27.307c-0.115,1.122-0.172,2.259-0.172,3.409c0,0.634,0.021,1.263,0.056,1.887
	c0.012,0.203,0.031,0.403,0.047,0.607c0.03,0.421,0.066,0.84,0.114,1.258c0.026,0.234,0.057,0.466,0.087,0.698
	c0.053,0.387,0.109,0.77,0.174,1.151c0.039,0.236,0.08,0.469,0.124,0.701c0.074,0.389,0.158,0.773,0.246,1.156
	c0.034,0.149,0.058,0.299,0.095,0.446l0.011,0.015c2.37,9.725,9.001,17.779,17.808,22.068l0.003,0.004
	c0.017,0.008,0.032,0.015,0.048,0.022c0.525,0.255,1.056,0.495,1.597,0.722c0.102,0.044,0.204,0.079,0.306,0.121
	c0.437,0.179,0.875,0.352,1.321,0.512c0.191,0.069,0.387,0.131,0.579,0.197c0.362,0.122,0.724,0.242,1.091,0.353
	c0.221,0.066,0.445,0.126,0.669,0.19c0.345,0.096,0.692,0.188,1.044,0.274c0.235,0.058,0.472,0.112,0.708,0.163
	c0.348,0.076,0.696,0.147,1.047,0.212c0.24,0.045,0.48,0.089,0.721,0.129c0.361,0.059,0.725,0.109,1.092,0.158
	c0.234,0.03,0.466,0.064,0.701,0.089c0.4,0.044,0.807,0.074,1.21,0.105c0.203,0.015,0.401,0.035,0.604,0.046
	c0.607,0.032,1.216,0.053,1.83,0.053c0.003,0,0.006,0,0.006,0h0.003h0.001c0.002,0,0.004,0,0.004,0c0.618,0,1.227-0.02,1.834-0.053
	c0.203-0.011,0.401-0.031,0.604-0.046c0.403-0.03,0.81-0.061,1.21-0.105c0.235-0.026,0.467-0.059,0.701-0.089
	c0.365-0.048,0.73-0.098,1.092-0.158c0.241-0.039,0.482-0.084,0.721-0.129c0.351-0.066,0.699-0.136,1.047-0.212
	c0.237-0.053,0.474-0.106,0.708-0.163c0.351-0.086,0.698-0.178,1.044-0.274c0.223-0.064,0.447-0.124,0.669-0.19
	c0.367-0.112,0.727-0.231,1.091-0.353c0.192-0.066,0.388-0.127,0.578-0.197c0.447-0.162,0.886-0.334,1.325-0.513
	c0.099-0.041,0.203-0.077,0.302-0.121c0.54-0.227,1.072-0.468,1.598-0.722c0.016-0.008,0.031-0.015,0.048-0.022l0.003-0.004
	c8.807-4.29,15.437-12.344,17.808-22.068l0.011-0.015C412.862,383.312,412.887,383.161,412.92,383.012z"/>
<path style="fill:#6B6861;" d="M45.357,375.555c0-37.631,27.711-68.783,63.838-74.179c-3.647-0.544-7.377-0.832-11.174-0.832
	c-41.426,0-75.011,33.583-75.011,75.011c0,41.426,33.585,75.009,75.011,75.009c3.797,0,7.527-0.288,11.174-0.832
	C73.068,444.336,45.357,413.184,45.357,375.555z"/>
<path style="fill:#C9B585;" d="M109.065,406.923c-0.445-0.16-0.884-0.333-1.321-0.512c-0.103-0.041-0.206-0.077-0.306-0.121
	c-0.54-0.227-1.072-0.468-1.597-0.722c-0.016-0.008-0.031-0.015-0.048-0.022l-0.003-0.004c-8.807-4.29-15.438-12.344-17.808-22.068
	l-0.011-0.015c-0.037-0.147-0.061-0.298-0.095-0.446c-0.088-0.383-0.171-0.769-0.246-1.156c-0.044-0.231-0.085-0.465-0.124-0.701
	c-0.066-0.381-0.122-0.765-0.174-1.151c-0.03-0.232-0.061-0.465-0.088-0.698c-0.047-0.418-0.082-0.837-0.113-1.258
	c-0.016-0.203-0.035-0.403-0.047-0.607c-0.035-0.626-0.056-1.254-0.056-1.887c0-1.15,0.058-2.287,0.172-3.409
	c1.25-12.326,9.22-22.668,20.188-27.307c0.591-0.25,1.194-0.478,1.802-0.695c-3.493-1.243-7.253-1.925-11.173-1.925h-0.001h-0.001
	c-4.603,0-8.987,0.933-12.975,2.62c-10.968,4.638-18.938,14.981-20.188,27.307c-0.115,1.122-0.172,2.259-0.172,3.409
	c0,0.634,0.021,1.263,0.056,1.887c0.012,0.203,0.031,0.403,0.047,0.607c0.03,0.421,0.066,0.84,0.113,1.258
	c0.027,0.234,0.058,0.466,0.088,0.698c0.053,0.387,0.11,0.77,0.174,1.151c0.039,0.236,0.08,0.469,0.124,0.701
	c0.074,0.389,0.158,0.773,0.246,1.156c0.034,0.149,0.058,0.299,0.095,0.446l0.011,0.015c2.37,9.725,9.001,17.779,17.808,22.068
	l0.003,0.004c0.017,0.008,0.032,0.015,0.048,0.022c0.525,0.255,1.056,0.495,1.597,0.722c0.102,0.044,0.204,0.079,0.306,0.121
	c0.437,0.179,0.875,0.352,1.321,0.512c0.191,0.069,0.386,0.131,0.579,0.197c0.362,0.122,0.723,0.242,1.091,0.353
	c0.221,0.066,0.445,0.126,0.669,0.19c0.345,0.096,0.692,0.188,1.044,0.274c0.235,0.058,0.472,0.112,0.708,0.163
	c0.348,0.076,0.696,0.147,1.047,0.212c0.24,0.045,0.48,0.089,0.722,0.129c0.361,0.059,0.725,0.109,1.092,0.158
	c0.234,0.03,0.466,0.064,0.701,0.089c0.4,0.044,0.807,0.074,1.21,0.105c0.203,0.015,0.401,0.035,0.605,0.046
	c0.607,0.032,1.216,0.053,1.83,0.053c0.003,0,0.006,0,0.006,0h0.003h0.001h0.008c0.615,0,1.224-0.02,1.83-0.053
	c0.203-0.011,0.401-0.031,0.605-0.046c0.403-0.03,0.81-0.061,1.21-0.105c0.235-0.026,0.467-0.059,0.701-0.089
	c0.365-0.048,0.73-0.098,1.092-0.158c0.241-0.039,0.482-0.084,0.721-0.129c0.351-0.066,0.699-0.136,1.047-0.212
	c0.237-0.053,0.474-0.106,0.708-0.163c0.351-0.086,0.698-0.178,1.044-0.274c0.223-0.064,0.447-0.124,0.669-0.19
	c0.367-0.112,0.727-0.231,1.091-0.353c0.15-0.051,0.302-0.102,0.45-0.153C109.151,406.951,109.107,406.938,109.065,406.923z"/>
<path style="fill:#6B6861;" d="M327.768,375.555c0-37.631,27.711-68.783,63.838-74.179c-3.647-0.544-7.377-0.832-11.174-0.832
	c-41.426,0-75.011,33.583-75.011,75.011c0,41.426,33.585,75.009,75.011,75.009c3.797,0,7.527-0.288,11.174-0.832
	C355.479,444.336,327.768,413.184,327.768,375.555z"/>
<path style="fill:#C9B585;" d="M391.477,406.923c-0.445-0.16-0.884-0.333-1.321-0.512c-0.103-0.041-0.206-0.077-0.306-0.121
	c-0.54-0.227-1.072-0.468-1.597-0.722c-0.016-0.008-0.031-0.015-0.048-0.022l-0.003-0.004c-8.807-4.29-15.438-12.344-17.808-22.068
	l-0.011-0.015c-0.037-0.147-0.061-0.298-0.095-0.446c-0.088-0.383-0.171-0.769-0.246-1.156c-0.044-0.231-0.085-0.465-0.124-0.701
	c-0.066-0.381-0.122-0.765-0.174-1.151c-0.03-0.232-0.061-0.465-0.087-0.698c-0.048-0.418-0.083-0.837-0.114-1.258
	c-0.016-0.203-0.035-0.403-0.047-0.607c-0.035-0.626-0.056-1.254-0.056-1.887c0-1.15,0.058-2.287,0.172-3.409
	c1.25-12.326,9.22-22.668,20.188-27.307c0.591-0.25,1.194-0.478,1.802-0.695c-3.493-1.243-7.253-1.925-11.173-1.925h-0.001h-0.001
	c-4.603,0-8.987,0.933-12.975,2.62c-10.968,4.638-18.938,14.981-20.188,27.307c-0.115,1.122-0.172,2.259-0.172,3.409
	c0,0.634,0.021,1.263,0.056,1.887c0.012,0.203,0.031,0.403,0.047,0.607c0.03,0.421,0.066,0.84,0.114,1.258
	c0.026,0.234,0.057,0.466,0.087,0.698c0.053,0.387,0.109,0.77,0.174,1.151c0.039,0.236,0.08,0.469,0.124,0.701
	c0.074,0.389,0.158,0.773,0.246,1.156c0.034,0.149,0.058,0.299,0.095,0.446l0.011,0.015c2.37,9.725,9.001,17.779,17.808,22.068
	l0.003,0.004c0.017,0.008,0.032,0.015,0.048,0.022c0.525,0.255,1.056,0.495,1.597,0.722c0.102,0.044,0.204,0.079,0.306,0.121
	c0.437,0.179,0.875,0.352,1.321,0.512c0.191,0.069,0.387,0.131,0.579,0.197c0.362,0.122,0.724,0.242,1.091,0.353
	c0.221,0.066,0.445,0.126,0.669,0.19c0.345,0.096,0.692,0.188,1.044,0.274c0.235,0.058,0.472,0.112,0.708,0.163
	c0.348,0.076,0.696,0.147,1.047,0.212c0.24,0.045,0.48,0.089,0.721,0.129c0.361,0.059,0.725,0.109,1.092,0.158
	c0.234,0.03,0.466,0.064,0.701,0.089c0.4,0.044,0.807,0.074,1.21,0.105c0.203,0.015,0.401,0.035,0.604,0.046
	c0.607,0.032,1.216,0.053,1.83,0.053c0.003,0,0.006,0,0.006,0h0.003h0.001c0.002,0,0.004,0,0.004,0c0.618,0,1.227-0.02,1.834-0.053
	c0.203-0.011,0.401-0.031,0.604-0.046c0.403-0.03,0.81-0.061,1.21-0.105c0.235-0.026,0.467-0.059,0.701-0.089
	c0.365-0.048,0.73-0.098,1.092-0.158c0.241-0.039,0.482-0.084,0.721-0.129c0.351-0.066,0.699-0.136,1.047-0.212
	c0.237-0.053,0.474-0.106,0.708-0.163c0.351-0.086,0.698-0.178,1.044-0.274c0.223-0.064,0.447-0.124,0.669-0.19
	c0.367-0.112,0.727-0.231,1.091-0.353c0.151-0.051,0.299-0.102,0.45-0.153C391.562,406.951,391.519,406.938,391.477,406.923z"/>
</svg>