<?xml version="1.0" encoding="iso-8859-1"?>
<!-- Uploaded to: SVG Repo, www.svgrepo.com, Generator: SVG Repo Mixer Tools -->
<svg version="1.1" id="Layer_1" xmlns="http://www.w3.org/2000/svg" xmlns:xlink="http://www.w3.org/1999/xlink" 
	 viewBox="0 0 512 512" xml:space="preserve">
<g>
	<polygon style="fill:#9F633C;" points="396,308 396,508 372,508 372,340 372,308 	"/>
	<path style="fill:#9F633C;" d="M380.8,284c8.8,0,15.2,7.2,15.2,16v8h-24h-20h-32H140h-24v-8c0-8.8,8-16,16.8-16h3.2h20h200h24
		H380.8z"/>
</g>
<polygon style="fill:#BD8150;" points="376.8,7.6 376.8,281.6 356,281.6 356,256 356,240 356,20 316,20 300,20 264,20 248,20 
	212,20 196,20 156,20 156,240 156,256 156,281.6 136,281.6 136,7.6 "/>
<polygon style="fill:#895129;" points="372,308 372,340 140,340 140,308 320,308 352,308 "/>
<polygon style="fill:#BD8150;" points="356,240 356,256 156,256 156,240 196,240 212,240 248,240 264,240 300,240 316,240 "/>
<g>
	<rect x="300" y="20" style="fill:#895129;" width="16" height="220"/>
	<rect x="248" y="20" style="fill:#895129;" width="16" height="220"/>
	<rect x="196" y="20" style="fill:#895129;" width="16" height="217.6"/>
</g>
<polygon style="fill:#9F633C;" points="140,340 140,508 116,508 116,308 140,308 "/>
<path d="M372,312h-20c-2.4,0-4-1.6-4-4s1.6-4,4-4h20c2.4,0,4,1.6,4,4S374.4,312,372,312z"/>
<path d="M320,312H140c-2.4,0-4-1.6-4-4s1.6-4,4-4h180c2.4,0,4,1.6,4,4S322.4,312,320,312z"/>
<path d="M372,344H140c-2.4,0-4-1.6-4-4s1.6-4,4-4h232c2.4,0,4,1.6,4,4S374.4,344,372,344z"/>
<path d="M356,24H156c-2.4,0-4-1.6-4-4s1.6-4,4-4h200c2.4,0,4,1.6,4,4S358.4,24,356,24z"/>
<path d="M396,312c-2.4,0-4-1.6-4-4v-8c0-6.8-4.8-12-11.2-12h-248c-6.8,0-12.8,5.6-12.8,12v8c0,2.4-1.6,4-4,4s-4-1.6-4-4v-8
	c0-10.8,9.6-20,20.8-20h248c10.8,0,19.2,8.8,19.2,20v8C400,310.4,398.4,312,396,312z"/>
<path d="M140,512h-24c-2.4,0-4-1.6-4-4V308c0-2.4,1.6-4,4-4s4,1.6,4,4v196h16V308c0-2.4,1.6-4,4-4s4,1.6,4,4v200
	C144,510.4,142.4,512,140,512z"/>
<path d="M396,512h-24c-2.4,0-4-1.6-4-4V308c0-2.4,1.6-4,4-4s4,1.6,4,4v196h16V308c0-2.4,1.6-4,4-4s4,1.6,4,4v200
	C400,510.4,398.4,512,396,512z"/>
<path d="M380,288c-2.4,0-4-1.6-4-4V8H136v276c0,2.4-1.6,4-4,4s-4-1.6-4-4V4c0-2.4,1.6-4,4-4h248c2.4,0,4,1.6,4,4v280
	C384,286.4,382.4,288,380,288z"/>
<path d="M156,288c-2.4,0-4-1.6-4-4V20c0-2.4,1.6-4,4-4s4,1.6,4,4v264C160,286.4,158.4,288,156,288z"/>
<path d="M356,288c-2.4,0-4-1.6-4-4V20c0-2.4,1.6-4,4-4s4,1.6,4,4v264C360,286.4,358.4,288,356,288z"/>
<path d="M356,260H156c-2.4,0-4-1.6-4-4s1.6-4,4-4h200c2.4,0,4,1.6,4,4S358.4,260,356,260z"/>
<path d="M356,244H156c-2.4,0-4-1.6-4-4s1.6-4,4-4h200c2.4,0,4,1.6,4,4S358.4,244,356,244z"/>
<path d="M196,244c-2.4,0-4-1.6-4-4V20c0-2.4,1.6-4,4-4s4,1.6,4,4v220C200,242.4,198.4,244,196,244z"/>
<path d="M212,244c-2.4,0-4-1.6-4-4V20c0-2.4,1.6-4,4-4s4,1.6,4,4v220C216,242.4,214.4,244,212,244z"/>
<path d="M248,244c-2.4,0-4-1.6-4-4V20c0-2.4,1.6-4,4-4s4,1.6,4,4v220C252,242.4,250.4,244,248,244z"/>
<path d="M264,244c-2.4,0-4-1.6-4-4V20c0-2.4,1.6-4,4-4s4,1.6,4,4v220C268,242.4,266.4,244,264,244z"/>
<path d="M300,244c-2.4,0-4-1.6-4-4V20c0-2.4,1.6-4,4-4s4,1.6,4,4v220C304,242.4,302.4,244,300,244z"/>
<path d="M316,244c-2.4,0-4-1.6-4-4V20c0-2.4,1.6-4,4-4s4,1.6,4,4v220C320,242.4,318.4,244,316,244z"/>
<rect x="372" y="304" width="24" height="8"/>
<rect x="116" y="304" width="24" height="8"/>
</svg>