<?xml version="1.0" encoding="utf-8"?>
<!-- Uploaded to: SVG Repo, www.svgrepo.com, Generator: SVG Repo Mixer Tools -->
<svg width="800px" height="800px" viewBox="0 0 1024 1024" class="icon"  version="1.1" xmlns="http://www.w3.org/2000/svg"><path d="M768 544V64a64 64 0 0 0-64-64H320a64 64 0 0 0-64 64v480h512z" fill="#84BF56" /><path d="M256 512h512v32H256z" fill="" /><path d="M608 160m-32 0a32 32 0 1 0 64 0 32 32 0 1 0-64 0Z" fill="" /><path d="M512 288m-32 0a32 32 0 1 0 64 0 32 32 0 1 0-64 0Z" fill="" /><path d="M416 160m-32 0a32 32 0 1 0 64 0 32 32 0 1 0-64 0Z" fill="" /><path d="M608 416m-32 0a32 32 0 1 0 64 0 32 32 0 1 0-64 0Z" fill="" /><path d="M416 416m-32 0a32 32 0 1 0 64 0 32 32 0 1 0-64 0Z" fill="" /><path d="M256 992a32 32 0 1 0 64 0V672H256v320zM704 672v320a32 32 0 1 0 64 0V672h-64z" fill="#434854" /><path d="M832 640a32 32 0 0 1-32 32H224a32 32 0 0 1-32-32v-64a32 32 0 0 1 32-32h576a32 32 0 0 1 32 32v64z" fill="#84BF56" /><path d="M800 544H224a32 32 0 0 0-32 32v32a32 32 0 0 1 32-32h576a32 32 0 0 1 32 32v-32a32 32 0 0 0-32-32z" fill="#FFFFFF" /><path d="M704 672h64v32h-64zM256 672h64v32H256z" fill="" /></svg>