<?xml version="1.0" encoding="iso-8859-1"?>
<!-- Uploaded to: SVG Repo, www.svgrepo.com, Generator: SVG Repo Mixer Tools -->
<svg height="800px" width="800px" version="1.1" id="Layer_1" xmlns="http://www.w3.org/2000/svg" xmlns:xlink="http://www.w3.org/1999/xlink" 
	 viewBox="0 0 512.001 512.001" xml:space="preserve">
<path style="fill:#FFB655;" d="M490.058,402.28h-16.091L363.123,194.474c-0.006-0.012-0.012-0.02-0.018-0.029
	c-0.335-0.625-0.698-1.223-1.08-1.799c-0.023-0.034-0.039-0.072-0.063-0.102c-0.398-0.592-0.824-1.159-1.27-1.7
	c-0.393-0.477-0.815-0.929-1.246-1.372c-0.061-0.063-0.116-0.132-0.178-0.195c-0.388-0.388-0.8-0.749-1.214-1.106
	c-0.126-0.105-0.241-0.222-0.369-0.328c-0.347-0.287-0.717-0.546-1.082-0.81c-0.216-0.157-0.426-0.326-0.647-0.474
	c-0.281-0.189-0.579-0.351-0.87-0.528c-0.326-0.197-0.648-0.402-0.983-0.582c-0.199-0.105-0.407-0.192-0.609-0.291
	c-0.443-0.219-0.884-0.44-1.337-0.629c-0.111-0.045-0.228-0.08-0.339-0.123c-0.549-0.216-1.102-0.424-1.666-0.597
	c-0.032-0.009-0.067-0.015-0.099-0.026c-0.746-0.222-1.505-0.396-2.272-0.54c-0.584-0.108-1.172-0.211-1.771-0.272
	c-0.023-0.003-0.048-0.001-0.072-0.003c-0.708-0.072-1.426-0.108-2.152-0.108c-0.009,0-0.016-0.003-0.025-0.003h-58.513h-66.105
	L173.699,78.979c-3.495-7.987-11.384-13.148-20.102-13.148H21.942C9.824,65.831,0,75.657,0,87.773v117.025v117.025
	c0,7,3.29,13.219,8.392,17.236c3.56-6.76,8.142-12.896,13.55-18.205c13.192-12.949,31.244-20.958,51.143-20.974
	c0.019,0,0.037,0,0.056,0h160.908c0.019,0,0.037,0,0.057,0c10.379,0.009,20.251,2.203,29.201,6.126
	c8.206,3.597,15.633,8.654,21.942,14.848c5.407,5.309,9.99,11.445,13.55,18.205c5.348,10.156,8.392,21.708,8.392,33.962
	c0,10.399-2.196,20.291-6.126,29.256c-3.597,8.208-8.655,15.633-14.849,21.942c-5.306,5.407-11.444,9.988-18.203,13.55
	c0,0-0.001,0.001-0.003,0.001c4.018,5.102,10.238,8.391,17.236,8.391h0.003h175.443c0.042,0,0.086,0.006,0.129,0.006
	c0.048,0,0.095-0.006,0.143-0.006h29.095c12.118,0,21.942-9.823,21.942-21.942C512,412.106,502.176,402.28,490.058,402.28z"/>
<polygon style="fill:#FFFFFF;" points="43.884,109.717 43.884,182.858 171.243,182.858 139.244,109.717 "/>
<path style="fill:#87868D;" d="M234.078,343.767c-0.01,0-0.02,0-0.029,0H73.141c-0.01,0-0.019,0-0.029,0
	c-16.119,0.018-29.227,13.135-29.227,29.256c0,16.133,13.124,29.256,29.256,29.256h160.908c16.132,0,29.258-13.123,29.258-29.256
	C263.307,356.902,250.197,343.785,234.078,343.767z"/>
<path style="fill:#57565C;" d="M286.216,424.222c6.194-6.309,11.252-13.734,14.849-21.942c3.929-8.966,6.126-18.857,6.126-29.256
	c0-12.254-3.044-23.804-8.392-33.962c-3.561-6.76-8.142-12.896-13.55-18.205c-6.311-6.194-13.736-11.251-21.942-14.848
	c-8.95-3.923-18.822-6.117-29.201-6.126c-0.02,0-0.038,0-0.057,0H73.141c-0.019,0-0.037,0-0.056,0
	c-19.897,0.016-37.951,8.025-51.143,20.974c-5.407,5.309-9.99,11.445-13.55,18.205C3.044,349.219,0,360.77,0,373.024
	c0,40.33,32.811,73.141,73.141,73.141h160.908c12.254,0,23.806-3.043,33.961-8.391c0.001,0,0.001,0,0.001,0
	C274.772,434.21,280.91,429.629,286.216,424.222z M234.049,402.28H73.141c-16.132,0-29.256-13.123-29.256-29.256
	c0-16.122,13.11-29.239,29.227-29.256c0.01,0,0.019,0,0.029,0h160.908c0.009,0,0.019,0,0.029,0
	c16.12,0.018,29.229,13.135,29.229,29.256C263.307,389.157,250.181,402.28,234.049,402.28z"/>
<path style="fill:#AA6100;" d="M21.942,182.858h21.942v-73.141h95.359l31.999,73.141h23.951h23.949L173.698,78.98
	c-3.495-7.987-11.384-13.148-20.102-13.148H21.942C9.824,65.833,0,75.658,0,87.775V204.8C0,192.684,9.824,182.858,21.942,182.858z"
	/>
<path style="fill:#EE8700;" d="M490.058,402.28h-16.091L363.123,194.474c-0.006-0.012-0.012-0.02-0.018-0.029
	c-0.335-0.625-0.698-1.223-1.08-1.799c-0.023-0.034-0.039-0.072-0.063-0.102c-0.398-0.592-0.824-1.159-1.27-1.7
	c-0.393-0.477-0.815-0.929-1.246-1.372c-0.061-0.063-0.116-0.132-0.178-0.195c-0.388-0.388-0.8-0.749-1.214-1.106
	c-0.126-0.105-0.241-0.222-0.369-0.328c-0.347-0.287-0.717-0.546-1.082-0.81c-0.216-0.157-0.426-0.326-0.647-0.474
	c-0.281-0.189-0.579-0.351-0.87-0.528c-0.326-0.197-0.648-0.402-0.983-0.582c-0.199-0.105-0.407-0.192-0.609-0.291
	c-0.443-0.219-0.884-0.44-1.337-0.629c-0.111-0.045-0.228-0.08-0.339-0.123c-0.549-0.216-1.102-0.424-1.666-0.597
	c-0.032-0.009-0.067-0.015-0.099-0.025c-0.746-0.222-1.505-0.396-2.272-0.54c-0.584-0.108-1.172-0.211-1.771-0.272
	c-0.023-0.003-0.048-0.001-0.072-0.003c-0.708-0.072-1.426-0.108-2.152-0.108c-0.009,0-0.016-0.003-0.025-0.003h-58.513
	c-12.118,0-21.942,9.826-21.942,21.942v21.942v73.141v6.126c8.206,3.597,15.632,8.654,21.942,14.848
	c5.407,5.309,9.99,11.445,13.55,18.205c5.348,10.156,8.392,21.708,8.392,33.962c0,10.399-2.196,20.291-6.126,29.256
	c-3.597,8.208-8.655,15.633-14.849,21.942c-5.306,5.407-11.444,9.988-18.203,13.55c0,0-0.001,0.001-0.003,0.001
	c4.018,5.102,10.238,8.391,17.236,8.391h0.003h175.443c0.042,0,0.086,0.006,0.129,0.006c0.048,0,0.095-0.006,0.143-0.006h29.095
	c12.118,0,21.942-9.823,21.942-21.942C512,412.106,502.176,402.28,490.058,402.28z"/>
</svg>