<?xml version="1.0" encoding="iso-8859-1"?>
<!-- Uploaded to: SVG Repo, www.svgrepo.com, Generator: SVG Repo Mixer Tools -->
<svg version="1.1" id="Layer_1" xmlns="http://www.w3.org/2000/svg" xmlns:xlink="http://www.w3.org/1999/xlink" 
	 viewBox="0 0 511.997 511.997" xml:space="preserve">
<g>
	<path style="fill:#434A54;" d="M42.664,410.65c0,5.906-4.773,10.688-10.664,10.688s-10.672-4.781-10.672-10.688
		c0-5.875,4.781-10.656,10.672-10.656S42.664,404.775,42.664,410.65z"/>
	<path style="fill:#434A54;" d="M490.653,410.65c0,5.906-4.766,10.688-10.656,10.688s-10.672-4.781-10.672-10.688
		c0-5.875,4.781-10.656,10.672-10.656S490.653,404.775,490.653,410.65z"/>
</g>
<path style="fill:#E6E9ED;" d="M511.997,399.994c0,5.906-4.781,10.656-10.672,10.656H10.664C4.773,410.65,0,405.9,0,399.994V101.332
	C0,95.441,4.773,90.66,10.664,90.66h490.661c5.891,0,10.672,4.781,10.672,10.672L511.997,399.994L511.997,399.994z"/>
<g>
	<rect x="362.649" y="90.659" style="fill:#CCD1D9;" width="21.344" height="319.99"/>
	<rect x="373.329" y="175.999" style="fill:#CCD1D9;" width="128.19" height="21.328"/>
	<path style="fill:#CCD1D9;" d="M458.653,346.651h-42.656c-5.891,0-10.672,4.781-10.672,10.688c0,5.875,4.781,10.656,10.672,10.656
		h42.656c5.906,0,10.672-4.781,10.672-10.656C469.325,351.433,464.56,346.651,458.653,346.651z"/>
</g>
<g>
	<path style="fill:#434A54;" d="M415.997,240.003c5.891,0,10.656-4.781,10.656-10.672s-4.766-10.672-10.656-10.672
		s-10.672,4.781-10.672,10.672S410.106,240.003,415.997,240.003z"/>
	<path style="fill:#434A54;" d="M458.653,240.003c5.906,0,10.672-4.781,10.672-10.672s-4.766-10.672-10.672-10.672
		c-5.875,0-10.656,4.781-10.656,10.672S452.778,240.003,458.653,240.003z"/>
	<path style="fill:#434A54;" d="M415.997,282.651c5.891,0,10.656-4.75,10.656-10.656c0-5.883-4.766-10.664-10.656-10.664
		s-10.672,4.781-10.672,10.664C405.325,277.901,410.106,282.651,415.997,282.651z"/>
	<path style="fill:#434A54;" d="M458.653,261.331c-5.875,0-10.656,4.781-10.656,10.664c0,5.906,4.781,10.656,10.656,10.656
		c5.906,0,10.672-4.75,10.672-10.656C469.325,266.112,464.56,261.331,458.653,261.331z"/>
	<path style="fill:#434A54;" d="M415.997,325.339c5.891,0,10.656-4.781,10.656-10.688c0-5.875-4.766-10.656-10.656-10.656
		s-10.672,4.781-10.672,10.656C405.325,320.558,410.106,325.339,415.997,325.339z"/>
	<path style="fill:#434A54;" d="M458.653,303.995c-5.875,0-10.656,4.781-10.656,10.656c0,5.906,4.781,10.688,10.656,10.688
		c5.906,0,10.672-4.781,10.672-10.688C469.325,308.776,464.56,303.995,458.653,303.995z"/>
</g>
<rect x="53.329" y="143.999" style="fill:#5D9CEC;" width="266.67" height="213.34"/>
<path style="fill:#4A89DC;" d="M42.664,133.332v234.663h287.991V133.332H42.664z M309.327,346.651H64V154.66h245.327V346.651z"/>
<path style="fill:#CCD1D9;" d="M362.653,176.003c-5.875,0-10.656,4.766-10.656,10.656v127.992c0,5.906,4.781,10.688,10.656,10.688
	c5.906,0,10.672-4.781,10.672-10.688V186.66C373.325,180.769,368.56,176.003,362.653,176.003z"/>
<polygon style="opacity:0.1;fill:#FFFFFF;enable-background:new    ;" points="189.327,346.651 127.999,346.651 191.999,154.66 
	253.327,154.66 "/>
<path style="fill:#CCD1D9;" d="M501.325,90.66H10.664C4.773,90.66,0,95.441,0,101.332v298.662c0,5.906,4.773,10.656,10.664,10.656
	h490.661c5.891,0,10.672-4.75,10.672-10.656V101.332C511.997,95.441,507.216,90.66,501.325,90.66z M490.653,389.339H21.328V112.004
	h469.325L490.653,389.339L490.653,389.339z"/>
<rect x="383.999" y="111.999" style="fill:#5D9CEC;" width="106.66" height="64"/>
</svg>