<?xml version="1.0" encoding="iso-8859-1"?>
<!-- Uploaded to: SVG Repo, www.svgrepo.com, Generator: SVG Repo Mixer Tools -->
<svg height="800px" width="800px" version="1.1" id="Layer_1" xmlns="http://www.w3.org/2000/svg" xmlns:xlink="http://www.w3.org/1999/xlink" 
	 viewBox="0 0 512 512" xml:space="preserve">
<path style="fill:#D5DCED;" d="M387.329,315.859l-3.053,68.412l112.711-15.5v-26.256
	C485.595,304.298,430.086,315.859,387.329,315.859z"/>
<path style="fill:#FF507D;" d="M166,95.727c-2.619-6.497-8.875-10.758-15.88-10.758H42.132c-4.691,0-8.463,3.769-8.548,8.459
	c-1.261,69.511-17.023,192.334-17.023,290.845l370.768-8.552v-59.861C246.242,272.128,181.92,135.211,166,95.727z"/>
<path style="fill:#FF6991;" d="M166,95.727c-2.619-6.497-8.875-10.758-15.88-10.758h-33.124
	c41.934,124.159,136.457,224.064,269.15,276.32l1.182,1.303v-46.733C246.242,272.128,181.92,135.211,166,95.727z"/>
<circle style="fill:#FFDC64;" cx="110.624" cy="255.999" r="51.309"/>
<circle style="fill:#FFC850;" cx="110.624" cy="255.999" r="25.655"/>
<path style="fill:#D23C69;" d="M206.89,349.046L17.749,333.635c-0.728,17.301-1.189,34.318-1.189,50.638l230.891-6.169
	L228.3,358.953C222.564,353.215,214.975,349.704,206.89,349.046z"/>
<path style="fill:#E4EAF8;" d="M503.658,375.863l-6.671-33.348c-0.831,0.167-78.747,33.204-143.864,33.204H16.56
	c-4.723,0-8.552,3.829-8.552,8.551v25.655c0,9.445,7.658,17.103,17.103,17.103h328.01c51.716,0,108.891-26.009,136.804-30.977
	C499.373,394.371,505.54,385.272,503.658,375.863z"/>
<path d="M511.528,374.291l-6.671-33.348c-0.03-0.146-0.213-0.818-0.224-0.855c-11.124-36.949-54.483-34.879-92.75-33.047
	c-8.17,0.39-15.899,0.75-23.327,0.788c-10.82-3.405-21.174-7.374-31.079-11.814c0.819-3.369-0.624-7.01-3.78-8.832
	c-3.515-2.031-7.922-1.088-10.338,2.035c-7.452-3.839-14.628-7.94-21.538-12.265c2.023-3.416,1.251-7.883-1.961-10.392
	c-3.49-2.726-8.529-2.107-11.253,1.383l-0.128,0.165c-7.077-4.961-13.847-10.144-20.318-15.495c1.855-3.082,1.462-7.137-1.196-9.795
	c-2.935-2.936-7.583-3.118-10.731-0.548c-6.646-6.04-12.951-12.232-18.908-18.514c3.294-2.868,3.695-7.857,0.869-11.209
	c-2.852-3.385-7.91-3.817-11.297-0.963l-0.358,0.301c-5.489-6.302-10.644-12.643-15.492-18.954c1.942-2.317,2.491-5.635,1.123-8.553
	c-1.836-3.917-6.432-5.643-10.38-3.971c-5.612-7.895-10.728-15.663-15.372-23.166c3.033-2.192,4.203-6.286,2.59-9.821
	c-1.839-4.029-6.594-5.803-10.622-3.965l-0.134,0.061c-5.317-9.312-9.849-18.014-13.636-25.783c3.555-1.844,5.253-6.092,3.806-9.933
	c-1.561-4.144-6.188-6.237-10.328-4.678l-0.222,0.083c-1.747-3.964-3.222-7.488-4.426-10.477
	c-3.864-9.583-13.016-15.776-23.316-15.776H42.139c-8.969,0-16.401,7.325-16.563,16.329c-0.533,29.386-3.749,67.648-7.153,108.156
	C13.956,254.58,8.93,314.552,8.585,369.764C3.473,372.586,0,378.029,0,384.271v25.655c0,13.851,11.269,25.12,25.12,25.12h328.01
	c53.397,0,113.772-22.048,139.553-31.463C506.454,398.554,514.026,386.782,511.528,374.291z M412.649,323.057
	c37.303-1.784,63.537-1.617,73.689,15.013c-37.218,14.314-67.886,21.792-90.984,25.655v-39.972
	C401.084,323.601,406.928,323.33,412.649,323.057z M487.184,388.522c-24.984,9.124-83.493,30.49-134.053,30.49H25.12
	c-5.01,0-9.086-4.076-9.086-9.086v-25.655c0-0.295,0.239-0.534,0.534-0.534H42.22c4.428,0,8.017-3.59,8.017-8.017
	c0-4.428-3.589-8.017-8.017-8.017H24.63c0.458-54.003,5.386-112.772,9.769-164.923c3.427-40.778,6.664-79.295,7.207-109.207
	c0.005-0.335,0.234-0.587,0.532-0.587h67.1c1.487,4.109,4.224,11.314,8.338,20.808c1.311,3.024,4.262,4.832,7.361,4.832
	c1.064,0,2.144-0.213,3.183-0.663c4.062-1.761,5.929-6.481,4.169-10.544c-2.512-5.796-4.473-10.664-5.929-14.433h23.767
	c3.724,0,7.039,2.252,8.445,5.739c1.176,2.915,2.602,6.326,4.273,10.136l-7.467,2.811c-4.143,1.56-6.238,6.184-4.678,10.328
	c1.21,3.213,4.262,5.194,7.504,5.194c0.939,0,1.893-0.166,2.824-0.516l8.553-3.22c3.885,8.025,8.552,17.046,14.047,26.731
	l-7.324,3.343c-4.029,1.839-5.803,6.594-3.965,10.622c1.346,2.949,4.255,4.691,7.299,4.691c1.114,0,2.245-0.233,3.323-0.726
	l8.865-4.046c4.614,7.514,9.68,15.295,15.238,23.221l-7.532,3.531c-4.009,1.879-5.735,6.653-3.856,10.663
	c1.364,2.909,4.251,4.616,7.265,4.616c1.139,0,2.297-0.245,3.398-0.76l10.354-4.854c5.47,7.214,11.341,14.479,17.621,21.701
	l-5.975,5.036c-3.385,2.853-3.817,7.911-0.963,11.297c1.585,1.881,3.852,2.851,6.135,2.851c1.825,0,3.658-0.619,5.163-1.887
	l6.41-5.402c6.234,6.607,12.821,13.132,19.786,19.495l-6.403,6.403c-3.131,3.131-3.131,8.207,0,11.337
	c1.565,1.566,3.617,2.348,5.669,2.348c2.051,0,4.104-0.782,5.669-2.348l7.178-7.179c6.879,5.735,14.078,11.295,21.621,16.615
	l-4.935,6.318c-2.726,3.49-2.106,8.528,1.383,11.253c1.466,1.145,3.204,1.7,4.929,1.7c2.384,0,4.744-1.058,6.324-3.083l5.668-7.256
	c7.459,4.724,15.216,9.209,23.289,13.397l-4.65,8.053c-2.214,3.834-0.9,8.738,2.934,10.951c1.262,0.729,2.641,1.075,4.001,1.075
	c2.771,0,5.465-1.439,6.95-4.01l5.226-9.052c9.47,4.296,19.325,8.197,29.6,11.604v28.939
	c-106.002-35.9-173.339-114.976-211.467-175.876c-2.35-3.752-7.296-4.889-11.05-2.541c-3.753,2.35-4.89,7.297-2.541,11.05
	c39.729,63.456,110.169,145.981,221.599,183.117c-10.025,1.047-17.667,1.307-22.731,1.307H76.429c-4.428,0-8.017,3.59-8.017,8.017
	c0,4.428,3.589,8.017,8.017,8.017H353.13c50.899,0,108.971-19.31,137.874-30.292l4.8,23.991
	C497.212,384.476,488.87,387.906,487.184,388.522z"/>
<path d="M137.791,155.109c1.455,2.67,4.206,4.183,7.048,4.183c1.296,0,2.61-0.314,3.829-0.979c3.888-2.119,5.322-6.988,3.205-10.875
	c-2.652-4.868-5.254-9.83-7.733-14.749c-1.991-3.954-6.813-5.544-10.767-3.552c-3.954,1.992-5.545,6.813-3.552,10.767
	C132.376,144.976,135.058,150.091,137.791,155.109z"/>
<path d="M110.635,315.325c32.713,0,59.326-26.613,59.326-59.326s-26.613-59.326-59.326-59.326s-59.326,26.613-59.326,59.326
	S77.922,315.325,110.635,315.325z M110.635,212.707c23.872,0,43.292,19.42,43.292,43.292c0,23.872-19.42,43.292-43.292,43.292
	s-43.292-19.422-43.292-43.292S86.764,212.707,110.635,212.707z"/>
</svg>