<?xml version="1.0" encoding="utf-8"?><!-- Uploaded to: SVG Repo, www.svgrepo.com, Generator: SVG Repo Mixer Tools -->
<svg fill="#000000" width="800px" height="800px" viewBox="0 0 24 24" id="sofa" data-name="Flat Color" xmlns="http://www.w3.org/2000/svg" class="icon flat-color"><path id="secondary" d="M6,4H18a2,2,0,0,1,2,2v9H4V6A2,2,0,0,1,6,4ZM20,19V16a1,1,0,0,0-2,0v3a1,1,0,0,0,2,0ZM6,19V16a1,1,0,0,0-2,0v3a1,1,0,0,0,2,0Z" style="fill: rgb(44, 169, 188);"></path><path id="primary" d="M22,11v4a2,2,0,0,1-2,2H4a2,2,0,0,1-2-2V11A2,2,0,0,1,4.34,9,2.07,2.07,0,0,1,6,11.11V13H18V11.11A2.07,2.07,0,0,1,19.66,9,2,2,0,0,1,22,11Z" style="fill: rgb(0, 0, 0);"></path></svg>