<?xml version="1.0" encoding="iso-8859-1"?>
<!-- Uploaded to: SVG Repo, www.svgrepo.com, Generator: SVG Repo Mixer Tools -->
<svg height="800px" width="800px" version="1.1" id="Layer_1" xmlns="http://www.w3.org/2000/svg" xmlns:xlink="http://www.w3.org/1999/xlink" 
	 viewBox="0 0 446.981 446.981" xml:space="preserve">
<g>
	<polyline style="fill:#F7B239;" points="393.74,241.49 53.25,241.49 56.75,220.49 390.24,220.49 393.74,241.49 	"/>
	<polyline style="fill:#A17A36;" points="390.24,220.49 361.742,220.49 365.241,241.49 393.74,241.49 390.24,220.49 	"/>
	<polyline style="fill:#F7B239;" points="431.98,317.99 406.48,317.99 393.74,241.49 380.99,164.99 406.48,164.99 431.98,317.99 	
		"/>
	<polyline style="fill:#F7B239;" points="66,164.99 40.5,317.99 15,317.99 40.5,164.99 66,164.99 	"/>
	<polygon style="fill:#F7B239;" points="440.98,128.99 440.98,164.99 406.48,164.99 380.99,164.99 66,164.99 40.5,164.99 6,164.99 
		6,128.99 	"/>
	<path style="fill:#A5A5A5;" d="M66,164.99l-4,23.999l0,0L66,164.99 M66,164.99H40.5l-4,23.999l4-23.999L66,164.99"/>
	<polyline style="fill:#A17A36;" points="66,164.99 40.5,164.99 36.501,188.99 62,188.99 66,164.99 	"/>
	<path style="fill:#A5A5A5;" d="M380.99,164.99l4,23.999L380.99,164.99 M406.48,164.99h-25.49H406.48l4,23.999h0.001L406.48,164.99"
		/>
	<polyline style="fill:#A17A36;" points="406.48,164.99 380.99,164.99 384.99,188.99 410.48,188.99 406.48,164.99 	"/>
	<path style="fill:#333333;" d="M440.98,122.99H6c-3.313,0-6,2.687-6,6v36c0,3.313,2.687,6,6,6h27.418L9.082,317.004
		c-0.29,1.74,0.2,3.519,1.34,4.865s2.814,2.122,4.578,2.122h25.5c2.933,0,5.437-2.121,5.918-5.014l11.914-71.486h330.32
		l11.909,71.486c0.482,2.893,2.985,5.014,5.919,5.014h25.5c1.764,0,3.438-0.776,4.578-2.122s1.63-3.125,1.34-4.865L413.563,170.99
		h27.418c3.313,0,6-2.687,6-6v-36C446.98,125.677,444.294,122.99,440.98,122.99z M35.417,311.99H22.083l23.5-141h13.334
		L35.417,311.99z M71.082,170.99h304.825l7.247,43.5H63.832L71.082,170.99z M60.332,235.49l1.5-9h323.321l1.499,9H60.332z
		 M411.563,311.99l-23.49-141h13.324l23.5,141H411.563z M434.98,158.99H12v-24h422.98V158.99z"/>
	<path style="fill:#FFFFFF;" d="M397.485,151.994h-208.49c-3.313,0-6-2.687-6-6s2.687-6,6-6h208.49c3.313,0,6,2.687,6,6
		S400.799,151.994,397.485,151.994z"/>
	<path style="fill:#FFFFFF;" d="M419.983,151.999c-1.58,0-3.131-0.65-4.24-1.76c-1.12-1.12-1.76-2.66-1.76-4.24
		c0-0.4,0.04-0.79,0.119-1.18c0.07-0.38,0.19-0.76,0.341-1.12c0.149-0.36,0.33-0.71,0.55-1.04c0.22-0.32,0.47-0.63,0.75-0.91
		c0.27-0.27,0.58-0.53,0.91-0.74c0.319-0.22,0.67-0.41,1.029-0.56c0.37-0.15,0.75-0.26,1.13-0.34c1.95-0.39,4.021,0.25,5.41,1.64
		c0.28,0.28,0.53,0.59,0.75,0.91c0.21,0.33,0.4,0.68,0.551,1.04c0.149,0.36,0.27,0.74,0.34,1.12c0.08,0.39,0.12,0.78,0.12,1.18
		c0,1.58-0.641,3.12-1.761,4.24C423.113,151.349,421.563,151.999,419.983,151.999z"/>
</g>
</svg>