<?xml version="1.0" encoding="utf-8"?>
<!-- Generator: Adobe Illustrator 26.0.3, SVG Export Plug-In . SVG Version: 6.00 Build 0)  -->
<svg version="1.0" id="Layer_1" xmlns="http://www.w3.org/2000/svg" xmlns:xlink="http://www.w3.org/1999/xlink" x="0px" y="0px"
	 viewBox="0 0 923.9 655.1" style="enable-background:new 0 0 923.9 655.1;" xml:space="preserve">
<style type="text/css">
	.st0{fill:#006DB2;}
	.st1{fill:none;}
</style>
<path class="st0" d="M96.9,190.6c47,0,93.9,0,140.9,0v20c-11.1,0-22.1-0.1-33.1,0c-9.6,0.3-18,9.2-17.5,18.9c0,35.7,0,71.5,0,107.2
	h-39.3c0-42,0-84.1,0-126.1h-51L96.9,190.6 M254.7,224c0.1-17.4,15.2-33.2,32.7-33.4h87.1v20c-20.8,0-41.7,0-62.5,0
	c-8.4,0-16.1,6.6-17.8,14.8c-1.2,6.9-0.7,15,4.5,20.3c3.7,4.2,9.2,6.5,14.8,6.3c20.3,0,40.6,0,61,0c0,6.7,0,13.3,0,20H294
	c0,8.8-0.1,17.6,0,26.5c0,9.6,8.7,18.2,18.2,18.3c20.8,0.1,41.6,0,62.3,0c0,6.7,0,13.3,0,20c-29.1,0-58.1,0.1-87.2,0
	c-17.3-0.3-32.2-15.7-32.6-32.8C254.5,277.2,254.6,250.6,254.7,224 M394.7,210.4c4.4-9.6,13.1-16.7,23.4-19.1
	c4.6-1.1,9.3-0.7,13.9-0.7c26.5,0,53.1,0,79.6,0v20c-20.6,0-41.1,0-61.7,0c-10.2-0.5-19.6,8.7-19.3,18.9c0,22.6,0,45.1,0,67.7
	c-0.5,10,8,19.3,18,19.5c21,0.1,42,0,63,0c0,6.7,0,13.3,0,20c-28.4,0-56.7,0-85.1,0c-18,0.9-34.6-14.8-34.9-32.8
	c-0.5-23.4-0.1-46.8-0.2-70.2C391.5,225.8,391.2,217.6,394.7,210.4 M528.6,190.6h107.5c15.6-0.1,29.9,12.4,32.6,27.7
	c0.8,4.6,0.4,9.4,0.5,14c0,34.8,0,69.6,0,104.4h-39c0-35.8,0-71.5,0-107.3c0.2-10-8.8-19.2-18.9-18.9c-14.6,0-29.2,0-43.8,0
	c0,42,0,84,0,126.1h-38.9V190.6 M711.1,191.7c4.7-1.5,9.7-1.2,14.5-1.2c23,0.1,46,0,69,0c16.9,0.3,31.8,15.3,32.3,32.2
	c0,27.1,0,54.2,0,81.3c-0.3,17-15.3,32-32.2,32.6c-23.5,0.1-47,0-70.5,0.1c-4.1,0-8.3,0-12.2-1c-14.2-3.5-25.5-17-25.6-31.8
	c0-26.7,0-53.3,0-79.9C686.2,209.2,697.1,195.6,711.1,191.7 M740,210.9c-8.3,1.9-14.9,9.9-14.7,18.5c0,22.5,0,45,0,67.6
	c-0.3,8.9,5.7,16.9,14.4,19.1c5.4,1,10.9,0.4,16.4,0.5c5.9-0.2,11.8,0.6,17.7-0.6c8.4-2,14.5-10.4,14.3-19c0-22.5,0.1-45,0-67.5
	c0.2-10.3-9.2-19.8-19.6-19C759,210.8,749.4,210,740,210.9 M598,355.4c4.5-2.6,10.6,1.2,10.2,6.4c0.2,25.8,0,51.6,0.1,77.4
	c-0.3,5.9,4.4,11,10.3,11.2c0.3,0,0.6,0,1,0c8.8,0,17.6,0.2,26.4-0.1c5.7-0.2,10-5.8,9.8-11.3c0.1-10.6,0.1-21.1,0-31.7
	c0.2-5.5-4.3-10.9-9.9-11.2c-6.4-0.6-12.8,0.3-19.1-0.4c-5.2-1-6.9-8.4-3.1-11.9c2.6-2.5,6.4-2,9.7-2.1c6,0.1,12.1-0.3,18,1
	c10.2,2.7,17.5,11.5,18.4,21.9c0.5,8.2,0,16.5,0.2,24.7c-0.1,7.4,0.7,15.5-3.2,22.2c-4.2,8.1-13.2,13-22.3,13s-18,0.2-27-0.1
	c-12.5-0.5-23.2-11.6-23.3-24.1c-0.1-25.7,0-51.4,0-77.1C593.9,360.2,595,356.7,598,355.4 M687.5,355.1c4.4-2.1,10.2,1.7,9.6,6.7
	c0,5.4,0.6,11-0.5,16.4c-2,5.6-11.2,5.5-13-0.1c-1.1-5.4-0.6-10.9-0.5-16.4C683.1,358.8,684.8,356.2,687.5,355.1 M713.8,355.6
	c4.4-3,11.3,0.8,10.6,6.2c0,24.8,0,49.7,0,74.5c0.1,3.7,0.2,7.9,3.1,10.6c2.5,2.8,6.8,3,9.4,5.6c3.5,4.2,0.2,12-5.5,11.3
	c-11.5-1.1-20.8-12.1-20.7-23.5c0-26.2,0-52.5,0-78.7C710.4,359.3,711.6,356.9,713.8,355.6 M389.1,392.1c0-5.3,4.8-9.8,9.9-10
	c5.5-0.4,12.2-1,16.4,3.3c8.4,8.2,16.6,16.6,25,24.9c8.3-8.2,16.5-16.6,24.9-24.8c4.2-4.4,10.8-3.8,16.3-3.4c5.2,0.2,10,4.8,10,10.1
	c0.2,21.1,0,42.2,0.1,63.4c0.1,2.7-0.1,5.8-2.6,7.5c-3.9,3.4-11.3,0.6-11.1-4.8c-0.2-21.8,0-43.7-0.1-65.5
	c-9.9,9.8-19.7,19.7-29.5,29.5c-4,4.6-12,4.6-16,0c-9.9-9.8-19.7-19.7-29.5-29.5c-0.1,21.9,0.1,43.7-0.1,65.5
	c0.1,5.4-7.3,8.2-11.2,4.7c-2.4-1.6-2.6-4.7-2.5-7.3C389.1,434.5,388.9,413.3,389.1,392.1 M522.2,383.2c7.5-2.1,15.3-1.2,23-1.4
	c7.2,0.1,14.9-0.7,21.6,2.5c8,3.9,14,12.4,13.9,21.5c0,11.5,0,23.1,0,34.6c0.2,12-10,22.7-21.8,23.8c-9.1,0.6-18.3,0.1-27.4,0.3
	c-9.3,0.4-18-4.3-22.8-12.2c-5.3-8.6-3-19-3.5-28.4c0.4-8.2-1.1-16.7,1.2-24.7C508.8,391.6,514.7,385.7,522.2,383.2 M526.2,396.9
	c-4.3,1.6-7.1,5.9-6.9,10.5c0,10.6,0,21.2,0,31.8c-0.3,5.8,4.8,11.4,10.7,11.2c8.7,0.1,17.4,0.1,26.2,0c5.6-0.1,10.2-4.5,10.6-10.1
	c0.3-9.6,0-19.2,0.2-28.8c0.1-4.4,0-9.5-3.7-12.5c-4.5-4.2-11.1-2.7-16.7-3C539.7,396.3,532.7,394.9,526.2,396.9 M751.5,405.8
	c0-11.6,9.5-22.2,21-23.6c11-0.7,22.1-0.7,33.1,0c11.6,1.2,21.4,12,21.4,23.7c0,5,0.2,10.1-0.2,15.1c-0.5,5.5-6.2,9.6-11.6,9
	c-10.5-0.1-21.1,0.3-31.6-0.2c-6.8-1.1-6.5-12.7,0.4-13.4c9.7-0.4,19.5,0,29.2-0.1c-0.2-5.8,1.1-12.8-3.5-17.2
	c-3.5-3.7-9.1-3.1-13.7-3.1c-6.8,0.2-13.7-0.2-20.5,0.2c-5.7,0.5-10,5.4-9.7,11.1c0,11.1-0.1,22.2,0.1,33.3c0,3.6,2.4,6.7,5.3,8.4
	c3.4,1.9,7.4,1.3,11.1,1.4c7.3-0.2,14.7,0.3,22-0.2c5.7-0.7,7.8-6.4,10-10.8c3.4-5.2,12.2-2.3,12.5,3.7c-1,11.1-11,20.5-22,21.2
	c-6.1,0.5-12.2,0.1-18.4,0.2c-5.9-0.1-12,0.5-17.8-1.3c-9.6-3.1-17-12.6-16.9-22.8C751.5,428.9,751.5,417.4,751.5,405.8
	 M686.3,396.6c4.5-3.2,11.6,0.9,10.8,6.5c0,18,0,35.9,0,53.9c0.6,5-5.2,9.2-9.8,6.9c-3.3-1.3-4.6-5-4.3-8.3c0-17,0-34.1,0-51.1
	C682.8,401.5,683.5,398.2,686.3,396.6L686.3,396.6z"/>
<path class="st1" d="M415.2,330.6v-5h-0.8v-0.8h0.8v-0.3c-0.1-0.7,0.2-1.4,0.7-2c0.4-0.4,0.9-0.6,1.4-0.5c0.3,0,0.6,0.1,0.9,0.2
	l-0.1,0.8c-0.2-0.1-0.4-0.1-0.7-0.1c-0.9,0-1.1,0.8-1.1,1.7v0.3h1.4v0.8h-1.4v5H415.2z"/>
<path class="st1" d="M418.6,326.6c0-0.7,0-1.3,0-1.8h0.9v1.1l0,0c0.2-0.7,0.9-1.2,1.6-1.3c0.1,0,0.2,0,0.3,0v1c-0.1,0-0.2,0-0.4,0
	c-0.7,0-1.3,0.6-1.4,1.4c0,0.2,0,0.3,0,0.5v3.1h-1L418.6,326.6z"/>
<path class="st1" d="M423,327.8c-0.1,1,0.7,1.9,1.7,2c0.1,0,0.2,0,0.3,0c0.5,0,1.1-0.1,1.6-0.3l0.2,0.8c-0.6,0.3-1.3,0.4-1.9,0.4
	c-1.5,0.1-2.8-1-2.9-2.5c0-0.1,0-0.3,0-0.4c0-1.8,1-3.1,2.7-3.1c1.4,0,2.4,1.1,2.4,2.5c0,0.1,0,0.2,0,0.2c0,0.2,0,0.3,0,0.5
	L423,327.8z M426,327.1c0.1-0.8-0.5-1.6-1.3-1.7c-0.1,0-0.1,0-0.2,0c-0.9,0.1-1.6,0.8-1.6,1.7H426z"/>
<path class="st1" d="M429,327.8c-0.1,1,0.7,1.9,1.7,2c0.1,0,0.2,0,0.3,0c0.6,0,1.1-0.1,1.6-0.3l0.2,0.8c-0.6,0.3-1.3,0.4-1.9,0.4
	c-1.5,0.1-2.8-1-2.9-2.5c0-0.1,0-0.3,0-0.4c0-1.8,1-3.1,2.7-3.1c1.4,0,2.4,1.1,2.4,2.5c0,0.1,0,0.2,0,0.2c0,0.2,0,0.3,0,0.5
	L429,327.8z M432,327.1c0.1-0.8-0.5-1.6-1.3-1.7c-0.1,0-0.1,0-0.2,0c-0.9,0.1-1.6,0.8-1.6,1.7H432z"/>
<path class="st1" d="M434.4,322h1.1v8.5h-1.1V322z"/>
<path class="st1" d="M442.5,327.6c0.1,1.6-1,2.9-2.6,3.1c-0.1,0-0.2,0-0.3,0c-1.5,0-2.8-1.2-2.8-2.7c0-0.1,0-0.2,0-0.3
	c-0.1-1.6,1-2.9,2.6-3.1c0.1,0,0.2,0,0.3,0c1.5,0,2.8,1.2,2.8,2.7C442.5,327.4,442.5,327.5,442.5,327.6z M437.9,327.7
	c0,1.3,0.7,2.2,1.8,2.2s1.8-1,1.8-2.3c0-1-0.5-2.2-1.7-2.2S437.9,326.6,437.9,327.7z"/>
<path class="st1" d="M448.8,324.7c0,0.4,0,0.9,0,1.6v3.4c0.1,1-0.2,1.9-0.8,2.6c-0.6,0.5-1.3,0.7-2.1,0.7c-0.7,0-1.3-0.2-1.9-0.5
	l0.3-0.8c0.5,0.3,1.1,0.5,1.7,0.5c1.1,0,1.9-0.6,1.9-2v-0.7l0,0c-0.4,0.6-1.1,1-1.9,1c-1.4-0.1-2.5-1.3-2.5-2.7c0,0,0-0.1,0-0.1
	c-0.2-1.5,0.9-2.9,2.5-3.1c0,0,0.1,0,0.1,0c0.7,0,1.4,0.3,1.8,1l0,0v-0.9L448.8,324.7z M447.7,327c0-0.2,0-0.3-0.1-0.5
	c-0.2-0.7-0.8-1.1-1.5-1.1c-1,0-1.7,0.9-1.7,2.2c0,1.1,0.6,2.1,1.7,2.1c0.7,0,1.3-0.4,1.5-1.1c0.1-0.2,0.1-0.4,0.1-0.6L447.7,327z"
	/>
<path class="st1" d="M455.8,327.6c0.1,1.6-1,2.9-2.6,3.1c-0.1,0-0.2,0-0.3,0c-1.5,0-2.8-1.2-2.8-2.7c0-0.1,0-0.2,0-0.3
	c-0.1-1.6,1-2.9,2.6-3.1c0.1,0,0.2,0,0.3,0c1.5,0,2.8,1.2,2.8,2.7C455.8,327.4,455.8,327.5,455.8,327.6z M451.2,327.7
	c0,1.3,0.7,2.2,1.8,2.2s1.8-1,1.8-2.3c0-1-0.5-2.2-1.7-2.2S451.2,326.6,451.2,327.7z"/>
<path class="st1" d="M457.5,324.7l1.1,3.3c0.2,0.5,0.3,1,0.5,1.5l0,0c0.1-0.5,0.3-1,0.5-1.5l1.1-3.3h1.1l-2.2,5.8h-1l-2.2-5.8H457.5
	z"/>
<path class="st1" d="M463.3,327.8c-0.1,1,0.7,1.9,1.7,2c0.1,0,0.2,0,0.3,0c0.6,0,1.1-0.1,1.6-0.3l0.2,0.8c-0.6,0.3-1.3,0.4-1.9,0.4
	c-1.5,0.1-2.8-1-2.9-2.5c0-0.1,0-0.3,0-0.4c0-1.8,1-3.1,2.7-3.1c1.4,0,2.4,1.2,2.4,2.5c0,0.1,0,0.1,0,0.2c0,0.2,0,0.3,0,0.5
	L463.3,327.8z M466.4,327.1c0.1-0.8-0.5-1.6-1.3-1.7c-0.1,0-0.1,0-0.2,0c-0.9,0.1-1.6,0.8-1.6,1.7H466.4z"/>
<path class="st1" d="M472.9,330.3c-0.5,0.2-1.1,0.4-1.7,0.3c-1.5,0.1-2.8-1.1-2.9-2.6c0-0.1,0-0.3,0-0.4c-0.1-1.7,1.3-3,2.9-3.1
	c0.1,0,0.1,0,0.2,0c0.5,0,1,0.1,1.5,0.3l-0.2,0.8c-0.4-0.2-0.8-0.3-1.2-0.3c-1.2,0.1-2.1,1.1-2,2.3c0.1,1.1,0.9,2,2,2
	c0.4,0,0.9-0.1,1.3-0.3L472.9,330.3z"/>
<path class="st1" d="M475.5,323.1v1.7h1.5v0.8h-1.5v3.1c0,0.7,0.2,1.1,0.8,1.1c0.2,0,0.4,0,0.6-0.1l0,0.8c-0.3,0.1-0.6,0.2-0.9,0.1
	c-0.4,0-0.8-0.1-1.1-0.5c-0.3-0.4-0.5-1-0.4-1.5v-3.2h-0.9v-0.8h0.9v-1.4L475.5,323.1z"/>
<path class="st1" d="M483.4,327.6c0.1,1.6-1,2.9-2.6,3.1c-0.1,0-0.2,0-0.3,0c-1.5,0-2.8-1.2-2.8-2.7c0-0.1,0-0.2,0-0.3
	c-0.1-1.6,1-2.9,2.6-3.1c0.1,0,0.2,0,0.3,0c1.5,0,2.8,1.2,2.8,2.7C483.4,327.4,483.4,327.5,483.4,327.6z M478.8,327.7
	c0,1.3,0.7,2.2,1.8,2.2s1.8-1,1.8-2.3c0-1-0.5-2.2-1.7-2.2S478.8,326.6,478.8,327.7z"/>
<path class="st1" d="M484.7,326.6c0-0.7,0-1.3,0-1.8h0.9v1.1h0c0.2-0.7,0.8-1.2,1.6-1.3c0.1,0,0.2,0,0.3,0v1c-0.1,0-0.2,0-0.4,0
	c-0.7,0-1.3,0.6-1.4,1.4c0,0.2,0,0.3,0,0.5v3.1h-1L484.7,326.6z"/>
<path class="st1" d="M488.5,329.5c0.4,0.3,0.9,0.4,1.4,0.4c0.8,0,1.1-0.4,1.1-0.9s-0.3-0.8-1.1-1.1c-1-0.4-1.5-1-1.5-1.6
	c0-1,0.9-1.8,1.9-1.7c0,0,0.1,0,0.1,0c0.5,0,1,0.1,1.4,0.4l-0.3,0.8c-0.4-0.2-0.8-0.3-1.2-0.3c-0.6,0-1,0.4-1,0.8s0.4,0.7,1.1,1
	c1,0.4,1.5,0.9,1.5,1.8c0,1-0.8,1.7-2.2,1.7c-0.6,0-1.1-0.1-1.6-0.4L488.5,329.5z"/>
<path class="st1" d="M493,329.9c0-0.4,0.3-0.7,0.7-0.7c0,0,0,0,0.1,0c0.4,0,0.7,0.4,0.7,0.8c0,0.4-0.3,0.6-0.7,0.7
	C493.4,330.7,493,330.4,493,329.9C493,330,493,329.9,493,329.9z"/>
<path class="st1" d="M495.8,326.3c0-0.6,0-1.1,0-1.6h0.9l0.1,1l0,0c0.4-0.7,1.1-1.1,1.9-1.1c0.8,0,2,0.5,2,2.5v3.4h-1.1v-3.4
	c0-0.9-0.4-1.7-1.3-1.7c-0.7,0-1.2,0.4-1.4,1.1c-0.1,0.2-0.1,0.3-0.1,0.5v3.5h-1L495.8,326.3z"/>
<path class="st1" d="M503,327.8c-0.1,1,0.7,1.9,1.7,2c0.1,0,0.2,0,0.3,0c0.6,0,1.1-0.1,1.6-0.3l0.2,0.8c-0.6,0.3-1.3,0.4-1.9,0.4
	c-1.5,0.1-2.8-1-2.9-2.5c0-0.1,0-0.3,0-0.4c0-1.8,1-3.1,2.7-3.1c1.4,0,2.4,1.2,2.4,2.5c0,0.1,0,0.1,0,0.2c0,0.2,0,0.3,0,0.5
	L503,327.8z M506.1,327.1c0.1-0.8-0.5-1.6-1.3-1.7c-0.1,0-0.1,0-0.2,0c-0.9,0.1-1.6,0.8-1.6,1.7H506.1z"/>
<path class="st1" d="M509.7,323.1v1.7h1.5v0.8h-1.5v3.1c0,0.7,0.2,1.1,0.8,1.1c0.2,0,0.4,0,0.6-0.1l0,0.8c-0.3,0.1-0.6,0.2-0.9,0.1
	c-0.4,0-0.8-0.1-1.1-0.5c-0.3-0.4-0.5-1-0.4-1.5v-3.2h-0.9v-0.8h0.9v-1.4L509.7,323.1z"/>
</svg>
