<svg id="Layer_1" data-name="Layer 1" xmlns="http://www.w3.org/2000/svg" viewBox="0 0 638 119.78"><defs><style>.cls-1{fill:#2e58a6;}</style></defs><title>Tecno Logo Vector</title><path class="cls-1" d="M789.52,440.11H726a29.48,29.48,0,0,0-29.48,29.48v60.82A29.48,29.48,0,0,0,726,559.89h63.51A29.48,29.48,0,0,0,819,530.41V469.59A29.48,29.48,0,0,0,789.52,440.11Zm-3.66,87a17.18,17.18,0,0,1-17.18,17.19H746.86a17.19,17.19,0,0,1-17.19-17.19V472.9a17.19,17.19,0,0,1,17.19-17.19h21.82a17.18,17.18,0,0,1,17.18,17.19Z" transform="translate(-181 -440.11)"/><path class="cls-1" d="M489.23,456.07h52.06a1.33,1.33,0,0,0,1.32-1.33V441.43a1.32,1.32,0,0,0-1.32-1.32h-72.9a29.48,29.48,0,0,0-29.48,29.48v60.82a29.48,29.48,0,0,0,29.48,29.48h72.9a1.32,1.32,0,0,0,1.32-1.32V545.26a1.33,1.33,0,0,0-1.32-1.33H489.23a17.12,17.12,0,0,1-17.19-17V473.12A17.12,17.12,0,0,1,489.23,456.07Z" transform="translate(-181 -440.11)"/><path class="cls-1" d="M650.71,440.11H559.58a1.32,1.32,0,0,0-1.32,1.32V558.57a1.32,1.32,0,0,0,1.32,1.32h30.19a1.32,1.32,0,0,0,1.32-1.32V456.07h39.08a17.19,17.19,0,0,1,17.19,17.18v85.32a1.32,1.32,0,0,0,1.32,1.32h30.19a1.32,1.32,0,0,0,1.32-1.32v-89A29.48,29.48,0,0,0,650.71,440.11Z" transform="translate(-181 -440.11)"/><path class="cls-1" d="M301.76,440.11H182.32a1.32,1.32,0,0,0-1.32,1.32v13.31a1.33,1.33,0,0,0,1.32,1.33h42.79v102.5a1.32,1.32,0,0,0,1.32,1.32h30.19a1.32,1.32,0,0,0,1.32-1.32V473.12a17.12,17.12,0,0,1,17.19-17.05h26.63a1.33,1.33,0,0,0,1.32-1.33V441.43A1.32,1.32,0,0,0,301.76,440.11Z" transform="translate(-181 -440.11)"/><path class="cls-1" d="M351.92,509.3a1.32,1.32,0,0,1,1.32-1.32h68.17a1.33,1.33,0,0,0,1.33-1.32V493.34a1.33,1.33,0,0,0-1.33-1.32h-52.3a17.11,17.11,0,0,1-17.19-17v-1.85a17.11,17.11,0,0,1,17.19-17.05h52.3a1.34,1.34,0,0,0,1.33-1.33V441.43a1.33,1.33,0,0,0-1.33-1.32h-73A29.48,29.48,0,0,0,319,469.59v60.82a29.48,29.48,0,0,0,29.48,29.48h73a1.33,1.33,0,0,0,1.33-1.32V545.26a1.34,1.34,0,0,0-1.33-1.33H369.08a17.11,17.11,0,0,1-17.16-17Z" transform="translate(-181 -440.11)"/></svg>