<?xml version="1.0" encoding="iso-8859-1"?>
<!-- Uploaded to: SVG Repo, www.svgrepo.com, Generator: SVG Repo Mixer Tools -->
<svg height="800px" width="800px" version="1.1" id="Layer_1" xmlns="http://www.w3.org/2000/svg" xmlns:xlink="http://www.w3.org/1999/xlink" 
	 viewBox="0 0 512 512" xml:space="preserve">
<g>
	<path style="fill:#546A79;" d="M176.552,167.724c-9.754,0-17.655,7.901-17.655,17.655v176.552c0,9.754,7.901,17.655,17.655,17.655
		h317.793c9.754,0,17.655-7.901,17.655-17.655V185.379c0-9.754-7.901-17.655-17.655-17.655H176.552z"/>
	<polygon style="fill:#38454F;" points="273.655,167.724 291.31,132.414 432.552,132.414 450.207,167.724 494.345,167.724 
		459.034,97.103 264.828,97.103 229.517,167.724 	"/>
	<g>
		<path style="fill:#ECBA16;" d="M361.931,335.448c0,4.873-3.955,8.828-8.828,8.828c-4.873,0-8.828-3.955-8.828-8.828
			s3.955-8.828,8.828-8.828C357.976,326.621,361.931,330.575,361.931,335.448"/>
		<path style="fill:#ECBA16;" d="M406.069,335.448c0,4.873-3.955,8.828-8.828,8.828c-4.873,0-8.828-3.955-8.828-8.828
			s3.955-8.828,8.828-8.828C402.114,326.621,406.069,330.575,406.069,335.448"/>
		<path style="fill:#ECBA16;" d="M450.207,335.448c0,4.873-3.955,8.828-8.828,8.828s-8.828-3.955-8.828-8.828
			s3.955-8.828,8.828-8.828S450.207,330.575,450.207,335.448"/>
	</g>
	<polygon style="fill:#38454F;" points="158.897,353.103 70.621,326.621 70.621,220.69 158.897,194.207 	"/>
	<polygon style="fill:#546A79;" points="70.621,326.621 0,388.414 0,158.897 70.621,220.69 	"/>
	<path style="fill:#7383BF;" d="M450.207,282.483H344.276c-9.754,0-17.655-7.901-17.655-17.655v-35.31
		c0-9.754,7.901-17.655,17.655-17.655h105.931c9.754,0,17.655,7.901,17.655,17.655v35.31
		C467.862,274.582,459.961,282.483,450.207,282.483"/>
	<g>
		<path style="fill:#FFFFFF;" d="M379.586,256h-17.655c-4.882,0-8.828-3.946-8.828-8.828s3.946-8.828,8.828-8.828h17.655
			c4.882,0,8.828,3.946,8.828,8.828S384.468,256,379.586,256"/>
		<path style="fill:#FFFFFF;" d="M432.552,256h-17.655c-4.882,0-8.828-3.946-8.828-8.828s3.946-8.828,8.828-8.828h17.655
			c4.882,0,8.828,3.946,8.828,8.828S437.433,256,432.552,256"/>
	</g>
	<polygon style="fill:#38454F;" points="203.034,414.897 485.517,414.897 485.517,379.586 203.034,379.586 	"/>
</g>
</svg>