<?xml version="1.0" encoding="utf-8"?>
<!DOCTYPE svg PUBLIC "-//W3C//DTD SVG 1.1//EN" "http://www.w3.org/Graphics/SVG/1.1/DTD/svg11.dtd">
<svg version="1.1" id="Layer_1" xmlns="http://www.w3.org/2000/svg" xmlns:xlink="http://www.w3.org/1999/xlink" x="0px" y="0px"
	 viewBox="0 0 2560 1600" enable-background="new 0 0 2560 1600" xml:space="preserve">
<g>
	
		<linearGradient id="SVGID_1_" gradientUnits="userSpaceOnUse" x1="603.15" y1="1366.8252" x2="1243.0101" y2="1366.8252" gradientTransform="matrix(1.1111 0 0 -1.1111 213.3333 1777.7778)">
		<stop  offset="0" style="stop-color:#92A3B2"/>
		<stop  offset="1" style="stop-color:#9AACBA"/>
	</linearGradient>
	<path fill="url(#SVGID_1_)" stroke="#9AACBA" stroke-width="0.0938" d="M1368.6888-0.0001H953.8777h-70.3778
		c6.8666,150.0222,13.1444,300.0334,19.9333,450.0556c1.4111,22.7444,0.5001,45.9333,6.6,68.111
		c0.4555-1.5333,0.9889-3.0333,1.5111-4.5444c0.7889,1.011,1.5778,2.0112,2.3889,3.0333c0.9889-2.2667,1.2556-4.7333,1.3444-7.1778
		c-0.0222-1.2001-0.0222-2.3889-0.0111-3.5778c-2.6333-12.8-1.2333-25.9334-2.4111-38.8668
		c-0.9667-9.4111-0.4445-18.8889-1.3666-28.3c-0.6445-9.0333-0.1556-18.1221-0.9445-27.1446
		c-1.1666-8.6444-0.4111-17.3888-0.9222-26.0667c-0.0333-7.0778-1.8555-14.0222-1.6555-21.1111
		c0.0778-5.5334-0.1111-11.0778-0.5778-16.5888c-1.0667-13.3889-0.2333-26.8668-1.4667-40.2444
		c-1.1555-8.7891,0.0555-17.7112-1.3666-26.4779c-0.5778-10,0.0444-20.0668-1.3-30.0222c-0.0889-20.7443-2.3333-41.4-2.5333-62.1332
		c0.0667-1.9333,0.4111-4.089,2.6888-4.4444c14.8223-4.1667,30.3333-4.7,45.5778-6.2889c12.5889-0.5001,25.1-2.2999,37.7111-2.4223
		c2.7444-0.0111,5.4555-0.5222,8.1556-1.0221c10.9667-0.2112,21.9001-1.2001,32.8667-1.3778
		c14.3555-0.4001,28.6779-1.6444,43.0444-1.6333c8.0444-1.6223,16.2999-0.4445,24.4333-1.089
		c12.3223-0.8222,24.6779-0.8666,37.0222-0.9778c14.8002-0.9778,29.6443-0.9444,44.4778-1.0555
		c20.3223-1.4557,40.7555-0.1335,61.0778-1.6222c7.9556-0.2889,15.9556,0.411,23.9-0.5001
		c11.6333,1.3335,23.3112-0.3221,34.9778-0.0222c40.7444,0.0556,81.5-0.1889,122.2445,0.3667
		c7.7444,1.0779,15.5444-0.0222,23.3221,0.5778c20.3778,0.1445,40.7556,0.1889,61.1112,1.0889
		c29.3445,0.6,58.6666,1.8112,87.9556,3.5889c-0.2223-8.4999,1.2888-16.9222,0.8777-25.4221
		c0.3667-18.1445-0.0778-36.3112,0.9222-54.4333c0.2667-17.4223,0.3556-34.8446,0.589-52.2556
		c1.0443-13.3111,0.5555-26.6667,0.7777-40h-225.7668V-0.0001z"/>
	<path fill="#8FA1AB" stroke="#8FA1AB" stroke-width="0.0938" d="M1594.4556-0.0001h53.6222
		c-3.2888,148.5444-6.7999,297.0889-9.9554,445.6334c-1.0446,25.0222,0.4777,50.7778-7.7668,74.8444
		c-4.1887,13.8-10.3444,27.0111-18.3334,39.0222c-2.0889-0.3444-4.1887-0.5111-6.2555-0.6111
		c1.7556-3.1889,5.5778-4.7778,6.7334-8.3445c1.8334-5.7444,5.2889-10.7667,7.1445-16.511
		c2.2665-5.5111,3.2109-11.4222,5.0443-17.0778c1.7223-5.1778,1.7445-10.6777,2.6001-16.0111
		c2.5554-14.2667,0.9999-28.8,1.6555-43.1889c-0.5334-8.5556,1.2222-17.0111,0.8223-25.5667
		c2.0555-12.5,0.8221-25.1889,1.1111-37.7889c0.2666-11.4778-0.2001-22.9667,0.311-34.4222
		c1.4667-11.8,0.5223-23.7111,0.9222-35.5556c1.4445-12.1667,0.8-24.4333,0.9889-36.6555
		c-0.1333-17.7667,0.4443-35.5333,0.5222-53.2889c1.2111-13.7,0.4556-27.4778,1.8334-41.1667c0.4-4-0.4889-7.9556-0.6556-11.9333
		c0.6112-1.0778,0.8113-2.8111-0.7444-3.1889c-7.1111-2.1-14.4-3.9778-21.8445-4.0778c-6.9889-0.5667-13.8889-2-20.9221-2
		c-0.2223-8.5,1.2888-16.9222,0.8777-25.4222c0.3667-18.1445-0.0778-36.3111,0.9222-54.4333
		c0.2667-17.4222,0.3556-34.8444,0.589-52.2556C1594.7222,26.6888,1594.2334,13.3333,1594.4556-0.0001z"/>
	<path fill="#7CA0BA" stroke="#7CA0BA" stroke-width="0.0938" d="M1634.0555,178.1888c-7.1111-2.1-14.4-3.9778-21.8445-4.0778
		c-6.9889-0.5667-13.8889-2-20.9221-2c-29.2889-1.7777-58.6111-2.9888-87.9556-3.5889
		c-20.3556-0.8999-40.7334-0.9443-61.1112-1.0889c-7.7777-0.6-15.5778,0.5001-23.3221-0.5778
		c-40.7445-0.5556-81.5001-0.311-122.2445-0.3667c-11.6666-0.2999-23.3445,1.3557-34.9778,0.0222
		c-7.9445,0.911-15.9446,0.2112-23.9,0.5001c-20.3221,1.4887-40.7555,0.1666-61.0778,1.6222
		c-14.8334,0.1111-29.6777,0.0777-44.4778,1.0555c-12.3444,0.1112-24.7,0.1556-37.0223,0.9778
		c-8.1332,0.6445-16.3888-0.5333-24.4332,1.089c-14.3666-0.0111-28.6888,1.2332-43.0444,1.6333
		c-10.9666,0.1777-21.9001,1.1665-32.8668,1.3778c-2.7,0.5-5.4111,1.011-8.1556,1.0221
		c-12.6111,0.1223-25.1222,1.9222-37.7111,2.4223c-15.2444,1.589-30.7557,2.1222-45.5778,6.2889
		c-2.2778,0.3555-2.6222,2.5111-2.6889,4.4445c7.4333,1.2999,14.8444,2.7555,22.4333,2.6999
		c9.6333,1.5333,19.3666,1.8665,29.0778,2.6001c4.6333,0.1999,9.4111-0.6335,13.8889,0.9888
		c6.6666,0.4112,13.3667,0.2222,20.0444,0.7222c15.9777,2.4111,32.2778-0.3667,48.3001,1.6444
		c9.3331,0.9333,18.8109-0.611,28.0889,0.9333c4.6667,0.5333,9.3666,0.3333,14.0554,0.3779
		c80.0223,0.4666,160.0334-0.0333,240.0555-0.2667c17-1.9444,34.1667-0.1555,51.2001-1.7222
		c11.1333-0.5778,22.3112,0.0556,33.4224-0.9445c15.4777-1.089,31.0443,0.3778,46.4777-1.4443c8.1223-0.3,16.2667-0.089,24.4111-0.3
		c11.0889-0.9668,22.1779-2.3223,33.3333-1.9333c13.3223,0.2999,26.5557-1.5112,39.8667-1.7222
		c5.6223-0.1889,11.1445-1.5444,16.8-1.5778c8.3889,0.0333,16.7778-0.7,25.1222-1.6556c4.0001-1.2444,8.2334-0.5222,12.3446-1.0889
		c4.1776-0.5334,8.3442-1.3112,12.5776-1.589c7.6222-0.3889,14.9667-2.7444,22.5778-3.2889
		C1635.4111,180.3,1635.6112,178.5666,1634.0555,178.1888z"/>
	<path fill="#7CA5C3" stroke="#7CA5C3" stroke-width="0.0938" d="M1612.5371,184.6666c8.1726-0.3889,16.0474-2.7444,24.2081-3.2889
		c0.1787,3.9778,1.1318,7.9333,0.703,11.9333c-1.4773,13.6889-0.6672,27.4667-1.9658,41.1667
		c-0.0835,17.7556-0.7029,35.5222-0.5599,53.2889c-0.2025,12.2222,0.4884,24.4889-1.0603,36.6555
		c-0.4288,11.8445,0.5837,23.7556-0.9889,35.5556c-0.548,11.4555-0.0475,22.9444-0.3335,34.4222
		c-0.3097,12.6,1.0127,25.2889-1.1913,37.7889c0.4288,8.5556-1.4536,17.0111-0.8816,25.5667
		c-0.703,14.3889,0.965,28.9222-1.7751,43.1889c-0.9174,5.3333-0.9412,10.8333-2.7878,16.0111
		c-1.9657,5.6556-2.9783,11.5667-5.4086,17.0778c-1.9896,5.7444-5.6947,10.7667-7.6604,16.511
		c-1.239,3.5667-5.3372,5.1556-7.2196,8.3445c-15.6422-3.2111-31.5824-4.9222-47.2487-7.9778
		c2.3469-0.8333,4.8606-1.2556,7.3386-0.5778c5.5278,1.2222,11.2701,2.3778,16.941,1.2778c-0.5601-0.8778-1.0962-1.7444-1.6202-2.6
		c2.6328-4.0667,1.215-8.9,1.9894-13.3445c2.0135-11.4222,0.2504-23.0333,1.108-34.5222
		c1.6798-11.4222,1.3938-23.0667-0.1667-34.4778c0.2262-3.7111,1.3224-7.3556,1.251-11.0889
		c-0.1074-14.1111-0.1907-28.2222-0.0358-42.3222c2.3588-13.9555,0.4408-28.1222,1.2747-42.1667
		c1.0841-7.7111-1.2152-15.4667,0.3097-23.1667c1.3939-7.4111,0.5123-14.9333,0.6672-22.4
		c0.0714-9.6334-0.0477-19.2778,0.3335-28.9111c1.7751-12.8778,0.5481-25.8778,0.9174-38.8111
		c2.2397-16.5778,0.7505-33.3555,1.2272-50.0111c0.2262-2.7444,2.7521-4.9111,2.5494-7.7556c0.2144-1.9-0.9054-3.5333-1.7512-5.1445
		c0.7625-0.3333,1.5605-0.6555,2.3827-0.9778c-0.9531-0.9-1.9063-1.7889-2.8115-2.6778c0.5002-0.7555,1.0126-1.5,1.5486-2.2444
		c-2.0013-0.5556-4.0267-1.1222-6.0044-1.6444c4.2889-1.2444,8.8279-0.5222,13.236-1.0889
		C1603.5305,185.7222,1607.998,184.9444,1612.5371,184.6666z"/>
	
		<linearGradient id="SVGID_2_" gradientUnits="userSpaceOnUse" x1="618.6501" y1="1265.1949" x2="1242.67" y2="1265.1949" gradientTransform="matrix(1.1111 0 0 -1.1111 213.3333 1777.7778)">
		<stop  offset="0" style="stop-color:#79A0BF"/>
		<stop  offset="1" style="stop-color:#7FAACB"/>
	</linearGradient>
	<path fill="url(#SVGID_2_)" stroke="#7DA6C6" stroke-width="0.0938" d="M1594.0778,193.9111
		c-0.8889-0.9001-1.7778-1.789-2.6222-2.6778c0.4667-0.7557,0.9445-1.5,1.4445-2.2444c-1.8667-0.5556-3.7556-1.1221-5.6001-1.6444
		c-8.3444,0.9556-16.7333,1.6889-25.1222,1.6556c-5.6555,0.0333-11.1777,1.3889-16.8,1.5778
		c-13.311,0.211-26.5444,2.0221-39.8666,1.7222c-11.1555-0.389-22.2445,0.9666-33.3334,1.9333c-8.1444,0.211-16.2888,0-24.4111,0.3
		c-15.4333,1.8221-31,0.3553-46.4777,1.4443c-11.1112,1-22.2889,0.3667-33.4224,0.9445c-17.0333,1.5667-34.1998-0.2222-51.2,1.7222
		c-80.0223,0.2334-160.0333,0.7332-240.0557,0.2667c-4.6888-0.0444-9.3888,0.1554-14.0554-0.3779
		c-9.2778-1.5443-18.7556,0-28.0889-0.9333c-16.0222-2.011-32.3223,0.7668-48.3-1.6444c-6.6778-0.5001-13.3777-0.311-20.0444-0.7222
		c-4.4778-1.6222-9.2556-0.7889-13.8889-0.9888c-9.7111-0.7336-19.4444-1.0668-29.0778-2.6001c-7.5889,0.0556-15-1.4-22.4333-2.6999
		c0.2,20.7332,2.4445,41.3889,2.5333,62.1332c1.3445,9.9556,0.7223,20.0222,1.3,30.0222
		c1.4222,8.7667,0.2111,17.6888,1.3666,26.4779c1.2333,13.3777,0.4,26.8554,1.4667,40.2444
		c0.4667,5.5111,0.6556,11.0556,0.5778,16.5888c-0.2,7.0889,1.6223,14.0334,1.6555,21.1111
		c0.5112,8.6779-0.2444,17.4221,0.9222,26.0667c0.7889,9.0223,0.3,18.1111,0.9445,27.1445c0.9222,9.4111,0.4,18.8889,1.3666,28.3
		c1.1778,12.9333-0.2222,26.0668,2.4111,38.8668c0.3222-4.2111,0.3445-8.4445,0.6-12.6557c4.3777,5.4001-0.9668,14.5668,5,19.3334
		c-0.0444,1.1-0.0668,2.2111-0.0778,3.3333c1.0222,0.3999,2.1444,0.711,2.9445,1.5555c3.0555,2.9333,6.6111,5.9889,7.3223,10.4222
		c6.9333,2.5334,7.4777,12.4668,14.6444,14.4222c1.4333,1.0223,2.5223,2.4779,3.9111,3.6002
		c1.9778-0.2001,3.6667-1.9778,5.8334-1.4111c-0.0112,0.7221-0.0444,2.1667-0.0667,2.8888c-1.4,0.2668-2.7889,0.5446-4.1666,0.8334
		c1.4665,0.4557,2.9111,0.9556,4.3889,1.4222c0.3112,0.7333,0.6334,1.4779,0.9556,2.2333c2.6667,0.1889,5.3333,0.3889,7.9889,0.7889
		c-2.5778,0.8556-5.3333,0.7667-7.9889,1.1002c5.2111,2.9,11.9,0.2,17.3223,2.9c12.2111-0.5889,24.4556-1.1,36.6111-2.4667
		c1.7778,0.2222,3.5556,0.4333,5.3667,0.5667c6.0778-1.6111,12.411-0.6778,18.5889-1.6223
		c30.9113-2.4111,61.9111-3.7222,92.8112-6.3555c6.8665,0.2335,13.6779-1,20.5444-1.1111
		c35.9111-2.2222,71.822-4.5221,107.7222-6.9888c18.3445-0.8001,36.6667-2.7112,55.0222-3.0889
		c6.4669-0.8666,12.9888-1.2778,19.5114-1.5446c29.7111-2.0665,59.4443-3.7776,89.1555-5.8222
		c7.8-0.5,15.3666,1.9556,23.0444,2.9112c27.7777,4.7222,55.5667,9.3889,83.3556,14.0222
		c12.0555,1.789,23.9666,4.4556,36.0889,5.7446c2.1888-0.8333,4.5332-1.2557,6.8444-0.5778
		c5.1555,1.2221,10.5111,2.3778,15.8,1.2776c-0.5223-0.8777-1.0222-1.7443-1.5111-2.6c2.4556-4.0667,1.1333-8.9,1.8555-13.3444
		c1.8779-11.4221,0.2334-23.0334,1.0334-34.5222c1.5667-11.4222,1.2999-23.0667-0.1556-34.4778
		c0.2111-3.7112,1.2334-7.3556,1.1667-11.0889c-0.1001-14.1111-0.1779-28.2222-0.0333-42.3223
		c2.2-13.9554,0.4111-28.1221,1.1888-42.1667c1.0111-7.711-1.1334-15.4666,0.2888-23.1667c1.3-7.4111,0.4779-14.9334,0.6223-22.4
		c0.0667-9.6332-0.0444-19.2778,0.311-28.9111c1.6555-12.8778,0.5112-25.8778,0.8556-38.811
		c2.0889-16.5778,0.7-33.3555,1.1444-50.0111c0.2111-2.7444,2.5668-4.9111,2.3778-7.7556c0.2-1.9-0.8445-3.5334-1.6333-5.1445
		C1592.5668,194.5555,1593.311,194.2334,1594.0778,193.9111z"/>
	<path fill="#7599B6" stroke="#7599B6" stroke-width="0.0938" d="M915.8666,493.2444c4.3777,5.4-0.9668,14.5667,5,19.3333
		c-0.0444,1.1-0.0668,2.2111-0.0778,3.3333c1.0222,0.4,2.1444,0.7111,2.9445,1.5555c3.0555,2.9333,6.6111,5.989,7.3223,10.4222
		c6.9333,2.5333,7.4777,12.4667,14.6444,14.4222c1.4333,1.0222,2.5223,2.4778,3.9111,3.6c1.9778-0.2,3.6667-1.9778,5.8334-1.4111
		c-0.0112,0.7222-0.0444,2.1667-0.0667,2.8889c-1.4,0.2667-2.7889,0.5444-4.1666,0.8334c1.4665,0.4556,2.9111,0.9555,4.3889,1.4222
		c0.3112,0.7333,0.6334,1.4778,0.9556,2.2334c2.6667,0.1889,5.3333,0.3889,7.9889,0.7889c-2.5778,0.8555-5.3333,0.7667-7.9889,1.1
		c5.2111,2.9,11.9,0.2,17.3223,2.9c-10.6556,1.1333-21.4111,1.1111-32.0222,2.6c-3.1111-0.0333-6.2112-0.2-9.3223-0.2444
		c-0.7-2.3222-1.4667-4.6333-2.6222-6.7667c-6.0556-11.0333-9.7778-23.1666-12.3889-35.4333
		c-0.5333-2.5111-1.4556-4.9111-2.2445-7.3444c-0.0222-1.2-0.0222-2.3889-0.0111-3.5778
		C915.5889,501.6888,915.611,497.4555,915.8666,493.2444z"/>
	<path fill="#8C9DAD" stroke="#8C9DAD" stroke-width="0.0938" d="M913.9333,516.6555c0.9889-2.2667,1.2556-4.7334,1.3444-7.1778
		c0.7889,2.4333,1.7111,4.8333,2.2445,7.3444c2.6111,12.2667,6.3333,24.4,12.3889,35.4333
		c1.1555,2.1334,1.9222,4.4445,2.6222,6.7667c-1.6444,0.2333-3.2333,0.5889-4.8557,0.8555l-0.4445,0.0333
		c-7.1888-13.2444-13.6445-27.0555-17.2-41.7444c0.4555-1.5333,0.9889-3.0333,1.511-4.5444
		C912.3333,514.6333,913.1222,515.6333,913.9333,516.6555z"/>
	<linearGradient id="SVGID_3_" gradientUnits="userSpaceOnUse" x1="927.6777" y1="578.837" x2="1605.7666" y2="578.837">
		<stop  offset="0" style="stop-color:#98B2C6"/>
		<stop  offset="0.3894" style="stop-color:#9CB8CE"/>
		<stop  offset="0.6947" style="stop-color:#A0BFD8"/>
		<stop  offset="1" style="stop-color:#A6C7E1"/>
	</linearGradient>
	<path fill="url(#SVGID_3_)" stroke="#98B2C6" stroke-width="0.0938" d="M1605.7666,558.8889
		c-14.5887-3.2112-29.4554-4.9224-44.0667-7.9778c-12.1222-1.2889-24.0332-3.9556-36.0889-5.7445
		c-27.7888-4.6333-55.5778-9.2999-83.3555-14.0222c-7.6779-0.9556-15.2444-3.4111-23.0444-2.9111
		c-29.7112,2.0446-59.4446,3.7556-89.1558,5.8223c-6.5222,0.2667-13.0444,0.6779-19.5111,1.5444l0,0
		c-18.3556,0.3778-36.6777,2.2889-55.0221,3.0889c-35.9001,2.4667-71.811,4.7667-107.7224,6.9889
		c-6.8667,0.1111-13.6779,1.3445-20.5446,1.1111c-30.8999,2.6333-61.8999,3.9445-92.811,6.3556
		c-6.1779,0.9445-12.511,0.0111-18.5888,1.6222c-1.811-0.1333-3.5889-0.3445-5.3666-0.5667
		c-12.1555,1.3667-24.4,1.8778-36.6111,2.4667c-10.6552,1.1332-21.4105,1.1112-32.0214,2.6002
		c-0.0002,0-0.0004-0.0001-0.0007-0.0002c-3.1111-0.0332-6.2112-0.2-9.3223-0.2444c-1.6445,0.2334-3.2335,0.5889-4.8557,0.8555
		l0.9335-0.0444c1.5889-0.0889,3.1777-0.189,4.7778-0.2888c3.9888,5.4332,6.9223,11.5889,11.511,16.5888
		c8.1667,10.4778,18.2,19.3222,28.8,27.2667c4.9,3.4111,10.8222,4.6667,16.5,6.2111c13.0222,3.4333,26.3334,5.6223,39.6333,7.7222
		c45.7223,6.489,91.8778,9.1667,137.9783,10.8553c6.8999,0.3111,13.8333-0.0889,20.7,0.7778
		c5.5332,0.2556,11.0889,0.189,16.6333,0.1667c7.9445-2.6221,16.4778,0.1335,24.5889-1.5332
		c4.8662-1.1666,9.8768-0.9223,14.8319-1.3444c0.0004,0.0001,0.0009,0.0001,0.0012,0.0002
		c-4.9554,0.4222-9.9667,0.1778-14.8334,1.3445c-8.1111,1.6666-16.6443-1.0891-24.5889,1.5332
		c82.7778,1.3666,165.6667-0.8889,248.0889-8.8334c30.5-3.2111,61.0222-6.9889,90.9333-13.8777
		c7.8112-1.9445,15.7223-3.7889,23.1555-6.9222c8.4667-5.4666,16.1334-12.1333,22.9446-19.5555
		c0-0.0001-0.0001-0.0001-0.0001-0.0002c3.9333-3.8,7.1555-8.2333,10.5665-12.4888
		C1602.8555,564.8445,1604.9222,562.1444,1605.7666,558.8889z M1572.2754,576.2427c-1.0952-0.5979-1.9407-1.4885-2.2532-2.9761
		c3.2668,0.3567,6.3503,1.364,9.3527,2.6104c-3.0022-1.2463-6.0858-2.2537-9.3525-2.6102
		C1570.3348,574.7542,1571.1802,575.6448,1572.2754,576.2427z M1574.2285,582.1061c-1.6095-0.5664-3.2469-1.0355-4.9102-1.389
		C1570.9816,581.0706,1572.619,581.5397,1574.2285,582.1061z M1551.2688,564.4031c-4.4762-0.7384-8.9525-1.4736-13.4202-2.2517
		C1542.3163,562.9294,1546.7926,563.6646,1551.2688,564.4031z M1327.9395,605.5684c-2.8876-0.1436-5.4946,2.0118-8.3694,2.0264
		C1322.4448,607.5801,1325.0518,605.4247,1327.9395,605.5684z M1335.3682,606.1374c-1.7667-0.0637-2.6833,1.8745-3.9125,2.8848
		c-0.0001-0.0001-0.0001-0.0001-0.0001-0.0001C1332.6847,608.0117,1333.6014,606.0735,1335.3682,606.1374z M1337.3202,606.385
		c-0.4061-0.0779-0.817-0.1357-1.233-0.1707C1336.5032,606.2493,1336.9141,606.3071,1337.3202,606.385z M1351.1552,606.8398
		c-2.3309,0.04-4.6376,0.7872-6.744,2.0935v-0.0001C1346.5173,607.627,1348.824,606.8797,1351.1552,606.8398z M1350.5132,612.962
		c-0.5149-0.4199-1.0391-0.8272-1.5725-1.2216C1349.4741,612.1348,1349.9983,612.5421,1350.5132,612.962z M1353.9556,609.0001
		c0,0,0.0001-0.0001,0.0002-0.0001c-0.678,1.1555-1.9224,2.2889-1.1558,3.7333l0,0
		C1352.0332,611.2889,1353.2777,610.1556,1353.9556,609.0001z M1354.3723,612.6029c-0.502,0.0963-1.0072,0.1593-1.5237,0.1292
		C1353.3652,612.7623,1353.8704,612.6992,1354.3723,612.6029z M1333.5483,537.2936c-1.4158,0.0111-2.8445,0.1412-4.2634,0.1295
		C1330.7039,537.4348,1332.1327,537.3047,1333.5483,537.2936z M1322.446,536.7749c-1.3625,0.0071-2.7334,0.0981-4.093,0.1423
		C1319.7128,536.873,1321.0835,536.782,1322.446,536.7749z M1309.7634,604.4056c-1.1117,0.0126-2.2279,0.0644-3.3357,0.0734
		C1307.5355,604.47,1308.6517,604.4182,1309.7634,604.4056z M1297.6189,602.8829c-1.4545-0.0015-2.9529,0.3777-4.4161,0.3858
		C1294.666,603.2606,1296.1646,602.8814,1297.6189,602.8829z M1269.7894,599.8483c-4.5542-0.2409-9.0658,1.396-13.6014,1.149
		C1260.7239,601.2442,1265.2354,599.6072,1269.7894,599.8483z M1242.6991,600.0229c-0.0048,0-0.0096,0.0001-0.0145,0.0001
		C1242.6895,600.0229,1242.6943,600.0229,1242.6991,600.0229z M1230.4995,598.943c-0.5061,0.0191-1.0133,0.0652-1.5216,0.1458
		c-3.3583,0.475-6.7355,0.9374-10.1219,0.9843c3.3864-0.0469,6.7634-0.5093,10.1218-0.9843
		C1229.4861,599.0082,1229.9933,598.9621,1230.4995,598.943z M1215.4667,599.9666c-0.1589,0.0146-0.3124,0.0165-0.4609,0.0073
		c0.1486,0.0092,0.3019,0.0073,0.4608-0.0073H1215.4667z M1199.5154,596.504c-3.2737,0.0264-6.543,0.3237-9.7598,0.9292
		c-0.952,0.2375-1.9006,0.3289-2.8472,0.3281c0.9464,0.0009,1.895-0.0906,2.847-0.3281
		C1192.9722,596.8276,1196.2417,596.5304,1199.5154,596.504z M1063.9763,557.7463c-3.4576,0.1099-7.0818-0.3419-10.4872-0.0219
		C1056.8945,557.4044,1060.5188,557.8561,1063.9763,557.7463z M1050.3999,568.6111c-6.1917,0.8999-12.5583,2.2062-18.8608,2.2078
		c6.3025-0.0016,12.6692-1.3079,18.8607-2.2078C1050.3999,568.6111,1050.3999,568.6111,1050.3999,568.6111z M1056.2515,562.4229
		c-1.2817,0.0125-2.5826,0.0815-3.8674,0.0674C1053.6687,562.5044,1054.9698,562.4352,1056.2515,562.4229z M1177.4633,596.6712
		c-0.9476-0.0178-1.8978,0.0516-2.8519,0.262c-0.389,0.0847-0.7731,0.1266-1.1534,0.1349c0.3802-0.0084,0.7643-0.0502,1.1532-0.1349
		C1175.5652,596.7228,1176.5155,596.6534,1177.4633,596.6712z M1148.9043,593.3046c-0.3779,0.0065-0.757,0.0231-1.1375,0.0508
		c-0.3286,0.0444-0.6525,0.0695-0.9723,0.0774c0.3197-0.0079,0.6436-0.033,0.972-0.0774
		C1148.1472,593.3277,1148.5264,593.3112,1148.9043,593.3046z M1102.6533,567.7935c-2.1881,0.0042-4.3752,0.0735-6.5599,0.0867
		C1098.2781,567.8668,1100.4652,567.7976,1102.6533,567.7935z M1094.4556,567.8777c-0.2007,0.0117-0.3984,0.0117-0.5938,0.0015
		c0.1952,0.0103,0.3929,0.0103,0.5935-0.0015C1094.4554,567.8777,1094.4554,567.8777,1094.4556,567.8777z M1087.8586,565.7949
		c-0.0398-0.012-0.0806-0.0201-0.1206-0.0315C1087.7781,565.7749,1087.8188,565.783,1087.8586,565.7949z M1086.1604,565.5104
		c-0.1953-0.0037-0.3931,0.0035-0.5938,0.0228c-7.3667,0.7112-14.8777,0.2891-22.0222,2.4668
		c-2.1445,0.6499-4.3362,0.8416-6.5391,0.8513c2.2029-0.0098,4.3945-0.2014,6.5388-0.8513
		c7.1445-2.1777,14.6556-1.7556,22.0223-2.4668C1085.7673,565.5138,1085.9651,565.5066,1086.1604,565.5104z M1058.8777,554.9889
		c-1.1833,0.7084-2.4104,1.5167-3.7563,1.6375c1.3459-0.121,2.573-0.9292,3.7562-1.6376
		C1058.8777,554.9888,1058.8777,554.9889,1058.8777,554.9889z M1055.0886,554.2222c-2.3442,0.189-4.5554,0.8779-6.4998,2.189
		c0,0,0-0.0001-0.0001-0.0001C1050.5333,555.0999,1052.7444,554.4111,1055.0886,554.2222L1055.0886,554.2222z M1041.8308,554.6047
		c-3.5167,0.0344-7.178,1.0391-10.7051,1.0525C1034.6528,555.6438,1038.3141,554.6392,1041.8308,554.6047z M1028.3518,555.5791
		c-6.4116-0.0505-12.7955,1.2771-19.194,1.1755C1015.5562,556.8562,1021.9402,555.5284,1028.3518,555.5791z M974.5223,583.2556
		c1.7443-1.8665,4.1218-2.8776,6.3773-3.9664c0.0001,0,0.0002,0.0001,0.0003,0.0001
		C978.6445,580.378,976.2667,581.3892,974.5223,583.2556L974.5223,583.2556z M979.4443,577.067
		c-0.4111,0.511-0.811,1.0443-1.1998,1.5775l0,0C978.6334,578.1112,979.0333,577.578,979.4443,577.067L979.4443,577.067z
		 M1122.3113,615.4554c0.2001-0.489,0.6108-1.4664,0.8109-1.9552h0.0001C1122.9221,613.9892,1122.5112,614.9666,1122.3113,615.4554
		L1122.3113,615.4554z M1450.0447,604.6445c-2.9557,0.3333-5.7556-0.8667-8.5334-1.6c0.5889,1.1111,1.1445,2.2555,1.7666,3.3777
		c-5.9443-0.0555-11.8,0.8667-17.6887,1.3333c-13.7334-0.0778-27.4778-0.0667-41.2002-0.1
		c-5.811,0.389-11.5554,1.4001-17.3887,1.4111c-2.4558,2.8778-7.3002,1.6111-9.0891,5.4445
		c-1.7666,2.6889-4.8333,3.8556-7.8777,4.3333c-15.4445,2.6555-31.1001,3.7-46.7,4.8333c-20,0.4556-40.0222,1.8555-60.0222,0.5333
		c-15.5779,0.0444-31.1001-1.5333-46.5446-3.4111c-3.6666-0.311-7.2667-1.5222-9.7-4.4222
		c6.1666-0.6778,12.2999,0.9333,18.4554,1.2333c14.0668,0.8555,28.1223,2.2555,42.2446,2.1222
		c34.9556,1.511,70.011-0.5667,104.6887-5.0889c1.8,0.5667,3.6444,0.2444,5.4556-0.1334c1.7888-3.8333,6.6333-2.5667,9.0889-5.4445
		c5.8334-0.0111,11.5776-1.0223,17.3888-1.4111c13.7223,0.0334,27.4668,0.0223,41.2001,0.1
		c5.8889-0.4666,11.7444-1.3889,17.6888-1.3333c-0.6222-1.1222-1.1777-2.2667-1.7667-3.3778c2.7778,0.7333,5.5779,1.9333,8.5334,1.6
		c9.7222-0.9222,19.5555,0.6111,29.2556-0.8889c0.7971-0.1083,1.5951-0.1465,2.3931-0.1366
		c-0.7979-0.0099-1.5958,0.0283-2.3931,0.1367C1469.6001,605.2556,1459.7668,603.7222,1450.0447,604.6445z M1541.8557,590.989
		c-0.0222,1.4556-0.0222,2.9111,0,4.3889c-2.3,1.2111-4.8667,0.5666-7.2667,0.2444c-0.6332,0.8222-1.2445,1.6444-1.8334,2.4889
		c-3.0332-1.1667-5.8888,1.0778-8.9222,0.2889c-2.1888-0.6222-4.0665,0.6666-6.011,1.3889c-4.7445,0.6-9.5667-0.2334-14.2889,0.6111
		c-6.2666,1.3334-12.6777-0.6-18.9333,0.9667c1.4111,1.011,2.8223,2.0222,4.2556,3.0444c-0.2888-0.0365-0.5781-0.0771-0.8674-0.1173
		c0.2892,0.0402,0.5785,0.0807,0.8672,0.1172c-1.4332-1.0222-2.8444-2.0334-4.2555-3.0444
		c6.2555-1.5667,12.6666,0.3666,18.9335-0.9667c4.7222-0.8445,9.5443-0.0111,14.2888-0.6111
		c1.9443-0.7223,3.8221-2.0111,6.011-1.3889c3.0334,0.7889,5.8889-1.4556,8.9222-0.2889c0.589-0.8445,1.2001-1.6667,1.8334-2.4889
		c2.4,0.3221,4.9666,0.9667,7.2667-0.2444c-0.0223-1.4778-0.0223-2.9333,0-4.3889c2.37,0.0286,4.6498,0.6781,6.8751,1.478
		C1546.5054,591.6671,1544.2256,591.0176,1541.8557,590.989z M1484.4688,603.8166c0.9534,0.1098,1.9054,0.248,2.8552,0.3845
		C1486.3741,604.0646,1485.4221,603.9264,1484.4688,603.8166z M1564.9446,587.5889c-3.4556-0.1666-6.8889-0.7111-10.3445-0.6777
		c-2.4556,1.0557-3.3223,3.9223-4.7556,5.9668c-0.2224-0.0844-0.4459-0.1664-0.6693-0.2488
		c0.2234,0.0824,0.4469,0.1644,0.6693,0.2488c1.4333-2.0446,2.3-4.9113,4.7555-5.9668c3.4556-0.0334,6.8888,0.511,10.3444,0.6777
		c-0.3666-2.4889-0.511-5-0.4331-7.5c1.141,0.0425,2.2645,0.1759,3.3777,0.3583c-1.113-0.1824-2.2366-0.3157-3.3777-0.3583
		C1564.4333,582.5889,1564.5779,585.1,1564.9446,587.5889z M1577.1196,583.22c0.892,0.3661,1.7794,0.7433,2.6582,1.1355
		c-0.3557-2.0778-0.7778-4.1333-1.2556-6.1556c0.0001,0,0.0001,0.0001,0.0002,0.0001c0.4777,2.0223,0.8999,4.0778,1.2555,6.1556
		C1578.8992,583.9634,1578.0117,583.5862,1577.1196,583.22z M1587.6334,579.6667c-1.4733-0.6789-2.9449-1.3895-4.4263-2.0836
		c1.4813,0.694,2.9529,1.4047,4.4261,2.0835c0.5222-0.2667,1.5444-0.7778,2.0667-1.0333v0.0001
		C1589.1777,578.889,1588.1556,579.4001,1587.6334,579.6667z"/>
	<path fill="#FFFFFF" stroke="#FFFFFF" stroke-width="0.0938" d="M1605.7666,558.8889c2.0668,0.1,4.1666,0.2667,6.2555,0.6111
		c30.4668,5.0445,60.9113,10.2444,91.4,15.1889c1.3,0.2555,2.6445,0.4222,4.0222,0.4779c0.6334,0.1444,1.9001,0.4333,2.5446,0.5778
		c0.811,0.1223,2.4443,0.3667,3.2667,0.4889c1.1554,0.1556,2.3221,0.3556,3.4999,0.5889c1.3223,0.3112,2.6779,0.4889,4.0779,0.5444
		c2.6666,0.6445,5.3888,1.0889,8.1111,1.5c1.4332,0.2778,2.9,0.5111,4.4,0.7c1.0554,0.1444,2.1333,0.3222,3.2333,0.5111
		c0.7778,0.1222,2.3334,0.3778,3.1111,0.5c0.6556,0.1334,1.9667,0.4,2.6222,0.5222c0.8113,0.1445,2.4446,0.4222,3.2667,0.5555
		c1.0889,0.1556,2.2,0.3444,3.3223,0.5667c1.3555,0.3,2.7555,0.4889,4.1888,0.5555c37.4333,6.6223,74.9667,12.7889,112.5,18.8889
		c0.0112,2.5334-0.0444,5.0667-0.0555,7.6111c-0.4666-1.9-1.0221-3.7778-1.5222-5.6445c-3.3556-0.8667-6.8223-1.4444-10.2778-0.9111
		c-27.5222,3.4555-55.2333,4.9666-82.8,7.9333c-13.6222,1.1334-27.2333,2.2556-40.8333,3.5222c-7.9111,1.4333-15.9556,1.1445-23.9,2
		c-14.4666,1.9889-29.1,2.2889-43.5667,4.2444c-26.7777,1.6667-53.4445,4.8889-80.2222,6.6889
		c-10.7445,1.6667-21.6334,1.9667-32.4333,3.1332c-43.7223,3.7111-87.4001,7.6222-131.1001,11.6667
		c-14.5,0.7778-28.8666,3.1111-43.3667,3.8c-12.4888,1.4778-25.0889,1.9111-37.5555,3.5889
		c-14.1444,1.0333-28.2999,1.9111-42.3777,3.6888c-24.1223,1.5334-48.1334,4.5111-72.2556,6.0778
		c-34.4445,3.2778-68.9332,6.2667-103.4,9.4556c-11.1333,0.3445-22.1444,2.2778-33.2666,2.8112
		c-9.5222,0.4555-18.9778,2.5111-28.5333,1.8889c-5.3778-1.4-10.4889-3.6445-15.6888-5.5667
		c-27.2556-10.3333-54.7-20.1444-81.9556-30.4889c-17.3778-6.6333-34.9889-12.7-52.2-19.7222
		c3.0555-0.9111,5.9666,0.7778,9.011,0.7444c8.3667-0.3667,16.5556,2.1667,24.9333,1.8223c6.3555-0.3445,12.5889,1.6666,18.9667,1.1
		c8.2333-0.5444,16.1667,2.5778,24.3889,2.2666c10.1-0.4555,19.9333,2.6556,30.0444,2.2667c8.8223,1.6,17.8221,0.3,26.6444,1.9
		c5.7223,0.8,11.5333-0.3222,17.2445,0.7444c6.5555,1.2222,13.2555,0.1333,19.8555,1.0444
		c6.1555-0.3112,12.2445,1.0778,18.4111,0.6666c12.9111-0.0555,25.8334,1.5445,38.7445,0.5667
		c11.8555,1.1445,23.7888,0.3666,35.6777,0.6888c14.0333,1.7667,28.2111,0.7667,42.3223,1.0001
		c4.8333-0.1667,9.8112,0.7444,14.5222-0.7223c-11.5333-0.9778-23.1333-0.2111-34.7-0.4555
		c-2.1779,0.1111-4.0111-1.1334-5.8334-2.1111c5.5333,0.2556,11.0889,0.1889,16.6333,0.1667
		c82.7778,1.3666,165.6666-0.8889,248.089-8.8333c30.4999-3.2111,61.0221-6.9889,90.9332-13.8778
		c7.8112-1.9444,15.7223-3.7888,23.1555-6.9222c8.4667-5.4666,16.1334-12.1333,22.9445-19.5555
		c3.9335-3.8,7.1556-8.2333,10.5668-12.4888C1602.8555,564.8444,1604.9222,562.1444,1605.7666,558.8889z"/>
	<path fill="#FFFFFF" stroke="#FFFFFF" stroke-width="0.0938" d="M1495.3223,839.2777c3.0667-0.4445,6.1777-0.6666,9.2777-0.4111
		c15.8223,6.0555,31.7666,11.7444,47.6,17.7889c3.1112,1.3222,6.7001,1.8778,9.3445,4.1444
		c-20.6,2.3557-41.0111,6.0778-61.6222,8.2557c-10.5223-4.1777-21.1779-8.0446-31.6112-12.4556
		c6.4557-2.5333,13.5223-2.1555,20.2223-3.7222c11.2999-1.1889,22.5444-2.9333,33.8223-4.4667
		C1514.089,843.4444,1503.6556,844.1111,1495.3223,839.2777z"/>
	<path fill="#FFFFFF" stroke="#FFFFFF" stroke-width="0.0938" d="M1575.5222,1174.6555c6.8445-0.2444,13.1888-3.2222,20-3.7222
		c0.5-0.0444,1.4999-0.1556,2-0.2111c6.6,3.111,13.9111,4.0667,20.7112,6.6222c7.0889,2.5555,14.4332,4.2555,21.6998,6.2333
		c13.5779,4.4445,27.3335,8.2445,41.0223,12.3223c11.9778,3.6112,23.9222,7.3112,35.9778,10.6222
		c4.311,1.5444,8.7222,2.8112,13.2777,3.5c1.0111,0.5111,2.0446,1.0112,3.1111,1.4889
		c10.0446,4.3778,19.4222,10.1222,29.2334,15.0111c8.9,5.7556,18.6555,10,27.7778,15.3889
		c5.0111,3.1222,10.7111,5.1111,15.3333,8.8445c-7.8112,2.9554-16.1222,4.1333-24.1444,6.3889
		c-9.9556,2.7333-20.1,4.7332-30.0222,7.5889c-6.2999,1.5887-12.7889,2.2778-18.9445,4.4221
		c-62.0111,14.8334-123.8667,30.2667-185.7889,45.4445c-39.7333,9.2444-79.189,19.6666-118.9554,28.7889
		c-23.8889,6.5778-48.189,11.4556-72.1112,17.8555c-27.0333,6.5334-54.0778,13.0111-81.0444,19.7667
		c-18.4111-16.3666-36.8555-32.7112-55.3221-49.0111c-0.6-3.9889-1.0889-7.9889-0.7112-12.0222
		c0.6888-9.2666-1.2-18.4667-0.6555-27.7444c0.4333-13.5778-0.8445-27.2001,0.0222-40.7445
		c12.5111-2.7222,24.9556-5.7333,37.5667-8.0111c5.5222-1.0111,10.9111-2.7778,16.5222-3.3445l0.9556-0.0333
		c6.3555,2.5779,13.2999,3.1666,19.6777,5.7111c-0.4778,8.6779,6.1,15.4111,12.8889,19.7778
		c3.9222,2.3556,8.1,4.3889,11.4332,7.6111c-3.0332,0.6112-6,1.8778-7.7666,4.5444c1.0889,1.689,2.4222,3.2334,4.0778,4.4333
		c15.0444,11.6334,29.9667,23.4111,44.9889,35.0779c5.0668,4.0776,12.0779,4.0999,18.2223,3.2555
		c2.4667-0.5222,5.4556-1.4445,6.5778-3.9332c0.7556-2.8557-2.4222-4.2001-4.1556-5.689
		c-13.1444-10.1444-26.4666-20.0333-39.5555-30.2445c5.5333-1.2777,10.8889,1.5778,16.4557,1.4779
		c1.1777,0.7777,2.3667,1.5887,3.5221,2.4554c10.3112,8.0333,20.8667,15.7334,31.2334,23.6888
		c6.0111,5.3223,15.0555,5.9557,22.4333,3.5446c2.5889-0.5668,5.2778-4.4,2.4221-6.2889c-7.411-5.8445-15.2666-11.1445-22.6776-17
		c4.4332-0.4778,8.9666,0.6,13.311-0.8112c1.1222,0.7334,2.2778,1.4222,3.4222,2.189c4.7444,3.6334,9.6222,7.0889,14.4,10.7001
		c6.1332,4.9443,14.9332,5.7554,22.2555,3.2888c2.2111-0.6223,4.6111-2.9445,3.0889-5.3445
		c-2.7222-2.5222-5.9221-4.4445-8.811-6.7444c5.5,0.2444,10.8777,1.8556,16.4332,1.4222
		c6.9779,4.8666,16.0334,4.7777,23.9557,2.6444c6.2666,1.8,12.9222,2.4221,19.3999,1.6444c-2.2111-2.0223-5.2444-2.2445-8.0555-2.6
		c5.9222-0.1112,11.8445-0.0779,17.7667-0.1666c12.7333,0.0887,25.5889-2.2778,37.3333-7.2223
		c5.8445-2.2333,8.989-8.1666,9.689-14.1112c6.7444,1.7112,15.0333,2.8446,20.6779-2.1777
		c-0.6223-1.4888-1.2445-3.0221-2.7112-3.7889c-5.0444-3.2332-10.0778-6.4777-15.1111-9.7c0.6111-2.7,1.1333-5.4111,1.5667-8.1333
		c6.9667,4.6001,14.189,8.7999,21.1555,13.4111c6.5667,4.7889,15.7778,5.7999,23.3112,2.9111
		c2.6111-0.7223,2.6111-4.3223,0.2222-5.3221c-13.6667-8.7445-27.6333-17.0334-41.2889-25.7891
		c-0.0332-2.6666-0.5778-5.4777,1.0557-7.8109c16.2667,9.7776,32.4667,19.7111,48.6,29.7222
		c6.2333,3.9221,14.4,4.8221,21.3221,2.2888c1.6001-0.6112,3.7889-2.8334,1.9001-4.3888c-3.6556-3.2112-8.189-5.2001-12.2556-7.8112
		c-11.7888-7.1777-23.6779-14.1667-35.4445-21.3778c-5.2222-3.0889-10.2001-7.1111-16.4222-7.8223
		c-2.1333-0.4222-4.2444-0.8667-6.3333-1.2889C1570.4778,1202.5333,1572.4332,1188.4778,1575.5222,1174.6555 M1645.7999,1202.2111
		c1.6333,1.7112,3.6334,3.0111,5.7223,4.1333c17.0333,9.6334,34.0778,19.2668,51.0446,29.0111
		c6.4777,3.9,14.8887,5.4668,22.0443,2.5668c2.3223-0.8334,2.7111-3.9778,0.3333-5.0111c-18.4667-10.5-37.0999-20.7112-55.6444-31.1
		c-4.3999-2.8112-9.7111-3.8-14.8666-3.5778C1651.2444,1198.4221,1647.3556,1199.0111,1645.7999,1202.2111 M1622.6333,1205.0889
		c-2.2,0.3667-4.6445,1.3-5.0889,3.7666c3.6112,3.7002,8.6334,5.5668,12.9443,8.3445
		c13.4113,7.7556,26.7557,15.6112,40.1335,23.4113c7.3221,5.0554,17.4443,7.8109,25.7555,3.6111
		c2.4554-1.2556,0.6666-4.2445-1.2445-4.9668c-18.1112-10.4333-36.2333-20.8555-54.3999-31.1888
		C1635.4,1204.7111,1628.7333,1204.0333,1622.6333,1205.0889 M1588.6,1215.4888c2.689,2.8,6.3333,4.3223,9.5778,6.3889
		c13.1112,8.0001,26.3778,15.7445,39.5444,23.6556c5.3112,3.0111,10.3556,7.0555,16.7112,7.5
		c4.811,0.3777,11.4333,0.8334,14.1666-4.1111c-1.8334-2.6555-4.8556-3.9222-7.4778-5.5555
		c-13.4443-7.6222-26.6111-15.7112-39.9889-23.4224c-6.7-3.7111-13.0555-9.011-21.1111-8.9666
		C1596.0555,1211.0778,1589.9889,1210.7999,1588.6,1215.4888 M1276.0333,1285.5555c0.7889,1.2111,1.7222,2.4,2.9111,3.3112
		c15.6666,12.4445,31.0555,25.2444,46.7999,37.6111c5.8778,3.2444,13.4445,3.5555,19.7,1.1333
		c2.0221-0.811,5.1222-2.7444,3.5668-5.3c-3.9222-3.9666-8.6555-7.0332-12.9556-10.5444c-10.0778-8.1333-20.3667-16-30.4445-24.1333
		c-3.8556-2.9445-7.5667-6.6222-12.6777-6.9667C1287.1888,1279.9556,1279.4,1279.9222,1276.0333,1285.5555 M1249.4333,1288.4221
		c-2.4667,0.6223-5.1667,1.5222-6.5778,3.8113c-0.8778,1.7555,0.9443,2.9777,2.0444,4.0333
		c13.2999,11.1333,26.6333,22.2333,39.9333,33.3778c3.3888,2.5221,6.2999,6.1443,10.6777,6.9777
		c6.0667,1.4,13.3223,1.4111,18.3778-2.6777c2.0778-1.7556,0.5778-4.2889-1.189-5.5223
		c-15.3445-12.411-30.5667-24.9888-45.8889-37.411C1261.8555,1287.3889,1255.2222,1287.5111,1249.4333,1288.4221z"/>
	<path fill="#FFFFFF" stroke="#FFFFFF" stroke-width="0.0938" d="M1408.4778,1210.5667
		c12.3444-2.1333,24.4445-5.5667,36.8334-7.4778c0.8999,5.6222,1.8334,11.2445,2.7444,16.8667
		c-0.1667,0.5222-0.5111,1.5555-0.6777,2.0667c-14.2334-4.8999-29.089-7.7334-44.0446-9.2556
		C1404.1444,1210.7556,1406.7223,1211.1222,1408.4778,1210.5667z"/>
	<path fill="#FBFBFB" stroke="#FBFBFB" stroke-width="0.0938" d="M851.0777,564.6333c24.4667-1.4777,48.9111-3.1667,73.3667-4.6667
		c0.7-0.0111,2.0889-0.0444,2.7889-0.0555l0.4445-0.0333l0.9333-0.0444c2.8889,7.4445,8.5889,13.1444,13.4778,19.2889
		c4.2,5.0223,9.2667,9.2111,13.9999,13.7112c3.4,3.4778,8.2667,4.9222,11.7111,8.3555c1.4999,1.689,3.8333,1.7222,5.9,2.2111
		c4.9,3.4111,10.8222,4.6667,16.5,6.2111c13.0222,3.4334,26.3334,5.6223,39.6333,7.7223
		c45.7223,6.4889,91.8778,9.1666,137.9779,10.8555c6.9,0.3112,13.8334-0.0889,20.6998,0.7778
		c1.8223,0.9778,3.6556,2.2222,5.8334,2.1111c11.5667,0.2444,23.1666-0.5222,34.7,0.4555
		c-4.7111,1.4667-9.6888,0.5555-14.5222,0.7222c-14.1111-0.2333-28.2889,0.7665-42.3223-1
		c-11.8889-0.3222-23.8221,0.4555-35.6777-0.6889c-12.9111,0.9778-25.8334-0.6222-38.7444-0.5667
		c-6.1667,0.4111-12.2556-0.9778-18.4111-0.6667c-6.6-0.9111-13.3,0.1778-19.8556-1.0444
		c-5.7111-1.0667-11.5222,0.0555-17.2445-0.7444c-8.8221-1.6-17.8221-0.3-26.6443-1.9
		c-10.1111,0.3889-19.9445-2.7223-30.0444-2.2667c-8.2223,0.3112-16.1555-2.8112-24.3889-2.2667
		c-6.3777,0.5667-12.6111-1.4444-18.9667-1.1c-8.3777,0.3444-16.5667-2.1888-24.9333-1.8223
		c-3.0444,0.0334-5.9555-1.6555-9.0111-0.7444c-15.0444-5.1667-29.8444-11.0556-44.8111-16.4556
		c-23.7-9.0333-47.6-17.5555-71.3223-26.5333c-3.9444-1.5111-7.8111-3.5001-12.1222-3.5556c-0.4222,1.2889-0.8112,2.6-1.1778,3.9223
		c-0.1-1.7667-0.2111-3.5222-0.3333-5.2668C802.6555,567.4555,826.9,566.4222,851.0777,564.6333z"/>
	<path fill="#E7F0F1" stroke="#E7F0F1" stroke-width="0.0938" d="M928.6111,559.8333c1.5889-0.0889,3.1777-0.1889,4.7778-0.2889
		c3.9889,5.4333,6.9222,11.5889,11.511,16.5889c8.1667,10.4778,18.2,19.3223,28.8,27.2667c-2.0667-0.4889-4.4-0.5222-5.9-2.2111
		c-3.4445-3.4333-8.3111-4.8777-11.7111-8.3555c-4.7333-4.5-9.8-8.6889-13.9999-13.7112
		C937.2,572.9777,931.4999,567.2777,928.6111,559.8333z"/>
	<path fill="#DEDEDE" stroke="#DEDEDE" stroke-width="0.0938" d="M780.0222,570.9c4.3111,0.0555,8.1778,2.0445,12.1223,3.5555
		c23.7222,8.9778,47.6222,17.5,71.3222,26.5334c14.9666,5.4,29.7667,11.2888,44.8112,16.4555
		c17.2111,7.0223,34.8222,13.0889,52.2,19.7222c27.2556,10.3445,54.7,20.1556,81.9556,30.4889
		c5.2,1.9222,10.311,4.1667,15.6888,5.5667c1.4222,5.5,0.7889,11.2222,1.0778,16.8334c7.5555,242.8112,15,485.6223,22.4445,728.4444
		c1.7333,60.5,3.9332,120.9889,5.4333,181.5H836.4666c-4.4111-84.2334-9.4222-168.4221-14.2333-252.6222
		c-0.8222-14.4667-1.4667-28.9557-2.4889-43.4113c-0.3555-5.1776-0.5111-10.3666-0.8222-15.5444
		c-3.2778-60.4333-6.7444-120.8444-10.0444-181.2777c1.2556-5.5112,0.7111-11.1667,0.6777-16.7556
		c-0.3778,0.1555-1.1221,0.4667-1.5,0.6222c-3.8333-62.9556-7.1-125.9555-10.9-188.9111c-0.1889-3.1222-0.4-6.2444-0.5333-9.3555
		c-0.0334-1.1221-0.0889-2.2222-0.1888-3.3111c-0.4111-5.5333-0.7-11.0555-0.9111-16.5889
		c-0.2778-7.9778-0.9556-15.9333-1.3334-23.9c-0.3666-4.9889-0.6111-9.9889-0.8222-14.9666c-0.0444-2.5-0.3-4.9778-0.5222-7.4445
		c-0.2222-3.8555-0.4333-7.7111-0.5889-11.5556c-0.7557-14.2222-1.5-28.4555-2.4224-42.6667
		c-0.4667-4.6556-0.5333-9.3444-0.7333-14.0111c-1.4223-27.6777-3.1445-55.3333-4.6111-83
		c-1.7889-32.0111-3.4111-64.0556-5.5334-96.0444c-0.0667-1.4778-0.1-2.9667-0.1111-4.4333
		C779.2111,573.5,779.6,572.1888,780.0222,570.9z"/>
	<path fill="#DEDEDE" stroke="#DEDEDE" stroke-width="0.0938" d="M1428.8777,783.3555
		c107.3445-13.1445,214.7334-25.9333,322.1112-38.7556c-0.7667,39.2222-2.689,78.4445-3.6667,117.6779
		c-4.1666,116.1889-7.7666,232.4111-11.9888,348.6001c-0.5001,0.1556-1.5112,0.4778-2.0112,0.6333
		c-1.0665-0.4777-2.1-0.9778-3.1111-1.4889c-20.0889-12.2111-41.2777-22.4666-61.7-34.1
		c-8.3333-4.0889-16.1111-9.2111-24.4333-13.2889c-2.9889-1.7666-6.4222-0.9443-9.5557-0.2111
		c-12.3555,2.6777-24.8221,4.8888-36.9999,8.3c-0.5001,0.0554-1.5,0.1666-2,0.2111c0.5555-30.7001,1.2222-61.3778,1.8889-92.0779
		c-0.4889-9.4443,1.1-18.7888,1.8112-28.1777c0.4999-2.8112,1.4777-5.6111,1.1777-8.4778c-0.4668-2.6777-1.7333-5.1-2.5778-7.6444
		c1.2111-12.9111,1.0889-25.9445,0.9221-38.8999c-24.0889,3.5889-47.9888,8.4-72.0555,12.1111
		c0.2445-9.5222,0.4667-19.0444,0.3-28.5667c1.4221-0.9111,2.4778-2.2444,2.6445-3.9778
		c1.2998-8.1888,5.3555-16.5667,2.2222-24.8444c-1.3223-3.2222-5.3445-2.4111-8.1001-2.8889
		c-1.1444-3.4778,3.4445-4.6111,2.3889-7.9778c-3.0221-0.3112-6.0889-0.5555-8.9445-1.6223c14.389-2.9111,29-4.5111,43.4-7.3777
		c0.7112-23.2223,1.0444-46.4778,0.9445-69.7112c-2.6444-2.2667-6.2333-2.8222-9.3445-4.1445
		c-15.8334-6.0444-31.7777-11.7333-47.6-17.7889c-2.7001-0.8889-5.3777-1.9889-7.4666-3.9667
		c13.2999-2.2778,26.7444-3.6666,40.1111-5.5555c0.0111-2.8,0.1666-5.6-0.2112-8.3667c-0.9111-1.3111-2.811-0.8334-4.1445-1.2112
		c-10.1998-1.5889-20.4556-2.6111-30.6777-3.9778c-6.3-0.6445-12.5889-1.3555-18.8666-2.1444
		c-13.5223-2.5668-26.9333,2.0221-40.4111,2.7778c-2.7001-2.2333-6.2222-3-9.6223-2.3c-17.8223,2.6333-35.811,4.1555-53.5667,7.1333
		c3.3112,2.2666,7.2112,3.3333,10.9222,4.8c25.8445,10.2667,51.7888,20.2889,77.6444,30.5444
		c10.4333,4.4111,21.0889,8.2778,31.6112,12.4556c-0.3112,23.4334-0.1333,46.8778-0.6,70.3112
		c0.4777,3.9445,1.1111,7.8778,1.8666,11.7778c-0.0667,1.2,1.2223,1.5111,1.9335,2.2111
		c0.4666,5.3444,0.9667,10.9333,3.3553,15.8222c2.1334,2.8444,1.0557,6.9111-1.3221,9.2889
		c0.4889,0.5222,1.0112,1.0667,1.5333,1.6222c-2.5333-0.3666-5.0444-1.0444-7.5999-0.9333
		c-1.5334,0.6889-0.7668,2.8445-1.0334,4.1889c0.2222,9.6778-0.1667,19.3555-0.1222,29.0445
		c-22.5779,0.6222-45.7667,2.9778-66.6222,12.2332c-10.0557,1.8112-20.2112,3.1334-30.2001,5.3112
		c-3.1001,8.2778-4.2001,17.1556-6.5333,25.6666c-5.6555,24.6001-11.9556,49.0667-17.4778,73.7001
		c-4.0111,16.7667-8.2778,33.4889-11.7001,50.3778c6.3335,0.0668,12.8557,0.9667,18.3334,4.3889
		c8.8334,5.5,14,15.0333,17.7667,24.4222c0.2999,1.1666,1.6223,3.3556-0.4222,3.7222c-7.2888,2.5889-15.0889,3.1223-22.5555,5.0111
		c-25.5334,5.7112-51.2111,10.7445-76.7,16.6333c-9.6112,2.0555-19.3112,3.7002-28.7889,6.2445l-0.9556,0.0333
		c6.0446-25.3223,12.9889-50.4333,19.1112-75.7445c3.0667-11.811,6.3334-23.5889,8.9332-35.5222
		c-2.5778,0.3-5.1333,0.6223-7.6777,0.9556c-0.3667-4.1-0.6333-8.3445,0.6445-12.3112c8.7222-24.2999,17.1777-48.7,25.7444-73.0444
		c-10.0333,0.8556-19.8223,3.4778-29.8,4.8c-24.7666,4.2222-49.4888,8.7001-74.2666,12.7778
		c-0.8112-25.8334-0.9445-51.7001-1.5446-77.5334c-0.7111-58.2889-2.2555-116.5889-2.6777-174.8556
		C1283.311,800.8333,1356.0778,791.9,1428.8777,783.3555z"/>
	<path fill="#DEDEDE" stroke="#DEDEDE" stroke-width="0.0938" d="M1218.9667,1333.6888c0.0889-0.4222,0.2777-1.2666,0.3667-1.6888
		c18.4667,16.2999,36.911,32.6445,55.3221,49.0111c-0.3445,34.4333,0.9445,68.8778,0.8667,103.3223l-0.9889,0.0667
		c-5.6444-7.6223-13.8223-12.7889-19.8667-20.0667c-3.0222-4.0667-7.4445-6.7112-10.6333-10.6112
		c-4.3889-5.2444-10.6556-8.5665-14.6333-14.1777c-2.3667-3.6222-6.5444-5.3444-9.2445-8.5778
		c-0.7666-4.7778,0.8334-9.5001,0.9445-14.2666c0.5333-5.9778-0.6333-11.889-1.0778-17.8223
		c-0.2111-14.4333,0.2-28.8778-0.0889-43.3112c-0.1111-5.189-2.1445-10.3888-0.7556-15.5333
		C1219.7333,1337.9333,1219.2333,1335.7777,1218.9667,1333.6888z"/>
	<path fill="#F3F3F3" stroke="#F3F3F3" stroke-width="0.0938" d="M1853.7333,602.7222c3.4556-0.5333,6.9222,0.0444,10.2778,0.9111
		c0.5001,1.8667,1.0557,3.7444,1.5222,5.6445c0.0333,0.3112,0.089,0.9445,0.1222,1.2667
		c-0.2555,3.9778-0.4222,7.9777-0.6444,11.9778c-3.0222,65.2445-5.8778,130.5333-8.7111,195.8111
		c-0.3667,6.4445-0.3445,12.9-0.7778,19.3334c-0.1222,1.3333-0.2111,2.6777-0.2778,4.0333
		c-0.3666,6.4222-0.3666,12.8444-0.7222,19.2667c-0.1888,2.0555-0.3667,4.1111-0.3778,6.1889
		c-0.3,6.1777-0.4222,12.3555-0.7666,18.5333c-0.1555,1.9778-0.3112,3.9778-0.3556,5.9889
		c-0.2778,6.5111-0.3333,13.0333-0.7666,19.5333c-0.1445,1.6111-0.2667,3.2333-0.2667,4.8778
		c-0.2999,6.4445-0.3889,12.9-0.7556,19.3444c-0.1444,1.6778-0.2777,3.3777-0.2888,5.0889
		c-0.3333,6.8777-0.4111,13.7667-0.8445,20.6333c-0.1111,1.2667-0.1667,2.5334-0.1888,3.8223c-0.3445,6.9999-0.3667,14.011-0.9,21
		c-0.1,1.1-0.1667,2.2222-0.189,3.3556c-0.3444,7.1222-0.4332,14.2667-0.8777,21.3889c-0.5778,9.5221-0.8667,19.0557-1.3,28.5889
		c-0.2555,7.0667-0.5111,14.1444-0.9221,21.2222c-0.0223,0.3112-0.0557,0.9222-0.0779,1.2334
		c-0.3333,6.3777-0.2999,12.7777-0.7666,19.1555c-0.2667,3.1888-0.5333,6.4-0.4556,9.6222
		c-0.2445,6.3334-0.5222,12.6667-0.9222,18.9889c-0.1555,2.1779-0.2112,4.3778-0.1555,6.5889
		c-0.2222,5.5444-0.5,11.1-0.9222,16.6444c-0.1223,1.5-0.1888,3.0333-0.1555,4.5779c-0.1556,6.1555-0.3223,12.311-0.7556,18.4667
		c-0.4,3.4222-0.4667,6.8778-0.3778,10.3445c-0.2223,4.0333-0.3667,8.0778-0.5889,12.1332c-0.5111,3.7224-0.5889,7.4889-0.5,11.2556
		c-0.1444,4.2667-0.311,8.5333-0.6222,12.8c-0.4,4.2111-0.6555,8.4443-0.4667,12.6777c-0.2223,4.8112-0.4111,9.6223-0.7111,14.4445
		c-3.3445,72.9-6.5333,145.8445-9.6779,218.7667c-0.3,4.9332-0.4,9.8778-0.5889,14.8221c-0.8889,10.9778-0.8,22.0001-1.5555,32.9779
		c-0.3445,6.8333-0.4556,13.6777-0.7778,20.511c-0.1888,2.0555-0.3666,4.1445-0.3889,6.2445
		c-0.2333,6.1444-0.3333,12.311-0.7222,18.4667c-0.2333,2.2999-0.3889,4.6111-0.311,6.9556
		c-0.2667,6.2444-0.4222,12.5111-0.8002,18.7666c-0.1444,1.1445-0.2222,2.3112-0.2333,3.5111
		c-0.3112,7-0.4556,14.0223-0.8444,21.0333c-0.3667,2.8-0.4446,5.6333-0.4668,8.4778h-359.1
		c6.6444-2.8223,13.8334-3.9333,20.5555-6.5778c23.6888-7.0667,47.2334-14.6333,71.0112-21.4
		c19.6555-6.4889,39.6555-11.9,59.3777-18.1777c26-7.6777,51.8778-15.7778,77.8445-23.5667
		c9.3666-50.0778,18.0333-100.2889,27.089-150.4222c0.9666-4.4222,1.7109-8.8889,2.0221-13.3999
		c-5.5778,0.2887-10.7,2.7887-16.1777,3.6776c-138.8777,37.0112-277.7445,74.0779-416.6112,111.1556
		c-4.1111,1.0778-8.1777,2.311-12.3666,3.0444c0.0778-34.4445-1.2112-68.8889-0.8667-103.3223
		c26.9667-6.7556,54.011-13.2333,81.0443-19.7666c23.9222-6.4,48.2223-11.2778,72.1112-17.8556
		c39.7665-9.1223,79.222-19.5446,118.9554-28.7889c61.9222-15.1777,123.7778-30.6111,185.7889-45.4445
		c6.1555-2.1443,12.6445-2.8334,18.9445-4.4221c9.9222-2.8557,20.0667-4.8556,30.0222-7.5889
		c8.0222-2.2556,16.3333-3.4335,24.1444-6.3889c-4.6223-3.7334-10.3221-5.7223-15.3333-8.8445
		c-9.1223-5.3889-18.8778-9.6333-27.7778-15.3889c-9.8112-4.8889-19.1888-10.6333-29.2334-15.0111
		c0.5-0.1555,1.5111-0.4777,2.0112-0.6333c4.2223-116.1891,7.8223-232.4113,11.9889-348.6002
		c0.9778-39.2333,2.9-78.4556,3.6667-117.6778c-107.3778,12.8222-214.7667,25.6111-322.1112,38.7556
		c-72.7999,8.5445-145.5667,17.4778-218.3333,26.3c0.4222,58.2667,1.9667,116.5667,2.6777,174.8556
		c0.6,25.8333,0.7333,51.7,1.5444,77.5333c24.7778-4.0778,49.5-8.5557,74.2667-12.7778c9.9778-1.3223,19.7666-3.9445,29.8-4.8
		c-8.5668,24.3445-17.0223,48.7445-25.7445,73.0444c-1.2778,3.9667-1.0111,8.2112-0.6444,12.3112
		c2.5444-0.3333,5.1-0.6555,7.6777-0.9556c-2.6001,11.9333-5.8667,23.7112-8.9333,35.5222
		c-6.1222,25.3112-13.0667,50.4222-19.1111,75.7445c-5.6111,0.5667-11,2.3334-16.5222,3.3445
		c-12.6111,2.2778-25.0555,5.2889-37.5667,8.0111c-0.8667,13.5444,0.4111,27.1667-0.0222,40.7445
		c-0.5444,9.2777,1.3444,18.4778,0.6555,27.7444c-0.3778,4.0333,0.1111,8.0333,0.7112,12.0222
		c-0.089,0.4222-0.2778,1.2666-0.3667,1.6888c-1.7111,4.0333-2.7778,8.2778-3.8334,12.5222
		c-23.1,81.1111-46.0889,162.2334-68.9889,243.4001c-1.0222,3.3555-1.1112,6.8999-0.6779,10.3888h-58.3888
		c-1.5-60.5111-3.7001-121-5.4333-181.5c-7.4445-242.8223-14.8889-485.6333-22.4445-728.4444
		c-0.2889-5.6111,0.3444-11.3334-1.0778-16.8334c9.5555,0.6222,19.0111-1.4333,28.5333-1.8889
		c11.1222-0.5333,22.1333-2.4666,33.2666-2.8112c34.4668-3.1888,68.9556-6.1777,103.4-9.4556
		c24.1223-1.5666,48.1334-4.5444,72.2556-6.0777c14.0778-1.7778,28.2333-2.6556,42.3778-3.6889
		c12.4667-1.6778,25.0668-2.1111,37.5557-3.5889c14.5-0.6889,28.8666-3.0222,43.3667-3.8c43.7-4.0445,87.3778-7.9556,131.1-11.6667
		c10.7999-1.1666,21.6888-1.4666,32.4333-3.1332c26.7778-1.8,53.4445-5.0223,80.2222-6.689
		c14.4667-1.9556,29.1001-2.2556,43.5667-4.2444c7.9445-0.8555,15.9889-0.5667,23.9-1.9999
		c13.6-1.2667,27.2111-2.3889,40.8334-3.5222C1798.5,607.6888,1826.2111,606.1777,1853.7333,602.7222z"/>
	<path fill="#F3F3F3" stroke="#F3F3F3" stroke-width="0.0938" d="M1499.9222,869.0555c20.6111-2.1778,41.0222-5.9,61.6222-8.2557
		c0.1,23.2333-0.2333,46.489-0.9445,69.7112c-14.4,2.8667-29.011,4.4667-43.4,7.3778c-6.0778-0.5778-11.7999,2.9555-17.8777,1.4778
		C1499.7889,915.9333,1499.6111,892.4888,1499.9222,869.0555z"/>
	<path fill="#F3F3F3" stroke="#F3F3F3" stroke-width="0.0938" d="M1526.6888,1007.7667
		c24.0668-3.7112,47.9667-8.5222,72.0555-12.1111c0.1667,12.9555,0.2889,25.9889-0.9221,38.8999
		c-4.6556-2.7667-8.7223-6.489-13.7223-8.6445c-18-8.2111-37.8445-11.1111-57.3999-12.7222
		c-0.0557-1.5333-0.0779-3.0444-0.0668-4.5445L1526.6888,1007.7667z"/>
	<path fill="#F3F3F3" stroke="#F3F3F3" stroke-width="0.0938" d="M1401.1111,1029.9333c9.9889-2.1779,20.1444-3.5,30.2001-5.3112
		c-5.089,2.3333-9.9222,5.9333-12.3889,11.1001c-1.1667,2.3223,0.0778,4.8556,0.3,7.2666
		c-0.3668,6.9222,0.8444,13.8334,1.2665,20.7445c0.5779,7.2888,1.0557,14.6,1.778,21.8889
		c0.2222,5.0778,5.6221,7.8555,6.0443,12.8778c5.8,34.8444,11.1334,69.7555,17.0001,104.5887
		c-12.3889,1.9111-24.489,5.3445-36.8334,7.4778c-1.7555,0.5555-4.3334,0.189-5.1445,2.2
		c14.9556,1.5222,29.8112,4.3557,44.0446,9.2556c0.1666-0.5111,0.511-1.5444,0.6777-2.0667
		c1.0111,8.1445,2.3556,16.2444,3.8666,24.3221c-4.3445,0.189-9.2-0.1333-12.8444,2.6222c-1.7445,1.0112-1.1444,3.7113,0.5,4.5223
		c4.7889,3.5444,9.8444,6.7111,14.6666,10.2222c0.9557,3.6,1.5555,7.2667,1.9778,10.9667c-9.1555-5.911-17.9111-12.411-26.9445-18.5
		c-6.1554-3.3888-14.1222-3.8445-20.5222-0.8666c-2.3221,0.7333-2.8112,4.0333-0.6444,5.2777
		c16.1888,11.6556,32.5778,23.0778,48.7999,34.7001c-5.5555,0.4333-10.9332-1.1779-16.4332-1.4222
		c-0.1666-0.1223-0.5223-0.3667-0.6888-0.4889c-11.089-7.7889-22.0001-15.8-33.0555-23.6111
		c-4.9668-3.2889-9.4113-7.9779-15.5779-8.8c-5.3889-0.7445-11.7445-0.8445-16.1111,2.8888
		c-0.6888,1.4889-0.1777,3.2334,1.311,4.0446c9.8778,7.3444,19.9111,14.4889,29.7667,21.8777
		c-4.3445,1.4111-8.8778,0.3334-13.311,0.8112c-0.689-0.5222-1.3778-1.0333-2.0334-1.5c-7.9-5.8-15.7777-11.6222-23.6111-17.511
		c-6.2223-4.9224-15.2111-5.3779-22.4-2.4446c-1.6555,0.7-4.1666,2.9778-2.1888,4.7111c4.1222,3.8,8.8556,6.9111,13.3,10.3446
		c-5.5667,0.0999-10.9222-2.7556-16.4557-1.4779c-1.0444-0.8223-2.0778-1.6333-3.089-2.4332
		c-4.411-4.4222-10.8667-5.9001-16.9221-5.2778c-0.6,0.0667-1.7778,0.2-2.3778,0.2666c-3.3334-3.2222-7.5111-5.2555-11.4333-7.6111
		c-6.7888-4.3667-13.3667-11.1-12.8888-19.7778c-6.3778-2.5444-13.3223-3.1332-19.6779-5.7111
		c9.4778-2.5443,19.1779-4.189,28.7888-6.2445c25.4889-5.8888,51.1666-10.9221,76.7001-16.6333
		c7.4667-1.8888,15.2667-2.4222,22.5555-5.0111c2.0444-0.3666,0.7222-2.5555,0.4221-3.7222
		c-3.7666-9.3889-8.9332-18.9222-17.7666-24.4222c-5.4777-3.4222-11.9999-4.3221-18.3334-4.3889
		c3.4222-16.8888,7.689-33.6111,11.7001-50.3778c5.5222-24.6333,11.8223-49.1,17.4778-73.7001
		C1396.911,1047.0889,1398.011,1038.2111,1401.1111,1029.9333z"/>
	
		<linearGradient id="SVGID_4_" gradientUnits="userSpaceOnUse" x1="1135.04" y1="598.6079" x2="1247.3" y2="598.6079" gradientTransform="matrix(1.1111 0 0 -1.1111 213.3333 1777.7778)">
		<stop  offset="0" style="stop-color:#E3E3E3"/>
		<stop  offset="1" style="stop-color:#F3F3F3"/>
	</linearGradient>
	<path fill="url(#SVGID_4_)" d="M1592.6222,1054.8444c2.0333-1.5889,3.6445-4.4332,6.6001-4.1666
		c-0.7112,9.3889-2.3,18.7333-1.8112,28.1777c-0.6667,30.7001-1.3334,61.3778-1.8889,92.0779c-6.8112,0.5-13.1555,3.4778-20,3.7222
		c4.3667-23.811,8.5555-47.6556,13.4443-71.3556c0.0223-1.1887-0.1887-2.3223-0.6444-3.411c-8.5,5.1111-17.7999,9.0778-27.5999,10.8
		c-10.1667,1.9-20.3778,4.0111-30.7556,3.9445c-7.4333,1.2888-14.9667,0.5778-22.4445,1.1222
		c-7.2333-0.7667-14.5444-1.2112-21.6666-2.7555c-0.9445-4.4889-0.3889-9.0667,1.7333-13.1223
		c0.4556-4.9666-1.0555-9.9889-1.2334-14.9777c-1.311-0.3445-2.6111-0.6779-3.9-0.989c-0.2777-2.6666-0.7111-5.4333,0.2001-8.0111
		c0.9222-1.2333,2.5446-1.5778,3.8667-2.2666c-4.1555-0.2334-8.2888-1.1777-12.0333-3.0111
		c0.7555-1.0001,1.5333-1.9889,2.311-2.9778c10.0223,0.7222,20.189,1.6222,29.689,5.1666
		c-1.4333,0.3889-2.8445,0.8334-4.2222,1.2555c23.5443,0.7444,47.8221,1.4332,70.3999-6.4556
		c0.0778-1.4778,0.1888-2.9556,0.3112-4.4111c0.9111,1.1445,1.8444,2.2778,2.7888,3.4556c1.3223-0.4667,2.6555-0.9222,4.0112-1.3666
		c-1.3112-0.8334-2.6112-1.6667-3.8889-2.4778C1581.5,1060.2444,1588.0111,1059.2222,1592.6222,1054.8444z"/>
	<path fill="#779CB5" stroke="#779CB5" stroke-width="0.0938" d="M1247.7666,619.7333c34.9556,1.511,70.0111-0.5667,104.6888-5.0889
		c1.8,0.5667,3.6445,0.2444,5.4557-0.1334c-1.7667,2.6889-4.8334,3.8555-7.8778,4.3334c-15.4446,2.6556-31.1002,3.7-46.7001,4.8333
		c-20,0.4555-40.0222,1.8555-60.0222,0.5333c-15.5778,0.0444-31.1-1.5333-46.5444-3.4111c-3.6666-0.3112-7.2666-1.5222-9.7-4.4222
		c6.1666-0.6778,12.2999,0.9333,18.4554,1.2333C1219.5889,618.4666,1233.6444,619.8666,1247.7666,619.7333z"/>
	<path fill="#F2F2F2" stroke="#F2F2F2" stroke-width="0.0938" d="M1433.311,814.1223c3.4001-0.7,6.9222,0.0667,9.6223,2.3
		c-0.9445,0.1777-2.8223,0.5444-3.7667,0.7222c-1.2,0.1556-2.3778,0.3112-3.5443,0.4667c0.1222,2.9111,0.2555,5.8444,0.3888,8.7778
		c4.3112,1.4667,8.6334,2.9333,12.9554,4.3889c-0.2111,2.6334-0.2,5.2778,0.1001,7.9222
		c8.4667,1.1889,17.3778,2.7556,25.5111-0.8667c7.4889-1.1889,15.0111-2.2222,22.5557-2.9333
		c2.0889,1.9778,4.7665,3.0778,7.4666,3.9667c-3.1-0.2556-6.2111-0.0334-9.2777,0.4111c8.3334,4.8333,18.7667,4.1667,27.0333,9.1333
		c-11.2778,1.5334-22.5223,3.2778-33.8223,4.4667c-6.7,1.5666-13.7666,1.1887-20.2223,3.7222
		c-25.8556-10.2556-51.7999-20.2778-77.6444-30.5444c-3.7111-1.4667-7.6111-2.5334-10.9222-4.8
		C1397.5,818.2778,1415.4888,816.7556,1433.311,814.1223z"/>
	<path fill="#69B5C6" stroke="#69B5C6" stroke-width="0.0938" d="M1442.9333,816.4222c13.4778-0.7557,26.8888-5.3446,40.4111-2.7778
		c6.2777,0.7889,12.5665,1.4999,18.8666,2.1444c0.7667,0.4889,1.5444,0.9889,2.3223,1.5c-11.2112,0.8111-22.3,2.6777-33.4667,3.9778
		c-5.0223,0.7444-10.2556,0.7556-14.9889,2.7778c-4.2667-1.3777-8.5222-2.7556-12.7778-4.0889
		c-1.7222-0.3667-2.9888-1.6223-4.1333-2.8112C1440.1111,816.9667,1441.9889,816.6,1442.9333,816.4222z"/>
	<path fill="#7DD9ED" stroke="#7DD9ED" stroke-width="0.0938" d="M1502.2111,815.7889c10.2222,1.3666,20.4779,2.3889,30.6777,3.9778
		c-5.8888,2.3556-12.2776,2.3667-18.4554,3.2889c-14.489,2.0778-29.0446,3.7111-43.5444,5.7667
		c-4.9446-1.5889-9.8446-3.2778-14.8112-4.7778c4.7333-2.0222,9.9666-2.0333,14.9889-2.7778
		c11.1666-1.3,22.2555-3.1666,33.4667-3.9778C1503.7555,816.7777,1502.9778,816.2778,1502.2111,815.7889z"/>
	<path fill="#5699A8" stroke="#5699A8" stroke-width="0.0938" d="M1435.6223,817.6111c1.1665-0.1556,2.3444-0.3112,3.5443-0.4667
		c1.1445,1.1889,2.4111,2.4445,4.1333,2.8112c4.2556,1.3333,8.5111,2.7111,12.7778,4.0889c4.9666,1.5,9.8666,3.1889,14.8112,4.7778
		c0.1,3.1,0.2666,6.1889,0.4777,9.2889c-7.5-2.3333-14.9-4.9889-22.4-7.3333c-4.322-1.4556-8.6443-2.9222-12.9554-4.3889
		C1435.8778,823.4555,1435.7445,820.5222,1435.6223,817.6111z"/>
	<path fill="#6DBDD0" stroke="#6DBDD0" stroke-width="0.0938" d="M1532.8888,819.7666c1.3335,0.3778,3.2334-0.1,4.1445,1.2112
		c0.3778,2.7667,0.2223,5.5667,0.2112,8.3667c-13.3667,1.8889-26.8112,3.2778-40.1111,5.5555
		c-7.5446,0.7111-15.0668,1.7444-22.5557,2.9333c-0.7999,0.0778-2.4111,0.2111-3.2112,0.2778
		c-0.2111-3.1-0.3777-6.1889-0.4777-9.2889c14.4999-2.0555,29.0554-3.6889,43.5444-5.7667
		C1520.6112,822.1333,1527,822.1222,1532.8888,819.7666z"/>
	<path fill="#E4E4E4" stroke="#E4E4E4" stroke-width="0.0938" d="M1448.9666,830.7778c7.5,2.3444,14.9,5,22.4,7.3333
		c0.8-0.0667,2.4113-0.2,3.2112-0.2778c-8.1333,3.6222-17.0444,2.0555-25.5111,0.8667
		C1448.7666,836.0555,1448.7555,833.4111,1448.9666,830.7778z"/>
	<path fill="#E4E4E4" stroke="#E4E4E4" stroke-width="0.0938" d="M1583.0555,1033.5889c1.7334-4.1555-6.3112-3.7333-4.3556-7.5667
		c6.4333,3.3888,14.3112,6.2333,17.2778,13.5333c2.4554,5.1777-1.5222,10.5667-5.5667,13.5667
		c-0.8667-1.3778-1.6779-2.7444-2.6-4.0333c-1.4446-2.1666-3.2891-4.0111-4.8113-6.0778c0.1556-0.3556,0.4668-1.0667,0.6223-1.4222
		c-1.7445-1.7001-3.4556-3.4222-5.0779-5.2C1579.9778,1035.3556,1581.4777,1034.411,1583.0555,1033.5889z"/>
	<path fill="#E9E9E9" stroke="#E9E9E9" stroke-width="0.0938" d="M1499.3223,939.3666c6.0778,1.4778,11.7999-2.0555,17.8777-1.4778
		c2.8556,1.0667,5.9224,1.3112,8.9445,1.6223c1.0555,3.3667-3.5333,4.5-2.3889,7.9778c2.7556,0.4777,6.7778-0.3334,8.1001,2.8889
		c3.1333,8.2778-0.9224,16.6555-2.2222,24.8444c-0.1667,1.7333-1.2224,3.0667-2.6445,3.9778
		c-6.6334,1.6444-13.5444,1.6444-20.3,0.8889c-0.5221-0.5555-1.0444-1.1-1.5333-1.6223c2.3778-2.3777,3.4556-6.4444,1.3221-9.2888
		c-2.3887-4.8889-2.8888-10.4778-3.3553-15.8223c-0.7112-0.7-2.0001-1.011-1.9335-2.2111
		C1500.4333,947.2444,1499.7999,943.3111,1499.3223,939.3666z"/>
	<path fill="#B4D5E8" stroke="#B4D5E8" stroke-width="0.0938" d="M1499.089,979.1555c2.5554-0.1111,5.0665,0.5667,7.5999,0.9333
		c6.7556,0.7556,13.6666,0.7556,20.3-0.8889c0.1666,9.5221-0.0555,19.0445-0.3,28.5667l-0.0555,0.8777
		c-0.5111,1.4666-1.0667,2.9221-1.5778,4.4c-0.7-1.6223-1.4111-3.2444-2.0889-4.8555c-3.8777,0.3889-7.4556,1.9556-11.0333,3.3667
		c-4.6444,0.4889-9.3556,0.4111-14,0.8333c-0.0446-9.6888,0.3444-19.3668,0.1222-29.0445
		C1498.3221,982,1497.5555,979.8444,1499.089,979.1555z"/>
	<path fill="#BBDBEE" stroke="#BBDBEE" stroke-width="0.0938" d="M1511.9333,1011.5555c3.5778-1.4111,7.1556-2.9779,11.0333-3.3667
		c0.6777,1.6111,1.3889,3.2333,2.0889,4.8556c0.5111-1.4778,1.0667-2.9333,1.5778-4.4c-0.0111,1.4999,0.0111,3.0111,0.0668,4.5444
		c0,6.1778-0.2335,12.3667-0.2001,18.5555c-6.9222-1.2777-13.9667-0.1555-20.9111-0.9222c-2.6444-0.3221-5.3223-0.5-7.9222,0.1556
		c0.2334-6.2001,0.2445-12.4,0.2667-18.5889C1502.5778,1011.9667,1507.2889,1012.0444,1511.9333,1011.5555z"/>
	<path fill="#FEFEFF" stroke="#FEFEFF" stroke-width="0.0938" d="M1431.3112,1024.6222
		c20.8555-9.2556,44.0443-11.6111,66.6222-12.2332c-0.0222,6.1888-0.0333,12.3889-0.2667,18.5888
		c-5.8778,0.689-11.8221,0.2001-17.6888,0.9778c-10.7889,1.4224-21.689,2.689-32.0667,6.1112
		c-7.3445,2.2666-14.9333,5.1111-20.2778,10.8667c8.2112,6.811,18.8112,9.6777,28.8778,12.5889
		c23.9556,5.8889,48.8,7.4445,73.4,6.4667c8.5889-0.4778,17.1888-1.2112,25.6444-2.8667c12.0667-2.4333,24.3888-5.1888,34.8556-12
		c4.0444-3,8.0221-8.3888,5.5667-13.5667c-2.9667-7.2999-10.8445-10.1444-17.2778-13.5333
		c-8.6666-3.7222-17.9443-6.0889-27.3221-6.9889c-0.4889,4.3112-0.2556,8.7222,1.3999,12.7889
		c-1.3444,0.3333-2.6444,0.6888-3.9445,1.0444c2.6112,0.2777,5.2334,0.7111,7.8112,1.3445c-0.2666,0.4667-0.7999,1.4-1.0667,1.8666
		c-9.5222-2.4331-19.3445-3.2333-29.0778-4.3333c-0.0334-6.189,0.2001-12.3779,0.2001-18.5556
		c19.5554,1.6111,39.3999,4.5111,57.3999,12.7222c5,2.1555,9.0667,5.8777,13.7223,8.6444c0.8445,2.5444,2.111,4.9667,2.5778,7.6445
		c0.2999,2.8667-0.6779,5.6666-1.1777,8.4778c-2.9556-0.2667-4.5668,2.5778-6.6001,4.1666
		c-4.6111,4.3778-11.1222,5.4-16.7333,7.9667c1.2777,0.811,2.5778,1.6444,3.8889,2.4778c-1.3557,0.4445-2.689,0.8999-4.0112,1.3666
		c-0.9445-1.1777-1.8777-2.3112-2.7888-3.4556c-0.1223,1.4556-0.2334,2.9333-0.3112,4.4111
		c-22.5778,7.8889-46.8556,7.2-70.3999,6.4556c1.3777-0.4221,2.7888-0.8667,4.2222-1.2555c-9.5-3.5444-19.6666-4.4443-29.689-5.1666
		c-13.9222-1.7889-27.5333-5.6666-40.5889-10.7889c-6.689-2.9889-13.6334-7.0444-16.9888-13.8666
		c-0.2223-2.4111-1.4668-4.9445-0.3-7.2667C1421.3889,1030.5555,1426.2222,1026.9556,1431.3112,1024.6222z"/>
	<path fill="#FEFEFF" stroke="#FEFEFF" stroke-width="0.0938" d="M808.0555,1091.0111c0.3778-0.1556,1.1223-0.4667,1.5-0.6223
		c0.0334,5.589,0.5778,11.2445-0.6778,16.7556C808.5333,1101.7667,808.5667,1096.3778,808.0555,1091.0111z"/>
	<path fill="#F0F0F0" stroke="#F0F0F0" stroke-width="0.0938" d="M1551.3778,1019.0333c9.3778,0.9,18.6555,3.2667,27.3221,6.9889
		c-1.9556,3.8334,6.089,3.4111,4.3556,7.5667c-1.5779,0.8221-3.0778,1.7667-4.5112,2.8c1.6223,1.7777,3.3334,3.5,5.0779,5.2
		c-0.1555,0.3556-0.4667,1.0667-0.6223,1.4222c1.5222,2.0667,3.3667,3.9111,4.8113,6.0778
		c-8.6667-5.9111-18.7001-9.3334-28.8112-11.8334c-1.1666-0.3888-2.2888-0.811-3.4222-1.1779
		c0.2667-0.4667,0.8-1.3999,1.0667-1.8667c-2.5778-0.6333-5.2-1.0667-7.8112-1.3445c1.3-0.3556,2.6001-0.7111,3.9445-1.0444
		C1551.1222,1027.7555,1550.8889,1023.3444,1551.3778,1019.0333z"/>
	<path fill="#B0D6EB" stroke="#B0D6EB" stroke-width="0.0938" d="M1497.6666,1030.9778c2.6-0.6556,5.2778-0.4778,7.9222-0.1556
		c6.9445,0.7667,13.9889-0.3555,20.9111,0.9222c-1.1445,9.3112,1.3223,18.8445-1.1666,28.0222
		c-0.489,2.2778-3.2778,2.1333-5.0668,1.9889c-6.8445-0.7223-14.0887,1.7556-20.5333-1.5
		c-2.0667-1.1222-2.0554-3.7444-2.1333-5.7555C1497.5333,1046.6555,1497.8666,1038.811,1497.6666,1030.9778z"/>
	<path fill="#C6DCF9" stroke="#C6DCF9" stroke-width="0.0938" d="M1479.9778,1031.9556c5.8667-0.7778,11.811-0.2889,17.6888-0.9778
		c0.2,7.8333-0.1333,15.6777-0.0667,23.5222c0.0779,2.0111,0.0667,4.6333,2.1333,5.7555c6.4446,3.2556,13.6888,0.7778,20.5333,1.5
		c1.7889,0.1444,4.5778,0.2889,5.0668-1.9889c2.4889-9.1776,0.0221-18.7111,1.1666-28.0222
		c9.7333,1.1001,19.5555,1.9,29.0778,4.3334c1.1334,0.3667,2.2556,0.7889,3.4222,1.178c-0.6444,0.2444-1.9333,0.7333-2.5778,0.9667
		c2.7555,1.5555,5.8999,2.0555,9.0111,2.4556c-1.9,0.8667-3.7111,1.911-5.3778,3.1444c1.2334,0.7001,2.7999,1.0668,3.8556,2.1444
		c0.3,1.4333,0.2111,2.9333,0.2889,4.4333c-1.8668,0.5779-3.689,1.2222-5.5001,1.9c1.8334,1.2667,3.7112,2.4889,5.6223,3.6666
		c0.0665,2-1.5779,2.9446-3.0444,3.8889c0.7555,0.1556,2.2555,0.4889,3.011,0.6445c-3.6776,1.5555-7.6222,2.2555-11.5667,2.5555
		c0.7,0.5111,2.1222,1.5555,2.8334,2.0667c-8.4556,1.6555-17.0555,2.3889-25.6444,2.8667c-24.6,0.9778-49.4445-0.5779-73.4-6.4667
		c-10.0667-2.9111-20.6666-5.7778-28.8778-12.589c5.3445-5.7555,12.9333-8.6,20.2778-10.8667
		C1458.2888,1034.6444,1469.1888,1033.3777,1479.9778,1031.9556z"/>
	<path fill="#B6D0EE" stroke="#B6D0EE" stroke-width="0.0938" d="M1556.4222,1038.2223c0.6444-0.2334,1.9333-0.7223,2.5778-0.9667
		c10.1111,2.5,20.1444,5.9222,28.8112,11.8334c0.9221,1.2888,1.7333,2.6555,2.6,4.0333c-10.4668,6.811-22.7889,9.5667-34.8556,12
		c-0.7112-0.5112-2.1334-1.5557-2.8334-2.0667c3.9445-0.3,7.889-1.0001,11.5667-2.5555c-0.7555-0.1556-2.2555-0.4889-3.011-0.6445
		c1.4666-0.9445,3.111-1.8889,3.0444-3.8889c-1.9111-1.1777-3.7889-2.3999-5.6223-3.6666c1.8112-0.6777,3.6333-1.3223,5.5001-1.9
		c-0.0779-1.5,0.0111-3-0.2889-4.4333c-1.0557-1.0778-2.6222-1.4443-3.8556-2.1444c1.6667-1.2333,3.4778-2.2777,5.3778-3.1444
		C1562.3221,1040.2777,1559.1777,1039.7777,1556.4222,1038.2223z"/>
	
		<linearGradient id="SVGID_5_" gradientUnits="userSpaceOnUse" x1="1085.2386" y1="546.6269" x2="1238.0714" y2="546.6269" gradientTransform="matrix(1.1111 0 0 -1.1111 213.3333 1777.7778)">
		<stop  offset="0" style="stop-color:#D9D9D9"/>
		<stop  offset="1" style="stop-color:#EEEEEE"/>
	</linearGradient>
	<path fill="url(#SVGID_5_)" stroke="#F3F3F3" stroke-width="0.0938" d="M1588.9666,1103.2999
		c0.0223-1.1887-0.1887-2.3223-0.6444-3.411c-8.5,5.1111-17.7999,9.0778-27.5999,10.8c-10.1667,1.9-20.3778,4.0111-30.7556,3.9445
		c-7.4333,1.2888-14.9667,0.5778-22.4445,1.1222c-7.2333-0.7667-14.5444-1.2112-21.6666-2.7555
		c-0.9445-4.4889-0.3889-9.0667,1.7333-13.1223c0.4556-4.9666-1.0555-9.9889-1.2334-14.9777c-1.311-0.3445-2.6111-0.6779-3.9-0.989
		c-0.2777-2.6666-0.7111-5.4333,0.2001-8.0111c0.9222-1.2333,2.5446-1.5778,3.8667-2.2666
		c-4.1555-0.2334-8.2888-1.1777-12.0333-3.0111c0.7555-1.0001,1.5333-1.9889,2.311-2.9778
		c-13.9222-1.7889-27.5333-5.6666-40.5889-10.7889c-6.689-2.9889-13.6334-7.0444-16.9888-13.8667
		c-0.3668,6.9222,0.8444,13.8334,1.2665,20.7445c0.5779,7.2888,1.0557,14.6,1.778,21.8889
		c0.2222,5.0778,5.6221,7.8555,6.0443,12.8778c5.8,34.8444,11.1334,69.7555,17.0001,104.5887
		c0.8999,5.6222,1.8334,11.2445,2.7444,16.8667c1.0111,8.1445,2.3556,16.2444,3.8666,24.3221
		c0.8667,5.7667,2.5557,11.5,2.3223,17.3667c0.9557,3.6,1.5555,7.2667,1.9778,10.9667c1.4222,3.5557,2.1111,7.4111,3.9,10.8334
		c2.8445,3.2111,6.2555,5.9332,10.189,7.7334c3.3888,1.8444,7.3666,2.4332,10.5555,4.6888c6.2666,1.8,12.9222,2.4221,19.3999,1.6444
		c-2.2111-2.0223-5.2444-2.2445-8.0555-2.6c5.9222-0.1112,11.8445-0.0779,17.7667-0.1666
		c12.7333,0.0887,25.5889-2.2778,37.3333-7.2223c5.8445-2.2333,8.989-8.1666,9.689-14.1112
		c0.7111-5.2666,1.7111-10.4888,2.8556-15.6666c0.6111-2.7,1.1333-5.4111,1.5667-8.1333
		c1.1333-4.9111,0.8888-10.3445,3.3999-14.7889c-0.0332-2.6666-0.5778-5.4777,1.0557-7.8109
		c0.0778-3.1112,0.6333-6.1779,1.2667-9.2001c2.1332-0.1333,4.2666-0.2555,6.4332-0.189c-2.1333-0.4222-4.2444-0.8667-6.3333-1.2889
		c3.2333-13.7999,5.1887-27.8555,8.2777-41.6777C1579.8889,1150.8445,1584.0778,1127,1588.9666,1103.2999z"/>
	<path fill="#F1F1F1" stroke="#F1F1F1" stroke-width="0.0938" d="M1634.5221,1162.4222c3.1334-0.7333,6.5668-1.5555,9.5557,0.2111
		c8.3223,4.0779,16.1001,9.2001,24.4333,13.2888c20.4222,11.6335,41.6111,21.889,61.7,34.1001
		c-4.5555-0.6888-8.9667-1.9556-13.2777-3.5c-12.0555-3.311-24-7.011-35.9778-10.6222
		c-13.6888-4.0778-27.4445-7.8778-41.0223-12.3223c-7.2666-1.9778-14.611-3.6777-21.6998-6.2333
		c-6.8-2.5555-14.1112-3.5112-20.7112-6.6222C1609.7,1167.311,1622.1666,1165.1,1634.5221,1162.4222z"/>
	<path fill="#A2A2A2" stroke="#A2A2A2" stroke-width="0.0938" d="M1645.7999,1202.2111c1.5557-3.2,5.4445-3.7889,8.6334-3.9777
		c5.1555-0.2223,10.4667,0.7666,14.8666,3.5778c18.5446,10.3888,37.1777,20.6,55.6444,31.1
		c2.3778,1.0333,1.989,4.1777-0.3333,5.0111c-7.1556,2.9-15.5667,1.3333-22.0443-2.5668
		c-16.9668-9.7443-34.0112-19.3777-51.0446-29.0111C1649.4333,1205.2222,1647.4332,1203.9222,1645.7999,1202.2111z"/>
	<path fill="#A2A2A2" stroke="#A2A2A2" stroke-width="0.0938" d="M1622.6333,1205.0889c6.1-1.0555,12.7667-0.3778,18.1001,2.9778
		c18.1666,10.3334,36.2887,20.7555,54.3999,31.1888c1.9111,0.7223,3.7,3.7112,1.2445,4.9668
		c-8.3112,4.1998-18.4333,1.4443-25.7555-3.6111c-13.3778-7.8-26.7223-15.6556-40.1335-23.4113
		c-4.3109-2.7777-9.3331-4.6443-12.9443-8.3445C1617.9888,1206.3889,1620.4333,1205.4556,1622.6333,1205.0889z"/>
	<path fill="#A2A2A2" stroke="#A2A2A2" stroke-width="0.0938" d="M1588.6,1215.4888c1.3889-4.6888,7.4556-4.411,11.4222-4.511
		c8.0555-0.0444,14.4111,5.2555,21.1111,8.9666c13.3778,7.7112,26.5446,15.8002,39.9889,23.4224
		c2.6222,1.6333,5.6444,2.9,7.4778,5.5555c-2.7333,4.9445-9.3556,4.4888-14.1666,4.1111c-6.3556-0.4445-11.4-4.4889-16.7112-7.5
		c-13.1666-7.9111-26.4332-15.6555-39.5444-23.6556C1594.9332,1219.811,1591.2889,1218.2888,1588.6,1215.4888z"/>
	<path fill="#A2A2A2" stroke="#A2A2A2" stroke-width="0.0938" d="M1567.1445,1217.8112c2.1332-0.1333,4.2666-0.2555,6.4332-0.189
		c6.2222,0.7112,11.2001,4.7334,16.4222,7.8223c11.7666,7.2111,23.6556,14.2001,35.4445,21.3778
		c4.0667,2.6111,8.6,4.6,12.2556,7.8112c1.8888,1.5554-0.3,3.7776-1.9001,4.3888c-6.9221,2.5333-15.0889,1.6333-21.3221-2.2888
		c-16.1333-10.0111-32.3333-19.9446-48.6-29.7222C1565.9556,1223.9,1566.5111,1220.8334,1567.1445,1217.8112z"/>
	<path fill="#A2A2A2" stroke="#A2A2A2" stroke-width="0.0938" d="M1561.4222,1249.6111c1.1333-4.9111,0.8888-10.3445,3.3999-14.7889
		c13.6556,8.7556,27.6222,17.0446,41.2889,25.7891c2.3889,0.9999,2.3889,4.5999-0.2222,5.3221
		c-7.5333,2.8888-16.7445,1.8778-23.3112-2.9111C1575.6112,1258.411,1568.3889,1254.2112,1561.4222,1249.6111z"/>
	<path fill="#A2A2A2" stroke="#A2A2A2" stroke-width="0.0938" d="M1309.2667,1277.7444c1.7666-2.6666,4.7332-3.9332,7.7666-4.5444
		c0.6-0.0667,1.7777-0.2,2.3778-0.2666c3.7,2.8333,8.3777,3.6445,12.7334,5.0222c1.3333,0.4778,2.7666,0.3444,4.1888,0.2556
		c1.0111,0.7999,2.0444,1.611,3.089,2.4332c13.0889,10.2112,26.4111,20.1001,39.5554,30.2445
		c1.7334,1.4889,4.9113,2.8333,4.1556,5.689c-1.1222,2.4888-4.1111,3.411-6.5778,3.9332
		c-6.1444,0.8444-13.1555,0.8221-18.2222-3.2555c-15.0223-11.6667-29.9445-23.4445-44.9889-35.0779
		C1311.6888,1280.9778,1310.3556,1279.4333,1309.2667,1277.7444z"/>
	<path fill="#A2A2A2" stroke="#A2A2A2" stroke-width="0.0938" d="M1276.0333,1285.5555c3.3667-5.6333,11.1555-5.6,16.9-4.8889
		c5.1111,0.3445,8.8221,4.0222,12.6777,6.9667c10.0778,8.1333,20.3667,16,30.4445,24.1333c4.3,3.5112,9.0333,6.5779,12.9556,10.5444
		c1.5555,2.5557-1.5446,4.489-3.5668,5.3c-6.2555,2.4222-13.8221,2.1111-19.7-1.1333
		c-15.7444-12.3667-31.1333-25.1666-46.7999-37.6111C1277.7555,1287.9556,1276.8223,1286.7666,1276.0333,1285.5555z"/>
	<path fill="#A2A2A2" stroke="#A2A2A2" stroke-width="0.0938" d="M1359.3999,1284.5778c1.6444-0.3555,3.3667-0.8334,5.0779-0.3888
		c6.6444,1.3555,13.3334,2.5,20.0667,3.3667c2.0778,0.2109,4.311,0.611,6.2333-0.5334c0.6556,0.4667,1.3445,0.9778,2.0334,1.5
		c7.411,5.8555,15.2666,11.1555,22.6776,17c2.8557,1.8889,0.1667,5.7222-2.4221,6.2889
		c-7.3778,2.4111-16.4222,1.7777-22.4333-3.5446C1380.2666,1300.3112,1369.7111,1292.6111,1359.3999,1284.5778z"/>
	<path fill="#A2A2A2" stroke="#A2A2A2" stroke-width="0.0938" d="M1249.4333,1288.4221c5.7888-0.911,12.4221-1.0332,17.3777,2.589
		c15.3223,12.4222,30.5444,25,45.8889,37.411c1.7667,1.2334,3.2667,3.7667,1.189,5.5223
		c-5.0555,4.0889-12.3112,4.0778-18.3778,2.6777c-4.3778-0.8334-7.2889-4.4556-10.6777-6.9777
		c-13.3-11.1445-26.6333-22.2445-39.9333-33.3778c-1.1-1.0557-2.9221-2.2778-2.0444-4.0333
		C1244.2667,1289.9443,1246.9667,1289.0444,1249.4333,1288.4221z"/>
	<path fill="#A2A2A2" stroke="#A2A2A2" stroke-width="0.0938" d="M1409.5444,1289.9c10.0222-2.4557,20.1444,2.8555,30.2445,1.4111
		c0.1665,0.1222,0.5222,0.3666,0.6888,0.4889c2.8889,2.2999,6.0889,4.2222,8.811,6.7444c1.5222,2.4-0.8778,4.7222-3.0889,5.3445
		c-7.3223,2.4666-16.1223,1.6555-22.2555-3.2888C1419.1666,1296.9889,1414.2888,1293.5334,1409.5444,1289.9z"/>
	<path fill="#8D8D8D" stroke="#8D8D8D" stroke-width="0.0938" d="M1439.0778,1246.8999c3.6444-2.7555,8.4999-2.4332,12.8444-2.6222
		c0.8667,5.7667,2.5557,11.5,2.3223,17.3667c-4.8223-3.5111-9.8777-6.6777-14.6666-10.2222
		C1437.9333,1250.6112,1437.3333,1247.9111,1439.0778,1246.8999z"/>
	<path fill="#8E8E8E" stroke="#8E8E8E" stroke-width="0.0938" d="M1408.7555,1253.2445c6.4-2.9779,14.3668-2.5222,20.5222,0.8666
		c9.0333,6.089,17.7889,12.589,26.9445,18.5c1.4222,3.5557,2.1111,7.4111,3.9,10.8334c2.8445,3.2111,6.2555,5.9332,10.189,7.7334
		c3.3888,1.8444,7.3666,2.4332,10.5555,4.6888c-7.9222,2.1333-16.9778,2.2222-23.9557-2.6444
		c-16.2222-11.6223-32.6111-23.0444-48.7999-34.7001C1405.9443,1257.2778,1406.4333,1253.9778,1408.7555,1253.2445z"/>
	<path fill="#8E8E8E" stroke="#8E8E8E" stroke-width="0.0938" d="M1375.0444,1261.7888c4.3666-3.7333,10.7222-3.6333,16.1111-2.8888
		c6.1666,0.8221,10.6111,5.5111,15.5779,8.8c11.0554,7.811,21.9666,15.8221,33.0555,23.6111
		c-10.1001,1.4443-20.2223-3.8668-30.2445-1.4111c-1.1444-0.7667-2.3-1.4556-3.4222-2.189
		c-9.8556-7.3888-19.8889-14.5333-29.7667-21.8777C1374.8667,1265.0222,1374.3556,1263.2777,1375.0444,1261.7888z"/>
	<path fill="#8E8E8E" stroke="#8E8E8E" stroke-width="0.0938" d="M1344.7666,1267.0667c7.189-2.9333,16.1777-2.4778,22.4,2.4446
		c7.8334,5.8888,15.7111,11.7109,23.6111,17.511c-1.9222,1.1444-4.1555,0.7444-6.2333,0.5334
		c-6.7333-0.8667-13.4222-2.0112-20.0667-3.3667c-1.7112-0.4446-3.4335,0.0333-5.0779,0.3888
		c-1.1554-0.8667-2.3444-1.6777-3.5221-2.4554c-4.4445-3.4335-9.1779-6.5446-13.2999-10.3446
		C1340.6,1270.0444,1343.1111,1267.7666,1344.7666,1267.0667z"/>
	<path fill="#A3A3A3" stroke="#A3A3A3" stroke-width="0.0938" d="M1557,1273.411c0.7111-5.2666,1.7111-10.4888,2.8556-15.6666
		c5.0333,3.2223,10.0667,6.4668,15.1111,9.7c1.4667,0.7668,2.0889,2.3002,2.7112,3.7889
		C1572.0333,1276.2556,1563.7444,1275.1222,1557,1273.411z"/>
	<path fill="#949494" stroke="#949494" stroke-width="0.0938" d="M1319.411,1272.9333c6.0557-0.6223,12.5111,0.8556,16.9222,5.2778
		c-1.4222,0.0887-2.8556,0.2222-4.189-0.2556C1327.7888,1276.5779,1323.1111,1275.7666,1319.411,1272.9333z"/>
	<path fill="#E2E2E2" stroke="#E2E2E2" stroke-width="0.0938" d="M1215.1333,1346.2111c1.0555-4.2444,2.1222-8.4889,3.8334-12.5222
		c0.2666,2.0889,0.7666,4.2445,0.2111,6.3445c-1.3889,5.1445,0.6445,10.3444,0.7556,15.5333
		c0.2888,14.4333-0.1222,28.8778,0.0889,43.3112c0.4445,5.9332,1.6111,11.8445,1.0778,17.8223
		c-0.1111,4.7665-1.7111,9.4888-0.9445,14.2666c2.7001,3.2334,6.8778,4.9556,9.2445,8.5778
		c3.9778,5.6112,10.2444,8.9333,14.6333,14.1777c3.1888,3.9,7.6111,6.5446,10.6333,10.6112
		c6.0444,7.2777,14.2223,12.4443,19.8667,20.0667l0.9889-0.0667c4.189-0.7334,8.2557-1.9667,12.3667-3.0444
		c138.8667-37.0778,277.7335-74.1444,416.6112-111.1556c5.4778-0.8889,10.6-3.3889,16.1777-3.6777
		c-0.3112,4.5111-1.0554,8.9778-2.0221,13.4c-9.0557,50.1333-17.7223,100.3445-27.089,150.4222
		c-25.9666,7.7888-51.8445,15.8889-77.8445,23.5665c-19.7222,6.2778-39.7222,11.689-59.3777,18.1779
		c-23.7778,6.7667-47.3223,14.3334-71.0111,21.4c-6.7223,2.6444-13.9111,3.7555-20.5557,6.5778h-317.3113
		c-0.4333-3.4889-0.3444-7.0333,0.6779-10.3888C1169.0444,1508.4445,1192.0333,1427.3221,1215.1333,1346.2111z"/>
</g>
</svg>
