<?xml version="1.0" encoding="iso-8859-1"?>
<!-- Uploaded to: SVG Repo, www.svgrepo.com, Generator: SVG Repo Mixer Tools -->
<svg height="800px" width="800px" version="1.1" id="Layer_1" xmlns="http://www.w3.org/2000/svg" xmlns:xlink="http://www.w3.org/1999/xlink" 
	 viewBox="0 0 512 512" xml:space="preserve">
<path style="fill:#F0C419;" d="M501.333,115.623h-94.261v-36.64c0-0.448-0.012-0.895-0.025-1.331h0.025
	C407.072,77.653,473.914,71.3,501.333,115.623z"/>
<path style="fill:#666666;" d="M208.495,379.797h-98.702H71.495l56.521-56.509l0.835,0.835h94.007
	c42.835,0,77.563-34.727,77.563-77.563v-92.978l-1.356-1.356l1.356-1.356v-44.178c0-32.986,26.741-59.727,59.715-59.727h14.908
	c17.243,0,31.303,13.625,32.005,30.686c0.012,0.435,0.025,0.883,0.025,1.331v36.64v35.248v92.81
	c0,75.179-60.949,136.116-136.128,136.116L208.495,379.797L208.495,379.797z"/>
<g>
	<path style="fill:#B3B3B3;" d="M300.42,153.582v92.978c0,42.835-34.727,77.563-77.563,77.563H128.85l-0.835-0.835l171.05-171.061
		L300.42,153.582z"/>
	<path style="fill:#B3B3B3;" d="M71.495,379.797h38.298c0,33.59-27.237,60.828-60.828,60.828H10.666L71.495,379.797z"/>
</g>
<path d="M0.813,444.707c1.651,3.986,5.54,6.585,9.855,6.585h38.298c35.797,0,65.531-26.447,70.695-60.828h68.349l-18.057,25.798
	c-2.571,3.673-2.571,8.56,0,12.233l29.852,42.653c1.996,2.852,5.258,4.55,8.739,4.55h27.479c5.891,0,10.667-4.775,10.667-10.667
	s-4.775-10.667-10.667-10.667h-21.925l-22.386-31.986l22.338-31.915h41.168l-18.049,25.801c-2.569,3.671-2.569,8.557,0,12.229
	l29.839,42.652c1.996,2.852,5.26,4.553,8.74,4.553h27.491c5.89,0,10.667-4.775,10.667-10.667s-4.777-10.667-10.667-10.667h-21.936
	l-22.378-31.986l22.596-32.299c76.023-5.44,136.217-69.019,136.217-146.399v-92.809v-24.581h83.595c3.869,0,7.435-2.095,9.317-5.474
	c1.884-3.379,1.789-7.514-0.246-10.803c-24.131-39.009-73.359-43.385-94.464-43.361c-5.281-17.663-21.59-30.351-40.897-30.351
	h-14.908c-38.81,0-70.382,31.579-70.382,70.394v39.759L3.124,433.082C0.073,436.133-0.839,440.721,0.813,444.707z M417.738,104.957
	V88.045c13.885,0.217,39.925,2.705,59.324,16.912C477.062,104.957,417.738,104.957,417.738,104.957z M360.135,57.633h14.908
	c11.479,0,20.844,8.955,21.345,20.398c0.01,0.313,0.018,0.633,0.018,0.953v71.888v92.809c0,69.173-56.283,125.45-125.461,125.45
	h-61.849c-0.362-0.018-0.723-0.018-1.084,0H97.247l34.34-34.34h91.27c48.65,0,88.229-39.58,88.229-88.229
	c0-5.891-4.777-10.667-10.667-10.667s-10.667,4.775-10.667,10.667c0,36.886-30.01,66.896-66.896,66.896H152.92l155.042-155.042
	c0.036-0.036,0.066-0.076,0.101-0.112c0.209-0.214,0.413-0.435,0.603-0.667c0.113-0.137,0.211-0.281,0.316-0.422
	c0.102-0.138,0.209-0.272,0.305-0.415c0.109-0.162,0.203-0.331,0.302-0.497c0.079-0.132,0.162-0.261,0.236-0.398
	c0.09-0.166,0.165-0.338,0.245-0.509c0.068-0.145,0.141-0.289,0.203-0.437c0.068-0.164,0.124-0.333,0.183-0.5
	c0.058-0.161,0.119-0.321,0.17-0.485c0.051-0.169,0.089-0.339,0.131-0.51c0.042-0.166,0.089-0.332,0.123-0.501
	c0.039-0.198,0.063-0.399,0.092-0.599c0.02-0.144,0.048-0.287,0.063-0.433c0.035-0.353,0.053-0.706,0.053-1.06v-44.173
	C311.087,79.641,333.09,57.633,360.135,57.633z M75.913,390.464h22.06c-4.905,22.55-25.01,39.494-49.009,39.494H36.418
	L75.913,390.464z"/>
<path d="M364.6,114.298c5.89,0,10.667-4.775,10.667-10.667V89.62c0-5.891-4.777-10.667-10.667-10.667s-10.667,4.775-10.667,10.667
	v14.013C353.934,109.523,358.709,114.298,364.6,114.298z"/>
<path d="M300.42,193.301c-5.89,0-10.667,4.775-10.667,10.667v6.453c0,5.891,4.777,10.667,10.667,10.667s10.667-4.775,10.667-10.667
	v-6.453C311.087,198.077,306.31,193.301,300.42,193.301z"/>
</svg>