<?xml version="1.0" standalone="no"?>
<!DOCTYPE svg PUBLIC "-//W3C//DTD SVG 20010904//EN"
 "http://www.w3.org/TR/2001/REC-SVG-20010904/DTD/svg10.dtd">
<svg version="1.0" xmlns="http://www.w3.org/2000/svg"
 width="266.000000pt" height="190.000000pt" viewBox="0 0 266.000000 190.000000"
 preserveAspectRatio="xMidYMid meet">

<g transform="translate(0.000000,190.000000) scale(0.100000,-0.100000)"
fill="#000000" stroke="none">
<path d="M660 1873 c0 -16 4 -34 9 -42 7 -11 10 -9 16 8 6 21 28 27 89 23 39
-3 57 -19 50 -46 -4 -17 2 -25 30 -38 34 -17 35 -16 41 3 4 13 0 27 -10 39
-22 24 -6 34 61 36 63 2 90 10 98 29 5 13 -23 15 -189 15 l-195 0 0 -27z"/>
<path d="M1090 1862 c0 -21 6 -47 14 -57 12 -17 18 -18 54 -7 33 10 41 17 46
43 9 44 -8 59 -65 59 l-49 0 0 -38z"/>
<path d="M1321 1874 c-26 -34 -27 -66 -1 -82 17 -10 18 -16 8 -37 -6 -13 -14
-22 -19 -20 -19 12 -19 -18 0 -36 24 -23 60 -18 87 12 9 10 23 19 31 19 20 0
-3 22 -42 41 -26 12 -30 20 -31 56 0 23 2 40 7 38 9 -6 20 21 12 29 -13 13
-32 5 -52 -20z"/>
<path d="M1441 1891 c-10 -7 -12 -22 -6 -67 5 -44 9 -54 16 -41 6 9 9 39 7 67
-2 39 -6 48 -17 41z"/>
<path d="M1570 1863 c0 -27 3 -34 15 -29 9 3 31 -9 55 -30 29 -26 49 -36 75
-37 44 -1 61 20 38 45 -9 10 -13 21 -8 26 4 4 10 1 12 -5 3 -7 9 -13 14 -13 4
0 6 7 2 16 -5 13 -2 15 15 10 12 -4 30 -2 41 3 13 7 22 8 26 1 6 -10 67 -7 98
5 12 5 17 2 17 -9 0 -9 7 -19 15 -22 8 -4 12 -11 8 -16 -11 -18 139 1 152 19
10 14 21 14 75 5 34 -6 67 -9 71 -6 5 3 -6 21 -25 40 -29 30 -39 34 -85 34
-44 0 -51 -3 -51 -19 0 -11 -4 -23 -10 -26 -5 -3 -10 -1 -10 5 0 6 -4 9 -9 5
-6 -3 -15 4 -21 15 -11 20 -19 21 -260 20 l-250 -1 0 -36z"/>
<path d="M2309 1880 c22 -19 51 -27 51 -14 0 12 -35 33 -55 33 -19 0 -19 -1 4
-19z"/>
<path d="M2575 1875 c86 -31 85 -31 85 0 0 25 -1 25 -77 25 l-78 0 70 -25z"/>
<path d="M757 1785 c-13 -9 -15 -15 -7 -20 7 -4 19 -1 27 8 19 19 3 29 -20 12z"/>
<path d="M1844 1748 c-13 -24 -14 -36 -5 -50 8 -13 8 -16 -3 -12 -18 7 -31
-107 -13 -118 6 -4 15 -2 19 5 6 9 8 9 8 0 0 -6 -7 -19 -16 -27 -8 -9 -12 -16
-8 -16 3 0 1 -6 -5 -13 -6 -8 -9 -16 -6 -19 8 -8 9 -81 1 -104 -6 -18 -3 -21
24 -20 16 1 30 4 30 9 0 4 5 7 10 7 6 0 10 -11 10 -24 0 -18 -5 -24 -19 -23
-11 0 -17 6 -14 14 8 20 -14 16 -23 -4 -4 -10 -9 -29 -10 -42 -2 -13 -9 -28
-16 -32 -10 -7 -10 -9 1 -9 12 0 30 -17 74 -70 22 -27 37 -62 30 -73 -4 -6 -1
-7 7 -2 10 6 12 4 7 -9 -5 -13 -3 -17 6 -13 9 3 12 -4 11 -25 -1 -16 -5 -32
-8 -35 -3 -4 1 -14 10 -24 9 -10 14 -25 11 -34 -12 -29 10 -15 28 19 18 33 17
38 -10 86 -17 29 -19 78 -5 100 8 13 10 12 10 -2 0 -13 8 -18 30 -18 24 0 30
4 30 23 1 21 1 22 15 3 12 -16 15 -16 15 -4 0 8 15 23 34 33 19 11 37 28 40
39 7 26 0 32 -17 17 -12 -9 -13 -7 -10 12 7 34 -23 44 -31 11 -6 -21 -10 -23
-34 -17 -15 4 -36 6 -47 5 -19 -1 -18 1 4 19 28 23 35 24 55 3 16 -16 22 -8 8
12 -10 15 -83 25 -97 14 -9 -8 -11 -4 -8 15 3 13 11 30 19 36 8 6 14 22 14 36
0 20 3 22 19 13 11 -5 22 -19 26 -29 3 -11 14 -23 24 -26 11 -3 22 -16 25 -28
l7 -22 10 23 c5 13 6 29 2 35 -4 7 1 6 10 -2 33 -26 19 12 -20 57 -34 39 -63
54 -63 33 0 -16 -28 -20 -57 -9 -25 10 -32 8 -57 -16 -37 -33 -50 -33 -42 2 4
20 1 17 -14 -13 -17 -34 -25 -40 -21 -12 0 4 -4 7 -9 7 -20 0 -10 39 15 58 15
12 21 23 15 27 -6 3 -7 11 -4 17 4 7 9 6 14 -2 6 -9 17 -5 43 15 l35 28 -29
78 c-30 83 -49 119 -61 119 -4 0 -15 -14 -24 -32z m16 -38 c0 -5 -2 -10 -4
-10 -3 0 -8 5 -11 10 -3 6 -1 10 4 10 6 0 11 -4 11 -10z"/>
<path d="M2153 1720 c-17 -16 -43 -54 -58 -83 l-28 -53 29 -29 c16 -16 33 -29
37 -27 5 1 6 -2 2 -8 -4 -6 5 -24 19 -41 21 -25 26 -27 26 -12 0 11 -6 25 -12
31 -10 10 -10 15 1 21 11 7 11 10 0 15 -8 3 -4 4 8 2 20 -3 22 1 28 70 6 60 4
76 -9 89 -21 22 -21 31 1 14 15 -12 16 -12 10 4 -4 10 -7 23 -7 28 0 16 -16 9
-47 -21z m-22 -157 c-6 -10 -11 -13 -11 -8 -1 6 -3 20 -6 33 -4 21 -3 22 12 8
11 -12 13 -20 5 -33z"/>
<path d="M1172 1709 c1 -13 8 -23 13 -21 15 3 12 35 -3 40 -9 3 -13 -3 -10
-19z"/>
<path d="M2538 1663 c-35 -5 -35 -16 -3 -41 30 -24 88 -17 93 12 6 32 -19 40
-90 29z"/>
<path d="M320 1620 c0 -5 5 -10 10 -10 6 0 10 5 10 10 0 6 -4 10 -10 10 -5 0
-10 -4 -10 -10z"/>
<path d="M470 1560 c0 -11 2 -20 4 -20 2 0 6 9 9 20 3 11 1 20 -4 20 -5 0 -9
-9 -9 -20z"/>
<path d="M130 1550 c0 -5 5 -10 10 -10 6 0 10 5 10 10 0 6 -4 10 -10 10 -5 0
-10 -4 -10 -10z"/>
<path d="M281 1541 c-7 -5 -9 -11 -4 -14 5 -3 15 -2 22 2 7 5 9 11 4 14 -5 3
-15 2 -22 -2z"/>
<path d="M782 1524 c-24 -16 -30 -44 -9 -44 17 1 47 25 47 38 0 19 -16 22 -38
6z"/>
<path d="M332 1478 c-17 -17 -15 -38 3 -38 9 0 15 9 15 25 0 29 -1 30 -18 13z"/>
<path d="M385 1464 c17 -12 18 -16 5 -24 -8 -5 -11 -12 -7 -17 12 -11 42 12
45 36 3 18 -1 21 -30 21 -32 -1 -32 -1 -13 -16z"/>
<path d="M680 1466 c0 -9 5 -16 10 -16 6 0 10 4 10 9 0 6 -4 13 -10 16 -5 3
-10 -1 -10 -9z"/>
<path d="M512 1442 c-15 -10 -6 -38 15 -46 22 -9 25 -3 17 28 -7 28 -12 30
-32 18z"/>
<path d="M1558 1343 c-9 -2 -19 -10 -21 -17 -6 -15 29 -10 38 5 3 4 13 5 22 2
11 -4 14 -3 9 5 -7 12 -18 13 -48 5z"/>
<path d="M1175 1323 c-106 -9 -299 -40 -350 -58 -50 -17 -60 -24 -59 -43 2
-24 -6 -28 -23 -11 -11 11 -68 -19 -127 -68 -15 -13 -43 -30 -61 -37 -40 -17
-53 -35 -34 -50 18 -14 18 -38 -1 -62 -8 -11 -3 -9 13 5 16 14 39 24 57 24 17
0 30 6 30 13 0 6 10 12 23 12 12 0 39 2 60 6 26 4 36 3 32 -5 -4 -5 -12 -8
-18 -6 -14 4 -52 -42 -52 -63 1 -20 26 -15 75 17 24 16 40 35 41 47 1 19 2 19
7 -2 4 -13 9 -22 12 -21 12 7 48 -35 42 -49 -4 -12 0 -14 18 -9 25 7 44 -7 55
-42 4 -13 10 -19 14 -14 10 16 41 24 35 9 -4 -9 3 -13 20 -11 15 2 24 0 21 -5
-7 -12 23 -33 36 -24 8 5 10 0 7 -18 -3 -16 0 -25 8 -25 7 0 10 5 7 10 -3 6
-1 7 5 3 7 -4 12 -13 12 -20 0 -22 35 -47 47 -35 9 9 16 7 28 -5 20 -20 26
-20 19 -2 -7 19 27 38 47 25 12 -7 11 -9 -2 -9 -17 0 -34 -28 -24 -38 3 -3 5
-1 5 5 0 14 62 53 73 46 4 -2 2 -12 -5 -21 -11 -15 -11 -15 3 -5 9 7 19 11 22
8 4 -3 5 -2 2 2 -7 9 54 29 86 28 31 -2 51 -13 44 -26 -3 -5 1 -6 10 -3 14 6
14 8 -1 19 -16 11 -16 12 0 18 15 6 15 9 1 31 -15 23 -15 25 16 40 17 9 35 13
40 10 5 -3 6 2 3 10 -5 14 -8 14 -29 0 -22 -14 -22 -14 -21 32 1 25 -2 48 -7
51 -5 3 -6 11 -3 19 3 8 0 14 -7 14 -8 0 -6 4 3 10 11 7 11 10 2 10 -7 0 -11
3 -9 8 3 4 1 16 -2 26 -4 11 -2 36 5 55 18 49 17 96 -1 114 -11 12 -12 17 -2
20 7 3 5 6 -5 6 -10 1 -18 6 -18 12 0 5 -6 7 -12 3 -10 -6 -10 -5 -1 7 10 12
-2 14 -85 14 -54 0 -110 -1 -127 -2z m-210 -43 c-3 -5 -12 -10 -18 -10 -7 0
-6 4 3 10 19 12 23 12 15 0z m-58 -6 c-3 -3 -12 -4 -19 -1 -8 3 -5 6 6 6 11 1
17 -2 13 -5z m-242 -214 c-3 -5 -11 -10 -16 -10 -6 0 -7 5 -4 10 3 6 11 10 16
10 6 0 7 -4 4 -10z m655 -160 c-8 -5 -18 -6 -24 -3 -5 4 -1 10 10 13 24 9 34
2 14 -10z m50 5 c-7 -9 -10 -19 -6 -22 10 -10 42 13 38 27 -1 6 2 9 8 5 7 -4
7 -12 0 -26 -7 -13 -7 -19 0 -19 5 0 10 -6 10 -14 0 -17 -27 -29 -43 -19 -6 4
-25 7 -42 8 -16 0 -36 4 -42 8 -21 13 -15 30 8 24 28 -7 49 1 43 18 -3 7 3 15
13 18 10 3 20 5 22 6 2 0 -2 -6 -9 -14z m-122 -62 c-10 -2 -18 -9 -18 -15 0
-6 -3 -9 -6 -5 -10 10 6 27 24 26 15 -1 15 -2 0 -6z"/>
<path d="M1335 860 c-3 -6 1 -7 9 -4 18 7 21 14 7 14 -6 0 -13 -4 -16 -10z"/>
<path d="M2136 1317 c3 -10 9 -15 12 -12 3 3 0 11 -7 18 -10 9 -11 8 -5 -6z"/>
<path d="M1595 1299 c3 -13 0 -19 -8 -16 -43 16 -54 17 -54 4 0 -9 7 -12 20
-9 15 4 18 2 12 -8 -6 -10 1 -11 31 -7 24 4 31 3 19 -2 -18 -7 -17 -8 6 -14
21 -5 48 -39 54 -67 0 -3 6 -15 13 -28 7 -12 10 -27 7 -32 -4 -6 1 -13 10 -16
12 -5 13 -9 5 -14 -9 -5 -6 -10 9 -15 28 -9 27 -24 -1 -19 -17 3 -15 1 7 -10
17 -9 23 -15 15 -16 -10 0 -4 -9 14 -24 28 -22 29 -24 10 -34 -10 -6 -14 -12
-7 -12 7 0 10 -7 6 -17 -4 -11 -3 -14 5 -9 7 4 12 14 12 22 0 8 5 12 10 9 6
-4 8 -10 5 -15 -3 -5 -1 -11 5 -15 5 -3 10 -27 10 -52 0 -26 3 -43 7 -40 3 4
13 1 22 -7 9 -7 27 -17 41 -20 23 -6 23 -6 8 7 -19 15 -25 33 -8 22 6 -3 10
-2 10 3 0 6 -13 15 -29 20 -39 14 -49 48 -22 73 27 25 41 17 42 -24 1 -24 4
-17 15 28 15 69 17 84 6 69 -4 -6 -15 -11 -24 -11 -13 0 -15 4 -7 19 6 12 6
24 0 36 -8 15 -9 77 -1 77 1 0 3 9 5 20 7 34 -19 62 -57 62 -18 0 -27 -2 -21
-4 9 -3 8 -11 -3 -29 -9 -13 -20 -21 -25 -18 -5 3 -9 0 -9 -7 0 -6 8 -9 19 -6
21 5 36 -17 24 -36 -4 -7 0 -8 13 -3 15 6 16 5 7 -5 -10 -10 -9 -15 5 -25 16
-11 15 -14 -7 -38 -19 -20 -27 -23 -38 -15 -7 6 -13 18 -13 26 0 8 -10 25 -22
38 -12 12 -22 31 -23 41 -1 11 -4 25 -6 32 -6 21 -64 82 -77 82 -7 0 -11 3
-11 8 3 20 -3 32 -17 32 -8 0 -13 4 -9 9 3 5 1 12 -4 16 -6 3 -8 -4 -6 -16z
m252 -113 c-4 -10 -1 -13 9 -9 7 3 14 0 14 -6 0 -15 -23 -14 -38 1 -17 17 -15
28 4 28 10 0 14 -6 11 -14z m-11 -187 c-9 -19 -13 -24 -10 -12 4 18 2 22 -10
17 -24 -9 -19 13 6 31 29 19 33 7 14 -36z"/>
<path d="M1528 1253 c7 -3 16 -2 19 1 4 3 -2 6 -13 5 -11 0 -14 -3 -6 -6z"/>
<path d="M1525 1230 c3 -5 3 -16 -2 -22 -13 -23 -9 -79 8 -94 15 -13 17 -13
22 6 3 11 1 20 -4 20 -17 0 -9 28 13 42 22 15 22 15 -12 11 -32 -5 -34 -4 -16
9 18 14 15 38 -5 38 -6 0 -7 -4 -4 -10z"/>
<path d="M1775 1130 c4 -6 11 -8 16 -5 14 9 11 15 -7 15 -8 0 -12 -5 -9 -10z"/>
<path d="M1901 1094 c0 -11 3 -14 6 -6 3 7 2 16 -1 19 -3 4 -6 -2 -5 -13z"/>
<path d="M1540 1080 c-9 -6 -10 -10 -3 -10 6 0 15 5 18 10 8 12 4 12 -15 0z"/>
<path d="M160 1070 c0 -5 5 -10 10 -10 6 0 10 5 10 10 0 6 -4 10 -10 10 -5 0
-10 -4 -10 -10z"/>
<path d="M1792 1060 c-7 -11 -8 -20 -3 -20 9 0 24 30 18 36 -1 2 -8 -6 -15
-16z"/>
<path d="M625 1020 c-3 -5 -15 -10 -26 -10 -10 0 -19 -6 -19 -12 0 -10 -3 -9
-9 1 -7 11 -10 9 -16 -8 -3 -11 -12 -21 -18 -21 -9 0 -8 -3 1 -8 10 -7 8 -14
-8 -34 -11 -15 -20 -29 -20 -33 0 -13 31 18 61 62 30 43 51 53 65 31 4 -7 3
-8 -5 -4 -6 4 -22 -3 -36 -16 -28 -26 -35 -50 -7 -25 19 17 37 25 37 16 0 -3
8 -13 18 -23 9 -10 15 -22 12 -27 -4 -5 1 -9 9 -9 9 0 16 -5 16 -11 0 -5 -4
-8 -9 -4 -5 3 -12 1 -16 -4 -3 -6 3 -8 15 -6 20 4 50 -18 50 -36 0 -5 -7 -12
-15 -15 -19 -8 -19 -47 1 -85 8 -17 13 -37 10 -45 -3 -8 -1 -14 4 -14 6 0 10
7 10 15 0 20 22 14 37 -10 15 -25 17 -11 2 17 -10 18 -9 20 5 15 21 -8 20 -7
-8 32 -14 18 -22 39 -20 46 3 7 0 16 -6 20 -7 5 -5 12 7 23 25 23 25 109 1
123 -14 8 -16 7 -11 -7 5 -14 2 -16 -15 -12 -14 4 -20 2 -15 -5 4 -6 0 -8 -9
-4 -9 3 -21 0 -27 -6 -8 -8 -11 -7 -11 6 0 29 -1 31 -15 53 -10 16 -11 24 -2
33 8 8 8 11 0 11 -7 0 -15 -4 -18 -10z m132 -92 c-3 -8 -6 -5 -6 6 -1 11 2 17
5 13 3 -3 4 -12 1 -19z m-7 -198 c0 -13 -5 -18 -15 -14 -8 4 -15 10 -15 16 0
5 5 6 10 3 6 -3 10 -1 10 4 0 6 2 11 5 11 3 0 5 -9 5 -20z"/>
<path d="M1460 999 c0 -5 5 -7 10 -4 6 3 10 8 10 11 0 2 -4 4 -10 4 -5 0 -10
-5 -10 -11z"/>
<path d="M1740 996 c0 -2 7 -7 16 -10 8 -3 12 -2 9 4 -6 10 -25 14 -25 6z"/>
<path d="M1916 985 c-3 -8 -1 -15 4 -15 6 0 10 7 10 15 0 8 -2 15 -4 15 -2 0
-6 -7 -10 -15z"/>
<path d="M473 982 c-12 -8 -37 -88 -53 -170 -12 -63 -68 -194 -117 -275 -20
-32 -38 -68 -39 -80 -1 -12 -3 -26 -3 -30 -1 -5 -6 -5 -11 -2 -11 7 -33 -42
-26 -59 2 -6 5 -3 5 7 1 9 9 17 19 17 14 0 15 2 2 10 -12 8 -11 10 6 10 17 0
21 -5 17 -27 -3 -24 -2 -25 6 -8 8 18 9 17 13 -10 4 -27 5 -25 12 16 6 36 14
50 37 63 16 9 29 23 28 29 0 9 -2 9 -6 0 -2 -7 -10 -13 -16 -13 -6 0 3 13 21
29 17 17 32 35 32 42 0 6 9 20 20 29 12 10 20 22 19 26 -1 5 -1 23 0 39 l2 30
14 -25 14 -25 1 27 c0 14 -5 28 -11 30 -7 2 -12 29 -13 65 -1 46 3 66 17 81
20 22 33 107 15 96 -6 -4 -9 -3 -7 2 3 5 11 21 19 37 14 29 4 52 -17 39z"/>
<path d="M1574 938 c10 -6 22 -6 26 -2 5 5 -3 10 -18 11 -22 1 -24 0 -8 -9z"/>
<path d="M599 938 c-4 -15 -6 -38 -3 -38 2 0 8 9 14 20 7 14 7 20 0 20 -5 0
-10 -1 -11 -2z"/>
<path d="M1522 923 c-6 -2 -10 -8 -7 -12 2 -5 -7 -19 -20 -31 -25 -23 -25 -23
-25 -3 0 16 -5 20 -20 16 -17 -4 -18 -8 -8 -27 12 -21 14 -27 16 -58 2 -17 25
-19 39 -3 4 4 2 5 -4 1 -13 -7 -17 4 -13 34 2 18 54 70 69 70 6 0 11 5 11 10
0 10 -16 12 -38 3z"/>
<path d="M1786 913 c-6 -14 -5 -15 5 -6 7 7 10 15 7 18 -3 3 -9 -2 -12 -12z"/>
<path d="M1725 880 c-3 -5 -1 -10 4 -10 6 0 11 5 11 10 0 6 -2 10 -4 10 -3 0
-8 -4 -11 -10z"/>
<path d="M996 867 c3 -10 9 -15 12 -12 3 3 0 11 -7 18 -10 9 -11 8 -5 -6z"/>
<path d="M1515 861 c-6 -11 13 -26 22 -17 4 3 0 6 -8 7 -8 0 -6 4 6 9 16 7 17
9 3 9 -9 1 -19 -3 -23 -8z"/>
<path d="M1608 863 c6 -2 10 -9 7 -14 -4 -5 1 -6 9 -3 13 5 13 2 3 -20 -7 -14
-16 -26 -20 -26 -5 0 -5 5 -1 12 4 7 3 8 -4 4 -7 -4 -12 -13 -12 -21 0 -7 -8
-21 -17 -31 -13 -13 -14 -19 -5 -22 6 -2 12 -11 12 -19 0 -9 6 -13 15 -10 11
5 12 1 5 -18 -7 -20 -6 -25 5 -25 8 0 15 -4 15 -10 0 -5 -11 -10 -25 -10 -14
0 -25 5 -25 11 0 6 -9 9 -20 6 -18 -5 -25 4 -21 27 1 5 -6 6 -14 2 -30 -11
-36 5 -15 40 21 37 27 69 10 59 -6 -4 -7 -11 -4 -17 4 -5 -4 -4 -17 3 -13 7
-25 12 -27 11 -48 -28 -65 -33 -59 -19 7 19 -36 29 -54 13 -9 -8 -10 -8 -5 1
3 6 2 14 -2 17 -5 3 -15 -14 -22 -37 -8 -23 -17 -47 -22 -53 -4 -6 -2 -11 7
-11 14 0 19 10 16 30 0 4 2 7 7 8 4 0 16 2 26 4 20 4 40 -11 48 -35 2 -8 11
-15 19 -16 33 -1 77 -27 88 -50 10 -24 12 -24 28 -8 11 11 18 13 21 5 2 -6 11
-11 19 -11 9 0 13 -6 9 -15 -3 -8 0 -15 7 -15 8 0 6 -4 -3 -10 -11 -7 -11 -10
-2 -10 7 0 10 -4 7 -10 -3 -6 5 -10 18 -10 22 0 26 6 33 48 4 26 8 53 7 60 0
6 5 12 13 12 8 0 14 5 14 10 0 6 7 10 15 10 8 0 15 7 15 15 0 8 4 15 9 15 5 0
9 12 9 26 0 20 -5 25 -19 21 -10 -3 -18 -2 -17 2 2 20 -4 22 -18 5 -8 -10 -13
-13 -9 -6 4 8 -2 12 -17 13 -18 1 -19 2 -5 6 18 5 18 5 0 19 -16 13 -14 14 20
8 23 -4 37 -2 37 4 0 6 -9 9 -20 7 -11 -2 -20 0 -20 4 0 8 -45 32 -58 30 -4 0
-1 -3 6 -6z m5 -88 c-3 -9 -8 -14 -10 -11 -3 3 -2 9 2 15 9 16 15 13 8 -4z
m-257 -10 c-20 -15 -36 -19 -36 -10 0 5 38 23 50 24 3 0 -4 -6 -14 -14z"/>
<path d="M1695 860 c3 -5 8 -10 11 -10 2 0 4 5 4 10 0 6 -5 10 -11 10 -5 0 -7
-4 -4 -10z"/>
<path d="M970 842 c0 -7 -4 -10 -10 -7 -5 3 -10 -2 -10 -12 0 -14 -2 -15 -9
-4 -7 11 -11 9 -20 -8 -17 -32 -3 -46 23 -23 25 22 56 35 56 23 0 -5 9 -11 20
-14 29 -8 24 7 -7 24 -16 8 -31 18 -35 24 -5 6 -8 5 -8 -3z"/>
<path d="M1825 820 c-4 -7 -3 -15 3 -19 6 -4 -15 -32 -51 -68 -76 -75 -86 -92
-91 -146 -2 -23 -1 -33 1 -22 5 20 36 55 49 55 4 0 20 14 36 30 15 17 32 30
36 30 15 1 57 54 59 76 2 25 -11 32 -21 12 -3 -7 -3 -3 0 9 7 28 -9 62 -21 43z"/>
<path d="M760 812 c0 -5 10 -17 21 -28 22 -19 22 -19 10 3 -12 24 -31 39 -31
25z"/>
<path d="M1350 812 c0 -5 7 -9 15 -9 8 0 12 4 9 9 -3 4 -9 8 -15 8 -5 0 -9 -4
-9 -8z"/>
<path d="M1760 816 c0 -2 8 -10 18 -17 15 -13 16 -12 3 4 -13 16 -21 21 -21
13z"/>
<path d="M1555 790 c3 -5 8 -10 11 -10 2 0 4 5 4 10 0 6 -5 10 -11 10 -5 0 -7
-4 -4 -10z"/>
<path d="M1726 786 c21 -15 30 -14 19 3 -3 6 -14 11 -23 11 -13 0 -13 -2 4
-14z"/>
<path d="M765 770 c10 -11 20 -20 23 -20 3 0 -3 9 -13 20 -10 11 -20 20 -23
20 -3 0 3 -9 13 -20z"/>
<path d="M1100 760 c0 -10 41 -30 58 -30 10 1 -39 40 -49 40 -5 0 -9 -5 -9
-10z"/>
<path d="M799 743 c-13 -16 -12 -17 4 -4 9 7 17 15 17 17 0 8 -8 3 -21 -13z"/>
<path d="M1241 744 c0 -11 3 -14 6 -6 3 7 2 16 -1 19 -3 4 -6 -2 -5 -13z"/>
<path d="M606 690 c9 -32 23 -42 52 -35 27 6 29 -10 4 -24 -13 -7 -23 -6 -32
2 -10 9 -14 9 -17 -1 -3 -6 -8 -10 -13 -7 -5 3 -11 -4 -15 -15 -4 -11 -11 -18
-16 -15 -5 4 -9 1 -9 -4 0 -6 -9 -11 -20 -11 -11 0 -23 -6 -26 -14 -3 -8 -11
-13 -19 -10 -7 3 -19 -11 -31 -38 -10 -24 -20 -47 -23 -53 -2 -6 2 -5 10 1 8
6 29 16 47 22 29 10 32 9 32 -8 0 -10 5 -22 10 -25 6 -4 1 -14 -12 -25 -13
-11 -18 -19 -11 -20 6 0 15 5 18 10 4 6 29 22 56 35 l50 24 -36 -50 c-19 -27
-35 -54 -35 -61 0 -6 -3 -9 -6 -5 -4 3 -13 -1 -21 -9 -9 -8 -14 -16 -12 -17 2
-2 12 -8 21 -15 14 -12 16 -10 11 10 -4 22 -4 22 11 4 9 -11 16 -24 16 -29 0
-4 4 -6 8 -3 4 2 9 24 11 47 1 24 6 50 11 58 7 11 8 7 4 -15 -6 -31 15 -62 24
-36 2 7 10 12 18 12 8 0 13 4 11 9 -1 5 17 23 41 40 23 18 40 36 37 41 -3 6 1
10 10 10 11 0 14 6 9 25 -4 16 -2 25 6 25 6 0 8 5 4 12 -5 7 -2 9 8 5 11 -4
17 2 21 19 3 17 0 24 -10 24 -9 0 -13 -6 -9 -15 3 -8 2 -14 -2 -13 -11 2 -45
-14 -77 -37 -36 -27 -65 -38 -65 -25 0 5 4 11 10 15 15 9 0 34 -17 28 -10 -4
-14 -2 -10 4 4 6 1 14 -5 16 -9 4 0 18 24 41 21 20 34 36 30 36 -4 0 0 5 8 10
12 8 11 12 -8 30 -12 11 -22 25 -22 30 0 14 -27 12 -33 -2 -4 -10 -8 -9 -17 2
-9 12 -10 10 -4 -10z"/>
<path d="M685 700 c3 -5 8 -10 11 -10 2 0 4 5 4 10 0 6 -5 10 -11 10 -5 0 -7
-4 -4 -10z"/>
<path d="M855 681 c-7 -24 -3 -33 18 -37 7 -2 23 -6 37 -9 l25 -6 -24 14 c-13
8 -29 25 -36 37 l-13 23 -7 -22z"/>
<path d="M760 640 c0 -5 5 -10 11 -10 5 0 7 5 4 10 -3 6 -8 10 -11 10 -2 0 -4
-4 -4 -10z"/>
<path d="M480 621 c0 -6 9 -9 20 -8 11 1 20 5 20 9 0 4 -9 8 -20 8 -11 0 -20
-4 -20 -9z"/>
<path d="M821 604 c0 -11 3 -14 6 -6 3 7 2 16 -1 19 -3 4 -6 -2 -5 -13z"/>
<path d="M1545 480 c3 -5 8 -10 11 -10 2 0 4 5 4 10 0 6 -5 10 -11 10 -5 0 -7
-4 -4 -10z"/>
<path d="M61 454 c0 -11 3 -14 6 -6 3 7 2 16 -1 19 -3 4 -6 -2 -5 -13z"/>
<path d="M412 458 c-6 -6 -12 -18 -12 -26 0 -7 -4 -11 -8 -8 -12 7 -54 -23
-47 -34 3 -5 1 -11 -5 -15 -13 -8 -13 11 2 38 10 20 10 21 -6 8 -13 -11 -16
-23 -12 -43 3 -16 2 -27 -3 -24 -4 3 -6 -7 -3 -21 5 -26 5 -26 13 -5 10 26 21
30 13 5 -3 -10 1 -7 9 7 9 14 13 29 10 34 -4 5 -1 6 6 2 6 -4 14 0 18 11 3 10
15 28 26 40 21 24 21 53 -1 31z"/>
<path d="M460 414 c0 -8 5 -12 10 -9 6 4 8 11 5 16 -9 14 -15 11 -15 -7z"/>
<path d="M18 352 c5 -9 12 -24 15 -32 3 -9 6 -4 6 11 1 15 -6 29 -14 33 -12 4
-13 2 -7 -12z"/>
<path d="M2320 349 c0 -5 5 -7 10 -4 6 3 10 8 10 11 0 2 -4 4 -10 4 -5 0 -10
-5 -10 -11z"/>
<path d="M271 334 c0 -11 3 -14 6 -6 3 7 2 16 -1 19 -3 4 -6 -2 -5 -13z"/>
<path d="M180 331 c0 -6 4 -13 10 -16 6 -3 7 1 4 9 -7 18 -14 21 -14 7z"/>
<path d="M1577 310 c3 -11 7 -20 9 -20 2 0 4 9 4 20 0 11 -4 20 -9 20 -5 0 -7
-9 -4 -20z"/>
<path d="M2340 179 c0 -11 4 -18 10 -14 5 3 7 12 3 20 -7 21 -13 19 -13 -6z"/>
<path d="M2376 183 c-4 -9 -4 -18 -1 -21 3 -3 5 0 5 6 0 6 8 12 18 14 15 3 16
4 0 10 -10 4 -19 1 -22 -9z"/>
<path d="M2466 171 c-4 -5 3 -7 14 -4 23 6 26 13 6 13 -8 0 -17 -4 -20 -9z"/>
</g>
</svg>
