<?xml version="1.0" encoding="utf-8"?>

<!DOCTYPE svg PUBLIC "-//W3C//DTD SVG 1.1//EN" "http://www.w3.org/Graphics/SVG/1.1/DTD/svg11.dtd">
<svg version="1.1" id="Layer_1" xmlns="http://www.w3.org/2000/svg" xmlns:xlink="http://www.w3.org/1999/xlink" x="0px" y="0px"
	 viewBox="0 0 1471.681 1664.276" enable-background="new 0 0 1471.681 1664.276" xml:space="preserve">
<g>
	<path fill="#010205" stroke="#010205" stroke-width="0.5" d="M200.641,41.202c31.471-9.075,64.564-9.57,97.064-8.828
		c20.011,0.722,40.298,2.929,59.082,10.302c16.042,6.136,30.837,16.131,41.318,29.867c6.373,8.105,11.52,17.052,16.804,25.879
		c14.983,25.088,28.977,50.749,43.544,76.074c1.93,2.682,4.572,4.76,6.67,7.323c10.965,12.737,18.506,28.007,24.682,43.535
		c11.797,30.333,17.626,63.11,34.262,91.443c7.393,12.529,16.794,24.316,29.333,32.005c13.459,8.649,29.046,12.935,44.287,17.24
		c38.181,10.718,74.233,28.165,107.307,49.918c33.698,21.94,64.584,47.869,94.214,74.966c28.472,26.275,56.242,53.292,83.586,80.745
		c25.483,24.989,50.551,50.413,75.916,75.52c9.847,6.502,19.565,13.241,28.828,20.585c5.502,4.463,10.965,9.659,13.044,16.666
		c1.494,5.829,0.703,12.905-4.067,17.071c-4.077,3.721-9.916,3.84-14.736,6.047c-3.078,1.217-4.978,4.78-4.255,8.016
		c0.95,5.364,4.275,9.887,7.739,13.934c13.647,16.052,27.275,32.114,40.981,48.107c2.583,2.989,4.918,6.264,8.125,8.649
		c30.748,24.058,59.408,50.739,85.99,79.31c3.573,4.087,7.165,8.184,10.421,12.549c-12.133-3.068-24.424-5.463-36.656-8.135
		c-3.355-0.703-6.68-1.781-10.134-1.663c-5.601-2.543-11.717-3.424-17.675-4.711c1.138,11.549,4.067,23.524,0.594,34.944
		c-2.088,7.056-7.67,12.509-14.389,15.27c3.909,7.403,7.571,15.201,8.372,23.643c0.673,8.739-2.266,18.388-9.619,23.672
		c-6.037,4.374-13.994,4.75-21.079,3.394c-10.045-1.88-19.051-6.898-28.462-10.619c0.703,1.297,1.425,2.593,2.157,3.919
		c-3.523-2.583-6.403-6.037-10.332-8.016c-57.973-25.503-115.996-50.897-173.9-76.559c-13.36-5.681-27.185-10.649-41.634-12.598
		c-6.106-0.762-12.252-1.217-18.398-1.346c-2.969,6.819-8.046,13.182-15.349,15.547c-8.986,2.85-18.595,0.831-27.403-1.702
		c-36.874-10.461-72.204-26.325-104.566-46.85c-60.23-37.607-111.226-88.405-154.484-144.379
		c-27.69-35.697-52.323-73.659-75.609-112.335c-15.32-25.79-29.828-52.629-36.795-82.032c-5.413-21.921-5.493-45.326,1.039-67.019
		c5.196-17.616,15.082-34.143,29.462-45.751c13.538-11.054,30.847-16.517,48.037-18.269c37.884-3.949,74.966,8.58,112.8,7.403
		c7.026,0.327,13.984-1.207,21-0.821c-4.711,0.861-9.461,1.445-14.221,1.9c-9.392,0.693-18.823,0.584-28.205-0.069
		c-19.565-1.425-38.952-4.632-58.528-5.839c-19.229-1.366-39.061-0.307-57.201,6.73c-16.121,6.037-29.848,17.833-38.784,32.48
		c-8.521,13.647-13.093,29.482-14.766,45.395c-2.316,23.326,3.009,46.731,11.411,68.384c9.214,23.474,22.138,45.247,35.182,66.742
		c40.15,65.94,85.763,129.337,142.291,182.302c26.305,24.702,55.064,46.82,85.862,65.633c31.718,19.605,65.92,35.31,101.785,45.623
		c7.957,2.068,16.933,3.236,24.543-0.653c4.998-2.435,8.501-7.076,10.55-12.143c-13.291-0.633-26.809-0.663-39.695-4.384
		c-8.669-2.553-17.121-6.047-24.761-10.896c-5.354-3.543-11.005-6.947-15.062-12.024c5.433,3.543,10.213,8.056,15.953,11.163
		c9.807,5.72,20.604,9.817,31.807,11.767c20.505,3.464,41.575-0.04,61.981,4.315c19.546,3.998,37.844,12.252,56.083,20.09
		c55.044,24.147,110.058,48.374,165.122,72.482c7.551,3.424,15.231,6.967,23.514,8.254c5.839,0.881,12.46,0.327,17.062-3.771
		c5.878-5.057,7.531-13.538,6.363-20.911c-1.385-9.283-6.631-17.25-10.599-25.553c3.434-0.673,7.175-0.96,10.104-3.098
		c4.879-3.513,7.67-9.382,8.244-15.28c0.99-10.223-1.445-20.298-2.237-30.432c-1.504-11.282-2.345-22.821-6.265-33.598
		c-4.691-12.618-12.628-23.702-21.327-33.846c-17.675-21.01-35.607-41.803-53.352-62.753c-4.176-5.126-8.125-11.351-7.403-18.259
		c0.257-4.008,2.989-7.61,6.66-9.164c4.592-2.256,10.282-2.039,14.3-5.463c3.909-3.939,4.305-10.401,1.989-15.26
		c-3.028-6.799-9.174-11.371-14.785-15.923c-28.245-22.534-59.824-40.922-93.482-54.074c-7.106-2.949-14.429-5.304-21.624-7.986
		c8.036,1.564,15.617,4.8,23.316,7.501c20.555,7.63,40.11,17.635,59.201,28.333c-4.859-5.849-10.906-10.559-16.25-15.953
		c-16.903-16.111-33.856-32.173-50.779-48.265c-53.777-51.887-106.04-106.139-167.646-148.961
		c-30.946-21.337-64.218-39.705-99.984-51.58c-15.32-5.562-31.431-8.719-46.523-14.934c-8.422-4.048-16.893-8.204-24.048-14.29
		c-11.005-9.115-19.466-20.901-26.127-33.44c-18.704-35.835-21.277-77.816-41.1-113.186c-4.087-6.928-8.016-14.31-14.281-19.545
		c2.702,6.848,7.135,12.836,10.322,19.447c-4.255-5.74-7.64-12.044-11.44-18.081c-12.628-20.684-25.741-41.08-38.072-61.942
		c-8.877-14.508-16.725-29.699-26.81-43.426c-10.055-13.726-24.454-23.91-40.259-29.976c-17.962-7.106-37.379-9.431-56.558-10.084
		c-22.752-0.752-45.633-0.515-68.226,2.444c-25.097,3.602-50.224,10.876-71.532,24.969c-13.519,8.847-26.285,20.021-33.836,34.529
		c3.929-1.702,7.383-4.473,11.569-5.562c3.84-0.554,8.729-1.128,11.381,2.405c-3.889-2.83-9.065-3.068-13.331-0.98
		c-4.998,2.435-10.47,5.008-13.37,10.015c-0.03-0.356-0.089-1.069-0.119-1.425c6.739-13.568,16.547-25.592,28.264-35.192
		C164.806,55.552,182.145,46.378,200.641,41.202 M1047.065,802.674c3.691,6.403,8.016,12.489,10.837,19.367
		c5.275,11.896,6.373,25.008,7.858,37.775c5.621,1.544,11.371,2.524,17.071,3.771c12.034,2.454,23.969,5.423,36.043,7.64
		c-3.028-4.236-6.908-7.749-10.342-11.628c-14.033-14.34-28.235-28.551-43.337-41.773
		C1059.208,812.709,1053.567,807.128,1047.065,802.674z"/>
	<path fill="#96A4B1" stroke="#96A4B1" stroke-width="0.5" d="M231.003,39.054c22.594-2.959,45.474-3.197,68.226-2.444
		c19.179,0.653,38.596,2.979,56.558,10.084c15.805,6.067,30.204,16.25,40.259,29.976c10.085,13.726,17.932,28.917,26.81,43.426
		c12.331,20.862,25.444,41.258,38.072,61.942c3.8,6.037,7.185,12.341,11.44,18.081c-3.187-6.611-7.62-12.598-10.322-19.447
		c6.264,5.235,10.193,12.618,14.281,19.545c19.823,35.37,22.396,77.351,41.1,113.186c-4.186,0.871-8.353-0.317-12.38-1.316
		c-15.528-3.8-29.808-11.975-41.575-22.712c-14.696-13.162-25.81-29.778-35.113-47.048c-17.19-32.154-28.284-67.058-40.091-101.419
		c-5.285-16.191-12.499-32.391-24.89-44.425c-10.866-11.173-25.731-17.734-40.922-20.436c-21.733-4.008-43.92-1.692-65.742,0.257
		c-23.94,2.187-48.037,5.077-72.076,2.82c-4.869-0.515-10.045-0.673-14.33-3.325c-4.77-2.692-7.61-7.551-10.837-11.777
		C180.779,49.931,205.906,42.657,231.003,39.054z"/>
	<path fill="#5A6778" stroke="#5A6778" stroke-width="0.5" d="M125.636,98.552c7.551-14.508,20.317-25.681,33.836-34.529
		c3.226,4.226,6.067,9.085,10.837,11.777c4.285,2.652,9.461,2.811,14.33,3.325c24.038,2.256,48.136-0.633,72.076-2.82
		c21.822-1.95,44.009-4.265,65.742-0.257c15.191,2.702,30.056,9.263,40.922,20.436c12.39,12.034,19.605,28.235,24.89,44.425
		c11.806,34.36,22.9,69.265,40.091,101.419c9.303,17.269,20.416,33.885,35.113,47.048c11.767,10.738,26.047,18.912,41.575,22.712
		c4.028,1,8.194,2.187,12.38,1.316c6.66,12.539,15.122,24.325,26.127,33.44c7.155,6.086,15.627,10.243,24.048,14.29
		c-3.266,0.752-6.532,1.524-9.847,1.979c-7.017-0.386-13.974,1.148-21,0.821c-37.834,1.178-74.916-11.351-112.8-7.403
		c-17.19,1.752-34.499,7.215-48.037,18.269c-14.38,11.609-24.266,28.136-29.462,45.751c-6.532,21.693-6.453,45.098-1.039,67.019
		c6.967,29.402,21.475,56.242,36.795,82.032c23.286,38.675,47.919,76.638,75.609,112.335
		c43.257,55.974,94.254,106.773,154.484,144.379c32.361,20.525,67.692,36.389,104.566,46.85c8.808,2.534,18.417,4.552,27.403,1.702
		c7.304-2.365,12.38-8.729,15.349-15.547c6.146,0.129,12.291,0.584,18.398,1.346c14.449,1.95,28.274,6.918,41.634,12.598
		c57.904,25.662,115.927,51.056,173.9,76.559c3.929,1.979,6.809,5.433,10.332,8.016c-0.732-1.326-1.455-2.622-2.157-3.919
		c9.411,3.721,18.417,8.739,28.462,10.619c7.086,1.356,15.043,0.98,21.079-3.394c7.353-5.285,10.292-14.934,9.619-23.672
		c-0.802-8.442-4.463-16.24-8.372-23.643c6.72-2.761,12.301-8.214,14.389-15.27c3.474-11.421,0.544-23.395-0.594-34.944
		c5.958,1.287,12.074,2.167,17.675,4.711c1.484,1.366,3.117,2.712,4.028,4.582c2.237,4.829,6.7,7.986,10.124,11.915
		c5.641,6.294,11.49,12.42,17.151,18.714c-5.651,3.216-11.708,5.77-16.854,9.788c-6.72,4.988-12.341,11.836-14.568,20.021
		c-3.088,10.56-0.802,21.841,3.038,31.896c5.374,12.935,17.784,21.228,30.481,26.008c13.449,5.265,27.72,7.759,41.536,11.846
		c47.127,15.438,91.958,40.397,126.209,76.698c13.222,13.518,28.522,24.939,44.989,34.202c1.752,1,3.711,1.603,5.681,2.148
		c5.522,5.72,10.441,11.985,15.785,17.873c2.138,2.326,4.196,4.75,5.938,7.412c-7.234-4.661-13.657-10.451-20.723-15.33
		c-30.263-21.455-62.803-39.685-96.768-54.579c-18.932-8.501-38.626-15.112-58.151-22.079
		c-17.408-5.641-35.024-10.698-52.184-17.081c-33.915-11.915-64.99-30.57-94.175-51.333c-7.304-5.156-14.419-10.579-21.406-16.151
		c-3.048-2.504-6.037-5.136-9.54-6.967c4.849,5.958,11.371,10.203,17.101,15.26c13.805,11.401,28.165,22.168,43.188,31.916
		c13.41,8.481,27.453,15.963,41.931,22.455c26.384,11.638,54.223,19.328,81.586,28.235c2.346,0.455,3.444,2.632,4.463,4.572
		c3.701,7.155,8.768,13.489,14.023,19.565c-8.857-0.228-17.546-2.088-26.275-3.444c-77.697-13.311-151.653-43.04-221.067-79.795
		c-18.002-9.54-35.776-19.496-53.292-29.877c-24.791-14.597-51.828-24.682-78.419-35.41c-1.376,16.022,2.959,32.658,13.152,45.237
		c12.064,15.122,29.333,24.87,46.84,32.391c36.805,15.577,76.272,23.118,114.235,35.212c16.478,5.364,33.015,11.232,47.77,20.476
		c26.037,16.319,45.999,40.358,63.268,65.396c18.12,25.8,34.41,53.322,57.31,75.322c50.897,46.87,108.376,87.168,171.782,115.214
		c24.108,10.738,49.067,19.585,74.59,26.334c6.651,1.841,13.509,2.959,20.04,5.304c-2.722,6.928-9.026,12.42-16.408,13.707
		c-11.341,2.296-22.712-1.851-32.926-6.423c-11.302-5.483-22.534-11.757-35.142-13.598c-8.471-1.514-17.764-0.02-24.612,5.423
		c-6.957,5.374-10.332,13.994-17.012,19.635c-4.582,3.978-11.233,4.434-16.893,2.989c-7.304-1.92-13.182-7.145-17.774-12.935
		c-12.519-15.805-23.286-32.965-32.173-51.046c-1.791-3.79-3.325-7.689-5.413-11.302c2.217,8.026,6.314,15.349,9.788,22.871
		c4.473,9.471,9.976,18.388,15.112,27.502c-13.152-5.73-24.444-14.904-35.004-24.454c-56.053-53.817-112.77-106.941-169.011-160.56
		c-13.35-12.479-26.562-25.275-41.803-35.459c-14.241-9.837-30.916-16.488-48.245-17.843c-10.906-1.029-22.198-1-32.441-5.364
		c-3.503-1.672-7.393-1.069-11.094-0.831c-17.794,0.336-35.222-5.156-50.838-13.41c-26.196-13.449-48.71-33.311-76.034-44.682
		c-6.185-2.919-12.964-4.057-19.407-6.175c3.79-1.613,7.967-1.633,11.925-2.633c-10.223-0.97-21.02,3.098-27.601,11.084
		c-9.807,11.648-6.73,28.047-11.856,41.506c-2.88,7.165-8.719,12.816-15.518,16.299c-10.688,5.502-22.594,7.897-34.291,10.154
		c-17.507,3.404-36.518,6.116-53.401-1.267c-10.827-4.631-18.754-13.677-28.551-19.922c-4.75-3.414-10.282-5.433-15.884-6.927
		c7.789-11.797,16.032-23.316,23.534-35.291c-5.344,5.641-9.392,12.331-14.32,18.328c-23.504,29.848-45.197,61.041-67.533,91.76
		c-7.066,9.807-14.182,19.575-21.198,29.422c-5.799,8.026-11.668,16.002-17.378,24.098c-4.533,6.552-10.124,12.272-15.557,18.051
		c-9.887,9.837-25.186,12.193-38.349,8.857c2.227-7.63,8.669-13.43,9.867-21.436c0.693-5.443-2.84-12.123-8.719-12.638
		c-5.592,1.959-9.293,7.115-13.014,11.49c-0.346-0.356-1.039-1.079-1.376-1.435c-2.88,7.145-5.334,14.528-6.185,22.227
		c-2.118,0.01-4.206,0.327-6.215,0.98c-11.331,2.385-22.316,6.225-32.916,10.866c-8.145,3.404-15.696,8.511-24.504,10.154
		c-4.968,0.841-10.886,0.812-14.637-3.068c-3.464-3.395-6.116-9.273-3.108-13.736c0.525-0.96,1.118-1.86,1.702-2.761
		c-0.643-0.742-1.287-1.484-1.9-2.207c-12.549,10.619-24.553,21.891-37.003,32.629c-0.287-3.256-0.505-6.561-1.623-9.639
		c-2.524-7.046-7.749-12.925-9.332-20.327c-1.445-7.224,2.731-14.459,8.422-18.655c7.68-5.661,17.507-7.125,26.8-7.64
		c28.393-1.603,57.518,3.781,85.298-4.295c15.211-4.226,28.749-13.053,40.506-23.405c12.846-11.648,24.108-24.949,34.37-38.903
		c14.34-18.991,28.601-38.052,43.05-56.964c0.772-1.049,1.019-2.336,1.395-3.533c0.544-0.752,1.118-1.475,1.702-2.187
		c0.98-0.247,2.296-0.198,2.533-1.465c0.95-2.86,0.594-5.938,0.643-8.897c-0.049-16.171,0.851-32.322,1.277-48.483
		c0.079-14.518,0-29.026,0.04-43.544c0.069-19.367-1.217-39.348-9.016-57.33c-7.066-16.191-19.328-29.175-30.827-42.278
		c-11.025-12.816-22.693-25.939-27.957-42.347c-1.989-5.631-2.573-11.579-2.949-17.487c-1.356,10.916,2.276,21.673,6.74,31.471
		c12.539,27.572,40.239,44.742,51.927,72.838c6.235,14.686,7.818,30.837,8.085,46.642c-7.719-2.553-14.934-6.393-22.435-9.501
		c-25.988-11.5-51.887-23.187-78.142-34.044c-2.821-6.601-7.234-12.361-11.035-18.407c-20.961-31.124-47.048-58.438-74.728-83.615
		c-46.078-42.248-96.302-80.25-137.511-127.555c-19.001-21.05-34.529-45.237-45.514-71.393
		c-16.191-37.804-22.841-79.102-23.524-120.044c-1.079-59.854,9.293-119.153,21.485-177.532c1.089-5.809,3.434-12.064,0.861-17.814
		c-2.613-6.205-9.006-9.501-14.884-11.975c-8.363-3.226-17.279-4.681-26.146-5.661c9.471-14.241,14.924-31.154,14.934-48.285
		c-0.049-18.061-5.334-36.092-15.112-51.283c-3.236-4.958-6.561-10.065-11.411-13.618c5.413-3.276,12.143-2.801,18.11-4.523
		c-2.682-3.85-3.83-8.412-4.463-12.984c9.847,0.841,19.664,2.207,29.581,2.128c15.142,0.336,30.283,1.059,45.425,1.524
		c9.629,0.257,19.288,1.227,28.621,3.721c4.364,1.158,8.135,3.711,12.103,5.76c-8.966-9.194-22.188-12.747-34.707-12.935
		c-26.79-0.92-53.579-2.623-80.389-1.94c2.741-1.494,6.453-2.177,7.887-5.265c1.079-3.85-2.128-7.591-5.809-8.283
		c-4.483-0.792-8.976,0.584-13.469,0.277c-1.95,0.04-2.484-2.148-3.335-3.454c6.977-0.95,13.845-2.524,20.832-3.375
		c-0.346-0.158-1.029-0.475-1.376-0.633c4.869-1.296,9.887-3.068,13.311-6.977c1.771-2.217,2.652-5.057,2.405-7.887
		c-0.584-8.818-1.979-17.546-3.216-26.285c-0.346-2.712-1.623-5.166-3.226-7.333c-0.95-1.366-1.969-2.682-3.107-3.889
		c-2.652-3.533-7.541-2.959-11.381-2.405C133.019,94.079,129.565,96.85,125.636,98.552 M277.081,93.99
		c-6.195,0.99-12.568,0.287-18.645,2.039c-6.452,1.979-13.311,0.069-19.783,1.95c-9.332,2.276-19.734,7.729-21.812,18.002
		c7.244-7.62,16.24-14.864,27.304-14.954c-4.087,3.315-8.402,6.759-10.411,11.806c-1.178,2.85-2.712,6.888,0.03,9.322
		c4.76,5.176,9.916,10.114,16.032,13.667c8.877,5.403,20.347,6.363,29.937,2.286c10.619-4.483,17.121-17.121,13.865-28.314
		c-1.188-4.354-4.622-7.412-7.462-10.708c14.29,4.661,23.257,18.279,37.23,23.583c5.166,2.019,10.827,1.534,16.22,0.92
		c-0.02-0.287-0.069-0.871-0.089-1.158c-4.384,0.198-8.917,0-12.925-1.96c-9.204-4.097-16.933-10.668-24.791-16.844
		C294.618,98.413,286.275,93.396,277.081,93.99 M232.775,133.872c9.026,8.442,21.802,11.203,33.816,11.322
		c10.461,0.119,21.673-1.395,29.976-8.323c-12.173,2.425-24.553,6.334-37.062,4.186C250.301,139.87,241.632,136.436,232.775,133.872
		 M144.647,182.781c3.553,1.415,7.393,2.058,10.757,3.939c9.382,4.404,14.993,13.519,21.297,21.297
		c2.989,3.959,7.274,6.621,11.519,9.045c-9.352-10.668-16.052-24.058-28.175-32.015
		C155.622,181.771,149.823,181.781,144.647,182.781z"/>
	<path fill="#D1FE01" stroke="#D1FE01" stroke-width="0.5" d="M135.255,94.415c4.265-2.088,9.441-1.851,13.331,0.98
		c1.138,1.207,2.157,2.524,3.107,3.889c0.158,0.386,0.455,1.148,0.604,1.524c0.792,12.865,4.137,25.493,3.978,38.438
		c-0.139,0.386-0.406,1.158-0.544,1.544c-3.424,3.909-8.442,5.681-13.311,6.977c-5.73,0.94-11.371,2.662-17.22,2.692
		c1.217-1.583,2.543-3.098,3.86-4.612c-6.977-4.859-15.518-7.007-23.979-6.433c1.247-6.542,4.562-12.519,5.512-19.13
		c0.228-3.573,3.79-5.394,6.027-7.699c2.632-2.049,4.147-5.097,5.265-8.155C124.785,99.423,130.258,96.85,135.255,94.415
		 M127.17,135.02c3.523,3.107,7.709,6.354,12.727,5.74c2.929,0.129,6.393-3.296,4.186-6.086c-2.345-3.098-6.591-3.79-10.193-4.404
		C130.673,129.666,128.743,132.784,127.17,135.02z"/>
	<path fill="#020403" stroke="#020403" stroke-width="0.5" d="M277.081,93.99c9.194-0.594,17.537,4.424,24.702,9.639
		c7.858,6.175,15.587,12.747,24.791,16.844c4.008,1.96,8.541,2.157,12.925,1.96c0.02,0.287,0.069,0.871,0.089,1.158
		c-5.394,0.614-11.054,1.099-16.22-0.92c-13.974-5.304-22.94-18.922-37.23-23.583c2.84,3.296,6.274,6.354,7.462,10.708
		c3.256,11.193-3.246,23.831-13.865,28.314c-9.59,4.077-21.06,3.117-29.937-2.286c-6.116-3.553-11.272-8.491-16.032-13.667
		c-2.741-2.435-1.207-6.472-0.03-9.322c2.009-5.047,6.324-8.491,10.411-11.806c-11.064,0.089-20.06,7.333-27.304,14.954
		c2.078-10.272,12.479-15.725,21.812-18.002c6.472-1.88,13.33,0.03,19.783-1.95C264.513,94.277,270.886,94.979,277.081,93.99
		 M260.178,99.73c-7.007,1.653-14.548,2.741-20.278,7.492c-3.642,3.068-6.809,7.541-6.749,12.46
		c6.235,6.235,13.519,12.291,22.267,14.36c6.898,3.028,15.419,3.464,22.287,0.148c8.442-2.781,13.647-12.45,12.47-21.099
		c-1.059-6.918-7.314-11.886-13.835-13.429C271.025,98.651,265.433,98.136,260.178,99.73z"/>
	<path fill="#000307" stroke="#000307" stroke-width="0.5" d="M151.693,99.284c1.603,2.167,2.88,4.622,3.226,7.333
		c1.237,8.739,2.632,17.467,3.216,26.285c0.247,2.83-0.633,5.671-2.405,7.887c0.139-0.386,0.406-1.158,0.544-1.544
		c2.474-5.898,0.574-12.301,0.01-18.368c-1.069-6.73-1.098-13.776-3.988-20.07C152.148,100.432,151.852,99.67,151.693,99.284z"/>
	<path fill="#D2FD02" stroke="#D2FD02" stroke-width="0.5" d="M260.178,99.73c5.255-1.593,10.846-1.079,16.161-0.069
		c6.522,1.544,12.776,6.512,13.835,13.429c1.178,8.649-4.028,18.318-12.47,21.099c-7.422,1.049-14.864,0.396-22.287-0.148
		c-8.748-2.068-16.032-8.125-22.267-14.36c-0.059-4.919,3.107-9.392,6.749-12.46C245.63,102.471,253.171,101.382,260.178,99.73
		 M252.38,113.802c0.633-0.178,1.9-0.534,2.524-0.713c-2.405,4.048-2.494,10.065,2.009,12.677
		c6.047,4.978,15.923-0.109,16.121-7.699c0.614-6.165-5.275-11.806-11.371-11.064C257.724,107.795,254.864,110.873,252.38,113.802z"
		/>
	<path fill="#C7E641" stroke="#C7E641" stroke-width="0.5" d="M152.297,100.808c2.89,6.294,2.919,13.34,3.988,20.07
		c0.564,6.067,2.464,12.47-0.01,18.368C156.434,126.302,153.089,113.674,152.297,100.808z"/>
	<path stroke="#000000" stroke-width="0.5" d="M108.802,116.643c3.771-4.998,7.759-10.065,12.964-13.637
		c0.03,0.356,0.089,1.069,0.119,1.425c-1.118,3.058-2.632,6.106-5.265,8.155c-2.237,2.306-5.799,4.127-6.027,7.699
		c-0.95,6.611-4.265,12.588-5.512,19.13c8.461-0.574,17.002,1.574,23.979,6.433c-1.316,1.514-2.642,3.028-3.86,4.612
		c5.849-0.03,11.49-1.752,17.22-2.692c0.346,0.158,1.029,0.475,1.376,0.633c-6.987,0.851-13.855,2.425-20.832,3.375
		c0.851,1.306,1.385,3.493,3.335,3.454c4.493,0.307,8.986-1.069,13.469-0.277c3.682,0.693,6.888,4.434,5.809,8.283
		c-1.435,3.088-5.146,3.771-7.887,5.265c26.81-0.683,53.599,1.019,80.389,1.94c12.519,0.188,25.741,3.741,34.707,12.935
		c-3.968-2.049-7.739-4.602-12.103-5.76c-9.332-2.494-18.991-3.464-28.621-3.721c-15.142-0.465-30.283-1.188-45.425-1.524
		c-9.916,0.079-19.734-1.287-29.581-2.128c0.633,4.572,1.781,9.134,4.463,12.984c-5.968,1.722-12.697,1.247-18.11,4.523
		c-3.414-0.732-6.799,0.495-10.174,0.821c-9.728,1.583-19.545,2.326-29.392,1.95c-2.682,9.392-4.226,19.08-4.443,28.848
		c-7.155-13.331-11.559-28.522-11.272-43.713c0.821-22.366,14.083-44.93,35.33-53.381
		C106.209,121.541,107.179,118.652,108.802,116.643z"/>
	<path fill="#010201" stroke="#010201" stroke-width="0.5" d="M252.38,113.802c2.484-2.929,5.344-6.007,9.283-6.799
		c6.096-0.742,11.985,4.899,11.371,11.064c-0.198,7.591-10.075,12.677-16.121,7.699c-4.503-2.613-4.414-8.63-2.009-12.677
		C254.28,113.268,253.013,113.624,252.38,113.802z"/>
	<path fill="#020301" stroke="#020301" stroke-width="0.5" d="M127.17,135.02c1.574-2.237,3.503-5.354,6.72-4.75
		c3.602,0.614,7.848,1.306,10.193,4.404c2.207,2.791-1.257,6.215-4.186,6.086C134.879,141.374,130.693,138.128,127.17,135.02z"/>
	<path fill="#000305" stroke="#000305" stroke-width="0.5" d="M232.775,133.872c8.857,2.563,17.527,5.997,26.73,7.185
		c12.509,2.148,24.89-1.762,37.062-4.186c-8.303,6.928-19.516,8.442-29.976,8.323C254.577,145.075,241.8,142.314,232.775,133.872z"
		/>
	<path fill="#D9F134" stroke="#D9F134" stroke-width="0.5" d="M255.418,134.041c7.422,0.544,14.864,1.197,22.287,0.148
		C270.837,137.504,262.316,137.069,255.418,134.041z"/>
	<path fill="#000307" stroke="#000307" stroke-width="0.5" d="M144.647,182.781c5.176-1,10.975-1.009,15.399,2.266
		c12.123,7.957,18.823,21.347,28.175,32.015c-4.246-2.425-8.531-5.087-11.519-9.045c-6.304-7.779-11.915-16.893-21.297-21.297
		C152.04,184.839,148.2,184.196,144.647,182.781z"/>
	<path fill="#010305" stroke="#010305" stroke-width="0.5" d="M123.409,187.749c4.849,3.553,8.174,8.659,11.411,13.618
		c9.778,15.191,15.062,33.222,15.112,51.283c-0.01,17.131-5.463,34.044-14.934,48.285c-9.016,13.855-20.515,25.83-30.699,38.794
		c-21.614,27.888-34.539,62.427-36.528,97.638c-0.851,9.115-0.623,18.279-0.01,27.403c0.544,11.262,1.92,22.653,5.196,33.47
		c0.91-18.467,3.998-36.844,9.402-54.529c-2.989,14.221-6.096,28.551-6.67,43.129c-0.891,9.441-0.614,18.932,0,28.373
		c-0.03,11.51,1.752,22.92,3.088,34.321c5.265,38.844,18.091,76.312,34.489,111.8c14.696,31.787,32.272,62.15,50.511,92.007
		c12.806,20.466,25.117,41.239,38.745,61.18c2.138,3.088,3.978,6.482,6.898,8.937c14.617,12.38,31.194,22.257,48.324,30.738
		c16.547,8.699,33.747,16.092,50.977,23.326c45.761,19.14,91.463,38.398,137.274,57.409c26.255,10.856,52.154,22.544,78.142,34.044
		c7.502,3.107,14.716,6.947,22.435,9.501c-0.267-15.805-1.851-31.956-8.085-46.642c-11.688-28.096-39.388-45.266-51.927-72.838
		c-4.463-9.798-8.095-20.555-6.74-31.471c0.376,5.908,0.96,11.856,2.949,17.487c5.265,16.408,16.933,29.531,27.957,42.347
		c11.5,13.103,23.761,26.087,30.827,42.278c7.798,17.982,9.085,37.963,9.016,57.33c-0.04,14.518,0.04,29.026-0.04,43.544
		c-0.426,16.161-1.326,32.312-1.277,48.483c-0.049,2.959,0.307,6.037-0.643,8.897c-0.237,1.267-1.554,1.217-2.533,1.465
		c0.97-1.336,2.237-2.662,1.89-4.444c-0.416-14.389-0.92-28.789-1.405-43.178c-6.294,8.016-12.46,16.191-19.892,23.217
		c-11.193,10.599-23.455,20.496-37.795,26.483c-2.068,1.118-5.067,1.494-5.789,4.107c-12.519,29.462-14.162,61.833-20.911,92.789
		c14.874-12.875,26.78-28.65,39.2-43.792c14.419-17.596,28.541-35.429,43-52.995c-0.376,1.197-0.624,2.484-1.395,3.533
		c-14.449,18.912-28.71,37.973-43.05,56.964c-10.263,13.954-21.525,27.255-34.37,38.903c-11.757,10.352-25.295,19.179-40.506,23.405
		c-2.9-0.416-5.74-1.178-8.58-1.821c10.708-2.633,21.169-6.542,30.432-12.618c3.434-2.395,7.403-4.295,10.075-7.591
		c4.612-18.764,6.7-38.042,10.401-56.994c2.504-13.083,5.938-25.998,10.649-38.467c-0.277-0.426-0.851-1.277-1.138-1.702
		c7.947-3.909,15.349-8.778,22.643-13.766c14.172-9.214,26.908-20.654,37.329-33.974c3.395-4.83,7.878-9.263,9.689-14.964
		c0.376-17.447,0.069-34.934,0.139-52.392c-16.438-6.918-33.163-13.123-49.759-19.644c-18.873-7.195-37.339-15.419-56.024-23.079
		c-42.07-17.645-84.15-35.271-126.249-52.887c-16.478-6.71-32.698-14.073-48.918-21.376c19.417,30.026,41.347,58.3,61.942,87.504
		c22.227,31.204,43.099,63.634,58.547,98.796c16.24,36.409,25.82,75.579,30.095,115.145c5.384-5.978,10.748-12.479,18.496-15.438
		c-3.226,3.068-6.73,5.938-9.224,9.689c-5.651,8.432-10.174,17.606-13.509,27.195c-3.355,9.461-6.997,18.853-11.955,27.621
		c-1.603-0.356-3.187-0.752-4.76-1.108c8.956-14.053,12.301-30.689,19.981-45.365c-2.623-20.446-7.313-40.625-13.152-60.388
		c-5.69-18.2-11.698-36.34-19.447-53.777c-15.844-36.874-37.973-70.601-61.239-103.141c-20.951-29.511-43.03-58.26-62.516-88.791
		c-0.722-0.94-1.217-2.148-2.276-2.712c-26.127-14.073-50.868-32.065-68.592-56.162c-4.038-8.174-9.431-15.587-14.063-23.435
		c-16.844-27.017-33.5-54.183-48.443-82.319c-19.1-35.904-35.479-73.57-44.999-113.225c-5.859-24.207-9.085-49.106-8.531-74.025
		c0.228-1.692,0.109-3.394-0.544-4.978c-6.997-21.327-10.154-43.98-8.382-66.385c2.435-37.399,15.775-74.411,39.665-103.497
		c12.054-15.082,25.84-29.135,34.499-46.612c14.043-29.749,10.144-66.93-9.283-93.403
		C126.487,192.103,124.547,190.183,123.409,187.749z"/>
	<path fill="#96A4B1" stroke="#96A4B1" stroke-width="0.5" d="M134.998,300.934c8.867,0.98,17.784,2.435,26.146,5.661
		c5.878,2.474,12.272,5.77,14.884,11.975c2.573,5.75,0.228,12.004-0.861,17.814c-12.192,58.379-22.564,117.679-21.485,177.532
		c0.683,40.942,7.333,82.24,23.524,120.044c10.985,26.156,26.513,50.343,45.514,71.393c41.209,47.305,91.433,85.307,137.511,127.555
		c27.68,25.177,53.767,52.491,74.728,83.615c3.8,6.047,8.214,11.807,11.035,18.407c-45.811-19.011-91.513-38.27-137.274-57.409
		c-17.23-7.234-34.43-14.627-50.977-23.326c-17.131-8.481-33.707-18.358-48.324-30.738c-2.919-2.454-4.76-5.849-6.898-8.937
		c-13.627-19.941-25.939-40.714-38.745-61.18c-18.239-29.858-35.815-60.22-50.511-92.007c-16.398-35.489-29.224-72.957-34.489-111.8
		c-1.336-11.401-3.117-22.811-3.088-34.321c0.831-3.672,1.009-7.442,0.841-11.183c-0.238-5.74,0.623-11.559-0.841-17.19
		c0.574-14.578,3.681-28.908,6.67-43.129c-5.403,17.685-8.491,36.063-9.402,54.529c-3.276-10.817-4.651-22.208-5.196-33.47
		c0.703-3.365,0.99-6.809,0.851-10.233c-0.218-5.73,0.683-11.559-0.841-17.17c1.989-35.212,14.914-69.75,36.528-97.638
		C114.483,326.764,125.982,314.789,134.998,300.934z"/>
	<path fill="#5A6778" stroke="#5A6778" stroke-width="0.5" d="M399.599,365.835c18.14-7.036,37.973-8.095,57.201-6.73
		c-2.791-0.02-5.819-0.346-8.333,1.128c-10.936,6.512-20.466,15.31-27.819,25.711c-9.016,11.549-15.32,25.276-17.655,39.764
		c-3.385,20.001-0.049,40.853,8.333,59.24c4.077,8.917,9.164,17.497,16.21,24.405c16.25,17.447,36.379,30.471,55.46,44.514
		c16.824,12.262,32.807,26.354,43.96,44.128c6.156,10.886,7.769,23.534,9.689,35.697c1.663,10.49,3.177,21.485,9.035,30.6
		c3.968,6.344,10.767,9.906,16.834,13.904c29.571,18.922,62.001,32.935,95.075,44.485c48.691,17.21,99.153,29.798,146.002,51.907
		c12.757,6.274,25.8,12.093,39.526,15.884c42.812,12.321,87.969,11.658,132.019,8.729c13.202-0.96,26.404-2.009,39.596-3.187
		c6.413-0.584,12.895-0.831,19.229-2.138c8.699,10.144,16.636,21.228,21.327,33.846c3.919,10.777,4.76,22.316,6.265,33.598
		c0.792,10.134,3.226,20.209,2.237,30.432c-0.574,5.898-3.365,11.767-8.244,15.28c-2.929,2.138-6.67,2.425-10.104,3.098
		c3.969,8.303,9.214,16.27,10.599,25.553c1.168,7.373-0.485,15.854-6.363,20.911c-4.602,4.097-11.223,4.651-17.062,3.771
		c-8.283-1.287-15.963-4.829-23.514-8.254c-55.064-24.108-110.078-48.334-165.122-72.482c-18.239-7.838-36.538-16.092-56.083-20.09
		c-20.406-4.354-41.476-0.851-61.981-4.315c-11.203-1.95-22-6.047-31.807-11.767c-5.74-3.107-10.52-7.62-15.953-11.163
		c4.057,5.077,9.708,8.481,15.062,12.024c7.64,4.849,16.092,8.343,24.761,10.896c12.885,3.721,26.404,3.751,39.695,4.384
		c-2.049,5.067-5.552,9.708-10.55,12.143c-7.61,3.889-16.586,2.721-24.543,0.653c-35.865-10.312-70.067-26.018-101.785-45.623
		c-30.798-18.813-59.557-40.932-85.862-65.633c-56.529-52.966-102.141-116.362-142.291-182.302
		c-13.044-21.495-25.968-43.267-35.182-66.742c-8.402-21.653-13.726-45.059-11.411-68.384c1.673-15.914,6.245-31.748,14.766-45.395
		C369.752,383.669,383.478,371.872,399.599,365.835 M669.208,822.814c1.366,2.306,3.197,4.325,5.413,5.888
		C673.256,826.357,671.336,824.427,669.208,822.814z"/>
	<path fill="#96A4B1" stroke="#96A4B1" stroke-width="0.5" d="M448.468,360.234c2.514-1.475,5.542-1.148,8.333-1.128
		c19.575,1.207,38.962,4.414,58.528,5.839c-0.346,0.346-1.029,1.039-1.376,1.385c4.632,0.277,9.273,0.119,13.904,0.02
		c6.344-0.168,12.707,0.505,19.051-0.188c-1.128-0.406-2.256-0.792-3.375-1.148c4.76-0.455,9.51-1.039,14.221-1.9
		c3.315-0.455,6.581-1.227,9.847-1.979c15.092,6.215,31.204,9.372,46.523,14.934c35.766,11.876,69.038,30.244,99.984,51.58
		c61.605,42.822,113.869,97.074,167.646,148.961c16.923,16.092,33.876,32.154,50.779,48.265c5.344,5.394,11.391,10.104,16.25,15.953
		c-19.09-10.698-38.646-20.703-59.201-28.333c-7.699-2.702-15.28-5.938-23.316-7.501c7.195,2.682,14.518,5.037,21.624,7.986
		c33.658,13.152,65.237,31.54,93.482,54.074c5.611,4.552,11.757,9.125,14.785,15.923c2.316,4.859,1.92,11.322-1.989,15.26
		c-4.018,3.424-9.708,3.206-14.3,5.463c-3.672,1.554-6.403,5.156-6.66,9.164c-0.722,6.908,3.226,13.133,7.403,18.259
		c17.744,20.951,35.677,41.743,53.352,62.753c-6.334,1.306-12.816,1.554-19.229,2.138c-13.192,1.178-26.394,2.227-39.596,3.187
		c-44.049,2.929-89.207,3.592-132.019-8.729c-13.727-3.79-26.77-9.609-39.526-15.884c-46.85-22.109-97.312-34.697-146.002-51.907
		c-33.074-11.549-65.505-25.563-95.075-44.485c-6.067-3.998-12.865-7.561-16.834-13.904c-5.859-9.115-7.373-20.11-9.035-30.6
		c-1.92-12.163-3.533-24.81-9.689-35.697c-11.153-17.774-27.136-31.867-43.96-44.128c-19.08-14.043-39.21-27.067-55.46-44.514
		c-7.046-6.908-12.133-15.488-16.21-24.405c-8.382-18.388-11.717-39.239-8.333-59.24c2.336-14.488,8.64-28.215,17.655-39.764
		C428.002,375.544,437.532,366.746,448.468,360.234z"/>
	<path fill="#ADB8C3" stroke="#ADB8C3" stroke-width="0.5" d="M513.953,366.33c0.346-0.346,1.029-1.039,1.376-1.385
		c9.382,0.653,18.813,0.762,28.205,0.069c1.118,0.356,2.246,0.742,3.375,1.148c-6.344,0.693-12.707,0.02-19.051,0.188
		C523.226,366.449,518.584,366.607,513.953,366.33z"/>
	<path fill="#B0BAC4" stroke="#B0BAC4" stroke-width="0.5" d="M67.771,437.367c1.524,5.611,0.623,11.44,0.841,17.17
		c0.139,3.424-0.148,6.868-0.851,10.233C67.148,455.646,66.92,446.481,67.771,437.367z"/>
	<path fill="#AEBBC3" stroke="#AEBBC3" stroke-width="0.5" d="M75.688,486.839c1.465,5.631,0.604,11.45,0.841,17.19
		c0.168,3.741-0.01,7.511-0.841,11.183C75.075,505.771,74.798,496.28,75.688,486.839z"/>
	<path fill="#5A6778" stroke="#5A6778" stroke-width="0.5" d="M1047.065,802.674c6.502,4.453,12.143,10.035,18.13,15.151
		c15.102,13.222,29.303,27.433,43.337,41.773c3.434,3.879,7.313,7.393,10.342,11.628c-12.074-2.217-24.009-5.186-36.043-7.64
		c-5.7-1.247-11.45-2.227-17.071-3.771c-1.484-12.766-2.583-25.879-7.858-37.775
		C1055.081,815.164,1050.756,809.077,1047.065,802.674z"/>
	<path stroke="#000000" stroke-width="0.5" d="M669.208,822.814c2.128,1.613,4.048,3.543,5.413,5.888
		C672.405,827.138,670.574,825.12,669.208,822.814z"/>
	<path fill="#5A6778" stroke="#5A6778" stroke-width="0.5" d="M265.74,863.073c16.22,7.304,32.441,14.667,48.918,21.376
		c42.099,17.616,84.179,35.241,126.249,52.887c18.685,7.66,37.151,15.884,56.024,23.079c16.596,6.522,33.321,12.727,49.759,19.644
		c-0.069,17.457,0.237,34.944-0.139,52.392c-1.811,5.7-6.294,10.134-9.689,14.964c-10.421,13.321-23.158,24.761-37.329,33.974
		c-7.294,4.988-14.696,9.857-22.643,13.766c0.287,0.426,0.861,1.277,1.138,1.702c-4.711,12.469-8.145,25.384-10.649,38.467
		c-3.701,18.952-5.789,38.23-10.401,56.994c-2.672,3.296-6.641,5.196-10.075,7.591c-9.263,6.077-19.724,9.985-30.432,12.618
		c-5.423,0.534-10.876,1.95-16.339,1.059c4.958-8.768,8.6-18.16,11.955-27.621c3.335-9.59,7.858-18.764,13.509-27.195
		c2.494-3.751,5.997-6.621,9.224-9.689c-7.749,2.959-13.113,9.461-18.496,15.438c-4.275-39.566-13.855-78.736-30.095-115.145
		c-15.448-35.162-36.32-67.593-58.547-98.796C307.087,921.372,285.157,893.098,265.74,863.073z"/>
	<path fill="#010205" stroke="#010205" stroke-width="0.5" d="M1088.016,872.91c13.33,12.796,25.988,26.295,39.427,38.992
		c27.047,26.087,53.886,52.402,81.794,77.598c40.684,37.072,82.378,73.194,120.024,113.423c17.062,17.883,32.53,37.27,46.701,57.498
		c-8.075-5.78-15.557-12.42-23.712-18.13c-33.371-24.989-69.117-46.949-107.169-64.079c-17.17-7.61-34.608-14.686-52.481-20.446
		c8.224,15.686,21.891,27.661,35.924,38.052c15.805,11.173,32.549,20.911,48.809,31.382c31.362,19.931,61.655,41.516,90.919,64.416
		c12.955,10.322,25.434,21.545,35.132,35.063c7.729,11.133,13.835,23.94,14.716,37.646c0.614,9.431-2.9,19.021-9.807,25.553
		c10.599,7.729,21.267,16.052,28.294,27.334c5.661,8.798,7.887,19.753,6.027,30.065c-1.415,7.719-5.73,15.211-12.618,19.249
		c-6.868,4.374-15.448,5.106-23.316,3.691c-12.291-1.969-23.286-8.105-34.341-13.449c-10.203-4.661-21.515-8.63-32.856-6.443
		c-6.749,1.356-12.024,6.294-15.904,11.727c-3.988,5.483-7.828,11.618-14.142,14.696c-7.719,3.87-17.23,2.355-24.434-1.979
		c-7.878-4.889-13.38-12.588-18.348-20.218c-0.99-1.316-1.643-3.088-3.345-3.543c-16.428-6.71-30.521-17.863-43.703-29.511
		c-13.608-12.44-26.8-25.335-40.259-37.923c-44.227-41.882-88.415-83.803-132.642-125.675
		c-14.855-13.885-30.649-27.205-49.037-36.171c-8.085-3.86-16.666-6.72-25.523-8.076c-11.43-1.87-23.316-1.959-34.172-6.373
		c-2.652-1.316-5.463,0.287-8.145,0.604c-6.927,1.573-14.023,0.455-20.951-0.396c-19.318-3.206-36.963-12.38-53.382-22.673
		c-16.715-10.332-32.53-22.218-50.274-30.798c-9.609-4.731-19.526-8.946-29.907-11.638c-5.631,3.167-10.312,8.135-12.46,14.3
		c-3.939,11.44-2.632,24.048-7.165,35.34c-3.305,8.273-10.233,14.617-18.081,18.566c-10.183,5.275-21.544,7.492-32.678,9.797
		c-18.734,3.622-39.032,6.729-57.192-0.94c-9.481-4.018-17.24-10.975-24.87-17.695c-5.72-4.81-11.915-9.728-19.486-11.035
		c-24.563,34.647-49.67,68.919-74.481,103.398c-1.385-0.445-2.761-0.871-4.127-1.277c7.017-9.847,14.132-19.615,21.198-29.422
		c22.336-30.719,44.029-61.912,67.533-91.76c4.929-5.997,8.976-12.687,14.32-18.328c-7.502,11.975-15.745,23.494-23.534,35.291
		c5.601,1.494,11.133,3.513,15.884,6.927c9.797,6.245,17.724,15.29,28.551,19.922c16.883,7.383,35.894,4.671,53.401,1.267
		c11.698-2.256,23.603-4.651,34.291-10.154c6.799-3.484,12.638-9.135,15.518-16.299c5.126-13.459,2.049-29.858,11.856-41.506
		c6.581-7.986,17.378-12.054,27.601-11.084c-3.959,1-8.135,1.019-11.925,2.633c6.443,2.118,13.222,3.256,19.407,6.175
		c27.324,11.371,49.839,31.233,76.034,44.682c15.617,8.254,33.044,13.746,50.838,13.41c3.701-0.238,7.591-0.841,11.094,0.831
		c10.243,4.364,21.535,4.335,32.441,5.364c17.329,1.356,34.004,8.006,48.245,17.843c15.24,10.183,28.452,22.979,41.803,35.459
		c56.241,53.619,112.958,106.743,169.011,160.56c10.56,9.55,21.851,18.724,35.004,24.454c-5.136-9.115-10.639-18.031-15.112-27.502
		c-3.474-7.521-7.571-14.845-9.788-22.871c2.088,3.612,3.622,7.511,5.413,11.302c8.887,18.081,19.654,35.241,32.173,51.046
		c4.592,5.789,10.47,11.015,17.774,12.935c5.661,1.445,12.311,0.99,16.893-2.989c6.68-5.641,10.055-14.261,17.012-19.635
		c6.848-5.443,16.141-6.938,24.612-5.423c12.608,1.841,23.841,8.115,35.142,13.598c10.213,4.572,21.584,8.719,32.926,6.423
		c7.383-1.286,13.687-6.779,16.408-13.707c4.157-10.164,2.623-22.02-2.84-31.382c-6.908-11.945-18.061-20.624-29.204-28.363
		c-10.035,6.898-22.505,10.391-34.638,8.699c-13.568-1.89-26.315-7.729-37.636-15.28c6.749,3.137,13.172,7.017,20.298,9.313
		c10.055,3.79,21.139,5.087,31.728,2.979c10.362-2.345,20.466-8.224,25.85-17.626c4.018-6.957,4.137-15.409,2.652-23.088
		c-2.652-12.638-9.293-24.058-17.299-34.024c-10.767-13.321-24.167-24.128-37.646-34.549
		c-28.759-22.119-58.518-42.941-89.246-62.219c-21.98-13.677-44.366-27.542-61.952-46.82c-5.255-6.076-10.322-12.41-14.023-19.565
		c-1.019-1.94-2.118-4.117-4.463-4.572c-27.364-8.907-55.202-16.596-81.586-28.235c-14.479-6.492-28.521-13.974-41.931-22.455
		c-15.023-9.748-29.383-20.515-43.188-31.916c-5.73-5.057-12.252-9.303-17.101-15.26c3.503,1.831,6.492,4.463,9.54,6.967
		c6.987,5.572,14.102,10.995,21.406,16.151c29.185,20.763,60.26,39.417,94.175,51.333c17.16,6.383,34.776,11.44,52.184,17.081
		c19.526,6.967,39.22,13.578,58.151,22.079c33.965,14.894,66.504,33.124,96.768,54.579c7.066,4.879,13.489,10.668,20.723,15.33
		c-1.742-2.662-3.8-5.087-5.938-7.412c-5.344-5.888-10.263-12.153-15.785-17.873c-50.541-56.053-109.396-103.655-163.866-155.711
		c-13.123-12.598-26.394-25.068-38.863-38.339c-5.968-6.156-11.787-12.44-17.784-18.556c-5.661-6.294-11.51-12.42-17.151-18.714
		C1094.716,880.896,1090.253,877.739,1088.016,872.91z"/>
	<path fill="#96A4B1" stroke="#96A4B1" stroke-width="0.5" d="M1115.291,903.539c5.997,6.116,11.816,12.4,17.784,18.556
		c12.469,13.271,25.741,25.741,38.863,38.339c54.47,52.055,113.324,99.657,163.866,155.711c-1.969-0.544-3.929-1.148-5.681-2.148
		c-16.468-9.263-31.768-20.684-44.989-34.202c-34.252-36.3-79.083-61.259-126.209-76.698c-13.816-4.087-28.086-6.581-41.536-11.846
		c-12.697-4.78-25.107-13.073-30.481-26.008c-3.84-10.055-6.126-21.337-3.038-31.896c2.227-8.184,7.848-15.033,14.568-20.021
		C1103.583,909.309,1109.64,906.755,1115.291,903.539z"/>
	<path fill="#96A4B1" stroke="#96A4B1" stroke-width="0.5" d="M827.819,931.388c26.592,10.728,53.629,20.812,78.419,35.41
		c17.517,10.381,35.291,20.337,53.292,29.877c69.414,36.755,143.37,66.484,221.067,79.795c8.729,1.356,17.418,3.216,26.275,3.444
		c17.586,19.278,39.972,33.143,61.952,46.82c30.729,19.278,60.487,40.1,89.246,62.219c13.479,10.421,26.879,21.228,37.646,34.549
		c8.006,9.966,14.647,21.386,17.299,34.024c1.484,7.68,1.366,16.131-2.652,23.088c-5.384,9.402-15.488,15.28-25.85,17.626
		c-10.589,2.108-21.673,0.811-31.728-2.979c-7.125-2.296-13.548-6.175-20.298-9.313c11.321,7.551,24.068,13.39,37.636,15.28
		c12.133,1.692,24.603-1.801,34.638-8.699c11.143,7.739,22.297,16.418,29.204,28.363c5.463,9.362,6.997,21.218,2.84,31.382
		c-6.532-2.345-13.39-3.464-20.04-5.304c-25.523-6.749-50.482-15.597-74.59-26.334c-63.406-28.047-120.885-68.345-171.782-115.214
		c-22.9-22-39.19-49.522-57.31-75.322c-17.269-25.038-37.23-49.076-63.268-65.396c-14.756-9.243-31.293-15.112-47.77-20.476
		c-37.963-12.094-77.43-19.635-114.235-35.212c-17.507-7.521-34.776-17.269-46.84-32.391
		C830.778,964.046,826.443,947.41,827.819,931.388z"/>
	<path fill="#010101" stroke="#010101" stroke-width="0.5" d="M524.78,1192.832c1.366,0.406,2.741,0.831,4.127,1.277
		c-6.799,9.451-13.627,18.882-20.426,28.333c16.834,5.809,29.966,21.436,32.49,39.121c0.337,2.593,1.217,5.067,1.969,7.571
		c1.574,0.139,3.157,0.218,4.76,0.376c1.534-2.197,2.336-5.196,4.889-6.452c-1.306,2.999-3.068,5.799-5.403,8.095
		c-0.93-0.04-2.791-0.119-3.721-0.158c0.406,1.752,0.841,3.523,1.376,5.275c0.722-1.524,1.455-3.018,2.187-4.503
		c-0.04,2.454-0.544,4.958-3.098,5.977c-0.861-2.118-1.672-4.236-2.543-6.314c-3.305-1.722-3.889-5.463-5.483-8.452
		c-4.79-6.908-12.954-10.906-21.248-11.47c-9.867-0.772-20.614,0.267-29.313-5.403c-2.989-2.326-6.65-0.228-9.896,0.228
		c-7.581,1.89-15.339,0.208-22.801-1.385c-6.225,13.132-8.115,28.195-6.492,42.564c2.989,8.343,8.491,15.508,12.677,23.276
		c-7.264-5.295-12.291-13.043-15.904-21.149c-6.928-14.795-9.699-31.322-8.857-47.592c0.851-7.699,3.305-15.082,6.185-22.227
		c0.337,0.356,1.029,1.079,1.376,1.435c3.721-4.374,7.422-9.53,13.014-11.49c5.878,0.515,9.412,7.195,8.719,12.638
		c-1.197,8.006-7.64,13.806-9.867,21.436c13.162,3.335,28.462,0.98,38.349-8.857c5.433-5.78,11.025-11.5,15.557-18.051
		C513.112,1208.835,518.98,1200.858,524.78,1192.832z"/>
	<path fill="#010101" stroke="#010101" stroke-width="0.5" d="M395.374,1212.477c1.573,0.356,3.157,0.752,4.76,1.108
		c5.463,0.891,10.916-0.525,16.339-1.059c2.84,0.643,5.681,1.405,8.58,1.821c-27.779,8.076-56.905,2.692-85.298,4.295
		c-9.293,0.515-19.12,1.979-26.8,7.64c-5.69,4.196-9.867,11.43-8.422,18.655c1.583,7.402,6.809,13.281,9.332,20.327
		c1.118,3.078,1.336,6.383,1.623,9.639c12.45-10.738,24.454-22.01,37.003-32.629c0.614,0.722,1.257,1.465,1.9,2.207
		c-0.584,0.901-1.178,1.801-1.702,2.761c-3.008,4.463-0.356,10.342,3.108,13.736c3.751,3.879,9.669,3.909,14.637,3.068
		c8.808-1.643,16.359-6.749,24.504-10.154c10.599-4.641,21.584-8.481,32.916-10.866c-6.215,3.325-13.331,4.305-19.763,7.125
		c-10.757,3.939-20.575,9.916-31.015,14.568c-3.197,1.336-4.503,4.78-6.433,7.403c-3.879,5.938-10.094,9.698-14.617,15.072
		c-5.483,6.453-9.441,14.261-11.094,22.594c-1.227,4.404,2.177,8.036,3.86,11.797c-5.809-5.562-10.352-12.529-12.499-20.308
		c-2.474-8.828-3.701-18.17-2.375-27.284c0.544-4.167,1.682-8.214,2.553-12.301c-8.57,6.542-16.201,14.221-24.424,21.188
		c-0.831-0.693-1.653-1.346-2.484-1.989c3.365-6.878,1.158-14.637-2.672-20.783c-11.767,12.588-17.804,30.353-15.844,47.523
		c0.663,8.234,3.226,16.131,5.74,23.959c-6.601-4.74-10.975-11.816-14.35-19.051c-7.957-17.408-7.244-38.369,1.514-55.331
		c3.088-6.927,8.758-12.41,15.805-15.211c0-8.234,5.008-15.755,11.688-20.228c7.492-5.057,16.636-6.779,25.503-7.363
		c18.417-1.534,36.864,0.525,55.311,0.168C393.83,1214.901,394.562,1213.526,395.374,1212.477z"/>
	<path fill="#5C510F" stroke="#5C510F" stroke-width="0.5" d="M427.854,1243.027c2.009-0.653,4.097-0.97,6.215-0.98
		c-0.841,16.27,1.93,32.797,8.857,47.592c3.612,8.105,8.64,15.854,15.904,21.149c-4.186-7.769-9.689-14.934-12.677-23.276
		c-1.623-14.37,0.267-29.432,6.492-42.564c7.462,1.593,15.221,3.276,22.801,1.385c3.246-0.455,6.908-2.553,9.896-0.228
		c8.699,5.671,19.447,4.632,29.313,5.403c8.293,0.564,16.458,4.562,21.248,11.47c1.593,2.989,2.177,6.729,5.483,8.452
		c0.871,2.078,1.682,4.196,2.543,6.314c2.553-1.019,3.058-3.523,3.098-5.977l0.158-0.614c2.336-2.296,4.097-5.097,5.403-8.095
		c5.71-5.512,11.945-11.272,20.12-12.529c13.538-2.543,26.72,5.898,33.876,16.943c7.017,10.728,9.778,23.534,11.609,36.043
		c2.395,15.102,2.583,31.777-5.73,45.217c-5.008,6.967-11.975,13.212-20.614,14.973c-12.687,2.771-25.473-1.326-38.24-0.802
		c-14.479,0.178-28.343,5.552-40.536,13.083c-18.19,11.074-33.915,25.642-51.699,37.31c-30.511,19.684-66.494,28.343-102.003,33.559
		c-45.474,6.443-91.374,10.164-137.303,10.649c-13.499,0.673-27.037,0.485-40.536-0.079c-37.082,0.069-74.134-2.494-110.979-6.542
		c7.64-6.205,15.923-11.628,23.197-18.279c26.057-22.623,47.839-50.135,63.783-80.735c9.332-17.378,15.211-36.34,24.246-53.866
		c5.601-10.965,12.361-21.614,21.733-29.749c16.121-14.191,39.012-19.733,60.002-16.082c5.215,0.752,10.025,3.147,15.28,3.701
		c1.742,0.327,3.414,0.93,5.156,1.336c-8.758,16.963-9.471,37.923-1.514,55.331c3.375,7.234,7.749,14.31,14.35,19.051
		c-2.514-7.828-5.077-15.725-5.74-23.959c-1.96-17.17,4.077-34.935,15.844-47.523c3.83,6.146,6.037,13.905,2.672,20.783
		c0.831,0.643,1.653,1.297,2.484,1.989c8.224-6.967,15.854-14.647,24.424-21.188c-0.871,4.087-2.009,8.135-2.553,12.301
		c-1.326,9.115-0.099,18.457,2.375,27.284c2.147,7.779,6.69,14.746,12.499,20.308c-1.682-3.761-5.087-7.393-3.86-11.797
		c1.653-8.333,5.611-16.141,11.094-22.594c4.523-5.374,10.738-9.134,14.617-15.072c1.93-2.623,3.236-6.067,6.433-7.403
		c10.441-4.651,20.258-10.629,31.015-14.568C414.523,1247.332,421.639,1246.352,427.854,1243.027z"/>
	<path fill="#040201" stroke="#040201" stroke-width="0.5" d="M556.3,1257.862c5.592-5.512,13.073-9.134,20.981-9.461
		c9.362-0.158,18.338,4.176,25.157,10.401c7.729,7.224,12.38,17.081,15.349,27.097c2.533,8.956,4.414,18.12,5.235,27.393
		c1.554,13.301-0.386,27.571-7.897,38.933c6.512,17.982,14.528,35.528,18.645,54.292c3.266,14.973,3.088,30.362,3.949,45.583
		c1.405,22.999,6.72,45.563,13.568,67.494c9.639,30.511,20.357,60.745,27.383,92.007c-21.277,9.788-44.465,14.864-67.662,17.428
		c-49.215,5.364-98.391-3.127-147.418-6.66c-52.689-4.305-105.546-6.403-158.403-6.146c-47.562-0.049-95.085,2.375-142.529,5.69
		c-35.32,2.385-70.601,5.611-105.704,10.223c-5.206-26.384-2.276-53.49-6.086-80.033c-1.682-11.361-4.374-22.752-9.738-32.985
		c-4.345-8.986-10.797-17.249-12.281-27.373c-1.524-7.452,1.168-15.241,5.987-20.961c5.483-6.601,12.994-10.995,20.169-15.498
		c48.196-29.274,86.733-74.194,108.247-126.328c8.432-19.664,15.518-40.714,30.392-56.647c20.911-22.93,57.261-29.689,85.149-16.438
		c-5.255-0.554-10.065-2.949-15.28-3.701c-20.99-3.652-43.881,1.89-60.002,16.082c-9.372,8.135-16.131,18.783-21.733,29.749
		c-9.035,17.527-14.914,36.488-24.246,53.866c-15.943,30.6-37.725,58.112-63.783,80.735c-7.274,6.65-15.557,12.074-23.197,18.279
		c36.844,4.048,73.897,6.611,110.979,6.542c13.499,0.564,27.037,0.752,40.536,0.079c45.929-0.485,91.829-4.206,137.303-10.649
		c35.508-5.215,71.492-13.875,102.003-33.559c17.784-11.668,33.509-26.235,51.699-37.31c12.192-7.531,26.057-12.905,40.536-13.083
		c12.766-0.525,25.553,3.573,38.24,0.802c8.64-1.762,15.607-8.006,20.614-14.973c8.313-13.439,8.125-30.115,5.73-45.217
		c-1.831-12.509-4.592-25.315-11.609-36.043c-7.155-11.044-20.337-19.486-33.876-16.943c-8.174,1.257-14.409,7.017-20.12,12.529
		C552.885,1260.801,554.855,1259.406,556.3,1257.862 M599.805,1365.723c-8.471,4.038-18.15,3.593-27.255,2.86
		c-13.38-1.465-27.423-2.237-40.15,2.92c-26.414,10.075-46.018,31.372-69.542,46.226c-30.926,19.635-67.246,28.274-103.081,33.589
		c-46.929,6.601-94.293,10.272-141.678,10.728c-49.363,0.505-98.707-3.206-147.625-9.679c-2.355-0.505-4.275,1.178-6.136,2.316
		c-10.441,7.383-23.88,12.569-29.63,24.82c-2.444,5.176-2.157,11.262-0.198,16.557c3.236,9.352,9.511,17.24,13.251,26.364
		c4.75,11.638,6.848,24.167,7.64,36.666c1.366,23.742-1.197,47.681,2.474,71.294c11.896-0.792,23.672-3.078,35.528-4.354
		c28.927-3.889,57.944-7.026,87.019-9.5c25.058-1.772,50.155-2.89,75.262-3.8c12.855-0.386,25.731-0.337,38.576-0.94
		c59.121-0.356,118.272,1.851,177.186,6.829c46.523,3.79,93.135,10.51,139.906,7.145c22.208-1.87,44.356-6.195,65.069-14.597
		c-2.444-11.351-6.462-22.287-10.065-33.302c-8.046-22.594-16.141-45.197-22.762-68.256c-5.206-18.724-9.303-37.884-10.282-57.34
		c-0.95-15.072-0.574-30.352-4.028-45.148c-3.919-17.329-10.896-33.747-17.368-50.215
		C608.157,1360.191,604.476,1363.754,599.805,1365.723z"/>
	<path fill="#EBE8E3" stroke="#EBE8E3" stroke-width="0.5" d="M543.464,1270.994c0.93,0.04,2.791,0.119,3.721,0.158l-0.158,0.614
		c-0.732,1.484-1.465,2.979-2.187,4.503C544.305,1274.517,543.87,1272.746,543.464,1270.994z"/>
	<path fill="#5C510F" stroke="#5C510F" stroke-width="0.5" d="M599.805,1365.723c4.671-1.969,8.353-5.532,12.113-8.818
		c6.472,16.468,13.449,32.886,17.368,50.215c3.454,14.795,3.078,30.075,4.028,45.148c0.98,19.456,5.077,38.616,10.282,57.34
		c6.621,23.059,14.716,45.662,22.762,68.256c3.602,11.015,7.62,21.95,10.065,33.302c-20.713,8.402-42.862,12.727-65.069,14.597
		c-46.771,3.365-93.383-3.355-139.906-7.145c-58.914-4.978-118.065-7.185-177.186-6.829c-12.846,0.604-25.721,0.554-38.576,0.94
		c-25.107,0.91-50.205,2.029-75.262,3.8c-29.076,2.474-58.092,5.611-87.019,9.5c-11.856,1.277-23.633,3.563-35.528,4.354
		c-3.672-23.613-1.108-47.552-2.474-71.294c-0.792-12.499-2.89-25.028-7.64-36.666c-3.741-9.125-10.015-17.012-13.251-26.364
		c-1.959-5.295-2.246-11.381,0.198-16.557c5.75-12.252,19.189-17.438,29.63-24.82c1.861-1.138,3.78-2.82,6.136-2.316
		c48.918,6.472,98.262,10.183,147.625,9.679c47.384-0.455,94.749-4.127,141.678-10.728c35.835-5.314,72.155-13.954,103.081-33.589
		c23.524-14.855,43.129-36.152,69.542-46.226c12.727-5.156,26.77-4.384,40.15-2.92
		C581.654,1369.316,591.333,1369.761,599.805,1365.723z"/>
</g>
</svg>
