<?xml version="1.0" encoding="utf-8"?>
<!-- Uploaded to: SVG Repo, www.svgrepo.com, Generator: SVG Repo Mixer Tools -->
<svg width="800px" height="800px" viewBox="0 0 1024 1024" class="icon"  version="1.1" xmlns="http://www.w3.org/2000/svg"><path d="M891.733333 1024h-768c-7.68 0-14.506667-5.12-16.213333-11.946667l-2.56-7.68c-71.68-235.52-70.826667-484.693333 2.56-719.36 2.56-9.386667 12.8-13.653333 21.333333-11.093333 9.386667 2.56 13.653333 12.8 11.093334 21.333333C69.12 522.24 67.413333 762.026667 136.533333 989.866667h743.253334l0.853333-3.413334c77.653333-223.573333 75.946667-468.48-5.12-690.346666-3.413333-8.533333 1.706667-18.773333 10.24-22.186667 8.533333-3.413333 18.773333 1.706667 22.186667 10.24 83.626667 229.546667 85.333333 482.986667 5.12 713.386667l-5.12 14.506666c-2.56 7.68-9.386667 11.946667-16.213334 11.946667z" fill="#EC407A" /><path d="M917.333333 285.866667c-9.386667 0-17.066667-7.68-17.066666-17.066667v-145.066667c0-49.493333-42.666667-89.6-95.573334-89.6H219.306667c-52.906667 0-95.573333 40.106667-95.573334 89.6v144.213334c0 9.386667-7.68 17.066667-17.066666 17.066666s-17.066667-7.68-17.066667-17.066666V123.733333c0-68.266667 58.026667-123.733333 129.706667-123.733333h584.533333c71.68 0 129.706667 55.466667 129.706667 123.733333v144.213334c0.853333 10.24-6.826667 17.92-16.213334 17.92z" fill="#EC407A" /><path d="M76.8 256h59.733333v119.466667H76.8z" fill="#FFEE58" /><path d="M136.533333 392.533333H76.8c-9.386667 0-17.066667-7.68-17.066667-17.066666V256c0-9.386667 7.68-17.066667 17.066667-17.066667h59.733333c9.386667 0 17.066667 7.68 17.066667 17.066667v119.466667c0 9.386667-7.68 17.066667-17.066667 17.066666z m-42.666666-34.133333h25.6V273.066667h-25.6v85.333333z" fill="#EC407A" /><path d="M115.2 290.133333h-17.066667C67.413333 290.133333 42.666667 265.386667 42.666667 234.666667v-51.2c0-30.72 24.746667-55.466667 55.466666-55.466667h17.066667c30.72 0 55.466667 24.746667 55.466667 55.466667v51.2c0 30.72-24.746667 55.466667-55.466667 55.466666z" fill="#FFFFFF" /><path d="M115.2 307.2h-17.066667C58.026667 307.2 25.6 274.773333 25.6 234.666667v-51.2c0-40.106667 32.426667-72.533333 72.533333-72.533334h17.066667c40.106667 0 72.533333 32.426667 72.533333 72.533334v51.2c0 40.106667-32.426667 72.533333-72.533333 72.533333z m-17.066667-162.133333C76.8 145.066667 59.733333 162.133333 59.733333 183.466667v51.2C59.733333 256 76.8 273.066667 98.133333 273.066667h17.066667c21.333333 0 38.4-17.066667 38.4-38.4v-51.2c0-21.333333-17.066667-38.4-38.4-38.4h-17.066667z" fill="#EC407A" /><path d="M887.466667 256h59.733333v119.466667h-59.733333z" fill="#FFEE58" /><path d="M947.2 392.533333h-59.733333c-9.386667 0-17.066667-7.68-17.066667-17.066666V256c0-9.386667 7.68-17.066667 17.066667-17.066667h59.733333c9.386667 0 17.066667 7.68 17.066667 17.066667v119.466667c0 9.386667-7.68 17.066667-17.066667 17.066666z m-42.666667-34.133333h25.6V273.066667h-25.6v85.333333z" fill="#EC407A" /><path d="M925.866667 290.133333h-17.066667c-30.72 0-55.466667-24.746667-55.466667-55.466666v-51.2c0-30.72 24.746667-55.466667 55.466667-55.466667h17.066667c30.72 0 55.466667 24.746667 55.466666 55.466667v51.2c0 30.72-24.746667 55.466667-55.466666 55.466666z" fill="#FFFFFF" /><path d="M925.866667 307.2h-17.066667c-40.106667 0-72.533333-32.426667-72.533333-72.533333v-51.2c0-40.106667 32.426667-72.533333 72.533333-72.533334h17.066667c40.106667 0 72.533333 32.426667 72.533333 72.533334v51.2c0 40.106667-32.426667 72.533333-72.533333 72.533333z m-17.066667-162.133333c-21.333333 0-38.4 17.066667-38.4 38.4v51.2c0 21.333333 17.066667 38.4 38.4 38.4h17.066667c21.333333 0 38.4-17.066667 38.4-38.4v-51.2c0-21.333333-17.066667-38.4-38.4-38.4h-17.066667z" fill="#EC407A" /><path d="M133.973333 665.6c-8.533333 0-16.213333-6.826667-17.066666-15.36l-25.6-273.066667c-0.853333-9.386667 5.973333-17.92 15.36-18.773333 9.386667-0.853333 17.92 5.973333 18.773333 15.36l25.6 273.066667c0.853333 9.386667-5.973333 17.92-15.36 18.773333h-1.706667zM893.44 657.066667c-0.853333 0-0.853333 0 0 0-10.24 0-17.066667-8.533333-17.066667-17.92l8.533334-264.533334c0-9.386667 8.533333-17.066667 17.92-16.213333 9.386667 0 17.066667 8.533333 16.213333 17.92l-8.533333 264.533333c-0.853333 8.533333-8.533333 16.213333-17.066667 16.213334z" fill="#EC407A" /><path d="M759.466667 904.533333H267.093333c-74.24 0-133.973333-59.733333-133.973333-133.973333V648.533333h759.466667v122.026667C893.44 844.8 833.706667 904.533333 759.466667 904.533333z" fill="#FCE4EC" /><path d="M759.466667 921.6H267.093333c-82.773333 0-151.04-67.413333-151.04-151.04V648.533333c0-9.386667 7.68-17.066667 17.066667-17.066666h759.466667c9.386667 0 17.066667 7.68 17.066666 17.066666v122.026667c0.853333 83.626667-67.413333 151.04-150.186666 151.04zM151.04 665.6v104.96c0 64 52.053333 116.906667 116.906667 116.906667H759.466667c64 0 116.906667-52.053333 116.906666-116.906667V665.6h-725.333333z" fill="#EC407A" /><path d="M759.466667 844.8H267.093333c-49.493333 0-93.013333-27.306667-116.053333-68.266667-11.946667-3.413333-17.066667-5.973333-17.066667-5.973333 0 74.24 59.733333 133.973333 133.973334 133.973333H759.466667c74.24 0 133.973333-59.733333 133.973333-133.973333 0 0-5.12 2.56-17.066667 5.973333-23.04 40.96-66.56 68.266667-116.906666 68.266667z" fill="#F8BBD0" /><path d="M759.466667 921.6H267.093333c-82.773333 0-151.04-67.413333-151.04-151.04V648.533333c0-9.386667 7.68-17.066667 17.066667-17.066666h759.466667c9.386667 0 17.066667 7.68 17.066666 17.066666v122.026667c0.853333 83.626667-67.413333 151.04-150.186666 151.04zM151.04 665.6v104.96c0 64 52.053333 116.906667 116.906667 116.906667H759.466667c64 0 116.906667-52.053333 116.906666-116.906667V665.6h-725.333333z" fill="#EC407A" /><path d="M133.973333 657.066667a379.733333 51.2 0 1 0 759.466667 0 379.733333 51.2 0 1 0-759.466667 0Z" fill="#F48FB1" /><path d="M513.706667 725.333333c-102.4 0-197.973333-5.12-270.506667-15.36-110.933333-15.36-126.293333-34.133333-126.293333-52.906666s15.36-38.4 126.293333-52.906667C315.733333 594.773333 412.16 588.8 513.706667 588.8s197.973333 5.12 270.506666 15.36c110.933333 15.36 126.293333 34.133333 126.293334 52.906667s-15.36 38.4-126.293334 52.906666C711.68 720.213333 615.253333 725.333333 513.706667 725.333333z m-355.84-68.266666c34.986667 15.36 163.84 34.133333 355.84 34.133333s320.853333-18.773333 355.84-34.133333c-34.986667-15.36-163.84-34.133333-355.84-34.133334s-320.853333 18.773333-355.84 34.133334z m720.213333 5.12z" fill="#EC407A" /></svg>