<?xml version="1.0" encoding="utf-8"?>
<!-- Uploaded to: SVG Repo, www.svgrepo.com, Generator: SVG Repo Mixer Tools -->
<svg width="800px" height="800px" viewBox="0 0 1024 1024" class="icon"  version="1.1" xmlns="http://www.w3.org/2000/svg"><path d="M842.24 789.333333H257.706667C162.133333 789.333333 85.333333 712.533333 85.333333 617.813333c0-68.266667 40.106667-130.56 103.253334-157.866666l254.293333-111.786667h481.28v359.253333c0 45.226667-36.693333 81.92-81.92 81.92z" fill="#FCE4EC" /><path d="M842.24 806.4H257.706667C152.746667 806.4 68.266667 721.92 68.266667 617.813333c0-75.093333 44.373333-143.36 113.493333-173.226666L436.053333 332.8c2.56-0.853333 4.266667-1.706667 6.826667-1.706667h481.28c9.386667 0 17.066667 7.68 17.066667 17.066667v359.253333c0 54.613333-44.373333 98.986667-98.986667 98.986667zM446.293333 365.226667L195.413333 475.306667A155.306667 155.306667 0 0 0 102.4 617.813333c0 85.333333 69.12 155.306667 155.306667 155.306667h585.386666c35.84 0 64.853333-29.013333 64.853334-64.853333V365.226667H446.293333z" fill="#EC407A" /><path d="M842.24 678.4H257.706667c-75.093333 0-139.093333-48.64-162.986667-116.053333-5.973333 17.92-9.386667 36.693333-9.386667 55.466666 0 94.72 76.8 172.373333 172.373334 172.373334h585.386666c45.226667 0 81.92-36.693333 81.92-81.92V597.333333c-0.853333 44.373333-37.546667 81.066667-82.773333 81.066667z" fill="#F48FB1" /><path d="M842.24 806.4H257.706667C152.746667 806.4 68.266667 721.92 68.266667 617.813333c0-20.48 3.413333-40.96 10.24-61.44 2.56-6.826667 8.533333-11.946667 16.213333-11.946666 7.68 0 13.653333 4.266667 16.213333 11.946666 21.333333 62.293333 80.213333 104.96 146.773334 104.96h585.386666c35.84 0 64.853333-29.013333 64.853334-64.853333 0-9.386667 7.68-17.066667 17.066666-17.066667s17.066667 7.68 17.066667 17.066667v110.933333c-0.853333 54.613333-45.226667 98.986667-99.84 98.986667zM102.4 614.4v3.413333c0 85.333333 69.12 155.306667 155.306667 155.306667h585.386666c35.84 0 64.853333-29.013333 64.853334-64.853333v-36.693334c-17.066667 15.36-40.106667 23.893333-64.853334 23.893334H257.706667c-63.146667 0-120.32-31.573333-155.306667-81.066667z" fill="#EC407A" /><path d="M849.92 348.16v359.253333c0 45.226667-36.693333 81.92-81.92 81.92h61.44c45.226667 0 81.92-36.693333 81.92-81.92V348.16h-61.44z" fill="#F8BBD0" /><path d="M849.92 695.466667v11.946666c0 45.226667-36.693333 81.92-81.92 81.92h61.44c45.226667 0 81.92-36.693333 81.92-81.92v-32.426666l-61.44 20.48z" fill="#F06292" /><path d="M842.24 806.4H257.706667C152.746667 806.4 68.266667 721.92 68.266667 617.813333c0-75.093333 44.373333-143.36 113.493333-173.226666L436.053333 332.8c2.56-0.853333 4.266667-1.706667 6.826667-1.706667h481.28c9.386667 0 17.066667 7.68 17.066667 17.066667v359.253333c0 54.613333-44.373333 98.986667-98.986667 98.986667zM446.293333 365.226667L195.413333 475.306667A155.306667 155.306667 0 0 0 102.4 617.813333c0 85.333333 69.12 155.306667 155.306667 155.306667h585.386666c35.84 0 64.853333-29.013333 64.853334-64.853333V365.226667H446.293333z" fill="#EC407A" /><path d="M842.24 806.4H257.706667C152.746667 806.4 68.266667 721.92 68.266667 617.813333c0-20.48 3.413333-40.96 10.24-61.44 2.56-6.826667 8.533333-11.946667 16.213333-11.946666 7.68 0 13.653333 4.266667 16.213333 11.946666 21.333333 62.293333 80.213333 104.96 146.773334 104.96h585.386666c35.84 0 64.853333-29.013333 64.853334-64.853333 0-9.386667 7.68-17.066667 17.066666-17.066667s17.066667 7.68 17.066667 17.066667v110.933333c-0.853333 54.613333-45.226667 98.986667-99.84 98.986667zM102.4 614.4v3.413333c0 85.333333 69.12 155.306667 155.306667 155.306667h585.386666c35.84 0 64.853333-29.013333 64.853334-64.853333v-36.693334c-17.066667 15.36-40.106667 23.893333-64.853334 23.893334H257.706667c-63.146667 0-120.32-31.573333-155.306667-81.066667z" fill="#EC407A" /><path d="M938.666667 377.173333c0 78.506667-121.173333 142.506667-270.506667 142.506667S341.333333 455.68 341.333333 377.173333s177.493333-142.506667 326.826667-142.506666S938.666667 298.666667 938.666667 377.173333z" fill="#FFFFFF" /><path d="M668.16 535.893333c-75.946667 0-160.426667-16.213333-226.133333-42.666666C366.08 462.506667 324.266667 420.693333 324.266667 377.173333s41.813333-85.333333 118.613333-116.053333c65.706667-26.453333 150.186667-42.666667 226.133333-42.666667 161.28 0 287.573333 69.973333 287.573334 159.573334S829.44 535.893333 668.16 535.893333z m0-284.16C517.973333 251.733333 358.4 316.586667 358.4 377.173333s159.573333 125.44 309.76 125.44c137.386667 0 253.44-57.173333 253.44-125.44S805.546667 251.733333 668.16 251.733333z" fill="#EC407A" /><path d="M740.693333 590.506667L657.066667 615.253333C553.813333 528.213333 512.853333 387.413333 553.813333 258.56l82.773334-23.893333c-40.106667 128.853333 0.853333 268.8 104.106666 355.84z" fill="#FFFFFF" /><path d="M657.066667 632.32c-4.266667 0-7.68-1.706667-11.093334-4.266667-108.373333-91.306667-151.893333-238.933333-109.226666-374.613333 1.706667-5.12 5.973333-9.386667 11.093333-11.093333l82.773333-23.893334c5.973333-1.706667 12.8 0 17.066667 4.266667s5.973333 11.093333 4.266667 17.066667C614.4 362.666667 652.8 494.933333 751.786667 577.706667c5.12 4.266667 6.826667 10.24 5.973333 16.213333s-5.973333 11.093333-11.946667 12.8L662.186667 631.466667c-1.706667 0-3.413333 0.853333-5.12 0.853333zM567.466667 272.213333c-33.28 116.906667 3.413333 242.346667 94.72 323.413334l45.226666-12.8a351.402667 351.402667 0 0 1-94.72-323.413334l-45.226666 12.8z" fill="#EC407A" /><path d="M345.6 506.88c30.72 0 55.466667-24.746667 55.466667-55.466667s-24.746667-55.466667-55.466667-55.466666c-18.773333 0-35.84 9.386667-46.08 23.893333-23.893333-5.12-53.76-1.706667-82.773333 11.946667-45.226667 21.333333-73.386667 58.88-70.826667 89.6-11.093333 10.24-17.92 24.746667-17.92 40.96 0 30.72 24.746667 55.466667 55.466667 55.466666s55.466667-24.746667 55.466666-55.466666l10.24-2.56v2.56c0 30.72 24.746667 55.466667 55.466667 55.466666s55.466667-24.746667 55.466667-55.466666c0-23.893333-14.506667-43.52-34.986667-52.053334 1.706667-1.706667 3.413333-4.266667 4.266667-5.973333 5.973333 1.706667 11.093333 2.56 16.213333 2.56z" fill="#FFEE58" /><path d="M305.493333 634.88c-25.6 0-47.786667-12.8-60.586666-32.426667-12.8 19.626667-34.986667 32.426667-60.586667 32.426667-40.106667 0-72.533333-32.426667-72.533333-72.533333 0-17.92 6.826667-34.133333 17.92-47.786667 0.853333-36.693333 33.28-76.8 80.213333-98.986667 28.16-12.8 57.173333-17.92 83.626667-14.506666 13.653333-14.506667 32.426667-23.04 52.906666-23.04 40.106667 0 72.533333 32.426667 72.533334 72.533333 0 33.28-22.186667 61.44-52.906667 69.973333 8.533333 11.946667 12.8 26.453333 12.8 40.96-0.853333 40.96-33.28 73.386667-73.386667 73.386667z m-56.32-91.306667c3.413333 0 7.68 0.853333 10.24 3.413334 4.266667 3.413333 6.826667 8.533333 6.826667 14.506666v1.706667c0 21.333333 17.066667 38.4 38.4 38.4s38.4-17.066667 38.4-38.4c0-16.213333-9.386667-29.866667-24.746667-35.84-5.12-1.706667-8.533333-5.973333-10.24-11.093333-1.706667-5.12 0-11.093333 3.413334-15.36 1.706667-1.706667 2.56-3.413333 3.413333-5.12 4.266667-5.973333 11.946667-9.386667 18.773333-6.826667 3.413333 0.853333 6.826667 1.706667 11.093334 1.706667 21.333333 0 38.4-17.066667 38.4-38.4s-17.066667-38.4-38.4-38.4c-12.8 0-24.746667 5.973333-31.573334 17.066666-4.266667 5.973333-11.093333 8.533333-17.92 6.826667-20.48-5.12-46.933333-0.853333-72.533333 11.093333-42.666667 19.626667-63.146667 52.053333-60.586667 72.533334 0.853333 5.12-1.706667 11.093333-5.12 14.506666-7.68 7.68-12.8 17.92-12.8 28.16 0 21.333333 17.066667 38.4 38.4 38.4s38.4-17.066667 38.4-38.4c0-7.68 5.973333-14.506667 13.653334-16.213333 3.413333-0.853333 5.973333-1.706667 9.386666-2.56 2.56-1.706667 4.266667-1.706667 5.12-1.706667z" fill="#EC407A" /><path d="M177.934288 504.873238a43.52 68.266667 65.172 1 0 123.913884-57.329754 43.52 68.266667 65.172 1 0-123.913884 57.329754Z" fill="#FFFFFF" /><path d="M218.453333 541.866667c-4.266667 0-7.68 0-11.093333-0.853334-20.48-2.56-36.693333-13.653333-44.373333-29.013333-14.506667-30.72 8.533333-70.826667 52.053333-90.453333 19.626667-9.386667 40.106667-12.8 58.026667-10.24 20.48 2.56 36.693333 13.653333 44.373333 29.013333 14.506667 30.72-8.533333 70.826667-52.053333 90.453333-15.36 6.826667-31.573333 11.093333-46.933334 11.093334z m42.666667-97.28c-10.24 0-21.333333 2.56-32.426667 7.68-26.453333 11.946667-40.106667 34.133333-34.986666 45.226666 2.56 5.12 8.533333 8.533333 17.92 9.386667 11.946667 1.706667 26.453333-0.853333 39.253333-7.68 26.453333-11.946667 40.106667-34.133333 34.986667-45.226667-2.56-5.12-8.533333-8.533333-17.92-9.386666h-6.826667z" fill="#EC407A" /><path d="M616.96 482.133333m-61.44 0a61.44 61.44 0 1 0 122.88 0 61.44 61.44 0 1 0-122.88 0Z" fill="#FCE4EC" /><path d="M616.96 560.64c-43.52 0-78.506667-34.986667-78.506667-78.506667s34.986667-78.506667 78.506667-78.506666 78.506667 34.986667 78.506667 78.506666-34.986667 78.506667-78.506667 78.506667z m0-122.88c-24.746667 0-44.373333 20.48-44.373333 44.373333 0 24.746667 20.48 44.373333 44.373333 44.373334 24.746667 0 44.373333-20.48 44.373333-44.373334 0.853333-24.746667-19.626667-44.373333-44.373333-44.373333z" fill="#EC407A" /></svg>