<?xml version="1.0" encoding="iso-8859-1"?>
<!-- Uploaded to: SVG Repo, www.svgrepo.com, Generator: SVG Repo Mixer Tools -->
<svg height="800px" width="800px" version="1.1" id="Layer_1" xmlns="http://www.w3.org/2000/svg" xmlns:xlink="http://www.w3.org/1999/xlink" 
	 viewBox="0 0 512 512" xml:space="preserve">
<path style="fill:#2D8B99;" d="M512,486.4c0,14.136-11.464,25.6-25.6,25.6H25.6C11.464,512,0,500.536,0,486.4V40.96
	c0-14.136,11.464-25.6,25.6-25.6h460.8c14.136,0,25.6,11.464,25.6,25.6V486.4L512,486.4z"/>
<path style="fill:#39AEC0;" d="M512,471.04c0,14.136-11.464,25.6-25.6,25.6H25.6c-14.136,0-25.6-11.464-25.6-25.6V25.6
	C0,11.464,11.464,0,25.6,0h460.8C500.536,0,512,11.464,512,25.6V471.04L512,471.04z"/>
<path style="fill:#339EAE;" d="M512,471.04V211.804c-0.435-0.43-137.866-137.953-138.824-138.824
	c-7.67-8.417-18.688-13.727-30.971-13.727c-15.862,0-29.655,8.806-36.787,21.791c-2.14-1.075-4.26-2.181-6.472-3.118
	c-13.199-5.581-27.709-8.668-42.941-8.668c-17.162,0-33.336,4.04-47.816,11.039c-0.553-0.573-6.313-6.236-7.265-7.117
	c-7.675-8.525-18.744-13.926-31.119-13.926c-23.168,0-41.953,18.78-41.953,41.948c0,12.006,5.12,22.753,13.204,30.397
	c0.86,0.978,10.061,10.112,11.003,11.003l0.133,0.169c-4.106,11.53-6.508,23.864-6.508,36.803c0,30.7,12.616,58.378,32.87,78.356
	c0.891,0.942,15.375,15.38,16.189,16.195c-9.4,6.641-54.292,38.589-60.82,47.892c-6.871,9.795-4.951,23.014,3.973,30.633
	c0.824,0.988,22.723,22.932,23.142,23.363c-4.669,4.89-7.578,11.484-7.578,18.78c0,8.228,3.722,15.514,9.487,20.511
	c0.845,0.978,80.804,80.814,81.336,81.336H486.4C500.536,496.64,512,485.176,512,471.04L512,471.04z"/>
<g>
	<path style="fill:#FBD800;" d="M331.249,394.388l0.051-0.343c0-0.891-0.169-1.772-0.456-2.642l-17.26-128.246H198.415
		l-17.26,128.246c-0.287,0.87-0.456,1.746-0.456,2.642l0.051,0.343l-0.051,0.394h0.113c1.208,13.169,34.365,23.726,75.187,23.726
		s73.979-10.557,75.187-23.726h0.113L331.249,394.388L331.249,394.388z"/>
	<circle style="fill:#FBD800;" cx="169.779" cy="101.197" r="41.948"/>
</g>
<circle style="fill:#F15B00;" cx="169.779" cy="101.197" r="25.856"/>
<path style="fill:#DD3800;" d="M169.8,81.234c13.276,0,24.09,10.04,25.569,22.917c0.113-0.983,0.297-1.94,0.297-2.954
	c0-14.285-11.581-25.871-25.871-25.871c-14.285,0-25.871,11.581-25.871,25.871c0,1.014,0.184,1.971,0.297,2.954
	C145.71,91.274,156.524,81.234,169.8,81.234z"/>
<path style="fill:#EFB300;" d="M331.3,394.045c0-0.891-0.169-1.772-0.456-2.642l-13.123-97.516l-4.137-30.73H256h-57.585
	l-4.137,30.73c13.588,6.333,36.147,10.481,61.722,10.481v114.14c40.822,0,73.979-10.557,75.187-23.726h0.113l-0.051-0.394
	L331.3,394.045L331.3,394.045z"/>
<circle style="fill:#FBD800;" cx="342.2" cy="101.197" r="41.948"/>
<circle style="fill:#F15B00;" cx="342.2" cy="101.197" r="25.856"/>
<path style="fill:#DD3800;" d="M342.2,81.234c-13.276,0-24.09,10.04-25.569,22.917c-0.113-0.983-0.297-1.94-0.297-2.954
	c0-14.285,11.581-25.871,25.871-25.871c14.285,0,25.871,11.581,25.871,25.871c0,1.014-0.184,1.971-0.297,2.954
	C366.29,91.274,355.476,81.234,342.2,81.234z"/>
<circle style="fill:#FBD800;" cx="256" cy="179.558" r="110.316"/>
<path style="fill:#EFB300;" d="M256,69.253v220.636c60.928,0,110.315-49.393,110.315-110.316
	C366.315,118.641,316.928,69.253,256,69.253z"/>
<path style="fill:#BD221F;" d="M256,228.987c18.196,0,32.947-14.751,32.947-32.947h-65.894
	C223.053,214.236,237.804,228.987,256,228.987z"/>
<g>
	<path style="fill:#7F2221;" d="M256,261.371c-5.857,0-10.604-4.746-10.604-10.604h21.212
		C266.604,256.625,261.857,261.371,256,261.371z"/>
	<path style="fill:#7F2221;" d="M223.053,143.15c-7.823,0-14.162,6.339-14.162,14.162s6.339,14.162,14.162,14.162
		c7.823,0,14.162-6.339,14.162-14.162C237.215,149.489,230.876,143.15,223.053,143.15z M288.947,143.15
		c-7.823,0-14.162,6.339-14.162,14.162s6.339,14.162,14.162,14.162s14.162-6.339,14.162-14.162S296.771,143.15,288.947,143.15z"/>
</g>
<g>
	<circle style="fill:#FFFFFF;" cx="219.95" cy="154.675" r="5.652"/>
	<circle style="fill:#FFFFFF;" cx="285.85" cy="154.675" r="5.652"/>
</g>
<circle style="fill:#FBD800;" cx="180.685" cy="394.803" r="27.249"/>
<g>
	<circle style="fill:#EFB300;" cx="180.685" cy="394.803" r="17.582"/>
	<path style="fill:#EFB300;" d="M358.436,394.783c0,15.048-12.201,27.249-27.249,27.249c-15.048,0-27.249-12.201-27.249-27.249
		c0-15.048,12.201-27.249,27.249-27.249C346.235,367.534,358.436,379.735,358.436,394.783L358.436,394.783z"/>
</g>
<path style="fill:#E07E00;" d="M331.3,377.201c-9.708,0-17.582,7.869-17.582,17.582s7.869,17.582,17.582,17.582
	c9.708,0,17.582-7.869,17.582-17.582S341.007,377.201,331.3,377.201L331.3,377.201z"/>
<path style="fill:#FBD800;" d="M171.597,348.442c-7.301,10.404-21.652,12.923-32.056,5.622
	c-10.404-7.301-12.923-21.652-5.622-32.056c7.301-10.404,62.577-49.132,62.577-49.132S178.898,338.038,171.597,348.442z"/>
<g>
	<circle style="fill:#EFB300;" cx="151.235" cy="337.398" r="13.01"/>
	<path style="fill:#EFB300;" d="M340.403,348.442c7.301,10.404,21.652,12.923,32.056,5.622c10.404-7.301,12.923-21.652,5.622-32.056
		c-7.301-10.404-62.577-49.132-62.577-49.132S333.102,338.038,340.403,348.442L340.403,348.442z"/>
</g>
<path style="fill:#E07E00;" d="M360.755,324.388c-2.58,0-5.187,0.768-7.46,2.36c-5.883,4.127-7.306,12.237-3.18,18.12
	c2.529,3.61,6.564,5.54,10.66,5.54c2.58,0,5.187-0.768,7.46-2.36c5.883-4.127,7.306-12.237,3.18-18.12
	C368.881,326.318,364.851,324.388,360.755,324.388L360.755,324.388z"/>
</svg>