<?xml version="1.0" encoding="iso-8859-1"?>
<!-- Uploaded to: SVG Repo, www.svgrepo.com, Generator: SVG Repo Mixer Tools -->
<svg height="800px" width="800px" version="1.1" id="Layer_1" xmlns="http://www.w3.org/2000/svg" xmlns:xlink="http://www.w3.org/1999/xlink" 
	 viewBox="0 0 512 512" xml:space="preserve">
<g>
	<polygon style="fill:#4D4D4D;" points="98.036,486.711 54.476,486.711 54.476,443.445 98.036,444.904 	"/>
	<polygon style="fill:#4D4D4D;" points="457.524,486.711 413.977,486.711 413.977,444.904 457.524,443.445 	"/>
	<path style="fill:#4D4D4D;" d="M330.306,25.289H181.694c-4.045,0-7.323,3.278-7.323,7.335V39V51.57v39.416h17.058V51.57h129.154
		v39.416h17.058V51.57V39v-6.376C337.641,28.566,334.352,25.289,330.306,25.289z"/>
</g>
<path style="fill:#3A88D6;" d="M512,108.179v320.596c0,16.181-13.11,29.291-29.279,29.291h-25.197H54.476H29.279
	C13.11,458.066,0,444.955,0,428.775V108.179C0,92.01,13.11,78.9,29.279,78.9h145.092h163.271h145.079
	C498.89,78.9,512,92.01,512,108.179z"/>
<polygon style="fill:#808080;" points="162.138,189.778 162.138,189.863 41.512,189.863 41.512,120.412 162.138,120.412 "/>
<polygon style="fill:#999999;" points="470.488,120.412 470.488,189.863 162.138,189.863 162.138,189.778 162.138,120.412 "/>
<polygon style="fill:#4D4D4D;" points="470.488,189.863 470.488,416.541 41.512,416.541 41.512,189.863 162.138,189.863 "/>
<g>
	<path style="fill:#CC582F;" d="M200.981,156.879c1.686,8.086,12.8,9.977,16.908,2.724c1.875-3.309,1.473-7.54-0.994-10.444
		c-2.416-2.845-6.447-3.904-9.956-2.682C202.662,147.968,200.152,152.446,200.981,156.879
		C201.103,157.464,200.872,156.294,200.981,156.879z"/>
	<path style="fill:#CC582F;" d="M241.958,158.586c3.019,7.311,13.633,7.375,16.803,0.166c1.624-3.694,0.558-8.162-2.568-10.72
		c-2.863-2.342-6.923-2.705-10.169-0.954C241.993,149.253,240.171,154.355,241.958,158.586
		C242.189,159.146,241.726,158.038,241.958,158.586z"/>
	<path style="fill:#CC582F;" d="M282.41,158.598c1.603,3.798,5.676,6.17,9.782,5.539c3.791-0.584,6.851-3.501,7.618-7.257
		c0.731-3.586-0.85-7.353-3.887-9.382c-3.61-2.413-8.449-1.87-11.539,1.133C281.827,151.259,281.002,155.189,282.41,158.598
		C282.641,159.146,282.178,158.038,282.41,158.598z"/>
	<path style="fill:#CC582F;" d="M326.225,162.691c5.914,3.893,14.063-0.291,14.216-7.402c0.174-8.132-9.855-12.24-15.605-6.659
		C320.911,152.674,321.447,159.546,326.225,162.691z"/>
	<path style="fill:#CC582F;" d="M363.314,158.598c1.63,3.861,5.79,6.219,9.947,5.513c3.717-0.631,6.698-3.543,7.451-7.233
		c0.787-3.859-1.128-7.932-4.586-9.801c-3.558-1.923-7.947-1.255-10.838,1.552C362.733,151.259,361.907,155.19,363.314,158.598
		C363.545,159.146,363.082,158.038,363.314,158.598z"/>
	<path style="fill:#CC582F;" d="M403.766,158.598c1.578,3.738,5.524,6.084,9.574,5.569c3.873-0.492,7.045-3.468,7.825-7.287
		c0.815-3.994-1.266-8.184-4.918-9.972c-3.513-1.719-7.715-0.989-10.508,1.723C403.187,151.259,402.355,155.19,403.766,158.598
		C403.998,159.146,403.535,158.038,403.766,158.598z"/>
</g>
<path style="fill:#F7B239;" d="M83.228,164.235h40.208c5.047,0,9.138-4.092,9.138-9.138c0-5.047-4.092-9.138-9.138-9.138H83.228
	c-5.047,0-9.138,4.092-9.138,9.138C74.09,160.143,78.181,164.235,83.228,164.235z"/>
<g>
	<path style="fill:#B3B3B3;" d="M438.768,218.412H73.237c-5.047,0-9.138,4.092-9.138,9.138s4.092,9.138,9.138,9.138h365.532
		c5.047,0,9.138-4.092,9.138-9.138S443.815,218.412,438.768,218.412z"/>
	<path style="fill:#B3B3B3;" d="M438.768,255.575H382.72c-5.047,0-9.138,4.092-9.138,9.138c0,5.047,4.092,9.138,9.138,9.138h56.048
		c5.047,0,9.138-4.092,9.138-9.138C447.906,259.666,443.815,255.575,438.768,255.575z"/>
	<path style="fill:#B3B3B3;" d="M73.237,273.851h269.275c5.047,0,9.138-4.092,9.138-9.138c0-5.047-4.092-9.138-9.138-9.138H73.237
		c-5.047,0-9.138,4.092-9.138,9.138C64.098,269.76,68.189,273.851,73.237,273.851z"/>
	<path style="fill:#B3B3B3;" d="M438.768,292.737H73.237c-5.047,0-9.138,4.092-9.138,9.138c0,5.047,4.092,9.138,9.138,9.138h365.532
		c5.047,0,9.138-4.092,9.138-9.138C447.906,296.829,443.815,292.737,438.768,292.737z"/>
	<path style="fill:#B3B3B3;" d="M438.768,329.9H199.954c-5.047,0-9.138,4.091-9.138,9.138s4.092,9.138,9.138,9.138h238.814
		c5.047,0,9.138-4.091,9.138-9.138S443.815,329.9,438.768,329.9z"/>
	<path style="fill:#B3B3B3;" d="M73.237,348.176h86.509c5.047,0,9.138-4.091,9.138-9.138s-4.092-9.138-9.138-9.138H73.237
		c-5.047,0-9.138,4.091-9.138,9.138S68.189,348.176,73.237,348.176z"/>
	<path style="fill:#B3B3B3;" d="M438.768,367.062h-21.932c-5.047,0-9.138,4.092-9.138,9.138c0,5.047,4.092,9.138,9.138,9.138h21.932
		c5.047,0,9.138-4.092,9.138-9.138C447.906,371.153,443.815,367.062,438.768,367.062z"/>
	<path style="fill:#B3B3B3;" d="M386.375,367.062H73.237c-5.047,0-9.138,4.092-9.138,9.138c0,5.047,4.092,9.138,9.138,9.138h313.139
		c5.047,0,9.138-4.092,9.138-9.138C395.514,371.153,391.422,367.062,386.375,367.062z"/>
</g>
</svg>