<?xml version="1.0" encoding="utf-8"?><!-- Uploaded to: SVG Repo, www.svgrepo.com, Generator: SVG Repo Mixer Tools -->
<svg fill="#000000" width="800px" height="800px" viewBox="0 0 24 24" id="cctv-camera" data-name="Flat Line" xmlns="http://www.w3.org/2000/svg" class="icon flat-line"><path id="secondary" d="M12,3a6,6,0,1,0,6,6A6,6,0,0,0,12,3Zm0,8a2,2,0,1,1,2-2A2,2,0,0,1,12,11Z" style="fill: rgb(44, 169, 188); stroke-width: 2;"></path><path id="primary" d="M16.17,13.3A15.92,15.92,0,0,1,18,21H6a15.92,15.92,0,0,1,1.83-7.7,6,6,0,0,0,8.34,0Z" style="fill: none; stroke: rgb(0, 0, 0); stroke-linecap: round; stroke-linejoin: round; stroke-width: 2;"></path><path id="primary-2" data-name="primary" d="M12,15a6,6,0,1,1,6-6A6,6,0,0,1,12,15Zm0-8a2,2,0,1,0,2,2A2,2,0,0,0,12,7ZM4,21H20" style="fill: none; stroke: rgb(0, 0, 0); stroke-linecap: round; stroke-linejoin: round; stroke-width: 2;"></path></svg>