<?xml version="1.0" encoding="iso-8859-1"?>
<!-- Uploaded to: SVG Repo, www.svgrepo.com, Generator: SVG Repo Mixer Tools -->
<svg version="1.1" id="Layer_1" xmlns="http://www.w3.org/2000/svg" xmlns:xlink="http://www.w3.org/1999/xlink" 
	 viewBox="0 0 512 512" xml:space="preserve">
<g>
	<rect x="447.339" y="41.741" style="fill:#2B292C;" width="64.661" height="31.282"/>
	<rect x="447.339" y="106.392" style="fill:#2B292C;" width="64.661" height="31.282"/>
</g>
<rect x="15.203" y="123.222" style="fill:#DFDFE2;" width="110.709" height="94.671"/>
<rect x="370.259" y="1.026" style="fill:#3E3D43;" width="88.583" height="178.352"/>
<path style="fill:#2B292C;" d="M272.191,231.472v207.686c0,22.35-18.183,40.533-40.533,40.533H115.424
	c-16.494,0-29.914-13.419-29.914-29.914V265.58H54.227v184.197c0,33.744,27.452,61.197,61.197,61.197h116.234
	c39.599,0,71.815-32.217,71.815-71.815V231.472H272.191z"/>
<rect y="186.61" style="fill:#57565C;" width="141.115" height="107.372"/>
<rect x="70.208" y="123.211" style="fill:#D7D6D9;" width="55.704" height="94.682"/>
<rect x="70.208" y="186.61" style="fill:#3E3D43;" width="70.907" height="107.372"/>
<rect x="51.922" y="146.798" style="fill:#57565C;" width="15.347" height="13.243"/>
<rect x="73.846" y="146.798" style="fill:#3E3D43;" width="15.347" height="13.243"/>
<rect x="205.411" y="1.067" style="fill:#57565C;" width="164.848" height="239.884"/>
</svg>