<?xml version="1.0" encoding="iso-8859-1"?>

<!DOCTYPE svg PUBLIC "-//W3C//DTD SVG 1.1//EN" "http://www.w3.org/Graphics/SVG/1.1/DTD/svg11.dtd">
<!-- Uploaded to: SVG Repo, www.svgrepo.com, Generator: SVG Repo Mixer Tools -->
<svg version="1.1" id="_x36_" xmlns="http://www.w3.org/2000/svg" xmlns:xlink="http://www.w3.org/1999/xlink" 
	 viewBox="0 0 512 512"  xml:space="preserve">
<g>
	<g>
		<g>
			<path style="fill:#F9E8D4;" d="M270.079,249.811v155.544c0,7.346-0.748,14.488-2.177,21.424
				c-0.68,3.469-1.564,6.869-2.653,10.202c-0.408,1.293-0.816,2.516-1.292,3.808c-0.34,1.021-0.68,1.973-1.088,2.925
				c-0.34,1.02-0.749,2.041-1.224,3.061c-0.476,1.088-0.952,2.244-1.497,3.333c-0.136,0.272-0.204,0.544-0.408,0.816
				c-0.68,1.36-1.292,2.721-2.04,4.012c-0.68,1.36-1.36,2.653-2.176,3.945c-0.68,1.156-1.36,2.311-2.108,3.401
				c-0.884,1.428-1.768,2.856-2.856,4.216c-0.476,0.885-1.089,1.7-1.768,2.517c-1.02,1.36-2.04,2.72-3.129,4.08
				c-2.176,2.653-4.489,5.169-6.937,7.55c-2.381,2.448-4.965,4.761-7.55,6.938c-7.957,6.529-16.799,11.902-26.321,15.983
				c-3.196,1.36-6.461,2.585-9.794,3.604c-1.7,0.545-3.333,1.021-5.033,1.429c-1.836,0.476-3.741,0.952-5.713,1.293
				c-2.176,0.476-4.489,0.815-6.734,1.156c-0.068,0-0.068,0-0.136,0c-2.313,0.34-4.625,0.545-6.937,0.68
				c-2.313,0.204-4.693,0.272-7.073,0.272h-56.859c-2.04,0-4.012-0.068-5.985-0.204c-0.952,0-1.836-0.068-2.72-0.203
				c-1.224-0.068-2.448-0.136-3.605-0.34c-0.884-0.068-1.768-0.204-2.652-0.34c-1.429-0.136-2.789-0.408-4.149-0.68
				c-0.68-0.068-1.428-0.271-2.176-0.408c-1.564-0.272-3.128-0.681-4.693-1.089c-1.496-0.34-2.993-0.748-4.421-1.225
				c-1.292-0.34-2.516-0.748-3.809-1.224c-3.877-1.293-7.685-2.857-11.358-4.625c-0.34-0.136-0.748-0.271-1.088-0.476
				c-1.632-0.817-3.196-1.632-4.761-2.517c-1.36-0.747-2.72-1.564-4.013-2.379c-1.02-0.613-1.973-1.225-2.993-1.905
				c-0.068,0-0.136-0.068-0.204-0.136c-2.448-1.564-4.829-3.264-7.073-5.101c-0.272-0.204-0.476-0.34-0.68-0.613
				c-0.817-0.544-1.565-1.224-2.313-1.836c-4.489-3.74-8.57-7.889-12.31-12.31c-1.36-1.564-2.653-3.196-3.945-4.897
				c-1.496-1.973-2.924-4.013-4.285-6.053c-2.38-3.605-4.557-7.413-6.461-11.29C3.945,438.002,0,422.086,0,405.356V252.191
				c0-37.271,15.167-71.141,39.652-95.83c3.061-3.06,6.257-5.985,9.59-8.773c17.752-14.827,39.312-25.233,62.98-29.45
				c1.836-0.34,3.741-0.612,5.645-0.816c2.924-0.408,5.849-0.748,8.841-0.952c0.204-0.068,0.34-0.068,0.476-0.068h0.204
				c0.204-0.068,0.408-0.068,0.68-0.068l6.937-0.271h1.224c2.176,0,4.421,0.067,6.597,0.203c10.474,0.477,20.608,2.245,30.334,5.101
				c11.086,3.129,21.628,7.754,31.354,13.602c0.068,0.068,0.204,0.136,0.272,0.204c0.612,0.272,1.156,0.613,1.7,0.952
				c11.426,7.142,21.696,15.915,30.538,25.98c1.632,1.837,3.196,3.741,4.692,5.714c0.34,0.408,0.748,0.884,1.02,1.36
				c1.564,1.973,2.993,4.013,4.353,6.053c0.884,1.225,1.7,2.448,2.448,3.741c0.204,0.271,0.34,0.476,0.476,0.748
				c1.156,1.837,2.245,3.673,3.264,5.578c3.673,6.529,6.733,13.33,9.182,20.404c0.408,1.088,0.816,2.243,1.156,3.401
				c0.476,1.292,0.884,2.584,1.224,3.944c0.068,0.34,0.204,0.749,0.34,1.157c0.544,1.836,1.02,3.672,1.428,5.441
				c0.408,1.904,0.816,3.808,1.156,5.713c0.748,3.673,1.224,7.346,1.632,11.086c0.136,1.089,0.204,2.176,0.272,3.265
				c0.136,1.088,0.204,2.176,0.204,3.333C270.011,245.253,270.079,247.498,270.079,249.811z"/>
			<g>
				<path style="fill:#EBCDA8;" d="M149.832,162.278v1.836h-15.371c0-8.91-0.816-17.547-2.313-26.049
					c-0.068-0.476-0.136-0.884-0.204-1.361c-0.408-2.312-0.884-4.556-1.497-6.801c-1.02-4.624-2.312-9.113-3.741-13.534v-0.068
					c-0.408-1.224-0.816-2.38-1.224-3.537l-0.068-0.068c-0.408-1.224-0.816-2.379-1.292-3.536
					c-6.393-16.391-15.575-31.49-26.865-44.549C77.67,42.168,51.69,25.505,22.104,17.547c-1.768-0.476-3.537-0.883-5.305-1.292
					c-0.884-0.204-1.768-0.408-2.721-0.612c-0.748-0.204-1.428-0.34-2.177-0.476L14.691,0c4.013,0.816,7.889,1.632,11.766,2.789
					c0.136,0,0.272,0,0.408,0.068c2.584,0.68,5.101,1.496,7.617,2.312c4.489,1.429,8.91,3.061,13.263,4.898
					C67.673,18.5,85.56,30.538,100.863,45.84c6.529,6.53,12.446,13.467,17.683,20.88c7.277,9.998,13.331,20.812,18.16,32.306
					c1.428,3.333,2.72,6.598,3.741,9.998c0.068,0.068,0.068,0.068,0.068,0.068c0.816,2.312,1.564,4.693,2.312,7.073
					c3.197,10.542,5.305,21.357,6.257,32.374c0.204,2.313,0.34,4.625,0.476,6.937C149.696,157.722,149.764,159.966,149.832,162.278z
					"/>
			</g>
			<g>
				<path style="fill:#CEBCA7;" d="M142.827,116.165c-2.176-0.136-4.421-0.203-6.597-0.203h-1.224l-6.937,0.271
					c-0.272,0-0.476,0-0.68,0.068h-0.748c-0.408-1.156-0.816-2.38-1.156-3.537l-0.068-0.068c-0.476-1.156-0.884-2.379-1.36-3.536
					c0,0,0,0,0.068,0c0.34-0.204,3.673-1.565,8.23-2.109c5.237-0.612,7.617,1.497,8.094,1.973c0.068,0.068,0.068,0.068,0.068,0.068
					C141.331,111.405,142.079,113.786,142.827,116.165z"/>
			</g>
			<path style="fill:#F9E8D4;" d="M270.079,249.811v155.544c0,7.346-0.748,14.488-2.177,21.424
				c-0.68,3.469-1.564,6.869-2.653,10.202c-0.408,1.293-0.816,2.516-1.292,3.808c-0.34,1.021-0.68,1.973-1.088,2.925
				c-0.34,1.02-0.749,2.041-1.224,3.061c-0.476,1.088-0.952,2.244-1.497,3.333c-0.136,0.272-0.204,0.544-0.408,0.816
				c-0.68,1.36-1.292,2.721-2.04,4.012c-0.68,1.36-1.36,2.653-2.176,3.945c-0.68,1.156-1.36,2.311-2.108,3.401
				c-0.884,1.428-1.768,2.856-2.856,4.216c-0.476,0.885-1.089,1.7-1.768,2.517c-1.02,1.36-2.04,2.72-3.129,4.08
				c-2.176,2.653-4.489,5.169-6.937,7.55c-2.381,2.448-4.965,4.761-7.55,6.938c-7.957,6.529-16.799,11.902-26.321,15.983
				c-3.196,1.36-6.461,2.585-9.794,3.604c-1.7,0.545-3.333,1.021-5.033,1.429c-1.836,0.476-3.741,0.952-5.713,1.293
				c-2.176,0.476-4.489,0.815-6.734,1.156c-0.068,0-0.068,0-0.136,0c-2.313,0.34-4.625,0.545-6.937,0.68
				c-2.313,0.204-4.693,0.272-7.073,0.272h-56.859c-2.04,0-4.012-0.068-5.985-0.204c-0.952,0-1.836-0.068-2.72-0.203
				c-1.224-0.068-2.448-0.136-3.605-0.34c-0.884-0.068-1.768-0.204-2.652-0.34c-1.429-0.136-2.789-0.408-4.149-0.68
				c-0.68-0.068-1.428-0.271-2.176-0.408c-1.564-0.272-3.128-0.681-4.693-1.089c-1.496-0.34-2.993-0.748-4.421-1.225
				c-1.292-0.34-2.516-0.748-3.809-1.224c-3.877-1.293-7.685-2.857-11.358-4.625c-0.34-0.136-0.748-0.271-1.088-0.476
				c-1.632-0.817-3.196-1.632-4.761-2.517c-1.36-0.747-2.72-1.564-4.013-2.379c-1.02-0.613-1.973-1.225-2.993-1.905
				c-0.068,0-0.136-0.068-0.204-0.136c-2.448-1.564-4.829-3.264-7.073-5.101c-0.272-0.204-0.476-0.34-0.68-0.613
				c-0.817-0.544-1.565-1.224-2.313-1.836c-4.489-3.74-8.57-7.889-12.31-12.31c-1.36-1.564-2.653-3.196-3.945-4.897
				c-1.496-1.973-2.924-4.013-4.285-6.053c-2.38-3.605-4.557-7.413-6.461-11.29C3.945,438.002,0,422.086,0,405.356V252.191
				c0-37.271,15.167-71.141,39.652-95.83c3.061-3.06,6.257-5.985,9.59-8.773c17.752-14.827,39.312-25.233,62.98-29.45
				c1.836-0.34,3.741-0.612,5.645-0.816c2.924-0.408,5.849-0.748,8.841-0.952c0.204-0.068,0.34-0.068,0.476-0.068h0.204
				c0.204-0.068,0.408-0.068,0.68-0.068l6.937-0.271h1.224c2.176,0,4.421,0.067,6.597,0.203c10.474,0.477,20.608,2.245,30.334,5.101
				c11.086,3.129,21.628,7.754,31.354,13.602c0.068,0.068,0.204,0.136,0.272,0.204c0.612,0.272,1.156,0.613,1.7,0.952
				c11.426,7.142,21.696,15.915,30.538,25.98c1.632,1.837,3.196,3.741,4.692,5.714c0.34,0.408,0.748,0.884,1.02,1.36
				c1.564,1.973,2.993,4.013,4.353,6.053c0.884,1.225,1.7,2.448,2.448,3.741c0.204,0.271,0.34,0.476,0.476,0.748
				c1.156,1.837,2.245,3.673,3.264,5.578c3.673,6.529,6.733,13.33,9.182,20.404c0.408,1.088,0.816,2.243,1.156,3.401
				c0.476,1.292,0.884,2.584,1.224,3.944c0.068,0.34,0.204,0.749,0.34,1.157c0.544,1.836,1.02,3.672,1.428,5.441
				c0.408,1.904,0.816,3.808,1.156,5.713c0.748,3.673,1.224,7.346,1.632,11.086c0.136,1.089,0.204,2.176,0.272,3.265
				c0.136,1.088,0.204,2.176,0.204,3.333C270.011,245.253,270.079,247.498,270.079,249.811z"/>
			<path style="fill:#585B61;" d="M135.033,298.188L135.033,298.188c-7.737,0-14.067-6.33-14.067-14.067v-51.826
				c0-7.737,6.33-14.067,14.067-14.067h0c7.737,0,14.067,6.33,14.067,14.067v51.826C149.1,291.858,142.77,298.188,135.033,298.188z"
				/>
		</g>
		<path style="fill:#F1D9BC;" d="M270.076,249.801v155.544c0,58.628-48.017,106.644-106.644,106.644h-56.858
			c-37.271,0-70.189-19.383-89.233-48.561c112.425-59.852,195.129-170.1,219.681-301.432
			C257.561,185.529,270.076,216.27,270.076,249.801z"/>
	</g>
	<rect x="131.94" y="125.212" style="fill:#DCA27B;" width="6.186" height="88.416"/>
</g>
</svg>