<?xml version="1.0" encoding="iso-8859-1"?>
<!-- Uploaded to: SVG Repo, www.svgrepo.com, Generator: SVG Repo Mixer Tools -->
<svg version="1.1" id="Layer_1" xmlns="http://www.w3.org/2000/svg" xmlns:xlink="http://www.w3.org/1999/xlink" 
	 viewBox="0 0 520.646 520.646" xml:space="preserve">
<path style="fill:#547475;" d="M168.127,511.998h227v0.001h79.337c17.339,0,32.215-10.542,38.569-25.566
	c2.119-5.008,3.289-10.514,3.289-16.294V366.807h-0.001V121.196h0.001V41.859c0-12.56-5.541-23.821-14.3-31.492
	c-5.853-5.125-13.138-8.653-21.184-9.884c-0.104-0.015-0.209-0.024-0.31-0.04C478.547,0.156,476.524,0,474.464,0h-79.337H149.514
	H46.183h-0.001C23.064,0,4.323,18.74,4.323,41.859v79.337h0.001v245.612H4.323V470.14c0,13.003,5.929,24.622,15.234,32.3
	c0.349,0.289,0.71,0.564,1.071,0.842c0.17,0.133,0.337,0.271,0.509,0.401C28.122,508.906,36.792,512,46.183,512h96.537"/>
<g style="opacity:0.15;">
	<path style="fill:#231F20;" d="M37.919,503.281c-0.36-0.277-0.721-0.553-1.071-0.842c-9.304-7.678-15.234-19.297-15.234-32.3
		V366.808h0.001V121.196h-0.001V41.859C21.614,18.74,40.354,0,63.473,0H46.183h-0.001C23.064,0,4.323,18.74,4.323,41.859v79.337
		h0.001v245.612H4.323V470.14c0,13.003,5.929,24.622,15.234,32.3c0.349,0.289,0.71,0.564,1.071,0.842
		c0.17,0.133,0.337,0.271,0.509,0.401C28.122,508.906,36.792,512,46.183,512h17.29c-9.391,0-18.061-3.094-25.046-8.318
		C38.256,503.552,38.089,503.413,37.919,503.281z"/>
	<rect x="403.769" y="503.355" style="fill:#231F20;" width="0" height="17.29"/>
</g>
<circle style="fill:#53CAF9;" cx="260.326" cy="254.058" r="12.335"/>
<path style="fill:#B4CCCB;" d="M227.126,233.558c7.547-12.235,20.84-18.889,34.353-18.5c6.34-7.373,11.763-15.552,16.135-24.344
	c-1.858-38.483-22.576-75.256-58.344-96.035c-36.288,9.799-67.665,31.681-89.517,61.055c15.492,1.782,30.886,6.675,45.253,14.97
	C200.338,185.328,218.159,207.961,227.126,233.558z"/>
<path style="fill:#8AACAD;" d="M145.476,286.267c25.333-14.626,53.843-18.743,80.494-13.71c-6.823-12.653-5.938-27.492,1.155-39.001
	c-3.215-9.177-7.587-17.962-13.017-26.145c-33.726-17.359-75.152-18.048-110.664,1.578c-4.074,14.331-6.254,29.45-6.254,45.069
	c0,22.588,4.565,44.128,12.813,63.753C119.276,305.354,131.17,294.527,145.476,286.267z"/>
<path style="fill:#B4CCCB;" d="M259.168,293.058c-14.369-0.419-26.778-8.604-33.199-20.501c-9.555-1.805-19.35-2.411-29.152-1.801
	c-32.033,20.616-53.39,56.367-53.973,97.154c25.488,26.721,59.827,44.929,98.262,49.867c-6.614-14.698-10.314-30.992-10.314-48.156
	C230.793,340.373,241.483,313.623,259.168,293.058z"/>
<path style="fill:#8AACAD;" d="M345.639,337.415c-25.332-14.625-43.151-37.258-52.119-62.855
	c-7.547,12.235-20.841,18.889-34.353,18.5c-6.34,7.373-11.763,15.552-16.135,24.344c1.863,38.583,22.68,75.451,58.619,96.2
	c0.315,0.182,0.633,0.356,0.95,0.532c14.31-3.608,27.88-9.09,40.439-16.167c19.192-11.247,36.317-26.483,49.972-45.353
	C376.806,351.051,360.663,346.088,345.639,337.415z"/>
<path style="fill:#B4CCCB;" d="M421.057,296.91c9.085-35.24,6.634-73.474-9.036-108.486c-9.46,13.254-21.83,24.753-36.853,33.426
	c-25.332,14.625-53.842,18.742-80.493,13.709c6.823,12.653,5.938,27.492-1.155,39.001c3.216,9.177,7.587,17.962,13.017,26.145
	c34.345,17.678,76.681,18.083,112.621-2.665C419.798,297.67,420.428,297.29,421.057,296.91z"/>
<path style="fill:#8AACAD;" d="M323.828,237.36c32.482-20.905,54.002-57.366,54.002-98.865c0-0.739-0.014-1.475-0.028-2.21
	c-25.977-25.488-60.313-42.482-98.47-46.419c6.748,14.82,10.521,31.281,10.521,48.629c0,29.25-10.69,56-28.375,76.564
	c14.369,0.419,26.778,8.604,33.199,20.501C304.232,237.363,314.027,237.97,323.828,237.36z"/>
<path style="fill:#53CAF9;" d="M443.823,161.673l-12.49-21.167l-0.181-0.285c-38.06-56.289-101.196-89.895-168.888-89.895
	c-112.34,0-203.735,91.395-203.735,203.733c0,112.339,91.395,203.733,203.734,203.733s203.735-91.394,203.735-203.733
	C465.998,221.56,458.536,190.476,443.823,161.673z M262.264,413.608c-87.977,0-159.55-71.574-159.55-159.549
	c0-87.976,71.574-159.548,159.55-159.548s159.55,71.573,159.55,159.547C421.814,342.034,350.24,413.608,262.264,413.608z"/>
<g>
	<circle style="fill:#8AACAD;" cx="457.011" cy="58.176" r="25.775"/>
	<circle style="fill:#8AACAD;" cx="457.011" cy="453.505" r="25.775"/>
	<circle style="fill:#8AACAD;" cx="65.231" cy="58.176" r="25.775"/>
	<circle style="fill:#8AACAD;" cx="65.231" cy="453.505" r="25.775"/>
</g>
<path style="opacity:0.15;fill:#231F20;enable-background:new    ;" d="M120.753,254.042c0-85.082,66.607-154.6,150.522-159.273
	c-2.984-0.166-5.986-0.258-9.01-0.258c-88.107,0-159.532,71.425-159.532,159.532s71.425,159.532,159.532,159.532
	c3.024,0,6.027-0.092,9.01-0.258C187.36,408.641,120.753,339.123,120.753,254.042z"/>
</svg>