<?xml version="1.0" encoding="iso-8859-1"?>
<!-- Uploaded to: SVG Repo, www.svgrepo.com, Generator: SVG Repo Mixer Tools -->
<svg height="800px" width="800px" version="1.1" id="Layer_1" xmlns="http://www.w3.org/2000/svg" xmlns:xlink="http://www.w3.org/1999/xlink" 
	 viewBox="0 0 511.93 511.93" xml:space="preserve">
<g transform="translate(-1)">
	<path style="fill:#B0B6BB;" d="M477.4,315.415c-15.1,48.6-18.4,133.5-17.4,150.6v9.3c0,9.7,7.9,17.7,17.6,17.7
		c9.8,0,17.7-7.9,17.7-17.7C496,407.615,485.2,344.115,477.4,315.415 M477.6,510.715c-19.5,0-35.3-15.8-35.3-35.3v-8.8
		c-1.2-20.5,2.8-112.2,20-162c1.1-3.2,4-5.5,7.4-5.9c2.2-0.2,4.3-1.3,5.7-3c2-2.4,5.1-3.5,8.2-3s5.6,2.6,6.8,5.5
		c8,20.9,23.3,96.6,22.5,177.3C513,494.815,497.1,510.715,477.6,510.715"/>
	<path style="fill:#38454F;" d="M477.7,319.015h-459c-9.8,0-17.7-7.9-17.7-17.7v-247.1c0-9.8,7.9-17.7,17.7-17.7h459
		c9.8,0,17.7,7.9,17.7,17.7v247.2C495.3,311.115,487.4,319.015,477.7,319.015"/>
	<path style="fill:#283238;" d="M451.2,36.515h-70.6v-17.6c0-9.8,7.9-17.7,17.7-17.7h35.3c9.8,0,17.7,7.9,17.7,17.7v17.6H451.2z"/>
	<path style="fill:#50508A;" d="M239.3,230.715H45.1c-4.9,0-8.8-4-8.8-8.8v-141.3c0-4.9,4-8.8,8.8-8.8h194.2c4.9,0,8.8,4,8.8,8.8
		v141.2C248.1,226.815,244.2,230.715,239.3,230.715"/>
	<g>
		<path style="fill:#283238;" d="M239.3,237.715H45.1c-8.7,0-15.8-7.1-15.8-15.8v-141.3c0-8.7,7.1-15.8,15.8-15.8h194.2
			c8.7,0,15.8,7.1,15.8,15.8v141.2C255.1,230.615,248,237.715,239.3,237.715z M45.1,78.815c-1,0-1.8,0.8-1.8,1.8v141.2
			c0,1,0.8,1.8,1.8,1.8h194.2c1,0,1.8-0.8,1.8-1.8v-141.2c0-1-0.8-1.8-1.8-1.8H45.1z"/>
		<path style="fill:#283238;" d="M415.9,107.115c-4.9,0-8.8-3.9-8.8-8.8v-8.8c0-4.9,3.9-8.8,8.8-8.8s8.8,3.9,8.8,8.8v8.8
			C424.7,103.215,420.7,107.115,415.9,107.115"/>
		<path style="fill:#283238;" d="M415.9,168.915c-4.9,0-8.8-3.9-8.8-8.8v-8.8c0-4.9,3.9-8.8,8.8-8.8s8.8,3.9,8.8,8.8v8.8
			C424.7,165.015,420.7,168.915,415.9,168.915"/>
		<path style="fill:#283238;" d="M434.6,114.915c-2.3,0-4.5-0.9-6.2-2.6c-3.4-3.5-3.4-9,0-12.5l6.2-6.2c3.5-3.4,9-3.4,12.5,0
			c3.4,3.5,3.4,9,0,12.5l-6.2,6.2C439.1,114.015,436.8,114.915,434.6,114.915"/>
		<path style="fill:#283238;" d="M390.9,158.615c-2.3,0-4.5-0.9-6.2-2.6c-3.5-3.5-3.5-9,0-12.5l6.2-6.2c3.5-3.5,9-3.5,12.5,0
			s3.5,9,0,12.5l-6.2,6.2C395.4,157.715,393.2,158.615,390.9,158.615"/>
		<path style="fill:#283238;" d="M397.1,114.915c-2.3,0-4.5-0.9-6.2-2.6l-6.2-6.2c-3.5-3.5-3.5-9,0-12.5s9-3.5,12.5,0l6.2,6.2
			c3.5,3.5,3.5,9,0,12.5C401.7,114.015,399.4,114.915,397.1,114.915"/>
		<path style="fill:#283238;" d="M440.8,158.615c-2.3,0-4.5-0.9-6.2-2.6l-6.2-6.2c-3.5-3.5-3.5-9,0-12.5s9-3.5,12.5,0l6.2,6.2
			c3.5,3.5,3.5,9,0,12.5C445.4,157.715,443.1,158.615,440.8,158.615"/>
		<path style="fill:#283238;" d="M336.4,177.815h-35.3c-4.9,0-8.8-4-8.8-8.8v-17.7c0-4.9,4-8.8,8.8-8.8h35.3c4.9,0,8.8,4,8.8,8.8
			v17.7C345.2,173.815,341.3,177.815,336.4,177.815"/>
		<path style="fill:#283238;" d="M336.4,107.115h-35.3c-4.9,0-8.8-4-8.8-8.8v-17.7c0-4.9,4-8.8,8.8-8.8h35.3c4.9,0,8.8,4,8.8,8.8
			v17.7C345.2,103.215,341.3,107.115,336.4,107.115"/>
		<path style="fill:#283238;" d="M345.2,239.515h-44.1c-4.9,0-8.8-3.9-8.8-8.8s3.9-8.8,8.8-8.8h44.1c4.9,0,8.8,3.9,8.8,8.8
			S350.1,239.515,345.2,239.515"/>
		<path style="fill:#283238;" d="M301.1,239.515c-2.3,0-4.5-0.9-6.2-2.6c-3.5-3.5-3.5-9,0-12.5l17.7-17.7c3.5-3.5,9-3.5,12.5,0
			s3.5,9,0,12.5l-17.7,17.7C305.6,238.715,303.4,239.515,301.1,239.515"/>
		<path style="fill:#283238;" d="M318.8,257.215c-2.3,0-4.5-0.9-6.2-2.6l-17.7-17.7c-3.5-3.5-3.5-9,0-12.5s9-3.5,12.5,0l17.7,17.7
			c3.5,3.5,3.5,9,0,12.5C323.3,256.315,321,257.215,318.8,257.215"/>
		<path style="fill:#283238;" d="M451.2,239.515H407c-4.9,0-8.8-3.9-8.8-8.8s3.9-8.8,8.8-8.8h44.1c4.9,0,8.8,3.9,8.8,8.8
			S456.1,239.515,451.2,239.515"/>
		<path style="fill:#283238;" d="M433.5,257.215c-2.3,0-4.5-0.9-6.2-2.6c-3.5-3.5-3.5-9,0-12.5l17.7-17.7c3.5-3.5,9-3.5,12.5,0
			s3.5,9,0,12.5l-17.7,17.7C438,256.315,435.8,257.215,433.5,257.215"/>
		<path style="fill:#283238;" d="M451.2,239.515c-2.3,0-4.5-0.9-6.2-2.6l-17.7-17.7c-3.5-3.5-3.5-9,0-12.5s9-3.5,12.5,0l17.7,17.7
			c3.5,3.5,3.5,9,0,12.5C455.7,238.715,453.4,239.515,451.2,239.515"/>
		<path style="fill:#283238;" d="M451.2,133.615h-8.8c-4.9,0-8.8-3.9-8.8-8.8c0-4.9,3.9-8.8,8.8-8.8h8.8c4.9,0,8.8,3.9,8.8,8.8
			C460,129.715,456.1,133.615,451.2,133.615"/>
		<path style="fill:#283238;" d="M389.4,133.615h-8.8c-4.9,0-8.8-3.9-8.8-8.8c0-4.9,3.9-8.8,8.8-8.8h8.8c4.9,0,8.8,3.9,8.8,8.8
			C398.2,129.715,394.3,133.615,389.4,133.615"/>
	</g>
	<path style="fill:#172126;" d="M442.3,124.815c0,14.6-11.9,26.5-26.5,26.5s-26.5-11.9-26.5-26.5s11.9-26.5,26.5-26.5
		S442.3,110.215,442.3,124.815"/>
</g>
</svg>