<?xml version="1.0" encoding="iso-8859-1"?>
<!-- Uploaded to: SVG Repo, www.svgrepo.com, Generator: SVG Repo Mixer Tools -->
<svg fill="#000000" version="1.1" id="Layer_1" xmlns="http://www.w3.org/2000/svg" xmlns:xlink="http://www.w3.org/1999/xlink" 
	 viewBox="0 0 512 512" xml:space="preserve">
<g>
	<g>
		<polygon points="411.812,300.48 411.812,344.171 442.114,322.326 		"/>
	</g>
</g>
<g>
	<g>
		<path d="M278.418,239.352c54.615-10.509,96.004-58.65,96.004-116.285C374.421,57.77,321.298,4.646,256,4.646
			S137.579,57.77,137.579,123.068c0,57.635,41.389,105.776,96.004,116.285H0V398.69v31.347v77.317h87.771v-77.317h336.457v77.317
			H512v-77.317V398.69V239.352H278.418z M168.926,123.068c0-48.013,39.061-87.074,87.074-87.074s87.074,39.061,87.074,87.074
			c0,48.013-39.061,87.076-87.074,87.076S168.926,171.081,168.926,123.068z M56.424,476.008H31.347v-45.97h25.078V476.008z
			 M480.653,476.008h-25.078v-45.97h25.078V476.008z M480.653,398.691h-56.424H87.771H31.347V270.699h449.306V398.691z"/>
	</g>
</g>
<g>
	<g>
		<rect x="55.38" y="306.657" width="314.514" height="31.347"/>
	</g>
</g>
<g>
	<g>
		<rect x="148.898" y="360.02" width="22.988" height="22.988"/>
	</g>
</g>
<g>
	<g>
		<rect x="97.698" y="360.02" width="22.988" height="22.988"/>
	</g>
</g>
<g>
	<g>
		<rect x="200.62" y="360.02" width="22.988" height="22.988"/>
	</g>
</g>
<g>
	<g>
		<rect x="252.865" y="360.02" width="22.988" height="22.988"/>
	</g>
</g>
<g>
	<g>
		<rect x="304.588" y="360.02" width="22.988" height="22.988"/>
	</g>
</g>
<g>
	<g>
		<path d="M256,81.272c-23.046,0-41.796,18.75-41.796,41.796s18.75,41.796,41.796,41.796s41.796-18.75,41.796-41.796
			C297.796,100.021,279.046,81.272,256,81.272z M256,133.517c-5.762,0-10.449-4.687-10.449-10.449
			c0-5.762,4.687-10.449,10.449-10.449c5.762,0,10.449,4.687,10.449,10.449C266.449,128.829,261.762,133.517,256,133.517z"/>
	</g>
</g>
</svg>