<?xml version="1.0" ?><!-- Uploaded to: SVG Repo, www.svgrepo.com, Generator: SVG Repo Mixer Tools -->
<svg width="800px" height="800px" viewBox="0 0 24 24" fill="none" xmlns="http://www.w3.org/2000/svg"><path d="M18 10V12.3993C18 15.0219 16.2831 16 14 16C11.5 16 10 14.4223 10 12.3333V8C10 5.00859 12.9828 3.5086 15.3583 4.98719M15.3583 4.98719C14.2361 4.28718 12.9666 4 12 4C8.68629 4 6 6.68629 6 10V14C6 16 7 17 9 17H16.3509C18.9627 17 17.4004 20 15.3333 20H8.66667C7.19391 20 6 18.8061 6 17.3333V16.5M15.3583 4.98719C15.3651 4.99144 15.3719 4.99571 15.3787 5M15.3583 4.98719C15.9748 5.37181 16.547 5.88105 17 6.53577" stroke="#1A6A83" stroke-linecap="round" stroke-width="0.5"/><path d="M18 10C18 8.34315 16.8807 7 15.5 7C14.1193 7 13 8.34315 13 10C13 11.6569 14.1193 13 15.5 13C16.0628 13 16.5822 12.7768 17 12.4002" stroke="#1A6A83" stroke-linecap="round" stroke-width="0.5"/><ellipse cx="15.7083" cy="10.25" fill="#00FFB0" rx="1.25" ry="1.5"/><ellipse cx="15.5" cy="10" rx="1.25" ry="1.5" stroke="#1A6A83" stroke-linecap="round" stroke-linejoin="round" stroke-width="0.2"/></svg>