<?xml version="1.0" encoding="utf-8"?>
<!-- Uploaded to: SVG Repo, www.svgrepo.com, Generator: SVG Repo Mixer Tools -->
<svg width="800px" height="800px" viewBox="0 0 1024 1024" class="icon"  version="1.1" xmlns="http://www.w3.org/2000/svg"><path d="M917.333333 192H704l-52.202667-104.149333a42.666667 42.666667 0 0 0-38.144-23.552h-203.306666a42.666667 42.666667 0 0 0-38.144 23.552L320 192H106.666667a85.333333 85.333333 0 0 0-85.333334 85.333333v597.333334a85.333333 85.333333 0 0 0 85.333334 85.333333h810.666666a85.333333 85.333333 0 0 0 85.333334-85.333333V277.333333a85.333333 85.333333 0 0 0-85.333334-85.333333z" fill="#444444" /><path d="M149.333333 874.666667H21.333333V277.333333h128a42.666667 42.666667 0 0 1 42.666667 42.666667v512a42.666667 42.666667 0 0 1-42.666667 42.666667z" fill="#666666" /><path d="M512 576m-234.666667 0a234.666667 234.666667 0 1 0 469.333334 0 234.666667 234.666667 0 1 0-469.333334 0Z" fill="#666666" /><path d="M512 832c-141.162667 0-256-114.837333-256-256s114.837333-256 256-256 256 114.837333 256 256-114.837333 256-256 256z m0-469.333333c-117.632 0-213.333333 95.701333-213.333333 213.333333s95.701333 213.333333 213.333333 213.333333 213.333333-95.701333 213.333333-213.333333-95.701333-213.333333-213.333333-213.333333z" fill="#E6E6E6" /><path d="M512 576m-128 0a128 128 0 1 0 256 0 128 128 0 1 0-256 0Z" fill="#444444" /><path d="M576 234.666667h-128a21.333333 21.333333 0 0 1-21.333333-21.333334V149.333333a21.333333 21.333333 0 0 1 21.333333-21.333333h128a21.333333 21.333333 0 0 1 21.333333 21.333333v64a21.333333 21.333333 0 0 1-21.333333 21.333334z" fill="#76B5B5" /><path d="M917.333333 320h-128a21.333333 21.333333 0 0 1-21.333333-21.333333v-21.333334a21.333333 21.333333 0 0 1 21.333333-21.333333h128a21.333333 21.333333 0 0 1 21.333334 21.333333v21.333334a21.333333 21.333333 0 0 1-21.333334 21.333333z" fill="#FFFFFF" /></svg>