<?xml version="1.0" encoding="iso-8859-1"?>
<!-- Uploaded to: SVG Repo, www.svgrepo.com, Generator: SVG Repo Mixer Tools -->
<svg height="800px" width="800px" version="1.1" id="Layer_1" xmlns="http://www.w3.org/2000/svg" xmlns:xlink="http://www.w3.org/1999/xlink" 
	 viewBox="0 0 512 512" xml:space="preserve">
<path style="fill:#61ACD2;" d="M264.036,289.784h-17.108c-40.658,0-73.618-32.96-73.618-73.618V85.279
	c0-40.658,32.96-73.618,73.618-73.618h17.108c40.658,0,73.618,32.96,73.618,73.618v130.886
	C337.655,256.824,304.694,289.784,264.036,289.784z"/>
<path style="fill:#EFEFEF;" d="M439.309,216.515c0-13.912-11.236-25.201-25.13-25.284c-13.954-0.083-25.375,11.916-25.439,25.869
	c-0.317,68.208-55.904,123.601-124.185,123.601h-17.108c-68.281,0-123.869-55.392-124.185-123.601
	c-0.064-13.954-11.485-25.953-25.439-25.869c-13.894,0.083-25.13,11.37-25.13,25.284c0,90.716,69.484,165.5,158.025,173.95v57.693
	h-63.21c-17.455,0-31.605,14.15-31.605,31.605v18.963H376.1v-18.963c0-17.455-14.15-31.605-31.605-31.605h-63.21v-57.694
	C369.825,382.015,439.309,307.23,439.309,216.515z"/>
<path d="M350.815,86.26c0-47.64-38.62-86.26-86.26-86.26h-17.108c-47.641,0-86.261,38.62-86.261,86.26v130.886
	c0,47.64,38.62,86.26,86.26,86.26h17.108c47.64,0,86.26-38.62,86.26-86.26V86.26H350.815z M186.469,85.279
	c0-33.623,26.836-59.995,60.459-59.995h17.108c30.195,0,55.321,21.491,60.132,50.568h-59.319c-6.982,0-12.642,5.661-12.642,12.642
	c0,6.981,5.66,12.642,12.642,12.642h60.681v37.926h-60.681c-6.982,0-12.642,5.661-12.642,12.642c0,6.981,5.66,12.642,12.642,12.642
	h60.681v37.926h-60.681c-6.982,0-12.642,5.661-12.642,12.642s5.66,12.642,12.642,12.642h59.194
	c-5.099,27.812-30.056,50.568-60.006,50.568h-17.108c-33.623,0-60.459-28.336-60.459-61.958L186.469,85.279L186.469,85.279z"/>
<path d="M414.255,179.516c-0.075,0-0.147,0-0.221,0c-9.825,0-19.168,3.427-26.324,10.511c-7.332,7.255-11.564,17.356-11.612,27.563
	c-0.286,61.215-50.323,111.101-111.543,111.101h-17.108c-61.22,0-111.258-50.119-111.543-111.333
	c-0.048-10.208-4.279-19.919-11.612-27.174c-7.159-7.083-16.499-10.669-26.327-10.669c-0.073,0-0.148,0-0.221,0
	c-20.785,0-37.695,16.676-37.695,37.462c0,46.85,17.446,91.493,49.123,126.125c28.849,31.54,67.171,51.897,108.902,58.497v34.548
	h-50.568c-24.398,0-44.247,19.217-44.247,43.615v18.963c0,6.981,5.66,13.274,12.642,13.274h240.198
	c6.981,0,12.642-6.293,12.642-13.274v-18.963c0-24.398-19.849-43.615-44.247-43.615h-50.568V401.6
	c41.73-6.6,80.052-27.188,108.902-58.728c31.678-34.633,49.123-79.044,49.123-125.893
	C451.951,196.192,435.041,179.516,414.255,179.516z M280.083,377.879c-6.487,0.619-11.441,6.068-11.441,12.585v57.694
	c0,6.981,5.661,13.274,12.642,13.274h63.21c10.456,0,18.963,7.875,18.963,18.331v6.953H148.543v-6.953
	c0-10.456,8.507-18.331,18.963-18.331h63.21c6.982,0,12.642-6.293,12.642-13.274v-57.694c0-6.517-4.953-11.966-11.441-12.585
	c-83.566-7.973-146.584-77.345-146.584-161.363c0-6.929,5.636-12.6,12.562-12.642c3.187-0.054,6.206,1.283,8.612,3.662
	c2.597,2.569,4.096,6.393,4.111,9.94c0.349,75.092,61.73,136.499,136.827,136.499h17.108c75.097,0,136.478-61.407,136.827-136.5
	c0.016-3.547,1.515-7.212,4.111-9.781c2.406-2.38,5.504-3.809,8.61-3.742c6.928,0.042,12.564,5.672,12.564,12.603
	C426.667,300.573,363.649,369.905,280.083,377.879z"/>
</svg>