<?xml version="1.0" encoding="iso-8859-1"?>
<!-- Uploaded to: SVG Repo, www.svgrepo.com, Generator: SVG Repo Mixer Tools -->
<svg height="800px" width="800px" version="1.1" id="Layer_1" xmlns="http://www.w3.org/2000/svg" xmlns:xlink="http://www.w3.org/1999/xlink" 
	 viewBox="0 0 512 512" xml:space="preserve">
<path style="fill:#2D64BC;" d="M328.793,237.857h-54.333l-31.348,136.21l31.348,137.933h54.333c26.013,0,47.1-21.088,47.1-47.1
	V284.957C375.893,258.945,354.806,237.857,328.793,237.857z"/>
<path style="fill:#6499F3;" d="M173.028,338.725V464.9c0,26.013,21.088,47.1,47.1,47.1h54.333V338.725l-50.716-20.899
	L173.028,338.725z"/>
<path style="fill:#2D64BC;" d="M290.134,269.205h-31.348v-46.021c0-9.334-7.594-16.928-16.928-16.928h-57.474
	c-26.62,0-48.276-21.656-48.276-48.276c0-26.619,21.656-48.275,48.276-48.275h98.484c9.335,0,16.928-7.594,16.928-16.928
	s-7.594-16.928-16.928-16.928h-51.143c-26.62,0-48.276-21.656-48.276-48.276V0h31.348v27.572c0,9.334,7.594,16.928,16.928,16.928
	h51.143c26.62,0,48.276,21.656,48.276,48.276s-21.656,48.276-48.276,48.276h-98.484c-9.334,0-16.928,7.594-16.928,16.927
	c0,9.334,7.594,16.928,16.928,16.928h57.474c26.62,0,48.276,21.656,48.276,48.276L290.134,269.205L290.134,269.205z"/>
<path style="fill:#9BD6FF;" d="M328.793,237.857h-54.334l-20.899,53.659l20.899,47.209h101.434v-53.768
	C375.893,258.945,354.806,237.857,328.793,237.857z"/>
<path style="fill:#C4EAFF;" d="M274.459,237.857h-54.332c-26.013,0-47.1,21.087-47.1,47.1v53.768h101.433V237.857H274.459z"/>
</svg>