<?xml version="1.0" encoding="utf-8"?><!-- Uploaded to: SVG Repo, www.svgrepo.com, Generator: SVG Repo Mixer Tools -->
<svg fill="#000000" width="800px" height="800px" viewBox="0 0 24 24" id="surveillance-camera-left" data-name="Flat Line" xmlns="http://www.w3.org/2000/svg" class="icon flat-line"><path id="secondary" d="M7,9H20a1,1,0,0,0,1-1V4a1,1,0,0,0-1-1H5Z" style="fill: rgb(44, 169, 188); stroke-width: 2;"></path><polyline id="primary" points="13 13 17 19 21 19" style="fill: none; stroke: rgb(0, 0, 0); stroke-linecap: round; stroke-linejoin: round; stroke-width: 2;"></polyline><path id="primary-2" data-name="primary" d="M21,17v4M19,9H7v3a1,1,0,0,0,1,1H18a1,1,0,0,0,1-1ZM3,7V9a1,1,0,0,0,1,1H7V9L6,6H4A1,1,0,0,0,3,7ZM7,9H20a1,1,0,0,0,1-1V4a1,1,0,0,0-1-1H5Z" style="fill: none; stroke: rgb(0, 0, 0); stroke-linecap: round; stroke-linejoin: round; stroke-width: 2;"></path></svg>