<?xml version="1.0" encoding="utf-8"?><!-- Uploaded to: SVG Repo, www.svgrepo.com, Generator: SVG Repo Mixer Tools -->
<svg fill="#000000" width="800px" height="800px" viewBox="0 0 24 24" id="rice-cooker" data-name="Flat Line" xmlns="http://www.w3.org/2000/svg" class="icon flat-line"><path id="secondary" d="M6.5,7.5h10a1,1,0,0,1,1,1v12a1,1,0,0,1-1,1H6.5a0,0,0,0,1,0,0V7.5a0,0,0,0,1,0,0Z" transform="translate(26.5 2.5) rotate(90)" style="fill: rgb(44, 169, 188); stroke-width: 2;"></path><path id="primary" d="M18,21H16V20h2ZM8,20H6v1H8Zm11-1V9H5V19a1,1,0,0,0,1,1H18A1,1,0,0,0,19,19ZM14,4a1,1,0,0,0-1-1H11a1,1,0,0,0-1,1V5h4Zm5,3a2,2,0,0,0-2-2H7A2,2,0,0,0,5,7V9H19ZM4,9H20m-9,4h2" style="fill: none; stroke: rgb(0, 0, 0); stroke-linecap: round; stroke-linejoin: round; stroke-width: 2;"></path></svg>