<?xml version="1.0" encoding="iso-8859-1"?>
<!-- Uploaded to: SVG Repo, www.svgrepo.com, Generator: SVG Repo Mixer Tools -->
<svg height="800px" width="800px" version="1.1" id="Layer_1" xmlns="http://www.w3.org/2000/svg" xmlns:xlink="http://www.w3.org/1999/xlink" 
	 viewBox="0 0 512 512" xml:space="preserve">
<path style="fill:#C9D2D9;" d="M116.87,356.174c-9.217,0-16.696-7.473-16.696-16.696v-33.391c0-9.223,7.479-16.696,16.696-16.696
	s16.696,7.473,16.696,16.696v33.391C133.565,348.701,126.087,356.174,116.87,356.174z"/>
<path style="fill:#B7C4CC;" d="M328.348,89.043c-9.217,0-16.696-7.473-16.696-16.696V38.957c0-9.223,7.479-16.696,16.696-16.696
	c9.217,0,16.696,7.473,16.696,16.696v33.391C345.043,81.571,337.565,89.043,328.348,89.043z"/>
<path style="fill:#C9D2D9;" d="M256,89.043c-9.217,0-16.696-7.473-16.696-16.696V38.957c0-9.223,7.479-16.696,16.696-16.696
	s16.696,7.473,16.696,16.696v33.391C272.696,81.571,265.217,89.043,256,89.043z"/>
<path style="fill:#B7C4CC;" d="M272.696,72.348V38.957c0-9.223-7.479-16.696-16.696-16.696v66.783
	C265.217,89.043,272.696,81.571,272.696,72.348z"/>
<path style="fill:#736056;" d="M150.261,322.783H83.478c-9.217,0-16.696-7.473-16.696-16.696v-66.783
	c0-9.223,7.479-16.696,16.696-16.696h66.783c9.217,0,16.696,7.473,16.696,16.696v66.783
	C166.957,315.31,159.478,322.783,150.261,322.783z"/>
<path style="fill:#38C3E0;" d="M461.913,422.957H328.348c-9.217,0-16.696-7.473-16.696-16.696V189.217H200.348v50.087
	c0,9.223-7.479,16.696-16.696,16.696H50.087c-9.217,0-16.696-7.473-16.696-16.696V139.13c0-46.032,37.446-83.478,83.478-83.478
	H395.13c46.032,0,83.478,37.446,83.478,83.478v267.13C478.609,415.484,471.13,422.957,461.913,422.957z"/>
<path style="fill:#37AFCC;" d="M395.13,55.652H256v133.565h55.652v217.043c0,9.223,7.479,16.696,16.696,16.696h133.565
	c9.217,0,16.696-7.473,16.696-16.696V139.13C478.609,93.098,441.163,55.652,395.13,55.652z"/>
<g>
	<circle style="fill:#665247;" cx="395.13" cy="205.913" r="16.696"/>
	<circle style="fill:#665247;" cx="395.13" cy="272.696" r="16.696"/>
</g>
<path style="fill:#736056;" d="M495.304,489.739H16.696C7.479,489.739,0,482.266,0,473.043v-33.391
	c0-27.619,22.468-50.087,50.087-50.087h411.826c27.619,0,50.087,22.468,50.087,50.087v33.391
	C512,482.266,504.521,489.739,495.304,489.739z"/>
<path style="fill:#665247;" d="M461.913,389.565H256v100.174h239.304c9.217,0,16.696-7.473,16.696-16.696v-33.391
	C512,412.033,489.532,389.565,461.913,389.565z"/>
</svg>