<?xml version="1.0" encoding="utf-8"?><!-- Uploaded to: SVG Repo, www.svgrepo.com, Generator: SVG Repo Mixer Tools -->
<svg fill="#000000" width="800px" height="800px" viewBox="0 0 24 24" id="speaker" data-name="Flat Line" xmlns="http://www.w3.org/2000/svg" class="icon flat-line"><path id="secondary" d="M17,3H7A1,1,0,0,0,6,4V20a1,1,0,0,0,1,1H17a1,1,0,0,0,1-1V4A1,1,0,0,0,17,3Zm-5,8a2,2,0,1,1,2-2A2,2,0,0,1,12,11Z" style="fill: rgb(44, 169, 188); stroke-width: 2;"></path><line id="primary-upstroke" x1="11.95" y1="16" x2="12.05" y2="16" style="fill: none; stroke: rgb(0, 0, 0); stroke-linecap: round; stroke-linejoin: round; stroke-width: 2.5;"></line><path id="primary" d="M12,11a2,2,0,1,1,2-2A2,2,0,0,1,12,11Zm6,9V4a1,1,0,0,0-1-1H7A1,1,0,0,0,6,4V20a1,1,0,0,0,1,1H17A1,1,0,0,0,18,20Z" style="fill: none; stroke: rgb(0, 0, 0); stroke-linecap: round; stroke-linejoin: round; stroke-width: 2;"></path></svg>