<?xml version="1.0" encoding="utf-8"?><!-- Uploaded to: SVG Repo, www.svgrepo.com, Generator: SVG Repo Mixer Tools -->
<svg fill="#000000" width="800px" height="800px" viewBox="0 0 24 24" id="video-camera" data-name="Flat Line" xmlns="http://www.w3.org/2000/svg" class="icon flat-line"><rect id="secondary" x="3" y="6" width="12" height="12" rx="1" style="fill: rgb(44, 169, 188); stroke-width: 2;"></rect><path id="primary" d="M7,10H9m6,5,4.62,1.92A1,1,0,0,0,21,16V8a1,1,0,0,0-1.38-.92L15,9Zm0,2V7a1,1,0,0,0-1-1H4A1,1,0,0,0,3,7V17a1,1,0,0,0,1,1H14A1,1,0,0,0,15,17Z" style="fill: none; stroke: rgb(0, 0, 0); stroke-linecap: round; stroke-linejoin: round; stroke-width: 2;"></path></svg>