<?xml version="1.0" encoding="iso-8859-1"?>
<!-- Uploaded to: SVG Repo, www.svgrepo.com, Generator: SVG Repo Mixer Tools -->
<svg height="800px" width="800px" version="1.1" id="Layer_1" xmlns="http://www.w3.org/2000/svg" xmlns:xlink="http://www.w3.org/1999/xlink" 
	 viewBox="0 0 512 512" xml:space="preserve">
<g>
	<path style="fill:#546A79;" d="M260.414,211.863L260.414,211.863c-2.701,5.411-8.236,8.828-14.283,8.828h-60.751v158.897h60.751
		c6.047,0,11.582,3.416,14.283,8.828c2.701,5.411,8.236,8.828,14.283,8.828h210.82C502.475,380.284,512,357.288,512,333.304v-66.331
		c0-23.985-9.525-46.98-26.483-63.938h-210.82C268.65,203.035,263.115,206.451,260.414,211.863"/>
	<g>
		<path style="fill:#38454F;" d="M238.345,229.518c0,4.873-3.955,8.828-8.828,8.828s-8.828-3.955-8.828-8.828
			c0-4.873,3.955-8.828,8.828-8.828S238.345,224.645,238.345,229.518"/>
		<path style="fill:#38454F;" d="M238.345,264.828c0,4.873-3.955,8.828-8.828,8.828s-8.828-3.955-8.828-8.828
			c0-4.873,3.955-8.828,8.828-8.828S238.345,259.955,238.345,264.828"/>
		<path style="fill:#38454F;" d="M238.345,300.138c0,4.873-3.955,8.828-8.828,8.828s-8.828-3.955-8.828-8.828
			s3.955-8.828,8.828-8.828S238.345,295.266,238.345,300.138"/>
		<path style="fill:#38454F;" d="M238.345,335.449c0,4.873-3.955,8.828-8.828,8.828s-8.828-3.955-8.828-8.828
			c0-4.873,3.955-8.828,8.828-8.828S238.345,330.576,238.345,335.449"/>
		<path style="fill:#38454F;" d="M238.345,370.759c0,4.873-3.955,8.828-8.828,8.828s-8.828-3.955-8.828-8.828
			s3.955-8.828,8.828-8.828S238.345,365.886,238.345,370.759"/>
		<polygon style="fill:#38454F;" points="132.414,370.759 185.379,370.759 185.379,229.518 132.414,229.518 		"/>
	</g>
	<polygon style="fill:#546A79;" points="79.448,388.414 132.414,388.414 132.414,211.863 79.448,211.863 	"/>
	<path style="fill:#38454F;" d="M79.448,210.802C62.694,184.717,34.94,167.724,0,167.724v264.828
		c34.94,0,62.694-16.993,79.448-43.079V210.802z"/>
	<path style="fill:#546A79;" d="M158.897,150.069H70.621c-19.5,0-35.31-15.81-35.31-35.31s15.81-35.31,35.31-35.31h88.276
		c19.5,0,35.31,15.81,35.31,35.31S178.397,150.069,158.897,150.069"/>
	<path style="fill:#38454F;" d="M494.345,123.587c0-14.627-11.855-26.483-26.483-26.483H229.517h-40.21
		c3.037,5.208,4.899,11.193,4.899,17.655s-1.863,12.447-4.899,17.655h13.727l66.207,70.621h52.966l-39.724-52.966h70.621
		l39.724,52.966h57.379l-44.138-52.966h61.793C482.489,150.069,494.345,138.214,494.345,123.587"/>
	<g>
		<polygon style="fill:#546A79;" points="264.828,114.759 282.483,114.759 282.483,97.104 264.828,97.104 		"/>
		<polygon style="fill:#546A79;" points="300.138,114.759 317.793,114.759 317.793,97.104 300.138,97.104 		"/>
		<polygon style="fill:#546A79;" points="229.517,114.759 247.172,114.759 247.172,97.104 229.517,97.104 		"/>
		<polygon style="fill:#546A79;" points="335.448,114.759 353.103,114.759 353.103,97.104 335.448,97.104 		"/>
		<polygon style="fill:#546A79;" points="370.759,114.759 388.414,114.759 388.414,97.104 370.759,97.104 		"/>
		<polygon style="fill:#546A79;" points="406.069,114.759 423.724,114.759 423.724,97.104 406.069,97.104 		"/>
		<polygon style="fill:#546A79;" points="441.379,114.759 459.034,114.759 459.034,97.104 441.379,97.104 		"/>
	</g>
	<g>
		<path style="fill:#38454F;" d="M476.69,264.828c0,14.627-11.855,26.483-26.483,26.483c-14.627,0-26.483-11.855-26.483-26.483
			c0-14.627,11.855-26.483,26.483-26.483C464.834,238.345,476.69,250.201,476.69,264.828"/>
		<path style="fill:#38454F;" d="M394.366,361.931H291.313c-4.882,0-8.828-3.955-8.828-8.828V247.173
			c0-4.873,3.946-8.828,8.828-8.828h72.783c3.946,0,7.406,2.613,8.492,6.4l30.27,105.931
			C404.465,356.317,400.228,361.931,394.366,361.931"/>
	</g>
	<polygon style="fill:#7383BF;" points="282.483,326.621 335.448,326.621 335.448,273.656 282.483,273.656 	"/>
</g>
</svg>