<?xml version="1.0" encoding="iso-8859-1"?>
<!-- Uploaded to: SVG Repo, www.svgrepo.com, Generator: SVG Repo Mixer Tools -->
<svg version="1.1" id="Layer_1" xmlns="http://www.w3.org/2000/svg" xmlns:xlink="http://www.w3.org/1999/xlink" 
	 viewBox="0 0 511.984 511.984" xml:space="preserve">
<path style="fill:#EC87C0;" d="M250.707,65.443l-74.67-55.991c-3.32-1.938-7.422-1.938-10.749,0L69.29,65.443
	c-3.272,1.922-5.288,5.421-5.288,9.218v426.667c0,5.891,4.772,10.656,10.663,10.656h170.667c5.891,0,10.664-4.766,10.664-10.656
	V74.661C255.996,70.865,253.98,67.365,250.707,65.443z"/>
<path style="fill:#E6E9ED;" d="M202.661,362.66h-85.325c-5.891,0-10.672,4.781-10.672,10.672v138.652h106.669V373.332
	C213.333,367.441,208.552,362.66,202.661,362.66z"/>
<g>
	<path style="fill:#434A54;" d="M149.335,437.33c0,5.891-4.781,10.656-10.672,10.656c-5.89,0-10.663-4.766-10.663-10.656
		s4.773-10.671,10.663-10.671C144.554,426.659,149.335,431.439,149.335,437.33z"/>
	<path style="fill:#434A54;" d="M260.332,43.584l-95.997-42.67c-2.758-1.219-5.906-1.219-8.664,0l-96.005,42.67
		c-3.852,1.703-6.328,5.531-6.328,9.75v42.655c0,3.609,1.82,6.984,4.852,8.953c3.031,1.969,6.844,2.266,10.147,0.797l91.662-40.733
		l91.661,40.733c1.391,0.625,2.867,0.922,4.336,0.922c2.031,0,4.055-0.578,5.812-1.719c3.031-1.968,4.852-5.343,4.852-8.953V53.334
		C266.66,49.116,264.183,45.287,260.332,43.584z"/>
</g>
<rect x="117.332" y="138.662" style="fill:#5D9CEC;" width="85.33" height="106.67"/>
<path style="fill:#E6E9ED;" d="M202.661,255.985h-85.325c-5.891,0-10.672-4.766-10.672-10.656v-106.67
	c0-5.89,4.781-10.671,10.672-10.671h85.325c5.891,0,10.672,4.781,10.672,10.671v106.669
	C213.333,251.219,208.552,255.985,202.661,255.985z M128,234.657h63.998v-85.326H128V234.657z"/>
<path style="fill:#F5F7FA;" d="M213.333,255.985H106.664c-5.89,0-10.663-4.766-10.663-10.656s4.773-10.671,10.663-10.671h106.669
	c5.891,0,10.664,4.781,10.664,10.671S219.223,255.985,213.333,255.985z"/>
<rect x="64.002" y="298.662" style="fill:#D770AD;" width="191.99" height="21.328"/>
<path style="fill:#AC92EB;" d="M442.709,65.443L368.023,9.452c-3.312-1.938-7.406-1.938-10.75,0l-95.988,55.991
	c-3.273,1.922-5.289,5.421-5.289,9.218v426.667c0,5.891,4.773,10.656,10.664,10.656h170.674c5.875,0,10.656-4.766,10.656-10.656
	V74.661C447.99,70.865,445.974,67.365,442.709,65.443z"/>
<path style="fill:#E6E9ED;" d="M394.648,362.66h-85.311c-5.906,0-10.688,4.781-10.688,10.672v138.652h106.685V373.332
	C405.335,367.441,400.554,362.66,394.648,362.66z"/>
<g>
	<path style="fill:#434A54;" d="M341.337,437.33c0,5.891-4.78,10.656-10.687,10.656c-5.875,0-10.656-4.766-10.656-10.656
		s4.781-10.671,10.656-10.671C336.556,426.659,341.337,431.439,341.337,437.33z"/>
	<path style="fill:#434A54;" d="M452.334,43.584l-95.998-42.67c-2.765-1.219-5.905-1.219-8.671,0l-96.005,42.67
		c-3.852,1.703-6.328,5.531-6.328,9.75v42.655c0,3.609,1.82,6.984,4.852,8.953c3.031,1.969,6.844,2.266,10.148,0.797l91.661-40.733
		l91.653,40.733c1.406,0.625,2.875,0.922,4.344,0.922c2.031,0,4.062-0.578,5.812-1.719c3.031-1.968,4.844-5.343,4.844-8.953V53.334
		C458.646,49.116,456.178,45.287,452.334,43.584z"/>
</g>
<rect x="309.342" y="138.662" style="fill:#5D9CEC;" width="85.31" height="106.67"/>
<path style="fill:#E6E9ED;" d="M394.648,255.985h-85.311c-5.906,0-10.688-4.766-10.688-10.656v-106.67
	c0-5.89,4.781-10.671,10.688-10.671h85.311c5.906,0,10.687,4.781,10.687,10.671v106.669
	C405.335,251.219,400.554,255.985,394.648,255.985z M319.994,234.657h63.998v-85.326h-63.998V234.657z"/>
<path style="fill:#F5F7FA;" d="M405.335,255.985H298.65c-5.875,0-10.656-4.766-10.656-10.656s4.781-10.671,10.656-10.671h106.685
	c5.875,0,10.656,4.781,10.656,10.671S411.21,255.985,405.335,255.985z"/>
<rect x="255.992" y="298.662" style="fill:#967ADC;" width="191.99" height="21.328"/>
</svg>