<?xml version="1.0" encoding="iso-8859-1"?>
<!-- Uploaded to: SVG Repo, www.svgrepo.com, Generator: SVG Repo Mixer Tools -->
<!DOCTYPE svg PUBLIC "-//W3C//DTD SVG 1.1//EN" "http://www.w3.org/Graphics/SVG/1.1/DTD/svg11.dtd">
<svg version="1.1" id="Capa_1" xmlns="http://www.w3.org/2000/svg" xmlns:xlink="http://www.w3.org/1999/xlink" 
	 viewBox="0 0 480 480" xml:space="preserve">
<g>
	<path style="fill:#8EADBE;" d="M464,88H336v232v40v16h40h88c8.8,0,16-7.2,16-16V104C480,95.163,472.836,88,464,88z M456,192h-96
		v-64h96V192z"/>
	<path style="fill:#B1C3D0;" d="M336,88H16c-8.8,0-16,7.2-16,16v256c0,8.8,7.2,16,16,16h320V88z"/>
	<path style="fill:#50BEE7;" d="M288,232c0-66.274,10.745-120,24-120H24v240h288C298.745,352,288,298.274,288,232z"/>
	<rect x="360" y="136" style="fill:#3CB44A;" width="96" height="56"/>
	<rect x="360" y="128" style="fill:#0E9247;" width="96" height="8"/>
	<path style="fill:#7B9BB1;" d="M464,120v232c0,4.418-3.582,8-8,8H352c-8.837,0-16,7.163-16,16l0,0h88h-64h104
		c8.837,0,16-7.163,16-16V104l0,0C471.163,104,464,111.163,464,120z"/>
	<path style="fill:#7B9BB1;" d="M64,384c0,4.4,3.6,8,8,8h40c4.4,0,8-3.6,8-8v-8H64V384z"/>
	<path style="fill:#7B9BB1;" d="M360,384c0,4.4,3.6,8,8,8h40c4.4,0,8-3.6,8-8v-8h-56V384z"/>
	<path style="fill:#8DD7F7;" d="M288.934,199.137L24,317.66V352h12.651l251.425-112.479c-0.031-2.5-0.076-4.981-0.076-7.521
		C288,220.59,288.339,209.593,288.934,199.137z"/>
	<path style="fill:#8DD7F7;" d="M24,277.66v24l266.146-119.065c0.827-9.128,1.868-17.652,3.104-25.389L24,277.66z"/>
	<path style="fill:#7B9BB1;" d="M384,264c-7.447,0-13.651-5.107-15.435-12c-0.332,1.286-0.565,2.61-0.565,4c0,8.844,7.164,16,16,16
		c8.836,0,16-7.156,16-16c0-1.39-0.233-2.714-0.565-4C397.651,258.893,391.447,264,384,264z"/>
	<path style="fill:#B1C3D0;" d="M400,248c0,8.844-7.164,16-16,16c-8.836,0-16-7.156-16-16c0-8.843,7.164-16,16-16
		C392.836,232,400,239.157,400,248z"/>
	<path style="fill:#7B9BB1;" d="M434.769,264c-7.447,0-13.651-5.107-15.435-12c-0.332,1.286-0.565,2.61-0.565,4
		c0,8.844,7.164,16,16,16c8.836,0,16-7.156,16-16c0-1.39-0.233-2.714-0.565-4C448.42,258.893,442.216,264,434.769,264z"/>
	<path style="fill:#B1C3D0;" d="M450.769,248c0,8.844-7.164,16-16,16c-8.836,0-16-7.156-16-16c0-8.843,7.164-16,16-16
		C443.604,232,450.769,239.157,450.769,248z"/>
	<path style="fill:#7B9BB1;" d="M384,320c-7.447,0-13.651-5.107-15.435-12c-0.332,1.286-0.565,2.61-0.565,4c0,8.844,7.164,16,16,16
		c8.836,0,16-7.156,16-16c0-1.39-0.233-2.714-0.565-4C397.651,314.893,391.447,320,384,320z"/>
	<path style="fill:#B1C3D0;" d="M400,304c0,8.844-7.164,16-16,16c-8.836,0-16-7.156-16-16c0-8.843,7.164-16,16-16
		C392.836,288,400,295.157,400,304z"/>
	<path style="fill:#7B9BB1;" d="M434.769,320c-7.447,0-13.651-5.107-15.435-12c-0.332,1.286-0.565,2.61-0.565,4
		c0,8.844,7.164,16,16,16c8.836,0,16-7.156,16-16c0-1.39-0.233-2.714-0.565-4C448.42,314.893,442.216,320,434.769,320z"/>
	<path style="fill:#B1C3D0;" d="M450.769,304c0,8.844-7.164,16-16,16c-8.836,0-16-7.156-16-16c0-8.843,7.164-16,16-16
		C443.604,288,450.769,295.157,450.769,304z"/>
</g>
</svg>