<?xml version="1.0" encoding="iso-8859-1"?>
<!-- Uploaded to: SVG Repo, www.svgrepo.com, Generator: SVG Repo Mixer Tools -->
<svg version="1.1" id="Layer_1" xmlns="http://www.w3.org/2000/svg" xmlns:xlink="http://www.w3.org/1999/xlink" 
	 viewBox="0 0 512 512" xml:space="preserve">
<path style="fill:#F2B851;" d="M436,407.48v-260c0-53.68-43.92-97.6-97.6-97.6H173.6c-53.68,0-97.6,43.92-97.6,97.6v260H436z"/>
<rect x="110.064" y="124.68" width="291.872" height="110"/>
<path d="M409.936,242.68H102.064v-126h307.872V242.68z M118.064,226.68h275.872v-94H118.064V226.68z"/>
<rect x="467.68" y="136.68" width="36.24" height="66.336"/>
<path d="M512,211.016h-52.256V128.68H512V211.016z M475.76,195.016H496V144.68h-20.256v50.336H475.76z"/>
<rect x="436" y="161.848" width="31.744" height="16"/>
<rect x="8" y="136.68" width="36.24" height="66.336"/>
<path d="M52.24,211.016H0V128.68h52.24V211.016z M16,195.016h20.24V144.68H16V195.016z"/>
<rect x="44.24" y="161.848" width="31.744" height="16"/>
<g>
	<circle style="fill:#E04F5F;" cx="140.288" cy="314.68" r="27.616"/>
	<circle style="fill:#E04F5F;" cx="371.68" cy="314.68" r="27.616"/>
</g>
<polyline style="fill:#32BEA6;" points="203.008,407.48 203.008,291.832 308.992,291.832 308.992,407.48 "/>
<path d="M172.256,407.48v29.12c0,9.632-7.888,17.52-17.52,17.52h-22.224c-9.632,0-17.52-7.888-17.52-17.52v-29.12"/>
<path d="M154.72,462.12h-22.224c-14.064,0-25.52-11.456-25.52-25.52v-29.12h16v29.12c0,5.248,4.272,9.52,9.52,9.52h22.224
	c5.248,0,9.536-4.272,9.536-9.52v-29.12h16v29.12C180.256,450.68,168.8,462.12,154.72,462.12z"/>
<path d="M397.008,407.48v29.12c0,9.632-7.888,17.52-17.52,17.52h-22.224c-9.632,0-17.52-7.888-17.52-17.52v-29.12"/>
<path d="M379.488,462.12h-22.224c-14.064,0-25.52-11.456-25.52-25.52v-29.12h16v29.12c0,5.248,4.272,9.52,9.52,9.52h22.224
	c5.248,0,9.536-4.272,9.536-9.52v-29.12h16v29.12C405.024,450.68,393.568,462.12,379.488,462.12z"/>
<path style="fill:#E04F5F;" d="M309.584,94.68H204.336c-6.32,0-11.504-5.168-11.504-11.504l0,0c0-6.32,5.168-11.504,11.504-11.504
	h105.248c6.32,0,11.504,5.168,11.504,11.504l0,0C321.088,89.512,315.92,94.68,309.584,94.68z"/>
<rect x="248" y="113.224" style="fill:#F2B851;" width="16" height="138.032"/>
</svg>