<?xml version="1.0" encoding="iso-8859-1"?>
<!-- Uploaded to: SVG Repo, www.svgrepo.com, Generator: SVG Repo Mixer Tools -->
<svg height="800px" width="800px" version="1.1" id="Layer_1" xmlns="http://www.w3.org/2000/svg" xmlns:xlink="http://www.w3.org/1999/xlink" 
	 viewBox="0 0 511.982 511.982" xml:space="preserve">
<path style="fill:#EC87C0;" d="M466.965,490.78l-37.952-341.582c-1.296-11.664-11.968-21.203-23.687-21.203h-298.67
	c-11.734,0-22.39,9.539-23.687,21.203L45.017,490.78c-1.297,11.672,7.25,21.202,18.969,21.202H447.98
	C459.715,511.982,468.262,502.452,466.965,490.78z"/>
<path style="fill:#D770AD;" d="M465.668,479.108c-2.797,6.844-9.453,11.531-17.688,11.531H63.986
	c-8.219,0-14.875-4.688-17.688-11.531l-1.281,11.672c-1.297,11.672,7.25,21.202,18.969,21.202H447.98
	c11.734,0,20.281-9.53,18.984-21.202L465.668,479.108z"/>
<path style="fill:#434A54;" d="M341.328,85.333C341.328,38.201,303.111,0,255.979,0c-47.123,0-85.325,38.201-85.325,85.333v95.661
	h0.016c0,0.109-0.016,0.219-0.016,0.335c0,5.891,4.766,10.664,10.672,10.664c5.874,0,10.655-4.773,10.655-10.664
	c0-0.116,0-0.226-0.016-0.335h0.016V85.333c0-35.296,28.718-63.998,63.998-63.998c35.304,0,64.006,28.702,64.006,63.998v95.661
	h0.031c-0.016,0.109-0.031,0.219-0.031,0.335c0,5.891,4.781,10.664,10.671,10.664c5.891,0,10.672-4.773,10.672-10.664
	c0-0.116-0.016-0.226-0.031-0.335h0.031V85.333z"/>
<path style="fill:#F5F7FA;" d="M295.986,250.655c-15.656,0-29.851,6.445-40.007,16.82c-10.156-10.375-24.327-16.82-39.999-16.82
	c-30.921,0-55.998,25.085-55.998,55.99c0,63.998,95.997,119.996,95.997,119.996s96.005-55.998,96.005-119.996
	C351.984,275.74,326.922,250.655,295.986,250.655z"/>
<g style="opacity:0.1;">
	<path d="M295.986,250.655c-3.641,0-7.203,0.367-10.656,1.031c25.812,4.984,45.326,27.694,45.326,54.959
		c0,50.748-60.334,96.449-85.333,113.215c6.531,4.375,10.656,6.781,10.656,6.781s96.005-55.998,96.005-119.996
		C351.984,275.74,326.922,250.655,295.986,250.655z"/>
</g>
</svg>