<?xml version="1.0" ?>
<!-- Uploaded to: SVG Repo, www.svgrepo.com, Generator: SVG Repo Mixer Tools -->
<svg width="800px" height="800px" viewBox="0 0 512 512" id="Layer_1" version="1.1" xml:space="preserve" xmlns="http://www.w3.org/2000/svg" xmlns:xlink="http://www.w3.org/1999/xlink">
<style type="text/css">
	.st0{fill:#0A557F;}
	.st1{fill:#CFF1FF;}
	.st2{fill:#4CC3F2;}
	.st3{fill:#FFFFFF;}
</style>
<g>
<path class="st0" d="M174.3,320.9c-7.1,0-12.8,5.7-12.8,12.8c0,7.1,5.7,12.8,12.8,12.8c7.1,0,12.8-5.7,12.8-12.8   C187.1,326.7,181.4,320.9,174.3,320.9z"/>
<path class="st0" d="M75.9,320.9c-7.1,0-12.8,5.7-12.8,12.8c0,7.1,5.7,12.8,12.8,12.8c7.1,0,12.8-5.7,12.8-12.8   C88.7,326.7,82.9,320.9,75.9,320.9z"/>
<path class="st1" d="M137.9,311.3h-25.7c-7.6-12.2-21-20.3-36.4-20.3c-15.4,0-28.8,8.1-36.4,20.3H22.5V174.2v-11.3h144.3v128.8   C154.6,293.8,144.2,301.1,137.9,311.3z"/>
<path class="st1" d="M181.8,291.6V162.9h117.4v148.4h-88.5C204.4,301.1,194,293.8,181.8,291.6z"/>
<path class="st2" d="M451.3,311.3c-7.6-12.2-21-20.3-36.4-20.3c-15.4,0-28.8,8.1-36.4,20.3h-64.3v-53.8h24.1v-15h-24.1v-53.6h69.1   v68.6h106.2v15h-27.9v15h27.9v23.8H451.3z"/>
<path class="st0" d="M414.9,320.9c-7.1,0-12.8,5.7-12.8,12.8c0,7.1,5.7,12.8,12.8,12.8c7.1,0,12.8-5.7,12.8-12.8   C427.8,326.7,422,320.9,414.9,320.9z"/>
<path class="st0" d="M504.5,242.4h-41.4h-0.6l-68.6-68.6h-79.7v-12.4v-13.6v-12.4h-15v12.4H181.8v-12.4h-15v12.4H22.5v-12.4h-15   v12.4v26.3v137.1v15v30h31.9c7.6,12.2,21,20.3,36.4,20.3c15.4,0,28.8-8.1,36.4-20.3h25.7c7.6,12.2,21,20.3,36.4,20.3   c23.6,0,42.8-19.2,42.8-42.8c0-2.6-0.2-5.1-0.7-7.5h156.4c-0.4,2.4-0.7,4.9-0.7,7.5s0.2,5.1,0.7,7.5H262.5v15h116   c7.6,12.2,21,20.3,36.4,20.3c23.6,0,42.8-19.2,42.8-42.8c0-2.6-0.2-5.1-0.7-7.5h47.4V242.4z M33.7,341.3H22.5v-15v0h11.2   c-0.4,2.4-0.7,4.9-0.7,7.5S33.3,338.8,33.7,341.3z M75.9,361.6c-15.3,0-27.8-12.5-27.8-27.8s12.5-27.8,27.8-27.8   c15.3,0,27.8,12.5,27.8,27.8S91.2,361.6,75.9,361.6z M132.2,341.3H118c0.4-2.4,0.7-4.9,0.7-7.5s-0.2-5.1-0.7-7.5h14.2   c-0.4,2.4-0.7,4.9-0.7,7.5S131.7,338.8,132.2,341.3z M137.9,311.3h-25.7c-7.6-12.2-21-20.3-36.4-20.3c-15.4,0-28.8,8.1-36.4,20.3   H22.5V174.2v-11.3h144.3v128.8C154.6,293.8,144.2,301.1,137.9,311.3z M174.3,361.6c-15.3,0-27.8-12.5-27.8-27.8   s12.5-27.8,27.8-27.8c15.3,0,27.8,12.5,27.8,27.8S189.7,361.6,174.3,361.6z M299.2,311.3h-88.5c-6.3-10.1-16.7-17.5-28.9-19.6   V162.9h117.4V311.3z M398.3,199.5l43,43h-43V199.5z M414.9,361.6c-15.3,0-27.8-12.5-27.8-27.8s12.5-27.8,27.8-27.8   c15.3,0,27.8,12.5,27.8,27.8S430.3,361.6,414.9,361.6z M489.5,272.4h-27.9v15h27.9v23.8h-38.2c-7.6-12.2-21-20.3-36.4-20.3   c-15.4,0-28.8,8.1-36.4,20.3h-64.3v-53.8h24.1v-15h-24.1v-53.6h69.1v68.6h106.2V272.4z"/>
<rect class="st0" height="15" width="67.3" x="112.8" y="406.6"/>
<rect class="st0" height="15" width="15" x="82.8" y="406.6"/>
<rect class="st0" height="15" width="67.3" x="270" y="90.4"/>
<rect class="st0" height="15" width="15" x="240" y="90.4"/>
<rect class="st3" height="15" width="15" x="353.3" y="242.4"/>
<rect class="st3" height="15" width="15" x="431.6" y="272.4"/>
<rect class="st0" height="15" width="15" x="232.5" y="341.3"/>
</g>
</svg>