<?xml version="1.0" encoding="iso-8859-1"?>
<!-- Uploaded to: SVG Repo, www.svgrepo.com, Generator: SVG Repo Mixer Tools -->
<svg version="1.1" id="Layer_1" xmlns="http://www.w3.org/2000/svg" xmlns:xlink="http://www.w3.org/1999/xlink" 
	 viewBox="0 0 392.663 392.663" xml:space="preserve">
<path style="fill:#FFFFFF;" d="M21.786,342.368c0,5.301,4.331,9.632,9.632,9.632h247.725c5.301,0,9.632-4.331,9.632-9.632V197.107
	c0-5.301-4.331-9.632-9.632-9.632H31.547c-5.301,0-9.632,4.331-9.632,9.632"/>
<rect x="43.572" y="209.261" style="fill:#FFC10D;" width="223.483" height="121.083"/>
<polygon style="fill:#56ACE0;" points="310.691,296.663 370.747,324.202 370.747,215.273 310.691,242.877 "/>
<path style="fill:#194F82;" d="M377.083,188.38l-66.392,30.448v-21.721c0-17.39-14.158-31.547-31.547-31.547H31.547
	C14.158,165.56,0,179.717,0,197.107v145.261c0,17.39,14.158,31.547,31.547,31.547h247.725c17.39,0,31.547-14.158,31.547-31.547
	v-21.786l66.392,30.448c7.176,3.297,15.451-1.939,15.451-9.891V198.271C392.533,190.384,384.259,185.018,377.083,188.38z
	 M370.747,324.202l-60.057-27.539v-53.786l60.057-27.604V324.202z M288.905,342.368c0,5.301-4.331,9.632-9.632,9.632H31.547
	c-5.301,0-9.632-4.331-9.632-9.632v-39.952h21.786c6.012,0,10.925-4.849,10.925-10.925c0-6.012-4.848-10.925-10.925-10.925H21.786
	V258.78h43.636c6.012,0,10.925-4.848,10.925-10.925c0-6.077-4.848-10.796-10.925-10.796H21.786v-39.952
	c0-5.301,4.331-9.632,9.632-9.632h247.725c5.301,0,9.632,4.331,9.632,9.632v145.261H288.905z"/>
<path style="fill:#56ACE0;" d="M121.341,82.489c0-23.079-18.747-41.891-41.891-41.891S37.56,59.345,37.56,82.489
	s18.747,41.891,41.891,41.891C102.465,124.38,121.341,105.632,121.341,82.489z"/>
<path style="fill:#FFFFFF;" d="M273.261,82.489c0-23.079-18.747-41.891-41.891-41.891s-41.891,18.747-41.891,41.891
	s18.747,41.891,41.891,41.891S273.261,105.632,273.261,82.489z"/>
<g>
	<path style="fill:#194F82;" d="M79.321,18.748c-35.168,0-63.741,28.574-63.741,63.741s28.574,63.741,63.741,63.741
		s63.741-28.574,63.741-63.741S114.489,18.748,79.321,18.748z M37.495,82.489c0-23.079,18.747-41.891,41.891-41.891
		s41.891,18.747,41.891,41.891s-18.747,41.891-41.891,41.891S37.495,105.632,37.495,82.489z"/>
	<path style="fill:#194F82;" d="M231.37,18.748c-35.168,0-63.741,28.574-63.741,63.741s28.574,63.741,63.741,63.741
		s63.741-28.574,63.741-63.741S266.408,18.748,231.37,18.748z M189.414,82.489c0-23.079,18.747-41.891,41.891-41.891
		s41.891,18.747,41.891,41.891s-18.747,41.891-41.891,41.891C208.226,124.38,189.414,105.632,189.414,82.489z"/>
</g>
</svg>