<?xml version="1.0" encoding="utf-8"?><!-- Uploaded to: SVG Repo, www.svgrepo.com, Generator: SVG Repo Mixer Tools -->
<svg fill="#000000" width="800px" height="800px" viewBox="0 0 24 24" id="adapter-3" data-name="Flat Line" xmlns="http://www.w3.org/2000/svg" class="icon flat-line"><path id="secondary" d="M8,3h6a1,1,0,0,1,1,1V14a1,1,0,0,1-1,1H7a1,1,0,0,1-1-1V5A2,2,0,0,1,8,3Z" style="fill: rgb(44, 169, 188); stroke-width: 2;"></path><path id="primary" d="M15,5h3M15,9h3M9,15v6m6-7V4a1,1,0,0,0-1-1H8A2,2,0,0,0,6,5v9a1,1,0,0,0,1,1h7A1,1,0,0,0,15,14Z" style="fill: none; stroke: rgb(0, 0, 0); stroke-linecap: round; stroke-linejoin: round; stroke-width: 2;"></path></svg>