<?xml version="1.0" encoding="utf-8"?>
<!-- Uploaded to: SVG Repo, www.svgrepo.com, Generator: SVG Repo Mixer Tools -->
<svg width="800px" height="800px" viewBox="0 0 1024 1024" class="icon"  version="1.1" xmlns="http://www.w3.org/2000/svg"><path d="M215.04 143.36v-40.96c0-5.632 4.608-10.24 10.24-10.24h40.96c5.632 0 10.24 4.608 10.24 10.24v40.96H215.04zM399.36 143.36v-40.96c0-5.632 4.608-10.24 10.24-10.24h40.96c5.632 0 10.24 4.608 10.24 10.24v40.96H399.36z" fill="#7ED321" /><path d="M168.96 158.72v182.784c0 48.128 38.912 87.04 87.04 87.04h153.6c48.128 0 87.04-38.912 87.04-87.04V159.232L168.96 158.72z m343.04-14.848v197.632c0 56.32-46.08 102.4-102.4 102.4H256c-56.32 0-102.4-46.08-102.4-102.4V143.36l358.4 0.512z" fill="" /><path d="M284.16 460.8h76.8c11.264 0 20.48 9.216 20.48 20.48v2.56l-5.632 51.2c-1.024 10.24-9.728 17.92-20.48 17.92H290.304c-10.24 0-18.944-7.68-20.48-17.92l-6.144-51.2c-1.536-11.264 6.656-21.504 17.92-23.04h2.56z" fill="#7ED321" /><path d="M284.16 476.16h-0.512c-2.56 0.512-4.608 3.072-4.608 5.632l6.144 51.2c0.512 2.56 2.56 4.608 5.12 4.608h64.512c2.56 0 4.608-2.048 5.12-4.608l5.632-51.2V481.28c0-3.072-2.048-5.12-5.12-5.12H284.16z m0-15.36h76.8c11.264 0 20.48 9.216 20.48 20.48v2.56l-5.632 51.2c-1.024 10.24-9.728 17.92-20.48 17.92H290.304c-10.24 0-18.944-7.68-20.48-17.92l-6.144-51.2c-1.536-11.264 6.656-21.504 17.92-23.04h2.56zM307.2 591.872v156.672c0 77.824 62.976 140.8 140.8 140.8H460.8c77.824 0 140.8-62.976 140.8-140.8v-156.672H568.32V747.52c0 62.976-51.2 113.664-113.664 113.664s-113.664-51.2-113.664-113.664v-155.648H307.2z m48.64-15.36V747.52c0 54.272 44.032 98.304 98.304 98.304s98.304-44.032 98.304-98.304v-171.008h64v172.032c0 86.016-70.144 156.16-156.16 156.16h-12.8c-86.016 0-156.16-70.144-156.16-156.16v-172.032h64.512z" fill="" /><path d="M862.208 732.16v-162.816c0-74.24-60.416-134.656-134.656-134.656h-24.576c-74.24 0-134.656 60.416-134.656 134.656V732.16h33.28v-155.648c0-62.976 51.2-113.664 113.664-113.664s113.664 51.2 113.664 113.664V732.16h33.28z m-48.64 15.36v-171.008c0-54.272-44.032-98.304-98.304-98.304s-98.304 44.032-98.304 98.304V747.52H552.96v-178.176c0-82.944 67.072-150.016 150.016-150.016h24.576c82.944 0 150.016 67.072 150.016 150.016V747.52h-64z" fill="" /></svg>