<?xml version="1.0" encoding="iso-8859-1"?>
<!-- Uploaded to: SVG Repo, www.svgrepo.com, Generator: SVG Repo Mixer Tools -->
<svg fill="#000000" height="800px" width="800px" version="1.1" id="Layer_1" xmlns="http://www.w3.org/2000/svg" xmlns:xlink="http://www.w3.org/1999/xlink" 
	 viewBox="0 0 512 512" xml:space="preserve">
<g>
	<g>
		<path d="M221.063,0.527v271.167h51.126v167.966c0,22.357-18.186,40.532-40.532,40.532H115.422
			c-16.496,0-29.916-13.42-29.916-29.916V325.822H54.223v124.452c0,33.754,27.456,61.199,61.199,61.199h116.235
			c39.604,0,71.814-32.211,71.814-71.814V271.693h56.402V0.527H221.063z"/>
	</g>
</g>
<g>
	<g>
		<polygon points="0,218.471 0,294.488 54.223,294.488 54.223,294.54 85.505,294.54 85.505,294.488 141.115,294.488 
			141.115,218.471 		"/>
	</g>
</g>
<g>
	<g>
		<polygon points="512,73.519 512,42.237 458.841,42.237 458.841,0.527 391.156,0.527 391.156,179.879 458.841,179.879 
			458.841,138.169 512,138.169 512,106.887 458.841,106.887 458.841,73.519 		"/>
	</g>
</g>
<g>
	<g>
		<path d="M15.203,123.717v63.399h110.709v-63.399H15.203z M67.268,162.372H51.918v-13.243h15.349V162.372z M89.197,162.372H73.847
			v-13.243h15.349V162.372z"/>
	</g>
</g>
</svg>