<?xml version="1.0" encoding="iso-8859-1"?>
<!-- Uploaded to: SVG Repo, www.svgrepo.com, Generator: SVG Repo Mixer Tools -->
<svg version="1.1" id="Layer_1" xmlns="http://www.w3.org/2000/svg" xmlns:xlink="http://www.w3.org/1999/xlink" 
	 viewBox="0 0 512 512" xml:space="preserve">
<polygon points="256,144.544 154.672,144.544 154.672,309.416 182.6,337.352 182.6,377.88 224.76,377.88 224.76,512 288.864,512 
	288.864,377.88 329.4,377.88 329.4,337.352 357.328,309.416 357.328,144.544 "/>
<rect x="180.176" style="fill:#CCCBCA;" width="151.656" height="144.4"/>
<g>
	<rect x="180.184" style="fill:#FFFFFF;" width="10.056" height="144.4"/>
	<rect x="321.76" style="fill:#FFFFFF;" width="10.056" height="144.4"/>
</g>
<rect x="205.192" y="61.56" width="32.24" height="25.96"/>
<rect x="274.56" y="61.56" width="32.24" height="25.96"/>
<g style="opacity:0.25;">
	<path style="fill:#FFFFFF;" d="M299.632,309.928H211.64c-5.464,0-9.912-4.448-9.912-9.912v-112.64c0-5.464,4.448-9.912,9.912-9.912
		h87.992c5.464,0,9.912,4.448,9.912,9.912v112.64C309.544,305.48,305.096,309.928,299.632,309.928z M211.64,182.312
		c-2.792,0-5.064,2.272-5.064,5.064v112.64c0,2.792,2.272,5.064,5.064,5.064h87.992c2.792,0,5.064-2.272,5.064-5.064v-112.64
		c0-2.792-2.272-5.064-5.064-5.064H211.64z"/>
</g>
<rect x="174.504" y="377.84" width="162.992" height="18.376"/>
<g>
	<path style="fill:#E1E1E1;" d="M256.784,261.352h-2.424v-7.592c0-3.56,4.368-7.136,8.976-10.928c0.984-0.808,1.952-1.6,2.848-2.376
		l0.56-0.472c2.672-2.28,4.016-3.424,4.016-7.76v-10.6h2.424v10.6c0,5.456-2.032,7.192-4.856,9.6l-0.552,0.472
		c-0.92,0.792-1.904,1.6-2.896,2.416c-3.8,3.112-8.096,6.64-8.096,9.048V261.352z"/>
	<rect x="254.36" y="203.384" style="fill:#E1E1E1;" width="2.424" height="74.04"/>
</g>
<g>
	<circle style="fill:#CCCBCA;" cx="239.184" cy="234.16" r="6.512"/>
	<circle style="fill:#CCCBCA;" cx="255.576" cy="283.4" r="9.232"/>
	<rect x="265.36" y="213.808" style="fill:#CCCBCA;" width="13.248" height="13.248"/>
	<polygon style="fill:#CCCBCA;" points="248.896,206.328 255.576,194.76 262.256,206.328 	"/>
</g>
<path style="fill:#E1E1E1;" d="M256.784,274.176h-2.424v-6.736c-0.072-1.416-5.768-6.304-8.2-8.4
	c-1.384-1.192-2.584-2.224-3.272-2.912c-2.784-2.784-4.912-5.392-4.912-11.496v-10.424h2.424v10.424
	c0,5.576,1.952,7.528,4.216,9.776c0.656,0.672,1.808,1.656,3.136,2.792c5.288,4.552,9.04,7.952,9.04,10.232v6.744H256.784z"/>
</svg>