<?xml version="1.0" encoding="utf-8"?><!-- Uploaded to: SVG Repo, www.svgrepo.com, Generator: SVG Repo Mixer Tools -->
<svg fill="#000000" width="800px" height="800px" viewBox="0 0 24 24" id="cd-music-2" data-name="Flat Line" xmlns="http://www.w3.org/2000/svg" class="icon flat-line"><path id="secondary" d="M10,12.72A2,2,0,0,1,9,11a2,2,0,0,1,2-2h7.73a8,8,0,0,0-8-6A8.11,8.11,0,0,0,3,10.77a8,8,0,0,0,7,8.16Z" style="fill: rgb(44, 169, 188); stroke-width: 2;"></path><path id="primary" d="M11,9a2,2,0,1,0,2,2A2,2,0,0,0,11,9Zm7,10a2,2,0,1,1-2-2A2,2,0,0,1,18,19Z" style="fill: none; stroke: rgb(0, 0, 0); stroke-linecap: round; stroke-linejoin: round; stroke-width: 2;"></path><path id="primary-2" data-name="primary" d="M21,16a2.9,2.9,0,0,0-3-3v6" style="fill: none; stroke: rgb(0, 0, 0); stroke-linecap: round; stroke-linejoin: round; stroke-width: 2;"></path><path id="primary-3" data-name="primary" d="M10,18.94A8,8,0,1,1,18.75,9" style="fill: none; stroke: rgb(0, 0, 0); stroke-linecap: round; stroke-linejoin: round; stroke-width: 2;"></path></svg>