<?xml version="1.0" encoding="iso-8859-1"?>
<!-- Uploaded to: SVG Repo, www.svgrepo.com, Generator: SVG Repo Mixer Tools -->
<svg version="1.1" id="Capa_1" xmlns="http://www.w3.org/2000/svg" xmlns:xlink="http://www.w3.org/1999/xlink" 
	 viewBox="0 0 340 340" xml:space="preserve">
<g id="XMLID_8_">
	<path id="XMLID_2065_" style="fill:#DEDDE0;" d="M79.999,194.999c0-28.275,13.044-53.5,33.437-70H0v139.999h113.435
		C93.042,248.499,79.999,223.274,79.999,194.999z"/>
	<path id="XMLID_2066_" style="fill:#CDCDD0;" d="M260,194.999c0,28.275-13.044,53.5-33.437,70H340v-140l-113.436,0.001
		C246.957,141.499,260,166.725,260,194.999z"/>
	<path id="XMLID_2067_" style="fill:#78B9EB;" d="M113.436,265H0v40h170v-20C148.57,285,128.893,277.504,113.436,265z"/>
	<path id="XMLID_2068_" style="fill:#5A8BB0;" d="M170,285v20h170v-40H226.563C211.107,277.504,191.43,285,170,285z"/>
	<path id="XMLID_2069_" style="fill:#5A8BB0;" d="M217.5,65.001L210,35h-40v20h20v29.999h-20v20c21.43,0,41.107,7.495,56.563,20H340
		V65.001H217.5z"/>
	<path id="XMLID_2070_" style="fill:#78B9EB;" d="M170,104.999v-20h-20V55h20V35h-40l-7.5,30H80v19.999H40V65.001H0v59.999h113.436
		C128.893,112.495,148.57,104.999,170,104.999z"/>
	<polygon id="XMLID_2071_" style="fill:#565659;" points="150,84.999 170,84.999 190,84.999 190,55 170,55 150,55 	"/>
	<rect id="XMLID_2072_" x="40" y="65.001" style="fill:#565659;" width="40" height="19.999"/>
	<path id="XMLID_2073_" style="fill:#818085;" d="M170,254.999c-33.137,0-60-26.863-60-59.999s26.862-59.999,60-59.999v-30.001
		c-21.43,0-41.107,7.495-56.564,20c-20.393,16.5-33.437,41.725-33.437,70c0,28.274,13.043,53.499,33.436,69.999
		c0,0,0.001,0.001,0.001,0.001c15.457,12.505,35.133,20,56.564,20V254.999z"/>
	<path id="XMLID_2074_" style="fill:#565659;" d="M170,135.001c33.136,0,59.999,26.863,59.999,59.999S203.136,254.999,170,254.999
		V285c21.43,0,41.107-7.495,56.563-20c20.393-16.5,33.437-41.725,33.437-70c0-28.274-13.043-53.5-33.436-69.999
		c0,0-0.001-0.001-0.001-0.001c-15.456-12.505-35.133-20-56.563-20V135.001z"/>
	<circle id="XMLID_2075_" style="fill:#FFFFFF;" cx="170" cy="194.999" r="59.999"/>
</g>
</svg>