<?xml version="1.0" encoding="iso-8859-1"?>
<!-- Uploaded to: SVG Repo, www.svgrepo.com, Generator: SVG Repo Mixer Tools -->
<svg version="1.1" id="Layer_1" xmlns="http://www.w3.org/2000/svg" xmlns:xlink="http://www.w3.org/1999/xlink" 
	 viewBox="0 0 512 512" xml:space="preserve">
<rect x="366.333" y="109.101" style="fill:#DFDFE2;" width="111.366" height="95.234"/>
<rect x="420.752" y="109.101" style="fill:#D7D6D9;" width="56.958" height="95.234"/>
<path style="fill:#2B292C;" d="M405.236,265.149V450.44c0,16.592-13.5,30.092-30.092,30.092H207.787
	c-22.482,0-40.774-18.291-40.774-40.772v-32.785h-33.78v32.785c0,39.835,32.407,72.241,72.242,72.241h169.669
	c33.945,0,61.56-27.616,61.56-61.56V265.149H405.236z"/>
<rect x="18.996" style="fill:#00CFB4;" width="261.177" height="422.703"/>
<g>
	<rect x="18.996" y="291.481" style="fill:#DFDFE2;" width="261.177" height="31.468"/>
	<rect x="131.758" y="348.124" style="fill:#DFDFE2;" width="35.664" height="31.468"/>
</g>
<rect x="149.768" y="0.004" style="fill:#00AF94;" width="130.405" height="422.703"/>
<rect x="149.768" y="291.481" style="fill:#DFDFE2;" width="130.405" height="31.468"/>
<rect x="149.768" y="348.124" style="fill:#D7D6D9;" width="17.643" height="31.468"/>
<g>
	<rect x="400.655" y="138.408" style="fill:#57565C;" width="15.438" height="13.321"/>
	<rect x="425.326" y="138.408" style="fill:#57565C;" width="15.438" height="13.321"/>
</g>
<rect x="351.04" y="172.866" style="fill:#00CFB4;" width="141.954" height="108.01"/>
<rect x="420.752" y="172.866" style="fill:#00AF94;" width="72.251" height="108.02"/>
<polygon style="fill:#DFDFE2;" points="205.145,144.791 152.416,144.791 157.136,138.412 188.86,94.125 163.075,76.087 93,176.259 
	145.071,176.259 142.364,180.545 110.063,232.113 123.209,240.759 123.209,240.759 123.209,240.759 136.355,249.403 "/>
<polygon style="fill:#D7D6D9;" points="205.146,144.79 149.772,228.999 149.772,95.101 163.073,76.084 188.856,94.126 
	157.136,138.412 152.416,144.79 "/>
</svg>