<?xml version="1.0" encoding="utf-8"?><!-- Uploaded to: SVG Repo, www.svgrepo.com, Generator: SVG Repo Mixer Tools -->
<svg fill="#000000" width="800px" height="800px" viewBox="0 0 24 24" id="power-bank" data-name="Flat Color" xmlns="http://www.w3.org/2000/svg" class="icon flat-color"><path id="secondary" d="M18,22H10a2,2,0,0,1-2-2V17a1,1,0,0,1,2,0v3h8V9a1,1,0,0,1,2,0V20A2,2,0,0,1,18,22Z" style="fill: rgb(44, 169, 188);"></path><path id="primary" d="M21,5V8a1,1,0,0,1-1,1H18a1,1,0,0,1-1-1V5a1,1,0,0,1,1-1h2A1,1,0,0,1,21,5ZM13,2H5A2,2,0,0,0,3,4V16a2,2,0,0,0,2,2h8a2,2,0,0,0,2-2V4A2,2,0,0,0,13,2Z" style="fill: rgb(0, 0, 0);"></path><path id="secondary-2" data-name="secondary" d="M9,13a.93.93,0,0,1-.45-.11,1,1,0,0,1-.44-1.34L8.38,11H8a1,1,0,0,1-.89-1.45l1-2a1,1,0,0,1,1.78.9L9.62,9H10a1,1,0,0,1,.89,1.45l-1,2A1,1,0,0,1,9,13Z" style="fill: rgb(44, 169, 188);"></path></svg>