<?xml version="1.0" encoding="utf-8"?><!-- Uploaded to: SVG Repo, www.svgrepo.com, Generator: SVG Repo Mixer Tools -->
<svg fill="#000000" width="800px" height="800px" viewBox="0 0 24 24" id="projector" data-name="Flat Line" xmlns="http://www.w3.org/2000/svg" class="icon flat-line"><path id="secondary" d="M20,8H16.82a3,3,0,1,1-5.64,0H4A1,1,0,0,0,3,9v6a1,1,0,0,0,1,1H20a1,1,0,0,0,1-1V9A1,1,0,0,0,20,8Z" style="fill: rgb(44, 169, 188); stroke-width: 2;"></path><path id="primary" d="M17,8h3a1,1,0,0,1,1,1v6a1,1,0,0,1-1,1H4a1,1,0,0,1-1-1V9A1,1,0,0,1,4,8h7" style="fill: none; stroke: rgb(0, 0, 0); stroke-linecap: round; stroke-linejoin: round; stroke-width: 2;"></path><path id="primary-2" data-name="primary" d="M5,18H7V16H5Zm14-2H17v2h2ZM17,9a3,3,0,1,1-3-3A3,3,0,0,1,17,9Z" style="fill: none; stroke: rgb(0, 0, 0); stroke-linecap: round; stroke-linejoin: round; stroke-width: 2;"></path></svg>