<?xml version="1.0" encoding="iso-8859-1"?>
<!-- Uploaded to: SVG Repo, www.svgrepo.com, Generator: SVG Repo Mixer Tools -->
<svg height="800px" width="800px" version="1.1" id="Layer_1" xmlns="http://www.w3.org/2000/svg" xmlns:xlink="http://www.w3.org/1999/xlink" 
	 viewBox="0 0 512 512" xml:space="preserve">
<path style="fill:#B87FD9;" d="M392.5,0H256H119.5c-14.135,0-25.594,11.459-25.594,25.594v460.813
	c0,14.135,11.459,25.594,25.594,25.594H256h136.5c14.135,0,25.594-11.459,25.594-25.594V25.594C418.093,11.459,406.634,0,392.5,0z
	 M366.906,358.312H256H145.094V153.562H256h110.906V358.312z"/>
<path style="fill:#933EC5;" d="M93.907,25.594v460.813c0,14.135,11.459,25.594,25.594,25.594H256V358.312H145.094V153.562H256V0
	H119.5C105.366,0,93.907,11.459,93.907,25.594z"/>
</svg>