<?xml version="1.0" encoding="utf-8"?><!-- Uploaded to: SVG Repo, www.svgrepo.com, Generator: SVG Repo Mixer Tools -->
<svg fill="#000000" width="800px" height="800px" viewBox="0 0 24 24" id="file-video-player-4" data-name="Flat Line" xmlns="http://www.w3.org/2000/svg" class="icon flat-line"><path id="secondary" d="M9,9a6,6,0,1,0,6,6A6,6,0,0,0,9,9ZM8,16.5v-3L11,15Z" style="fill: rgb(44, 169, 188); stroke-width: 2;"></path><path id="primary" d="M9,21a6,6,0,1,0-6-6A6,6,0,0,0,9,21Zm2-6L8,13.5v3Z" style="fill: none; stroke: rgb(0, 0, 0); stroke-linecap: round; stroke-linejoin: round; stroke-width: 2;"></path><path id="primary-2" data-name="primary" d="M9,5l2-2h9a1,1,0,0,1,1,1V20a1,1,0,0,1-1,1H17" style="fill: none; stroke: rgb(0, 0, 0); stroke-linecap: round; stroke-linejoin: round; stroke-width: 2;"></path></svg>