<?xml version="1.0" encoding="utf-8"?><!-- Uploaded to: SVG Repo, www.svgrepo.com, Generator: SVG Repo Mixer Tools -->
<svg fill="#000000" width="800px" height="800px" viewBox="0 0 24 24" id="bag-alt" data-name="Flat Line" xmlns="http://www.w3.org/2000/svg" class="icon flat-line"><path id="secondary" d="M19.88,21H4.12a1,1,0,0,1-1-1.11l1.78-16A1,1,0,0,1,5.9,3H18.1a1,1,0,0,1,1,.89l1.78,16A1,1,0,0,1,19.88,21Z" style="fill: rgb(44, 169, 188); stroke-width: 2;"></path><path id="primary" d="M9,7V9a3,3,0,0,0,3,3h0a3,3,0,0,0,3-3V7" style="fill: none; stroke: rgb(0, 0, 0); stroke-linecap: round; stroke-linejoin: round; stroke-width: 2;"></path><path id="primary-2" data-name="primary" d="M19.88,21H4.12a1,1,0,0,1-1-1.11l1.78-16A1,1,0,0,1,5.9,3H18.1a1,1,0,0,1,1,.89l1.78,16A1,1,0,0,1,19.88,21Z" style="fill: none; stroke: rgb(0, 0, 0); stroke-linecap: round; stroke-linejoin: round; stroke-width: 2;"></path></svg>