<?xml version="1.0" encoding="utf-8"?><!-- Uploaded to: SVG Repo, www.svgrepo.com, Generator: SVG Repo Mixer Tools -->
<svg fill="#000000" width="800px" height="800px" viewBox="0 0 24 24" id="smart-watch" data-name="Flat Line" xmlns="http://www.w3.org/2000/svg" class="icon flat-line"><rect id="secondary" x="7" y="7" width="10" height="10" rx="1" transform="translate(24) rotate(90)" style="fill: rgb(44, 169, 188); stroke-width: 2;"></rect><path id="primary" d="M16,4V7H8V4A1,1,0,0,1,9,3h6A1,1,0,0,1,16,4ZM8,17v3a1,1,0,0,0,1,1h6a1,1,0,0,0,1-1V17Zm9-1V8a1,1,0,0,0-1-1H8A1,1,0,0,0,7,8v8a1,1,0,0,0,1,1h8A1,1,0,0,0,17,16Z" style="fill: none; stroke: rgb(0, 0, 0); stroke-linecap: round; stroke-linejoin: round; stroke-width: 2;"></path></svg>