<?xml version="1.0" encoding="iso-8859-1"?>
<!-- Uploaded to: SVG Repo, www.svgrepo.com, Generator: SVG Repo Mixer Tools -->
<svg fill="#000000" height="800px" width="800px" version="1.1" id="Layer_1" xmlns="http://www.w3.org/2000/svg" xmlns:xlink="http://www.w3.org/1999/xlink" 
	 viewBox="0 0 512 512" xml:space="preserve">
<g>
	<g>
		<path d="M415.364,37.236h-46.491c-5.141,0-9.309,4.168-9.309,9.309s4.168,9.309,9.309,9.309h46.491c5.164,0,8.2,3,8.2,8.118
			v418.964c0,5.118-3.023,10.445-8.173,10.445H98.936c-5.15,0-10.5-5.327-10.5-10.445V63.973c0-5.118,5.377-8.118,10.559-8.118
			h57.764c5.141,0,9.309-4.168,9.309-9.309s-4.168-9.309-9.309-9.309H98.995c-15.445,0-29.177,11.35-29.177,26.736v418.964
			c0,15.382,13.705,29.064,29.118,29.064h316.455c15.414,0,26.791-13.682,26.791-29.064V63.973
			C442.182,48.586,430.791,37.236,415.364,37.236z"/>
	</g>
</g>
<g>
	<g>
		<path d="M340.945,37.236h-10.473V26.764c0-15.4-11.377-26.764-26.791-26.764h-83.727c-15.414,0-29.118,11.364-29.118,26.764
			v10.473h-8.145c-5.141,0-10.473,3.005-10.473,8.145v37.236c0,5.141,5.332,10.473,10.473,10.473h158.255
			c5.141,0,8.145-5.332,8.145-10.473V45.382C349.091,40.241,346.086,37.236,340.945,37.236z M209.455,26.764
			c0-5.132,5.35-8.145,10.5-8.145h83.727c5.236,0,8.173,2.927,8.173,8.145v10.473h-102.4V26.764z M330.473,74.473H190.836V55.855
			h10.473h121.018h8.145V74.473z"/>
	</g>
</g>
<g>
	<g>
		<path d="M378.146,74.473h-7.591c-5.141,0-9.309,4.168-9.309,9.309c0,5.141,4.168,9.309,9.309,9.309h7.591
			c5.154,0,8.182,3.036,8.182,8.195v344.341c0,5.154-2.977,10.518-8.068,10.518H136.068c-5.091,0-10.395-5.364-10.395-10.518
			V101.286c0-5.159,5.336-8.195,10.464-8.195h9.318c5.141,0,9.309-4.168,9.309-9.309c0-5.141-4.168-9.309-9.309-9.309h-9.318
			c-15.395,0-29.082,11.386-29.082,26.814v344.341c0,15.427,13.659,29.136,29.014,29.136h242.191
			c15.355,0,26.686-13.709,26.686-29.136V101.286C404.945,85.859,393.564,74.473,378.146,74.473z"/>
	</g>
</g>
<g>
	<g>
		<path d="M257.164,139.636h-102.4c-5.141,0-9.309,4.168-9.309,9.309c0,5.141,4.168,9.309,9.309,9.309h102.4
			c5.141,0,9.309-4.168,9.309-9.309C266.473,143.804,262.305,139.636,257.164,139.636z"/>
	</g>
</g>
<g>
	<g>
		<path d="M359.564,139.636h-55.855c-5.141,0-9.309,4.168-9.309,9.309c0,5.141,4.168,9.309,9.309,9.309h55.855
			c5.141,0,9.309-4.168,9.309-9.309C368.873,143.804,364.705,139.636,359.564,139.636z"/>
	</g>
</g>
<g>
	<g>
		<path d="M359.564,186.182h-55.855c-5.141,0-9.309,4.168-9.309,9.309s4.168,9.309,9.309,9.309h55.855
			c5.141,0,9.309-4.168,9.309-9.309S364.705,186.182,359.564,186.182z"/>
	</g>
</g>
<g>
	<g>
		<path d="M359.564,232.727h-55.855c-5.141,0-9.309,4.168-9.309,9.309s4.168,9.309,9.309,9.309h55.855
			c5.141,0,9.309-4.168,9.309-9.309S364.705,232.727,359.564,232.727z"/>
	</g>
</g>
<g>
	<g>
		<path d="M359.564,279.273h-55.855c-5.141,0-9.309,4.168-9.309,9.309c0,5.141,4.168,9.309,9.309,9.309h55.855
			c5.141,0,9.309-4.168,9.309-9.309C368.873,283.441,364.705,279.273,359.564,279.273z"/>
	</g>
</g>
<g>
	<g>
		<path d="M359.564,325.818h-55.855c-5.141,0-9.309,4.164-9.309,9.309s4.168,9.309,9.309,9.309h55.855
			c5.141,0,9.309-4.164,9.309-9.309S364.705,325.818,359.564,325.818z"/>
	</g>
</g>
<g>
	<g>
		<path d="M359.564,372.364h-55.855c-5.141,0-9.309,4.164-9.309,9.309s4.168,9.309,9.309,9.309h55.855
			c5.141,0,9.309-4.164,9.309-9.309S364.705,372.364,359.564,372.364z"/>
	</g>
</g>
<g>
	<g>
		<path d="M257.164,186.182h-102.4c-5.141,0-9.309,4.168-9.309,9.309s4.168,9.309,9.309,9.309h102.4
			c5.141,0,9.309-4.168,9.309-9.309S262.305,186.182,257.164,186.182z"/>
	</g>
</g>
<g>
	<g>
		<path d="M257.164,232.727h-102.4c-5.141,0-9.309,4.168-9.309,9.309s4.168,9.309,9.309,9.309h102.4
			c5.141,0,9.309-4.168,9.309-9.309S262.305,232.727,257.164,232.727z"/>
	</g>
</g>
<g>
	<g>
		<path d="M257.164,279.273h-102.4c-5.141,0-9.309,4.168-9.309,9.309c0,5.141,4.168,9.309,9.309,9.309h102.4
			c5.141,0,9.309-4.168,9.309-9.309C266.473,283.441,262.305,279.273,257.164,279.273z"/>
	</g>
</g>
<g>
	<g>
		<path d="M257.164,325.818h-102.4c-5.141,0-9.309,4.164-9.309,9.309s4.168,9.309,9.309,9.309h102.4
			c5.141,0,9.309-4.164,9.309-9.309S262.305,325.818,257.164,325.818z"/>
	</g>
</g>
<g>
	<g>
		<path d="M257.164,372.364h-102.4c-5.141,0-9.309,4.164-9.309,9.309s4.168,9.309,9.309,9.309h102.4
			c5.141,0,9.309-4.164,9.309-9.309S262.305,372.364,257.164,372.364z"/>
	</g>
</g>
</svg>