<?xml version="1.0" encoding="iso-8859-1"?>
<!-- Uploaded to: SVG Repo, www.svgrepo.com, Generator: SVG Repo Mixer Tools -->
<svg version="1.1" id="Layer_1" xmlns="http://www.w3.org/2000/svg" xmlns:xlink="http://www.w3.org/1999/xlink" 
	 viewBox="0 0 512.001 512.001" xml:space="preserve">
<g>
	<path style="fill:#FCD577;" d="M332.748,35.184h-9.54c-17.451-16.724-41.129-27.002-67.207-27.002s-49.757,10.278-67.207,27.002
		h-9.54c-28.662,0-51.897,23.235-51.897,51.897v333.031c0,10.522,8.53,19.052,19.052,19.052h219.186
		c10.522,0,19.052-8.53,19.052-19.052V87.082C384.645,58.42,361.41,35.184,332.748,35.184z"/>
	<path style="fill:#FCD577;" d="M422.634,503.817H89.366V490.09c0-9.893,8.019-17.913,17.913-17.913h297.442
		c9.893,0,17.913,8.019,17.913,17.913v13.727H422.634z"/>
</g>
<rect x="157.309" y="87.012" style="fill:#ADE6F7;" width="197.383" height="320.509"/>
<g>
	<circle style="fill:#FCD577;" cx="426.08" cy="211.567" r="15.675"/>
	<circle style="fill:#FCD577;" cx="85.921" cy="211.567" r="15.675"/>
</g>
<path d="M157.307,415.7h197.386c4.519,0,8.183-3.664,8.183-8.183V87.009c0-4.519-3.664-8.183-8.183-8.183H157.307
	c-4.519,0-8.183,3.664-8.183,8.183v320.508C149.124,412.036,152.787,415.7,157.307,415.7z M290.959,95.192l-77.63,103.241
	c-2.716,3.612-1.989,8.742,1.622,11.458c1.474,1.109,3.2,1.643,4.911,1.643c2.484,0,4.938-1.127,6.546-3.266l85.025-113.077h29.606
	l-14.717,19.572c-2.716,3.612-1.989,8.742,1.622,11.458c1.474,1.107,3.2,1.643,4.911,1.643c2.484,0,4.938-1.127,6.546-3.266
	l7.105-9.45v146.311l-26.099,34.71c-2.716,3.612-1.989,8.742,1.622,11.458c1.474,1.107,3.2,1.643,4.911,1.643
	c2.484,0,4.938-1.127,6.546-3.266l13.019-17.313v110.641h-83.195l54.832-72.922c2.716-3.612,1.989-8.742-1.622-11.458
	c-3.614-2.716-8.743-1.989-11.458,1.622l-62.229,82.758h-77.348V355.89l156.212-207.747c2.716-3.613,1.989-8.742-1.622-11.458
	c-3.614-2.716-8.743-1.989-11.458,1.622L165.49,328.657v-39.369l42.272-56.219c2.716-3.612,1.989-8.743-1.622-11.458
	c-3.614-2.717-8.742-1.989-11.458,1.622l-29.19,38.822V95.192H290.959z"/>
<path d="M426.077,235.422c13.156,0,23.858-10.703,23.858-23.858c0-13.155-10.703-23.858-23.858-23.858
	c-10.282,0-19.066,6.539-22.413,15.675h-10.836V87.082c0-33.128-26.952-60.08-60.08-60.08h-6.327C307.049,9.563,282.174,0,256.001,0
	s-51.048,9.563-70.42,27.003h-6.327c-33.128,0-60.08,26.952-60.08,60.08v116.298h-10.836c-3.346-9.138-12.13-15.675-22.413-15.675
	c-13.156,0-23.858,10.703-23.858,23.858c0,13.155,10.703,23.858,23.858,23.858c2.617,0,5.135-0.43,7.493-1.212v233.788
	c-7.341,4.623-12.232,12.795-12.232,22.093v13.728c0,4.519,3.664,8.183,8.183,8.183h333.267c4.519,0,8.183-3.664,8.183-8.183V490.09
	c0-9.297-4.891-17.47-12.232-22.093V234.21C420.942,234.992,423.46,235.422,426.077,235.422z M426.077,204.072
	c4.132,0,7.492,3.362,7.492,7.492c0,4.131-3.362,7.492-7.492,7.492c-4.131,0-7.493-3.362-7.493-7.492
	C418.584,207.433,421.946,204.072,426.077,204.072z M179.252,43.368h9.54c2.11,0,4.138-0.815,5.661-2.275
	c16.639-15.946,38.497-24.728,61.547-24.728s44.907,8.782,61.546,24.728c1.523,1.46,3.551,2.275,5.661,2.275h9.54
	c24.104,0,43.714,19.611,43.714,43.714v333.03c0,5.993-4.876,10.869-10.869,10.869H146.407c-5.993,0-10.869-4.876-10.869-10.869
	V87.082C135.538,62.978,155.149,43.368,179.252,43.368z M146.407,447.348h219.186c15.017,0,27.235-12.218,27.235-27.235V219.747
	h9.391v244.248H109.782V219.747h9.391v200.366C119.172,435.131,131.39,447.348,146.407,447.348z M85.923,219.056
	c-4.132,0-7.492-3.362-7.492-7.492c0-4.131,3.362-7.492,7.492-7.492s7.493,3.362,7.493,7.492
	C93.416,215.695,90.054,219.056,85.923,219.056z M414.451,495.634H97.549v-5.545c0-5.365,4.364-9.729,9.729-9.729h297.442
	c5.365,0,9.729,4.364,9.729,9.729v5.545H414.451z"/>
</svg>