<?xml version="1.0" encoding="utf-8"?>
<!-- Uploaded to: SVG Repo, www.svgrepo.com, Generator: SVG Repo Mixer Tools -->
<svg width="800px" height="800px" viewBox="0 0 1024 1024" class="icon"  version="1.1" xmlns="http://www.w3.org/2000/svg"><path d="M108.468364 714.079127h806.505255v78.048731H108.468364zM628.794599 714.079127l78.048731-260.163118v-78.04873c0-35.925064-29.116227-65.040267-65.040268-65.040268H108.468364v-78.04873c0-28.735342 23.297487-52.032828 52.032828-52.032828h585.366503c93.394724 0 169.105924 75.7112 169.105924 169.105924v364.22775" fill="#FFFFFF" /><path d="M498.71304 310.825987v26.015903c0 28.735342-23.297487 52.032828-52.032828 52.032828H264.566849c-28.735342 0-52.032828-23.297487-52.032829-52.032828v-26.015903" fill="#FFFFFF" /><path d="M108.468364 466.924472h494.309309c0 136.497224-110.65743 247.154655-247.154655 247.154655S108.468364 603.420673 108.468364 466.924472z" fill="#F28C13" /><path d="M160.501192 792.127858h104.064633v52.032828H160.501192zM758.876158 792.127858h104.064633v52.032828H758.876158z" fill="#FFFFFF" /><path d="M914.973619 805.135297H108.468364c-7.189723 0-13.008463-5.817716-13.008464-13.008463v-78.048731c0-7.189723 5.817716-13.008463 13.008464-13.008463h806.505255c7.189723 0 13.008463 5.817716 13.008463 13.008463v78.048731c0 7.190747-5.81874 13.008463-13.008463 13.008463zM121.476827 779.119395h780.488329v-52.032829H121.476827v52.032829z" fill="#4D5152" /><path d="M641.256307 717.813237l-24.923416-7.469244 77.502999-258.333434v-76.14328c0-28.696434-23.336394-52.032828-52.032828-52.032828H108.468364c-7.189723 0-13.008463-5.817716-13.008464-13.008464v-78.04873c0-35.861584 29.179708-65.040267 65.040268-65.040268h585.366503c100.419601 0 182.114387 81.694786 182.114387 182.114388v364.22775h-26.015902V349.850353c0-86.077015-70.020446-156.097461-156.097461-156.097461H160.501192c-21.518998 0-39.024365 17.505367-39.024365 39.024365v65.040267h520.325211c43.03902 0 78.048731 35.009711 78.048731 78.048731v78.048731a13.197882 13.197882 0 0 1-0.546755 3.735133l-78.047707 260.163118z" fill="#4D5152" /><path d="M446.680212 401.883181H264.566849c-35.861584 0-65.040267-29.179708-65.040268-65.040267v-26.015903h26.015902v26.015903c0 21.518998 17.505367 39.024365 39.024366 39.024365h182.114387c21.518998 0 39.024365-17.505367 39.024365-39.024365v-26.015903h26.015902v26.015903c0 35.86056-29.179708 65.040267-65.041291 65.040267z" fill="#4D5152" /><path d="M342.615579 388.874718h26.015902v78.048731H342.615579zM264.566849 857.168125H160.501192c-7.189723 0-13.008463-5.817716-13.008463-13.008463v-52.032828c0-7.189723 5.817716-13.008463 13.008463-13.008463h104.064633c7.189723 0 13.008463 5.817716 13.008463 13.008463v52.032828c0 7.190747-5.817716 13.008463-13.007439 13.008463z m-91.057194-26.015902h78.04873v-26.016926h-78.04873v26.016926zM862.940791 857.168125H758.876158c-7.189723 0-13.008463-5.817716-13.008463-13.008463v-52.032828c0-7.189723 5.817716-13.008463 13.008463-13.008463h104.064633c7.189723 0 13.008463 5.817716 13.008463 13.008463v52.032828c0 7.190747-5.817716 13.008463-13.008463 13.008463z m-91.057194-26.015902h78.048731v-26.016926h-78.048731v26.016926zM758.876158 466.924472h39.024365v26.015903H758.876158zM823.916425 466.924472h39.024366v26.015903h-39.024366zM758.876158 414.891644h39.024365v26.015902H758.876158zM823.916425 414.891644h39.024366v26.015902h-39.024366z" fill="#4D5152" /><path d="M758.876158 323.834451h104.064633v65.040267H758.876158z" fill="#F28C13" /><path d="M732.859232 570.989105h39.024365v26.015902H732.859232z" fill="#4D5152" /><path d="M810.908986 636.029373c-28.696434 0-52.032828-23.336394-52.032828-52.032829s23.336394-52.032828 52.032828-52.032828 52.032828 23.336394 52.032829 52.032828-23.336394 52.032828-52.032829 52.032829z m0-78.048731c-14.341562 0-26.015902 11.67434-26.015902 26.015902s11.67434 26.015902 26.015902 26.015903 26.015902-11.67434 26.015902-26.015903-11.67434-26.015902-26.015902-26.015902z" fill="#4D5152" /></svg>