<?xml version="1.0" encoding="utf-8"?><!-- Uploaded to: SVG Repo, www.svgrepo.com, Generator: SVG Repo Mixer Tools -->
<svg fill="#000000" width="800px" height="800px" viewBox="0 0 24 24" id="cabinet-4" data-name="Flat Line" xmlns="http://www.w3.org/2000/svg" class="icon flat-line"><rect id="secondary" x="4" y="3" width="16" height="16" rx="1" style="fill: rgb(44, 169, 188); stroke-width: 2;"></rect><path id="primary" d="M5,19v2m14-2v2M16,10v2M8,12V10M5,19H19a1,1,0,0,0,1-1V4a1,1,0,0,0-1-1H5A1,1,0,0,0,4,4V18A1,1,0,0,0,5,19Zm0,0h7V3H5A1,1,0,0,0,4,4V18A1,1,0,0,0,5,19Z" style="fill: none; stroke: rgb(0, 0, 0); stroke-linecap: round; stroke-linejoin: round; stroke-width: 2;"></path></svg>