<?xml version="1.0" encoding="iso-8859-1"?>
<!-- Uploaded to: SVG Repo, www.svgrepo.com, Generator: SVG Repo Mixer Tools -->
<svg version="1.1" id="Layer_1" xmlns="http://www.w3.org/2000/svg" xmlns:xlink="http://www.w3.org/1999/xlink" 
	 viewBox="0 0 512 512" xml:space="preserve">
<polygon style="fill:#57676E;" points="354.043,416.681 408.511,503.83 441.191,503.83 441.191,416.681 "/>
<rect x="70.809" y="416.681" style="fill:#748993;" width="337.702" height="87.149"/>
<polygon style="fill:#A2B1B7;" points="452.085,8.17 452.085,438.468 441.191,438.468 419.404,438.468 354.043,223.319 
	419.404,8.17 "/>
<polygon style="fill:#C4D3D9;" points="223.319,8.17 190.638,223.319 223.319,438.468 419.404,438.468 419.404,8.17 "/>
<polygon style="fill:#A2B1B7;" points="223.319,8.17 223.319,438.468 190.638,438.468 136.17,223.319 190.638,8.17 "/>
<path style="fill:#C4D3D9;" d="M59.915,8.17v430.298h130.723V8.17H59.915z"/>
<polygon style="fill:#414D53;" points="157.957,133.447 157.957,166.128 125.277,198.809 92.596,166.128 92.596,133.447 "/>
<rect x="92.596" y="166.128" style="fill:#A2B1B7;" width="65.362" height="70.809"/>
<line style="fill:none;stroke:#FFFFFF;stroke-width:15;stroke-linecap:round;stroke-linejoin:round;stroke-miterlimit:10;" x1="419.404" y1="40.851" x2="386.723" y2="40.851"/>
<path d="M256,305.021c4.513,0,8.17-3.658,8.17-8.17V73.532c0-4.512-3.657-8.17-8.17-8.17c-4.512,0-8.17,3.658-8.17,8.17v223.319
	C247.83,301.363,251.488,305.021,256,305.021z"/>
<path d="M408.511,479.319c4.513,0,8.17-3.658,8.17-8.17c0-4.512-3.657-8.17-8.17-8.17H103.489c-4.512,0-8.17,3.658-8.17,8.17
	c0,4.512,3.658,8.17,8.17,8.17H408.511z"/>
<path d="M157.957,125.277H92.596c-4.512,0-8.17,3.658-8.17,8.17v103.489c0,4.512,3.658,8.17,8.17,8.17h65.362
	c4.512,0,8.17-3.658,8.17-8.17V133.447C166.128,128.935,162.47,125.277,157.957,125.277z M149.787,141.617v16.34h-49.021v-16.34
	H149.787z M100.766,228.766v-54.468h16.34v8.17c0,4.512,3.658,8.17,8.17,8.17c4.512,0,8.17-3.658,8.17-8.17v-8.17h16.34v54.468
	H100.766z"/>
<path d="M190.638,65.362c-4.512,0-8.17,3.658-8.17,8.17v223.319c0,4.512,3.658,8.17,8.17,8.17s8.17-3.658,8.17-8.17V73.532
	C198.809,69.02,195.15,65.362,190.638,65.362z"/>
<path d="M386.723,49.021h32.681c4.513,0,8.17-3.658,8.17-8.17s-3.657-8.17-8.17-8.17h-32.681c-4.513,0-8.17,3.658-8.17,8.17
	S382.21,49.021,386.723,49.021z"/>
<path d="M452.085,0H59.915c-4.512,0-8.17,3.658-8.17,8.17v430.298c0,4.512,3.658,8.17,8.17,8.17h373.106v49.021H78.979v-24.511
	c0-4.512-3.658-8.17-8.17-8.17c-4.512,0-8.17,3.658-8.17,8.17v32.681c0,4.512,3.658,8.17,8.17,8.17h370.383
	c4.513,0,8.17-3.658,8.17-8.17v-57.191h2.723c4.513,0,8.17-3.658,8.17-8.17V8.17C460.255,3.658,456.598,0,452.085,0z
	 M443.915,430.298H231.489V16.34h212.426V430.298z M68.085,16.34h147.064v413.957H68.085V16.34z"/>
</svg>