<?xml version="1.0" ?>
<!DOCTYPE svg  PUBLIC '-//W3C//DTD SVG 1.1//EN'  'http://www.w3.org/Graphics/SVG/1.1/DTD/svg11.dtd'>
<!-- Uploaded to: SVG Repo, www.svgrepo.com, Generator: SVG Repo Mixer Tools -->
<svg width="800px" height="800px" viewBox="0 0 512 512" enable-background="new 0 0 512 512" id="Layer_1" version="1.1" xml:space="preserve" xmlns="http://www.w3.org/2000/svg" xmlns:xlink="http://www.w3.org/1999/xlink">
<g>
<g>
<path d="M391.965,245.807H125.368c-5.523,0-10-4.478-10-10v-165c0-5.522,4.477-10,10-10h266.597    c5.523,0,10,4.478,10,10v165C401.965,241.329,397.488,245.807,391.965,245.807z M135.368,225.807h246.597v-145H135.368V225.807z" fill="#444B54"/>
</g>
<g>
<path d="M480.667,451.193H31.333c-5.523,0-10-4.478-10-10V275.859c0-5.522,4.477-10,10-10h449.333    c5.523,0,10,4.478,10,10v165.334C490.667,446.716,486.189,451.193,480.667,451.193z M41.333,431.193h429.333V285.859H41.333    V431.193z" fill="#444B54"/>
</g>
<g>
<path d="M480.667,451.193H256c-5.523,0-10-4.478-10-10V275.859c0-5.522,4.477-10,10-10h224.667    c5.523,0,10,4.478,10,10v165.334C490.667,446.716,486.189,451.193,480.667,451.193z M266,431.193h204.667V285.859H266V431.193z" fill="#444B54"/>
</g>
<g>
<path d="M278.167,275.08h-39c-5.523,0-10-4.478-10-10v-29.273c0-5.522,4.477-10,10-10h39c5.523,0,10,4.478,10,10    v29.273C288.167,270.603,283.689,275.08,278.167,275.08z M249.167,255.08h19v-9.273h-19V255.08z" fill="#444B54"/>
</g>
<g>
<path d="M218.767,382.476c-5.523,0-10-4.478-10-10v-28c0-5.522,4.477-10,10-10s10,4.478,10,10v28    C228.767,377.998,224.29,382.476,218.767,382.476z" fill="#444B54"/>
</g>
<g>
<path d="M292.767,382.476c-5.523,0-10-4.478-10-10v-28c0-5.522,4.477-10,10-10s10,4.478,10,10v28    C302.767,377.998,298.29,382.476,292.767,382.476z" fill="#444B54"/>
</g>
<g>
<rect fill="#ADACB1" height="165" width="266.597" x="125.368" y="70.807"/>
<path d="M391.965,245.807H125.368c-5.523,0-10-4.478-10-10v-165c0-5.522,4.477-10,10-10h266.597    c5.523,0,10,4.478,10,10v165C401.965,241.329,397.488,245.807,391.965,245.807z M135.368,225.807h246.597v-145H135.368V225.807z" fill="#444B54"/>
</g>
<g>
<rect fill="#FEEA98" height="165.334" width="449.333" x="31.333" y="275.859"/>
<path d="M480.667,451.193H31.333c-5.523,0-10-4.478-10-10V275.859c0-5.522,4.477-10,10-10h449.333    c5.523,0,10,4.478,10,10v165.334C490.667,446.716,486.189,451.193,480.667,451.193z M41.333,431.193h429.333V285.859H41.333    V431.193z" fill="#444B54"/>
</g>
<g>
<rect fill="#F47859" height="165.334" width="224.667" x="256" y="275.859"/>
<path d="M480.667,451.193H256c-5.523,0-10-4.478-10-10V275.859c0-5.522,4.477-10,10-10h224.667    c5.523,0,10,4.478,10,10v165.334C490.667,446.716,486.189,451.193,480.667,451.193z M266,431.193h204.667V285.859H266V431.193z" fill="#444B54"/>
</g>
<g>
<path d="M278.167,275.08h-39c-5.523,0-10-4.478-10-10v-29.273c0-5.522,4.477-10,10-10h39c5.523,0,10,4.478,10,10    v29.273C288.167,270.603,283.689,275.08,278.167,275.08z M249.167,255.08h19v-9.273h-19V255.08z" fill="#444B54"/>
</g>
<g>
<path d="M218.767,382.476c-5.523,0-10-4.478-10-10v-28c0-5.522,4.477-10,10-10s10,4.478,10,10v28    C228.767,377.998,224.29,382.476,218.767,382.476z" fill="#444B54"/>
</g>
<g>
<path d="M292.767,382.476c-5.523,0-10-4.478-10-10v-28c0-5.522,4.477-10,10-10s10,4.478,10,10v28    C302.767,377.998,298.29,382.476,292.767,382.476z" fill="#444B54"/>
</g>
</g>
</svg>