<?xml version="1.0" encoding="iso-8859-1"?>
<!-- Uploaded to: SVG Repo, www.svgrepo.com, Generator: SVG Repo Mixer Tools -->
<svg height="800px" width="800px" version="1.1" id="Layer_1" xmlns="http://www.w3.org/2000/svg" xmlns:xlink="http://www.w3.org/1999/xlink" 
	 viewBox="0 0 512 512" xml:space="preserve">
<polygon style="fill:#FCD577;" points="327.979,198.465 395.841,198.465 348.658,8.152 163.569,8.152 116.386,198.465 
	240.318,198.465 271.909,198.465 "/>
<polyline style="fill:#CFDCE5;" points="271.909,198.465 271.909,468.708 240.318,468.708 240.318,198.465 "/>
<polyline style="fill:#BAC6CC;" points="271.909,198.465 271.909,230.152 240.318,230.152 240.318,198.465 "/>
<polygon style="fill:#EAC36E;" points="191.021,8.157 157.837,198.47 116.386,198.47 163.569,8.157 "/>
<path style="fill:#CFDCE5;" d="M314.845,503.193H197.383v-8.953c0-14.1,11.431-25.531,25.531-25.531h66.399
	c14.1,0,25.531,11.431,25.531,25.531V503.193z"/>
<path d="M403.957,196.752L356.774,6.439C355.837,2.657,352.442,0,348.544,0H163.455c-3.897,0-7.293,2.657-8.23,6.439
	l-47.181,190.313c-0.629,2.532-0.055,5.211,1.551,7.266c1.608,2.054,4.072,3.254,6.679,3.254h115.451v253.283H222.8
	c-18.754,0-34.011,15.258-34.011,34.013v8.953c0,4.683,3.796,8.48,8.48,8.48h117.462c4.684,0,8.48-3.797,8.48-8.48v-8.953
	c0-18.754-15.257-34.013-34.011-34.013h-8.924V230.48c0-4.683-3.796-8.48-8.48-8.48c-4.684,0-8.48,3.797-8.48,8.48v230.075h-14.631
	V207.273h70.7v106.306c0,4.683,3.796,8.48,8.48,8.48c4.684,0,8.48-3.797,8.48-8.48V207.273h59.382c2.608,0,5.071-1.201,6.679-3.254
	C404.012,201.965,404.585,199.284,403.957,196.752z M289.199,477.516c9.401,0,17.052,7.65,17.052,17.053v0.473H205.748v-0.473
	c0-9.403,7.65-17.053,17.052-17.053H289.199z M232.842,190.313l3.278-57.487c0.266-4.675-3.308-8.682-7.985-8.949
	c-4.678-0.27-8.682,3.307-8.949,7.984l-3.332,58.452h-48.043L198.038,16.96h27.699l-5.089,89.256
	c-0.266,4.675,3.308,8.682,7.985,8.949c0.165,0.009,0.328,0.014,0.491,0.014c4.462,0,8.202-3.486,8.458-7.997l5.143-90.221h26.547
	l9.883,173.353H232.842z M170.089,16.96h10.732l-30.227,173.353h-23.483L170.089,16.96z M361.404,190.313l-16.873-96.764
	c-0.805-4.614-5.199-7.7-9.811-6.897c-4.614,0.805-7.702,5.197-6.898,9.811l16.364,93.849h-48.043L286.262,16.96h27.699
	l8.447,48.442c0.719,4.121,4.3,7.025,8.344,7.025c0.484,0,0.973-0.042,1.466-0.128c4.614-0.805,7.702-5.198,6.898-9.811
	l-7.94-45.528h10.733l42.978,173.353H361.404z"/>
</svg>