<?xml version="1.0" encoding="iso-8859-1"?>
<!-- Uploaded to: SVG Repo, www.svgrepo.com, Generator: SVG Repo Mixer Tools -->
<svg version="1.1" id="Layer_1" xmlns="http://www.w3.org/2000/svg" xmlns:xlink="http://www.w3.org/1999/xlink" 
	 viewBox="0 0 490 490" xml:space="preserve">
<g>
	<g id="XMLID_30_">
		<g>
			<rect x="55" y="387.5" style="fill:#AFB6BB;" width="40" height="40"/>
			<rect x="395" y="387.5" style="fill:#AFB6BB;" width="40" height="40"/>
			<rect x="400" y="162.5" style="fill:#31C0D8;" width="50" height="35"/>
			<path style="fill:#E7ECED;" d="M400,162.5v35h50v-35H400z M480,132.5v245c0,5.498-4.502,10-10,10h-35h-40h-25v-255H480z"/>
			<path style="fill:#858C90;" d="M480,72.5v60H370v-70h100C475.498,62.5,480,67.002,480,72.5z"/>
			<path style="fill:#AFB6BB;" d="M370,132.5v255H95H55H20c-5.498,0-10-4.502-10-10v-305c0-5.498,4.502-10,10-10h350V132.5z
				 M335,352.5v-255H45v255H335z"/>
			<rect x="45" y="97.5" style="fill:#31C0D8;" width="290" height="255"/>
		</g>
		<g>
			<path style="fill:#231F20;" d="M470,52.5H20c-11.028,0-20,8.972-20,20v305c0,11.028,8.972,20,20,20h25v30c0,5.522,4.478,10,10,10
				h40c5.522,0,10-4.478,10-10v-30h280v30c0,5.522,4.478,10,10,10h40c5.522,0,10-4.478,10-10v-30h25c11.028,0,20-8.972,20-20v-305
				C490,61.472,481.028,52.5,470,52.5z M470,122.5h-90v-50h90V122.5z M85,417.5H65v-20h20V417.5z M20,377.5v-305h340v305H20z
				 M425,417.5h-20v-20h20V417.5z M380,377.5v-235h90v235H380z"/>
			<path style="fill:#231F20;" d="M345,352.5v-255c0-5.522-4.478-10-10-10H45c-5.522,0-10,4.478-10,10v255c0,5.522,4.478,10,10,10
				h290C340.522,362.5,345,358.022,345,352.5z M325,342.5H55v-235h270V342.5z"/>
			<rect x="395" y="87.5" style="fill:#231F20;" width="25" height="20"/>
			<rect x="435" y="87.5" style="fill:#231F20;" width="20" height="20"/>
			<rect x="415" y="222.5" style="fill:#231F20;" width="20" height="20"/>
			<rect x="390" y="222.5" style="fill:#231F20;" width="20" height="20"/>
			<rect x="440" y="222.5" style="fill:#231F20;" width="20" height="20"/>
			<rect x="415" y="252.5" style="fill:#231F20;" width="20" height="20"/>
			<rect x="390" y="252.5" style="fill:#231F20;" width="20" height="20"/>
			<rect x="440" y="252.5" style="fill:#231F20;" width="20" height="20"/>
			<rect x="415" y="282.5" style="fill:#231F20;" width="20" height="20"/>
			<rect x="390" y="282.5" style="fill:#231F20;" width="20" height="20"/>
			<rect x="440" y="282.5" style="fill:#231F20;" width="20" height="20"/>
			<rect x="415" y="312.5" style="fill:#231F20;" width="20" height="20"/>
			<rect x="415" y="342.5" style="fill:#231F20;" width="20" height="20"/>
			<rect x="390" y="312.5" style="fill:#231F20;" width="20" height="20"/>
			<rect x="440" y="312.5" style="fill:#231F20;" width="20" height="20"/>
			<path style="fill:#231F20;" d="M450,152.5h-50c-5.522,0-10,4.478-10,10v35c0,5.522,4.478,10,10,10h50c5.522,0,10-4.478,10-10v-35
				C460,156.978,455.522,152.5,450,152.5z M440,187.5h-30v-15h30V187.5z"/>
			<path style="fill:#231F20;" d="M90,142.5h25v-20H80c-5.522,0-10,4.478-10,10v95h20V142.5z"/>
			<rect x="70" y="242.5" style="fill:#231F20;" width="20" height="20"/>
		</g>
	</g>
</g>
</svg>