<?xml version="1.0" encoding="utf-8"?>
<!-- Uploaded to: SVG Repo, www.svgrepo.com, Generator: SVG Repo Mixer Tools -->
<svg width="800px" height="800px" viewBox="0 0 1024 1024" class="icon"  version="1.1" xmlns="http://www.w3.org/2000/svg"><path d="M155.7 292.9h713.2v440H155.7z" fill="#96C8D1" /><path d="M744.5 359.1h82.9v65.2h-82.9z" fill="#CDE9E3" /><path d="M818.9 636.2c0 18-14.9 32.6-33.2 32.6-18.3 0-33.2-14.6-33.2-32.6s14.9-32.6 33.2-32.6c18.4 0 33.2 14.6 33.2 32.6z" fill="#F59558" /><path d="M220 359.1h414.7v309.7H220z" fill="#CDE9E3" /><path d="M868.9 276.7H155.7c-9.2 0-16.6 7.3-16.6 16.3v440c0 9 7.4 16.3 16.6 16.3h713.2c9.2 0 16.6-7.3 16.6-16.3V293c0-9.1-7.4-16.3-16.6-16.3z m-696.6 32.5h514.2v407.5H172.3V309.2z m680 407.5H719.6V309.2h132.7v407.5z" fill="#211F1E" /><path d="M744.5 432.5h82.9c4.6 0 8.3-3.6 8.3-8.1v-65.2c0-4.5-3.7-8.1-8.3-8.1h-82.9c-4.6 0-8.3 3.6-8.3 8.1v65.2c0 4.4 3.7 8.1 8.3 8.1z m8.3-65.2h66.3v48.9h-66.3v-48.9zM785.8 595.5c-22.9 0-41.5 18.3-41.5 40.7 0 22.5 18.6 40.7 41.5 40.7s41.5-18.3 41.5-40.7c-0.1-22.4-18.7-40.7-41.5-40.7z m0 65.2c-13.7 0-24.9-11-24.9-24.4 0-13.5 11.2-24.4 24.9-24.4s24.9 11 24.9 24.4c-0.1 13.4-11.2 24.4-24.9 24.4zM634.6 351H220c-4.6 0-8.3 3.6-8.3 8.1v309.7c0 4.5 3.7 8.1 8.3 8.1h414.7c4.6 0 8.3-3.6 8.3-8.1V359.1c-0.1-4.5-3.8-8.1-8.4-8.1z m-8.3 309.6h-398V367.3h398.1v293.3z" fill="#211F1E" /><path d="M744.3 479.3a8.3 8.1 0 1 0 16.6 0 8.3 8.1 0 1 0-16.6 0Z" fill="#211F1E" /><path d="M777.5 479.3a8.3 8.1 0 1 0 16.6 0 8.3 8.1 0 1 0-16.6 0Z" fill="#211F1E" /><path d="M810.6 479.3a8.3 8.1 0 1 0 16.6 0 8.3 8.1 0 1 0-16.6 0Z" fill="#211F1E" /><path d="M744.3 511.9a8.3 8.1 0 1 0 16.6 0 8.3 8.1 0 1 0-16.6 0Z" fill="#211F1E" /><path d="M777.5 511.9a8.3 8.1 0 1 0 16.6 0 8.3 8.1 0 1 0-16.6 0Z" fill="#211F1E" /><path d="M810.6 511.9a8.3 8.1 0 1 0 16.6 0 8.3 8.1 0 1 0-16.6 0Z" fill="#211F1E" /><path d="M744.3 544.5a8.3 8.1 0 1 0 16.6 0 8.3 8.1 0 1 0-16.6 0Z" fill="#211F1E" /><path d="M777.5 544.5a8.3 8.1 0 1 0 16.6 0 8.3 8.1 0 1 0-16.6 0Z" fill="#211F1E" /><path d="M810.6 544.5a8.3 8.1 0 1 0 16.6 0 8.3 8.1 0 1 0-16.6 0Z" fill="#211F1E" /><path d="M253.3 469.5c-2.1 0-4.2-0.8-5.9-2.4-3.2-3.2-3.2-8.3 0-11.5l70.7-69.4c3.2-3.2 8.5-3.2 11.7 0 3.2 3.2 3.2 8.3 0 11.5l-70.7 69.4c-1.6 1.6-3.7 2.4-5.8 2.4z" fill="#FFFFFF" /></svg>