<?xml version="1.0" encoding="utf-8"?>
<!-- Uploaded to: SVG Repo, www.svgrepo.com, Generator: SVG Repo Mixer Tools -->
<svg width="800px" height="800px" viewBox="0 0 1024 1024" class="icon"  version="1.1" xmlns="http://www.w3.org/2000/svg"><path d="M920.275297 489.489881c0-2.849473-0.317404-5.349801-0.761771-7.40781-5.508503-27.227159-37.296047-40.558145-64.396243-49.136257-31.21724-9.94295-63.703073-11.810517-95.173213-13.613579l-15.512886-0.950166c-68.005439-4.276769-135.948422 4.019774-196.92796 23.744925-0.2529 0.032764-0.444366 0-0.697266 0.061433-0.2529 0.032764-0.378838 0.255971-0.631738 0.285664-0.570304 0.223207-1.203065 0.317404-1.773369 0.508871-12.727918 4.208169-19.692386 17.950758-15.451453 30.741133l0.064504 0.032764c0 0.411602-0.125938 0.917401 0 1.329003l2.343674 13.36068c0.631737 8.834083-3.229334 14.91289-6.523173 18.456557-5.634441 6.017374-13.739517 9.437151-22.353465 9.437151-9.622474 0-19.439487-6.111572-25.009423-15.578415-0.255971-0.378838-0.570304-0.570304-0.823204-0.888733-0.126962-0.188395-0.126962-0.411602-0.252899-0.599997-0.570304-0.823204-1.394532-1.300334-2.090774-1.993504-1.329003-1.553234-2.658006-3.102373-4.305438-4.178476-1.141632-0.823204-2.405107-1.206137-3.6737-1.77337-1.581903-0.697266-3.037868-1.487705-4.71704-1.837874-1.647431-0.378838-3.293839-0.285664-4.937175-0.314333-1.394532 0-2.723535-0.191467-4.117043 0.029693-1.961764 0.317404-3.799638 1.173373-5.69997 1.9976-0.884637 0.378838-1.900331 0.411602-2.723535 0.917402-0.188395 0.094197-0.314333 0.285664-0.441294 0.411601-0.382933 0.220135-0.761771 0.2529-1.141632 0.473035-68.893148 47.395652-108.403859 111.794967-108.403859 176.66527 0 67.881549 49.894956 120.405843 136.865823 144.342234 0.508871 0.191467 0.888732 0.570304 1.394532 0.697266 33.87627 9.813941 72.50132 11.142944 106.569056 12.251811 28.873566 0.981906 61.549842 2.059033 72.122482 9.14944 0.761771 0.476107 1.584974 0.570304 2.405107 0.950165 22.733326 14.436783 49.51919 23.080423 78.392756 23.080423 64.523205 0 118.853632-42.01411 138.675028-99.951685 0.884637-1.708865 2.026269-3.290767 2.532069-5.222839 0.758699-3.037868 1.455965-6.425904 2.214664-10.005408 0.444366-2.279169 0.761771-4.591102 1.141632-6.87027 4.622842-27.417601 7.220439-66.043675 7.220439-104.036988 0-36.408338-2.409202-71.616683-7.473339-95.805974 7.852177-2.153231 16.398547-5.475739 25.265394-13.010511 15.258963-13.014606 18.805702-26.248324 18.805702-35.747932z" fill="#27323A" /><path d="M580.619771 778.362743c-31.091302-1.044363-66.296575-2.217736-94.285504-10.258307-0.444366-0.125938-0.758699-0.444366-1.203066-0.570304-32.134641-8.67538-81.968164-29.000528-97.355112-71.331019h198.542627c-0.635833 5.540243-1.647431 10.987313-1.647431 16.715952 0 23.968132 6.270274 46.257091 16.463052 66.266882a2931.127714 2931.127714 0 0 0-20.514566-0.823204zM828.774761 728.78212c-0.379861 2.214664-0.697266 4.369943-1.141632 6.396212-10.131345 43.627754-49.136257 76.330651-95.740445 76.330651-54.39186 0-98.590942-44.22775-98.590942-98.590942 0-54.359096 44.199082-98.590942 98.590942-98.590942 54.330427 0 98.528485 44.230822 98.528485 98.590942 0.001024 5.414306-0.760747 10.669909-1.646408 15.864079z" fill="#79CCBF" /><path d="M855.434687 493.28952c-7.726239 1.26757-20.771562 3.388037-28.053434 15.957252-2.596573 4.528645-3.9266 9.499608-3.9266 14.786952 0 4.399635 0.888732 9.055242 2.723535 13.927912 4.622842 12.381845 7.40781 39.102181 8.422481 69.814645-26.594397-25.96266-62.752908-42.078615-102.707985-42.078615-63.890444 0-117.842034 41.12845-138.166157 98.085142H383.21468c2.217736-41.508311 27.103268-83.424128 70.03478-117.997664 13.898219 11.901643 31.119971 19.186587 49.230454 19.186587 22.03606 0 43.121954-9.055242 57.877166-24.8241 13.992417-15.007087 20.959956-34.508007 19.565425-54.994928l-0.317405-1.487705c50.722255-14.119379 106.063257-20.262691 161.722687-16.715952l15.831315 0.950165c29.762299 1.679172 57.811637 3.293839 82.318333 11.113252 13.613579 4.272673 21.718656 7.884941 26.594397 10.542947-2.976435 1.519446-5.764474 2.910906-10.637145 3.73411z" fill="#F4CE73" /><path d="M849.098885 199.446718c9.564113 8.899611 13.995489 18.110484 13.995488 28.970835 0 11.84021-4.431376 20.580095-14.248388 28.1763-37.737341 29.415201-136.201321 25.709761-176.220903 15.578416-0.064505-0.032764-0.126962 0-0.191467-0.032765 0 0-0.061433-0.028669-0.125937-0.061433l-24.503624-6.743308c-41.287152-12.063417-97.958181-28.559233-141.334059-2.662102-35.522677 21.183163-58.035868 53.065929-65.126273 92.132273-8.040571 44.769386 5.887341 94.981746 37.390244 134.272321 8.357976 10.481514 23.683491 12.190379 34.193674 3.766874 10.44875-8.357976 12.157614-23.679396 3.735134-34.161933-22.794759-28.461964-33.053066-64.111604-27.417601-95.264339 4.496904-24.8241 19.059625-45.213752 42.111379-59.017774 25.265394-15.004016 68.258339-2.467564 102.89638 7.599277l26.341497 7.281873h0.061434c0.064505 0.032764 0.130033 0.032764 0.191466 0.064504l0.125938 0.032765h0.064505c37.990241 9.528277 158.999152 21.307054 217.69645-24.379734 21.591694-16.780457 32.990609-39.796375 32.990609-66.582239 0-24.568128-9.878446-46.257091-29.382437-64.493512-90.929208-85.07156-389.485978-67.846737-423.26805-65.632074-187.872718 12.537476-214.263363 88.902939-214.707729 169.636297-0.125938 13.425184 10.685267 24.379733 24.111475 24.445262 13.422113 0.061433 24.376662-10.734414 24.503624-24.189291 0.2529-49.074824 0.635833-110.115795 169.354728-121.323243 106.757451-7.125218 324.898267-5.254579 386.762443 52.58675z" fill="#27323A" /><path d="M367.70077 847.03166h-36.028477c-2.78804-23.520694-17.666117-43.343114-38.816517-52.048186V351.356488c15.89582-9.65831 26.911802-28.273569 26.911802-49.898027 0-31.438399-22.986226-57.049866-51.228054-57.049867-28.225447 0-51.146144 25.612491-51.146144 57.049867 0 21.591694 10.890044 40.178284 26.847297 49.866287v443.660774c-21.212856 8.705073-36.028477 28.526469-38.816517 52.048186h-35.963972c-37.740413 0-68.452877 30.6797-68.452877 68.387349a16.181484 16.181484 0 0 0 16.210153 16.210152h302.660502c8.92828 0 16.210152-7.249108 16.210152-16.210152 0.001024-37.709697-30.71144-68.389396-68.387348-68.389397z" fill="#27323A" /><path d="M140.142256 899.20988c6.14024-11.048747 15.765786-19.756891 29.317932-19.756891h58.697298c2.78804 0 5.255603-0.884637 7.599277-2.120466 9.813941-3.102373 17.143936-11.998912 17.143936-22.888957 0-8.64364 6.963444-15.671589 15.639848-15.671588 8.610876 0 15.639848 7.028973 15.639849 15.671588 0 10.763083 7.093478 19.598189 16.780456 22.794759 2.343674 1.297263 4.875742 2.214664 7.726239 2.214664h59.014702c13.486617 0 23.05073 8.708145 29.190971 19.756891H140.142256z" fill="#FFFFFF" /></svg>