<?xml version="1.0" encoding="utf-8"?><!-- Uploaded to: SVG Repo, www.svgrepo.com, Generator: SVG Repo Mixer Tools -->
<svg fill="#000000" width="800px" height="800px" viewBox="0 0 24 24" id="rice-cooker-2" data-name="Flat Line" xmlns="http://www.w3.org/2000/svg" class="icon flat-line"><path id="secondary" d="M5,9V19a1,1,0,0,0,1,1h4V15a2,2,0,0,1,4,0v5h4a1,1,0,0,0,1-1V9Z" style="fill: rgb(44, 169, 188); stroke-width: 2;"></path><path id="primary" d="M12,13h0a2,2,0,0,1,2,2v5H10V15A2,2,0,0,1,12,13Zm6,7H16v1h2ZM8,20H6v1H8Zm11-1V9H5V19a1,1,0,0,0,1,1H18A1,1,0,0,0,19,19ZM19,7a2,2,0,0,0-2-2H7A2,2,0,0,0,5,7V9H19ZM14,4a1,1,0,0,0-1-1H11a1,1,0,0,0-1,1V5h4ZM4,9H20" style="fill: none; stroke: rgb(0, 0, 0); stroke-linecap: round; stroke-linejoin: round; stroke-width: 2;"></path></svg>