<?xml version="1.0" encoding="utf-8"?>
<!-- Uploaded to: SVG Repo, www.svgrepo.com, Generator: SVG Repo Mixer Tools -->
<svg width="800px" height="800px" viewBox="0 -21 1066 1066" class="icon"  version="1.1" xmlns="http://www.w3.org/2000/svg"><path d="M881.717547 20.48H185.184213A164.266667 164.266667 0 0 0 21.344213 186.24l61.44 653.44a164.053333 164.053333 0 0 0 163.84 163.84h574.08a163.626667 163.626667 0 0 0 163.84-161.92l61.44-657.28a164.053333 164.053333 0 0 0-164.266666-163.84z" fill="#C0D36F" /><path d="M738.997547 164.906667a704 704 0 0 0-411.093334 0 55.466667 55.466667 0 0 0-33.92 78.08l68.693334 137.6a55.466667 55.466667 0 0 0 61.653333 29.44 474.666667 474.666667 0 0 1 218.026667 0 55.253333 55.253333 0 0 0 61.653333-29.44l68.693333-137.6a55.466667 55.466667 0 0 0-33.706666-78.08z" fill="#FFFFFF" /><path d="M896.01088 0h-725.333333a170.666667 170.666667 0 0 0-170.666667 172.586667l64 680.746666a170.666667 170.666667 0 0 0 170.666667 170.666667h597.333333a170.666667 170.666667 0 0 0 170.666667-168.746667l64-684.586666a170.666667 170.666667 0 0 0-170.666667-170.666667z m64 853.333333a128 128 0 0 1-128 128h-597.333333a128 128 0 0 1-128-129.92L42.677547 170.666667a128 128 0 0 1 128-128h725.333333a128 128 0 0 1 128 126.08z" fill="#19264A" /><path d="M752.65088 157.653333a750.933333 750.933333 0 0 0-438.613333 0 59.306667 59.306667 0 0 0-36.266667 83.413334l73.386667 146.773333a59.093333 59.093333 0 0 0 65.706666 31.36 506.666667 506.666667 0 0 1 232.533334 0 58.88 58.88 0 0 0 65.706666-31.36l73.386667-146.773333a59.306667 59.306667 0 0 0-35.84-83.413334z m-1.92 64l-73.386667 146.773334a16.426667 16.426667 0 0 1-18.346666 8.746666 602.88 602.88 0 0 0-104.32-14.08v-109.44a18.56 18.56 0 0 0-18.56-18.56h-5.546667a18.56 18.56 0 0 0-18.56 18.56v109.44a603.733333 603.733333 0 0 0-104.32 14.08 16.426667 16.426667 0 0 1-18.346667-8.746666l-73.386666-146.773334a16.64 16.64 0 0 1 10.026666-23.466666 708.48 708.48 0 0 1 414.506667 0 16.213333 16.213333 0 0 1 10.453333 9.173333 16.426667 16.426667 0 0 1-0.213333 14.72z" fill="#19264A" /></svg>