<?xml version="1.0" encoding="iso-8859-1"?>
<!-- Uploaded to: SVG Repo, www.svgrepo.com, Generator: SVG Repo Mixer Tools -->
<svg version="1.1" id="Layer_1" xmlns="http://www.w3.org/2000/svg" xmlns:xlink="http://www.w3.org/1999/xlink" 
	 viewBox="0 0 512.005 512.005" xml:space="preserve">
<rect x="141.203" y="243.009" style="fill:#2B292C;" width="26.928" height="68.277"/>
<rect x="306.84" y="193.953" style="fill:#FE9379;" width="205.165" height="181.711"/>
<rect x="255.919" y="1.621" style="fill:#DFDFE2;" width="256.076" height="192.312"/>
<g>
	<g>
		<rect id="SVGCleanerId_0" y="346.54" style="fill:#FE633E;" width="512.005" height="163.844"/>
	</g>
	<g>
		<rect id="SVGCleanerId_0_1_" y="346.54" style="fill:#FE633E;" width="512.005" height="163.844"/>
	</g>
</g>
<g>
	<rect id="SVGCleanerId_0_2_" y="346.54" style="fill:#FE9379;" width="512.005" height="163.844"/>
</g>
<rect x="256.201" y="346.54" style="fill:#FE633E;" width="255.794" height="163.844"/>
<path style="fill:#57565C;" d="M407.775,220.082c-27.588,0-50.033,22.445-50.033,50.033c0,27.588,22.445,50.033,50.033,50.033
	c27.589,0,50.034-22.445,50.034-50.033C457.809,242.527,435.364,220.082,407.775,220.082z"/>
<path style="fill:#FE9379;" d="M407.775,47.744c-27.588,0-50.033,22.445-50.033,50.034c0,27.588,22.445,50.033,50.033,50.033
	c27.589,0,50.034-22.445,50.034-50.033C457.809,70.19,435.364,47.744,407.775,47.744z"/>
<path style="fill:#3E3D43;" d="M457.805,270.118c0,27.582-22.443,50.025-50.025,50.025h-0.073v-100.06h0.073
	C435.362,220.083,457.805,242.526,457.805,270.118z"/>
<path style="fill:#FE633E;" d="M457.805,97.779c0,27.592-22.443,50.035-50.025,50.035h-0.073V47.743h0.073
	C435.362,47.743,457.805,70.186,457.805,97.779z"/>
<path style="fill:#FE9379;" d="M271.633,1.624v192.312h-70.226v64.712h-89.125v-64.712H97.386
	c-53.027,0-96.161-43.134-96.161-96.161c0-53.016,43.134-96.151,96.161-96.151C97.386,1.624,271.633,1.624,271.633,1.624z"/>
<polygon style="fill:#FE633E;" points="306.836,1.624 306.836,193.936 201.407,193.936 201.407,258.648 154.384,258.648 
	154.384,1.624 "/>
</svg>