<?xml version="1.0" encoding="utf-8"?>
<!-- Uploaded to: SVG Repo, www.svgrepo.com, Generator: SVG Repo Mixer Tools -->
<svg width="800px" height="800px" viewBox="0 0 1024 1024" class="icon"  version="1.1" xmlns="http://www.w3.org/2000/svg"><path d="M960 704H64V192a64 64 0 0 1 64-64h768a64 64 0 0 1 64 64v512z" fill="#EAEAEA" /><path d="M960 384a64 64 0 0 0-64 64v256H128v-256a64 64 0 0 0-128 0v320a64 64 0 0 0 64 64h896a64 64 0 0 0 64-64V448a64 64 0 0 0-64-64z" fill="#469FCC" /><path d="M96 832h128v64H96zM800 832h128v64h-128z" fill="#434854" /><path d="M96 832h128v32H96zM800 832h128v32h-128z" fill="" /><path d="M960 640a64 64 0 0 1-64 64H128a64 64 0 0 1 0-128h768a64 64 0 0 1 64 64z" fill="#E6E6E6" /><path d="M896 704H128a63.904 63.904 0 0 1-61.76-48c-1.312 5.12-2.24 10.432-2.24 16a64 64 0 0 0 64 64h768a64 64 0 0 0 64-64c0-5.568-0.928-10.88-2.24-16A63.904 63.904 0 0 1 896 704z" fill="" /><path d="M128 544h768v32H128z" fill="" /><path d="M288 320m-32 0a32 32 0 1 0 64 0 32 32 0 1 0-64 0Z" fill="" /><path d="M400 432m-32 0a32 32 0 1 0 64 0 32 32 0 1 0-64 0Z" fill="" /><path d="M512 320m-32 0a32 32 0 1 0 64 0 32 32 0 1 0-64 0Z" fill="" /><path d="M624 432m-32 0a32 32 0 1 0 64 0 32 32 0 1 0-64 0Z" fill="" /><path d="M736 320m-32 0a32 32 0 1 0 64 0 32 32 0 1 0-64 0Z" fill="" /></svg>