<?xml version="1.0" encoding="iso-8859-1"?>
<!-- Uploaded to: SVG Repo, www.svgrepo.com, Generator: SVG Repo Mixer Tools -->
<svg height="800px" width="800px" version="1.1" id="Layer_1" xmlns="http://www.w3.org/2000/svg" xmlns:xlink="http://www.w3.org/1999/xlink" 
	 viewBox="0 0 512 512" xml:space="preserve">
<path style="fill:#BDCED4;" d="M407.496,10.199L305.473,112.222c-13.875,13.875-20.35,32.342-19.435,50.506
	c1.29,25.582-8.721,50.446-26.834,68.558L115.209,375.283l21.508,21.508l143.995-143.996c18.112-18.112,42.976-28.124,68.558-26.834
	c18.165,0.916,36.63-5.559,50.506-19.435l102.024-102.022L407.496,10.199z"/>
<path style="fill:#8C4F39;" d="M18.423,493.577L18.423,493.577c-10.965-10.965-10.965-28.742,0-39.708l87.687-87.687l39.708,39.708
	l-87.687,87.687C47.165,504.541,29.388,504.541,18.423,493.577z"/>
<path d="M509.013,97.291L414.708,2.986c-3.983-3.982-10.441-3.982-14.425,0L298.261,105.009
	c-15.335,15.335-23.501,36.559-22.409,58.232c1.128,22.369-7.568,44.541-23.86,60.833L115.209,360.858l-1.888-1.888
	c-3.983-3.982-10.441-3.982-14.425,0L11.21,446.657C3.982,453.887,0,463.499,0,473.722s3.982,19.836,11.211,27.066
	C18.441,508.017,28.053,512,38.277,512s19.836-3.982,27.066-11.211l87.687-87.687c1.912-1.913,2.987-4.507,2.987-7.212
	s-1.075-5.298-2.987-7.212l-1.888-1.888l136.784-136.784c16.291-16.293,38.469-24.996,60.832-23.86
	c21.672,1.094,42.899-7.074,58.232-22.409l102.023-102.023C512.996,107.733,512.996,101.275,509.013,97.291z M131.393,405.891
	l-80.475,80.474c-3.377,3.377-7.867,5.237-12.642,5.237s-9.265-1.859-12.642-5.237l0,0c-3.377-3.377-5.236-7.866-5.236-12.642
	c0-4.775,1.859-9.265,5.236-12.642l80.475-80.474L131.393,405.891z M392.565,199.315c-11.264,11.263-26.861,17.26-42.781,16.461
	c-28.12-1.419-55.923,9.445-76.284,29.808L136.717,382.366l-7.084-7.084l136.785-136.784c20.362-20.363,31.227-48.168,29.808-76.285
	c-0.804-15.923,5.196-31.516,16.46-42.78l94.811-94.811l79.881,79.88L392.565,199.315z"/>
<path d="M378.892,89.891c-3.984-3.981-10.441-3.982-14.424,0l-28.966,28.965c-3.983,3.983-3.984,10.441,0,14.425
	c1.992,1.991,4.602,2.987,7.212,2.987c2.61,0,5.221-0.996,7.212-2.987l28.966-28.965C382.875,100.333,382.875,93.874,378.892,89.891
	z"/>
<path d="M396.152,58.209l-5.516,5.515c-3.983,3.983-3.984,10.44,0,14.424c1.992,1.992,4.602,2.988,7.212,2.988
	c2.61,0,5.22-0.996,7.212-2.987l5.516-5.515c3.983-3.983,3.984-10.44,0-14.424C406.592,54.227,400.135,54.227,396.152,58.209z"/>
<path d="M378.719,176.496c1.992,1.991,4.602,2.987,7.212,2.987c2.61,0,5.221-0.996,7.212-2.987l60.649-60.648
	c3.983-3.983,3.984-10.441,0-14.425c-3.983-3.981-10.441-3.982-14.424,0l-60.649,60.648
	C374.736,166.055,374.736,172.513,378.719,176.496z"/>
<path d="M357.111,154.889c1.992,1.991,4.602,2.987,7.212,2.987c2.61,0,5.221-0.996,7.212-2.987l60.649-60.649
	c3.983-3.983,3.983-10.441,0-14.425c-3.983-3.982-10.441-3.982-14.425,0l-60.649,60.649
	C353.128,144.448,353.128,150.906,357.111,154.889z"/>
</svg>