<?xml version="1.0" encoding="iso-8859-1"?>
<!-- Uploaded to: SVG Repo, www.svgrepo.com, Generator: SVG Repo Mixer Tools -->
<svg height="800px" width="800px" version="1.1" id="Layer_1" xmlns="http://www.w3.org/2000/svg" xmlns:xlink="http://www.w3.org/1999/xlink" 
	 viewBox="0 0 512 512" xml:space="preserve">
<path style="fill:#FFA733;" d="M495.304,228.174H16.696c-5.695,0-10.995-2.902-14.066-7.696c-3.065-4.799-3.478-10.827-1.092-15.994
	L68.321,59.788c2.728-5.914,8.646-9.701,15.157-9.701h345.043c6.511,0,12.429,3.788,15.157,9.701l66.783,144.696
	c2.386,5.169,1.972,11.196-1.092,15.994C506.299,225.272,501,228.174,495.304,228.174z"/>
<path style="fill:#CC7400;" d="M461.913,461.913H395.13c-9.223,0-16.696-7.473-16.696-16.696V278.261
	c0-9.223,7.473-16.696,16.696-16.696h66.783c9.223,0,16.696,7.473,16.696,16.696v166.957
	C478.609,454.44,471.136,461.913,461.913,461.913z"/>
<path style="fill:#AA6100;" d="M461.913,261.565h-33.391v200.348h33.391c9.223,0,16.696-7.473,16.696-16.696V278.261
	C478.609,269.038,471.136,261.565,461.913,261.565z"/>
<path style="fill:#CC7400;" d="M116.87,461.913H50.087c-9.223,0-16.696-7.473-16.696-16.696V278.261
	c0-9.223,7.473-16.696,16.696-16.696h66.783c9.223,0,16.696,7.473,16.696,16.696v166.957
	C133.565,454.44,126.092,461.913,116.87,461.913z"/>
<path style="fill:#AA6100;" d="M116.87,261.565H83.478v200.348h33.391c9.223,0,16.696-7.473,16.696-16.696V278.261
	C133.565,269.038,126.092,261.565,116.87,261.565z"/>
<path style="fill:#FFA630;" d="M495.304,294.957H16.696C7.473,294.957,0,287.478,0,278.261v-66.783
	c0-9.223,7.473-16.696,16.696-16.696h478.609c9.223,0,16.696,7.473,16.696,16.696v66.783
	C512,287.478,504.527,294.957,495.304,294.957z"/>
<path style="fill:#EE8700;" d="M495.304,194.783H256v100.174h239.304c9.223,0,16.696-7.479,16.696-16.696v-66.783
	C512,202.256,504.527,194.783,495.304,194.783z"/>
</svg>