<?xml version="1.0" encoding="iso-8859-1"?>

<!DOCTYPE svg PUBLIC "-//W3C//DTD SVG 1.1//EN" "http://www.w3.org/Graphics/SVG/1.1/DTD/svg11.dtd">
<!-- Uploaded to: SVG Repo, www.svgrepo.com, Generator: SVG Repo Mixer Tools -->
<svg version="1.1" id="_x36_" xmlns="http://www.w3.org/2000/svg" xmlns:xlink="http://www.w3.org/1999/xlink" 
	 viewBox="0 0 512 512"  xml:space="preserve">
<g>
	<g>
		<path style="fill:#D3D3D3;" d="M512,29.554v348.683c0,16.246-13.307,29.63-29.553,29.63H29.553c-1.47,0-2.94-0.077-4.41-0.386
			c-12.688-1.857-22.823-12.068-24.757-24.757C0.155,381.254,0,379.784,0,378.237V29.554C0,13.307,13.307,0,29.553,0h452.893
			c3.636,0,7.195,0.697,10.444,1.934c7.891,3.017,14.157,9.284,17.175,17.175C511.303,22.358,512,25.84,512,29.554z"/>
		<circle style="opacity:0.1;fill:#040000;" cx="214.068" cy="211.785" r="166.143"/>
		<g>
			<g>
				<circle style="fill:#282E35;" cx="214.068" cy="197.555" r="166.143"/>
			</g>
			<g style="opacity:0.2;">
				<path style="fill:#454A4F;" d="M214.068,55.007c-78.602,0-142.583,63.903-142.583,142.583
					c0,78.603,63.981,142.583,142.583,142.583c78.603,0,142.583-63.98,142.583-142.583
					C356.651,118.911,292.671,55.007,214.068,55.007z M214.068,330.348c-73.187,0-132.758-59.571-132.758-132.758
					c0-73.264,59.571-132.835,132.758-132.835c73.187,0,132.758,59.57,132.758,132.835
					C346.826,270.777,287.255,330.348,214.068,330.348z"/>
			</g>
			<g style="opacity:0.5;">
				<path style="fill:#454A4F;" d="M214.068,69.242c-70.788,0-128.348,57.559-128.348,128.348
					c0,70.711,57.559,128.349,128.348,128.349c70.789,0,128.348-57.637,128.348-128.349
					C342.417,126.801,284.857,69.242,214.068,69.242z M214.068,316.113c-65.373,0-118.523-53.151-118.523-118.523
					c0-65.373,53.15-118.601,118.523-118.601s118.523,53.228,118.523,118.601C332.591,262.963,279.441,316.113,214.068,316.113z"/>
			</g>
			<g>
				<path style="fill:#BFAB84;" d="M214.068,285.429c-48.454,0-87.874-39.421-87.874-87.874s39.421-87.875,87.874-87.875
					c48.454,0,87.874,39.421,87.874,87.875S262.522,285.429,214.068,285.429z"/>
			</g>
			<g>
				<path style="fill:#9AD2BC;" d="M214.068,278.314c-44.531,0-80.759-36.229-80.759-80.759s36.229-80.759,80.759-80.759
					c44.531,0,80.759,36.229,80.759,80.759S258.598,278.314,214.068,278.314z"/>
			</g>
			<g>
				<path style="fill:#FBEDB4;" d="M214.068,207.16c-5.207,0-9.606-4.399-9.606-9.606s4.399-9.606,9.606-9.606
					s9.606,4.399,9.606,9.606S219.274,207.16,214.068,207.16z"/>
			</g>
		</g>
		<g>
			<circle style="opacity:0.1;fill:#040000;" cx="43.55" cy="61.516" r="22.833"/>
			<circle style="fill:#FFFFFF;" cx="40.003" cy="58.856" r="22.833"/>
		</g>
		<g>
			<circle style="opacity:0.1;fill:#040000;" cx="43.55" cy="344.855" r="22.833"/>
			<circle style="fill:#FFFFFF;" cx="40.003" cy="342.195" r="22.833"/>
		</g>
		<path style="opacity:0.1;fill:#040000;" d="M466.236,388.191h-97.949c-18.196,0-33.085-14.888-33.085-33.085l0,0
			c0-18.197,14.888-33.085,33.085-33.085h97.949c18.197,0,33.085,14.888,33.085,33.085l0,0
			C499.32,373.303,484.432,388.191,466.236,388.191z"/>
		<path style="fill:#473F3A;" d="M488.173,362.221H346.349c-1.957,0-3.558-1.601-3.558-3.558l0,0c0-1.957,1.601-3.558,3.558-3.558
			h141.824c1.957,0,3.558,1.601,3.558,3.558l0,0C491.73,360.621,490.13,362.221,488.173,362.221z"/>
		<circle style="fill:#040000;" cx="427.488" cy="67.522" r="55.5"/>
		<circle style="fill:#282E35;" cx="427.488" cy="67.522" r="55.5"/>
		<path style="fill:#CEBDBD;" d="M427.488,108.791c-22.756,0-41.269-18.513-41.269-41.269s18.513-41.269,41.269-41.269
			c22.756,0,41.269,18.513,41.269,41.269S450.243,108.791,427.488,108.791z"/>
		<g>
			<path style="fill:#858892;" d="M406.845,296.817c-1.662,0-3.349-0.365-4.945-1.137c-5.661-2.736-8.033-9.543-5.297-15.204
				l29.922-61.913l-48.419-48.419l38.627-111.311c2.062-5.94,8.549-9.085,14.488-7.024c5.94,2.062,9.085,8.548,7.024,14.488
				l-33.95,97.833l49.773,49.773l-36.962,76.48C415.139,294.448,411.076,296.816,406.845,296.817z"/>
		</g>
		<g>
			<path style="fill:#E3E2E2;" d="M413.956,299.284l-17.625,27.814l-24.436-15.485l17.626-27.814
				c4.258-6.72,13.24-8.734,19.96-4.475l0,0C416.228,283.6,418.232,292.536,413.956,299.284z"/>
			<path style="fill:#282E35;" d="M418.214,292.617l-17.626,27.814l-24.436-15.485l17.626-27.814
				c4.258-6.72,13.24-8.734,19.96-4.475v0C420.486,276.933,422.49,285.87,418.214,292.617z"/>
		</g>
		<rect x="412.706" y="346.39" style="fill:#473F3A;" width="25.971" height="24.548"/>
	</g>
	<path style="opacity:0.11;fill:#473F3A;" d="M510.066,19.109c-3.017-7.89-9.284-14.157-17.175-17.175
		C489.641,0.697,486.083,0,482.447,0h-22.513L52.066,407.867h430.38c16.247,0,29.553-13.384,29.553-29.63V29.554
		C512,25.84,511.303,22.358,510.066,19.109z"/>
</g>
</svg>