<?xml version="1.0" encoding="utf-8"?><!-- Uploaded to: SVG Repo, www.svgrepo.com, Generator: SVG Repo Mixer Tools -->
<svg fill="#000000" width="800px" height="800px" viewBox="0 0 24 24" id="tv-stand" data-name="Flat Line" xmlns="http://www.w3.org/2000/svg" class="icon flat-line"><rect id="secondary" x="3" y="15" width="18" height="4" transform="translate(24 34) rotate(180)" style="fill: rgb(44, 169, 188); stroke-width: 2;"></rect><path id="primary" d="M14,11l1,4M9,15l1-4m9-1V4a1,1,0,0,0-1-1H6A1,1,0,0,0,5,4v6a1,1,0,0,0,1,1H18A1,1,0,0,0,19,10ZM3,19H21V15H3Zm0,0h9V15H3Zm2,0v2m14-2v2" style="fill: none; stroke: rgb(0, 0, 0); stroke-linecap: round; stroke-linejoin: round; stroke-width: 2;"></path></svg>