<?xml version="1.0" encoding="utf-8"?>
<!-- Uploaded to: SVG Repo, www.svgrepo.com, Generator: SVG Repo Mixer Tools -->
<svg width="800px" height="800px" viewBox="0 0 1024 1024" class="icon"  version="1.1" xmlns="http://www.w3.org/2000/svg"><path d="M877.3 345c-6.4-103-91.8-184.3-196.3-184.3-104.5 0-189.9 81.3-196.3 184.3h44.4c6.3-79 71.9-140 151.8-140s145.5 61 151.8 140h0.1v430h45V345h-0.5z" fill="#A1E4FD" /><path d="M882 779h-53V346.5l-0.1-1.2C822.7 267.6 759.2 209 681.1 209c-78.1 0-141.6 58.6-147.8 136.3l-0.3 3.7h-52.4l0.3-4.2c3.2-51 25.4-98.4 62.6-133.4 37.4-35.2 86.2-54.6 137.7-54.6 51.4 0 100.3 19.4 137.6 54.6 36.3 34.2 58.3 80.2 62.3 129.7h0.9V779z m-45-8h37V349h-0.4l-0.2-3.8c-6.3-101.2-90.7-180.5-192.3-180.5-100.1 0-183.6 77.1-192 176.3h36.5c3.9-37.9 21.3-72.7 49.2-98.5 28.9-26.7 66.6-41.4 106.3-41.4s77.4 14.7 106.3 41.4c27.9 25.8 45.3 60.7 49.2 98.5h0.5v430z" fill="#515151" /><path d="M401.1 509.7L317.8 593c-37.7 37.7-98.8 37.7-136.4 0-37.7-37.7-37.7-98.8 0-136.4l83.3-83.3c37.7-37.7 98.8-37.7 136.4 0 37.7 37.6 37.7 98.7 0 136.4z" fill="#2CC4FE" /><path d="M249.7 625.1c-25.7 0-51.5-9.8-71-29.4-39.2-39.2-39.2-102.9 0-142.1l83.3-83.3c39.2-39.2 102.9-39.2 142.1 0 39.2 39.2 39.2 102.9 0 142.1l-83.3 83.3c-19.7 19.6-45.4 29.4-71.1 29.4zM332.9 349c-23.7 0-47.4 9-65.4 27l-83.3 83.3c-36.1 36.1-36.1 94.7 0 130.8 36.1 36.1 94.7 36.1 130.8 0l83.3-83.3c36.1-36.1 36.1-94.7 0-130.8-18-18-41.7-27-65.4-27z" fill="#515151" /><path d="M564.8 389.5h-50.2c-19.3 0-34.9-15.6-34.9-34.9v-48.7c0-19.3 15.6-34.9 34.9-34.9h50.2c19.3 0 34.9 15.6 34.9 34.9v48.7c0 19.3-15.7 34.9-34.9 34.9z" fill="#2CC4FE" /><path d="M564.8 393.5h-50.2c-21.5 0-38.9-17.5-38.9-38.9v-48.7c0-21.5 17.5-38.9 38.9-38.9h50.2c21.5 0 38.9 17.5 38.9 38.9v48.7c0 21.4-17.5 38.9-38.9 38.9zM514.6 275c-17 0-30.9 13.9-30.9 30.9v48.7c0 17 13.9 30.9 30.9 30.9h50.2c17 0 30.9-13.9 30.9-30.9v-48.7c0-17-13.9-30.9-30.9-30.9h-50.2z" fill="#515151" /><path d="M526.1 345H423.6c-29.8 0-58.4 11.8-79.5 32.9L107.4 614.6c-57.9 57.9-57.9 151.8 0 209.7 57.9 57.9 151.8 57.9 209.7 0l288.5-288.5c0.9-0.9 1.8-1.9 2.7-2.8 67.2-70.9 15.5-188-82.2-188z" fill="#A1E4FD" /><path d="M212.3 871.7c-40.7 0-78.9-15.8-107.7-44.6-59.4-59.4-59.4-156 0-215.3l236.7-236.7c22-22 51.2-34.1 82.3-34.1h102.5c47.3 0 88.2 27.1 107 70.7 18.4 42.9 10 90.4-21.9 124-0.9 1-1.9 1.9-2.8 2.9L319.9 827.1c-28.7 28.7-67 44.6-107.6 44.6zM423.6 349c-28.9 0-56.2 11.3-76.6 31.7L110.3 617.4C83 644.6 68 680.9 68 719.4s15 74.8 42.3 102c27.2 27.2 63.5 42.3 102 42.3s74.8-15 102-42.3l288.5-288.5 2.7-2.7c29.7-31.3 37.5-75.5 20.3-115.4-17.5-40.6-55.6-65.9-99.6-65.9H423.6z" fill="#515151" /><path d="M393.4 709.1m-187.2 0a187.2 187.2 0 1 0 374.4 0 187.2 187.2 0 1 0-374.4 0Z" fill="#2CC4FE" /><path d="M393.4 900.3c-105.4 0-191.2-85.8-191.2-191.2S288 518 393.4 518s191.2 85.8 191.2 191.2-85.8 191.1-191.2 191.1z m0-374.3c-101 0-183.2 82.2-183.2 183.2s82.2 183.2 183.2 183.2 183.2-82.2 183.2-183.2S494.4 526 393.4 526z" fill="#515151" /><path d="M393.4 709.1m-73.6 0a73.6 73.6 0 1 0 147.2 0 73.6 73.6 0 1 0-147.2 0Z" fill="#A1E4FD" /><path d="M393.4 786.7c-42.8 0-77.6-34.8-77.6-77.6s34.8-77.6 77.6-77.6 77.6 34.8 77.6 77.6-34.8 77.6-77.6 77.6z m0-147.1c-38.4 0-69.6 31.2-69.6 69.6s31.2 69.6 69.6 69.6c38.4 0 69.6-31.2 69.6-69.6s-31.2-69.6-69.6-69.6z" fill="#515151" /><path d="M921.9 896.3h-133c-21 0-38-17-38-38s17-38 38-38h133c21 0 38 17 38 38s-17 38-38 38z" fill="#2CC4FE" /><path d="M921.9 900.3h-133c-23.2 0-42-18.9-42-42s18.9-42 42-42h133c23.2 0 42 18.9 42 42s-18.8 42-42 42z m-133-76.1c-18.8 0-34 15.3-34 34s15.3 34 34 34h133c18.8 0 34-15.3 34-34s-15.3-34-34-34h-133z" fill="#515151" /><path d="M894.9 820.2h-79.1c-12.5 0-22.6-10.1-22.6-22.6 0-12.5 10.1-22.6 22.6-22.6h79.1c12.5 0 22.6 10.1 22.6 22.6 0 12.5-10.1 22.6-22.6 22.6z" fill="#2CC4FE" /><path d="M894.9 824.2h-79.1c-14.7 0-26.6-11.9-26.6-26.6s11.9-26.6 26.6-26.6h79.1c14.7 0 26.6 11.9 26.6 26.6s-11.9 26.6-26.6 26.6z m-79-45.2c-10.3 0-18.6 8.3-18.6 18.6s8.3 18.6 18.6 18.6H895c10.3 0 18.6-8.3 18.6-18.6S905.3 779 895 779h-79.1z" fill="#515151" /></svg>