<?xml version="1.0" encoding="iso-8859-1"?>
<!-- Uploaded to: SVG Repo, www.svgrepo.com, Generator: SVG Repo Mixer Tools -->
<!DOCTYPE svg PUBLIC "-//W3C//DTD SVG 1.1//EN" "http://www.w3.org/Graphics/SVG/1.1/DTD/svg11.dtd">
<svg fill="#000000" height="800px" width="800px" version="1.1" id="Capa_1" xmlns="http://www.w3.org/2000/svg" xmlns:xlink="http://www.w3.org/1999/xlink" 
	 viewBox="0 0 452.12 452.12" xml:space="preserve">
<g>
	<path d="M153.404,207.536c-1.837-0.597-3.813,0.403-4.413,2.242c-8.81,26.999-13.661,61.487-13.661,97.11
		c0,35.35,4.786,69.633,13.479,96.536c0.479,1.482,1.852,2.425,3.329,2.425c0.356,0,0.72-0.055,1.077-0.17
		c1.839-0.594,2.849-2.567,2.254-4.407c-8.473-26.226-13.139-59.745-13.139-94.383c0-34.906,4.729-68.623,13.315-94.939
		C156.245,210.111,155.241,208.135,153.404,207.536z"/>
	<path d="M181.531,159.778c-9.637,5.217-18.621,16.596-25.981,32.907c-0.795,1.762-0.011,3.834,1.751,4.63
		c0.467,0.21,0.956,0.311,1.438,0.311c1.334,0,2.607-0.767,3.192-2.062c6.725-14.902,14.655-25.148,22.933-29.629
		c1.7-0.92,2.332-3.044,1.412-4.745C185.354,159.491,183.23,158.859,181.531,159.778z"/>
	<path d="M188.789,57.9c-1.933,0-3.5,1.567-3.5,3.5v75.822c0,1.933,1.567,3.5,3.5,3.5s3.5-1.567,3.5-3.5V61.4
		C192.289,59.467,190.722,57.9,188.789,57.9z"/>
	<path d="M188.789,16.818c-1.933,0-3.5,1.567-3.5,3.5V37.4c0,1.933,1.567,3.5,3.5,3.5s3.5-1.567,3.5-3.5V20.318
		C192.289,18.385,190.722,16.818,188.789,16.818z"/>
	<path d="M238.558,251.724c-1.839-0.598-3.813,0.404-4.413,2.241c-7.193,22.045-11.155,50.195-11.155,79.264
		c0,28.845,3.908,56.827,11.006,78.794c0.479,1.481,1.852,2.425,3.329,2.425c0.356,0,0.72-0.055,1.077-0.17
		c1.839-0.594,2.849-2.567,2.254-4.407c-6.878-21.29-10.666-48.508-10.666-76.642c0-28.352,3.839-55.73,10.81-77.092
		C241.398,254.299,240.396,252.323,238.558,251.724z"/>
	<path d="M260.945,212.889c-8.086,4.377-15.298,13.494-21.437,27.094c-0.795,1.762-0.011,3.835,1.751,4.63
		c0.467,0.211,0.956,0.311,1.438,0.311c1.334,0,2.607-0.767,3.192-2.061c5.416-12.001,11.774-20.238,18.388-23.819
		c1.7-0.92,2.332-3.044,1.412-4.744C264.769,212.601,262.644,211.968,260.945,212.889z"/>
	<path d="M292.146,198.326V82.728h-39.803v106.689c-9.177-22.255-20.683-38.637-33.669-47.816V0h-47.29v140.745
		c-32.955,21.979-55.82,90.75-55.82,168.605c0,49.359,9.23,96.685,25.325,129.842c3.813,7.853,11.905,12.928,20.615,12.928
		l134.725-0.001c8.883,0,17.015-5.16,20.716-13.146c12.646-27.285,19.61-64.127,19.61-103.739
		C336.556,271.987,318.778,217.429,292.146,198.326z M147.187,436.135c-15.647-32.237-24.622-78.449-24.622-126.785
		c0-38.388,5.419-74.618,15.671-104.775c9.791-28.799,23.456-49.728,38.478-58.931l1.672-1.024V7h33.29v138.34l1.58,1.037
		c13.745,9.019,26.39,28.061,35.745,53.767c-25.029,20.458-42.098,74.4-42.098,135.091c0,43.008,8.205,82.594,22.643,109.886h-68.04
		C155.457,445.12,149.837,441.593,147.187,436.135z M310.594,436.03c-2.559,5.521-8.197,9.089-14.364,9.089h-58.698
		c-14.819-25.987-23.63-66.847-23.63-109.885c0-62.359,17.999-116.94,43.771-132.729l1.672-1.024V89.728h25.803v112.33l1.58,1.037
		c25.217,16.544,42.829,70.881,42.829,132.14C329.556,373.291,322.645,410.03,310.594,436.03z"/>
	<path d="M267.164,129.867c-1.933,0-3.5,1.567-3.5,3.5v61.73c0,1.933,1.567,3.5,3.5,3.5s3.5-1.567,3.5-3.5v-61.73
		C270.664,131.434,269.097,129.867,267.164,129.867z"/>
	<path d="M267.164,96.42c-1.933,0-3.5,1.567-3.5,3.5v13.907c0,1.933,1.567,3.5,3.5,3.5s3.5-1.567,3.5-3.5V99.92
		C270.664,97.987,269.097,96.42,267.164,96.42z"/>
</g>
</svg>