<?xml version="1.0" encoding="utf-8"?>
<!-- Uploaded to: SVG Repo, www.svgrepo.com, Generator: SVG Repo Mixer Tools -->
<svg width="800px" height="800px" viewBox="0 0 1024 1024" class="icon"  version="1.1" xmlns="http://www.w3.org/2000/svg"><path d="M779.946667 462.506667c-68.266667 0-126.293333 45.226667-145.066667 107.52 22.186667-30.72 58.026667-50.346667 98.133333-50.346667 67.413333 0 121.173333 54.613333 121.173334 121.173333 0 62.293333-192.853333 338.773333-231.253334 337.066667h-11.946666c-38.4 2.56-237.226667-274.773333-237.226667-337.066667 0-67.413333 54.613333-121.173333 121.173333-121.173333 58.026667 0 106.666667 40.96 118.613334 95.573333 3.413333-13.653333 8.533333-26.453333 15.36-38.4-17.066667-65.706667-75.946667-114.346667-146.773334-114.346666-83.626667 0-151.893333 68.266667-151.893333 151.893333 0 77.653333 202.24 278.186667 250.026667 274.773333 5.12 0 20.48 34.133333 25.6 34.133334 20.48 0.853333 112.64 48.64 170.666666-30.72 75.946667-104.106667 153.6-234.666667 153.6-278.186667 1.706667-83.626667-66.56-151.893333-150.186666-151.893333z" fill="#F48FB1" /><path d="M623.786667 995.84h-11.946667c-11.946667 0.853333-24.746667-5.973333-43.52-23.893333-31.573333-29.866667-85.333333-96.426667-130.56-164.693334C384 751.786667 314.026667 667.306667 314.026667 614.4c0-93.013333 75.946667-168.96 168.96-168.96 63.146667 0 119.466667 34.986667 148.48 87.893333 29.013333-53.76 85.333333-87.893333 148.48-87.893333 93.013333 0 168.96 75.946667 168.96 168.96 0 58.026667-102.4 214.186667-157.013334 288.426667-32.426667 44.373333-75.093333 54.613333-111.786666 52.906666-5.973333 5.973333-11.093333 11.946667-16.213334 17.066667-17.066667 16.213333-29.013333 23.04-40.106666 23.04z m-1.706667-34.133333z m-10.24 0z m5.12 0h5.973333c3.413333-0.853333 8.533333-5.12 16.213334-11.946667-6.826667-1.706667-13.653333-3.413333-18.773334-5.12-5.12-1.706667-11.946667-3.413333-14.506666-3.413333-11.946667-0.853333-17.066667-10.24-26.453334-24.746667-1.706667-2.56-4.266667-6.826667-5.973333-9.386667-8.533333-1.706667-18.773333-5.12-29.013333-11.093333 34.133333 40.96 57.173333 63.146667 65.706666 66.56 2.56-0.853333 5.12-0.853333 6.826667-0.853333z m-1.706667-53.76c4.266667 0.853333 8.533333 2.56 14.506667 3.413333 11.946667 3.413333 24.746667 6.826667 36.693333 8.533333 20.48-23.893333 46.933333-58.026667 77.653334-102.4 61.44-89.6 93.866667-157.013333 93.866666-175.786666C837.973333 583.68 791.04 537.6 733.866667 537.6c-33.28 0-64.853333 16.213333-84.48 43.52l-2.56 2.56c0 0.853333-0.853333 1.706667-1.706667 3.413333-6.826667 10.24-11.093333 21.333333-13.653333 33.28-1.706667 7.68-8.533333 13.653333-17.066667 13.653334s-15.36-5.973333-17.066667-13.653334c-10.24-47.786667-52.906667-81.92-102.4-81.92-58.026667 0-104.106667 46.933333-104.106666 104.106667 0 17.066667 25.6 70.826667 74.24 144.213333l16.213333 16.213334c57.173333 54.613333 91.306667 70.826667 98.133333 70.826666 12.8-0.853333 19.626667 9.386667 29.013334 25.6 2.56 1.706667 5.12 5.12 6.826666 8.533334z m117.76-405.333334c76.8 0 138.24 62.293333 138.24 138.24 0 46.933333-90.453333 190.293333-160.426666 278.186667 19.626667-4.266667 37.546667-15.36 52.906666-36.693333C846.506667 768.853333 913.92 648.533333 913.92 614.4c0-74.24-60.586667-134.826667-134.826667-134.826667-30.72 0-58.88 10.24-81.92 27.306667 11.946667-2.56 23.893333-4.266667 35.84-4.266667z m-250.026666-23.04c-74.24 0-134.826667 60.586667-134.826667 134.826667 0 7.68 3.413333 18.773333 8.533333 30.72v-4.266667c0-76.8 62.293333-138.24 138.24-138.24 42.666667 0 82.773333 20.48 108.373334 52.053334-21.333333-45.226667-68.266667-75.093333-120.32-75.093334z" fill="#EC407A" /><path d="M244.053333 462.506667c68.266667 0 126.293333 45.226667 145.066667 107.52-22.186667-30.72-58.026667-50.346667-98.133333-50.346667-67.413333 0-121.173333 54.613333-121.173334 121.173333 0 62.293333 192.853333 338.773333 231.253334 337.066667h11.946666c38.4 2.56 237.226667-274.773333 237.226667-337.066667 0-67.413333-54.613333-121.173333-121.173333-121.173333-58.026667 0-106.666667 40.96-118.613334 95.573333-3.413333-13.653333-8.533333-26.453333-15.36-38.4 17.066667-65.706667 75.946667-114.346667 146.773334-114.346666 83.626667 0 151.893333 68.266667 151.893333 151.893333 0 77.653333-202.24 278.186667-250.026667 274.773333-5.12 0-20.48 34.133333-25.6 34.133334-20.48 0.853333-112.64 48.64-170.666666-30.72C171.52 788.48 93.866667 657.92 93.866667 614.4c-1.706667-83.626667 66.56-151.893333 150.186666-151.893333z" fill="#F48FB1" /><path d="M400.213333 995.84c-11.093333 0-23.04-6.826667-40.106666-23.04-5.12-5.12-10.24-10.24-16.213334-17.066667-36.693333 1.706667-78.506667-7.68-111.786666-52.906666-54.613333-74.24-157.013333-230.4-157.013334-288.426667 0-93.013333 75.946667-168.96 168.96-168.96 63.146667 0 119.466667 34.133333 148.48 87.893333 29.013333-53.76 85.333333-87.893333 148.48-87.893333 93.013333 0 168.96 75.946667 168.96 168.96 0 52.906667-69.973333 137.386667-124.586666 192.853333-45.226667 67.413333-98.133333 134.826667-130.56 164.693334-18.773333 17.92-31.573333 24.746667-43.52 23.893333H401.066667h-0.853334z m1.706667-34.133333z m10.24 0z m-27.306667-12.8c7.68 6.826667 12.8 11.093333 16.213334 11.946666h11.946666c11.093333-3.413333 35.84-29.866667 65.706667-66.56-10.24 5.973333-19.626667 9.386667-28.16 11.093334-1.706667 2.56-4.266667 6.826667-5.973333 9.386666-9.386667 15.36-14.506667 24.746667-26.453334 24.746667-1.706667 0-8.533333 1.706667-14.506666 3.413333-5.12 2.56-11.093333 4.266667-18.773334 5.973334z m-93.866666-412.16c-58.026667 0-104.106667 46.933333-104.106667 104.106666 0 19.626667 32.426667 86.186667 93.866667 175.786667 29.866667 44.373333 57.173333 78.506667 77.653333 102.4 12.8-1.706667 24.746667-5.12 36.693333-8.533333 5.973333-1.706667 10.24-2.56 14.506667-3.413334 1.706667-2.56 4.266667-6.826667 5.973333-9.386666 9.386667-16.213333 16.213333-26.453333 29.013334-25.6 7.68 0 40.96-16.213333 98.133333-70.826667l15.36-15.36c41.813333-62.293333 75.093333-122.026667 75.093333-145.92 0-58.026667-46.933333-104.106667-104.106666-104.106667-48.64 0-92.16 34.986667-102.4 81.92-1.706667 7.68-8.533333 13.653333-17.066667 13.653334-7.68 0-15.36-5.973333-17.066667-13.653334-2.56-11.946667-6.826667-23.04-13.653333-33.28-0.853333-0.853333-0.853333-1.706667-1.706667-3.413333l-2.56-2.56c-18.773333-25.6-50.346667-41.813333-83.626666-41.813333z m-46.933334-57.173334c-74.24 0-134.826667 60.586667-134.826666 134.826667 0 34.133333 67.413333 154.453333 150.186666 267.946667 15.36 21.333333 34.133333 32.426667 52.906667 36.693333-69.973333-87.893333-160.426667-230.4-160.426667-278.186667 0-76.8 62.293333-138.24 138.24-138.24 11.946667 0 23.893333 1.706667 34.986667 4.266667-22.186667-17.066667-50.346667-27.306667-81.066667-27.306667z m284.16 23.04c76.8 0 138.24 62.293333 138.24 138.24v4.266667c5.973333-11.946667 8.533333-23.04 8.533334-30.72 0-74.24-60.586667-134.826667-134.826667-134.826667-52.053333 0-98.133333 29.866667-120.32 75.093334 26.453333-31.573333 65.706667-52.053333 108.373333-52.053334z" fill="#EC407A" /><path d="M721.92 67.413333c-10.24-12.8-27.306667-16.213333-38.4-6.826666-3.413333 2.56-5.973333 6.826667-7.68 11.093333L537.6 196.266667l34.986667 39.253333 139.093333-125.44c2.56-0.853333 5.973333-1.706667 7.68-4.266667 11.093333-8.533333 12.8-25.6 2.56-38.4z" fill="#FFFFFF" /><path d="M572.586667 252.586667H571.733333c-4.266667 0-8.533333-2.56-11.946666-5.973334l-34.986667-39.253333c-5.973333-6.826667-5.973333-17.92 0.853333-23.893333l136.533334-122.026667c2.56-5.973333 6.826667-10.24 11.093333-14.506667 18.773333-14.506667 46.08-10.24 62.293333 10.24 15.36 19.626667 13.653333 47.786667-5.12 62.293334-2.56 2.56-5.973333 4.266667-9.386666 5.12L584.533333 247.466667c-3.413333 3.413333-7.68 5.12-11.946666 5.12z m-11.093334-54.613334l11.946667 13.653334L699.733333 98.133333c1.706667-1.706667 4.266667-3.413333 6.826667-3.413333 0.853333 0 1.706667-0.853333 1.706667-0.853333 3.413333-2.56 3.413333-9.386667-0.853334-14.506667-4.266667-5.12-10.24-6.826667-14.506666-4.266667-0.853333 0.853333-1.706667 1.706667-1.706667 2.56-0.853333 2.56-2.56 5.12-4.266667 6.826667L561.493333 197.973333z" fill="#EC407A" /><path d="M610.133333 1000.106667h-196.266666c-98.986667 0-174.08-88.746667-158.72-186.026667l64-394.24h392.533333l58.026667 395.946667c13.653333 97.28-61.44 184.32-159.573334 184.32z" fill="#FCE4EC" /><path d="M610.133333 1017.173333h-196.266666c-52.053333 0-101.546667-23.04-135.68-62.293333-34.133333-40.106667-48.64-92.16-40.106667-143.36l64-394.24c1.706667-8.533333 8.533333-14.506667 17.066667-14.506667h392.533333c8.533333 0 15.36 5.973333 17.066667 14.506667l58.026666 395.946667c7.68 51.2-7.68 103.253333-40.96 141.653333-34.986667 40.106667-83.626667 62.293333-135.68 62.293333zM332.8 436.906667l-61.44 379.733333c-6.826667 41.813333 5.12 83.626667 32.426667 116.053333 27.306667 32.426667 67.413333 50.346667 109.226666 50.346667h197.12c41.813333 0 81.066667-17.92 108.373334-49.493333 27.306667-31.573333 39.253333-73.386667 33.28-114.346667l-56.32-381.44H332.8z" fill="#EC407A" /><path d="M761.173333 816.64l-58.026666-395.946667h-59.733334l58.026667 395.946667c14.506667 97.28-60.586667 184.32-158.72 184.32h59.733333c97.28-0.853333 172.373333-87.893333 158.72-184.32z" fill="#F8BBD0" /><path d="M610.133333 1017.173333h-196.266666c-52.053333 0-101.546667-23.04-135.68-62.293333-34.133333-40.106667-48.64-92.16-40.106667-143.36l64-394.24c1.706667-8.533333 8.533333-14.506667 17.066667-14.506667h392.533333c8.533333 0 15.36 5.973333 17.066667 14.506667l58.026666 395.946667c7.68 51.2-7.68 103.253333-40.96 141.653333-34.986667 40.106667-83.626667 62.293333-135.68 62.293333zM332.8 436.906667l-61.44 379.733333c-6.826667 41.813333 5.12 83.626667 32.426667 116.053333 27.306667 32.426667 67.413333 50.346667 109.226666 50.346667h197.12c41.813333 0 81.066667-17.92 108.373334-49.493333 27.306667-31.573333 39.253333-73.386667 33.28-114.346667l-56.32-381.44H332.8z" fill="#EC407A" /><path d="M678.4 237.226667c0-84.48-69.12-153.6-153.6-153.6 1.706667 0 2.56 76.8 2.56 153.6 0.853333-4.266667 151.04-4.266667 151.04 0z" fill="#FFFFFF" /><path d="M527.36 254.293333h-1.706667c-8.533333-0.853333-15.36-8.533333-15.36-17.066666 0-84.48-0.853333-138.24-1.706666-148.48-0.853333-1.706667-0.853333-3.413333-0.853334-5.12 0-9.386667 7.68-17.066667 17.066667-17.066667 93.866667 0 170.666667 76.8 170.666667 170.666667 0 9.386667-7.68 17.066667-17.066667 17.066666-1.706667 0-4.266667 0-5.973333-0.853333-17.92-2.56-122.026667-1.706667-139.093334 0-1.706667 0-3.413333 0.853333-5.973333 0.853333z m17.066667-13.653333c-0.853333 2.56-1.706667 5.12-3.413334 6.826667 0.853333-1.706667 2.56-3.413333 3.413334-6.826667z m116.906666-3.413333c0 3.413333 0.853333 5.973333 1.706667 8.533333-0.853333-3.413333-1.706667-5.973333-1.706667-8.533333z m-58.026666-20.48c20.48 0 41.813333 0 57.173333 0.853333-8.533333-60.586667-56.32-108.373333-116.906667-116.053333 0 7.68 0.853333 17.92 0.853334 29.013333 0 23.893333 0.853333 53.76 0.853333 87.04 11.093333-0.853333 27.306667-0.853333 48.64-0.853333h9.386667z m-88.746667-119.466667c2.56 1.706667 5.973333 3.413333 10.24 3.413333-3.413333 0-6.826667-1.706667-10.24-3.413333z" fill="#EC407A" /><path d="M345.6 237.226667c0-117.76 95.573333-213.333333 213.333333-213.333334-2.56 0-3.413333 106.666667-3.413333 213.333334-1.706667-5.12-209.92-5.12-209.92 0z" fill="#FFEE58" /><path d="M555.52 254.293333c-2.56 0-4.266667-0.853333-6.826667-1.706666-22.186667-3.413333-174.08-3.413333-196.266666 0-1.706667 0.853333-4.266667 1.706667-6.826667 1.706666-9.386667 0-17.066667-7.68-17.066667-17.066666 0-127.146667 103.253333-230.4 230.4-230.4 9.386667 0 17.066667 7.68 17.066667 17.066666 0 1.706667 0 3.413333-0.853333 5.12-1.706667 12.8-2.56 87.893333-2.56 208.213334 0 8.533333-6.826667 16.213333-15.36 17.066666-0.853333-0.853333-1.706667 0-1.706667 0z m-192.853333-17.066666c0 2.56 0 4.266667-0.853334 5.973333 0-1.706667 0.853333-4.266667 0.853334-5.973333z m175.786666 3.413333z m0 0z m-175.786666-3.413333z m87.04-21.333334h13.653333c24.746667 0 47.786667 0.853333 64 0.853334H537.6c0-48.64 0-93.013333 0.853333-128 0-20.48 0.853333-36.693333 0.853334-48.64-93.013333 8.533333-167.253333 82.773333-176.64 175.786666 22.186667 0.853333 55.466667 0 87.04 0zM567.466667 38.4c-2.56 1.706667-5.973333 2.56-8.533334 2.56 3.413333 0 6.826667-1.706667 8.533334-2.56z" fill="#EC407A" /><path d="M589.653333 899.413333c-100.693333-162.133333-98.986667-360.96 4.266667-521.386666h-76.8c-104.96 162.986667-104.96 366.08 0 529.066666 0 0 17.066667 42.666667 47.786667 32.426667 17.92-5.973333 31.573333-18.773333 28.16-32.426667 0 0-0.853333-2.56-1.706667-4.266666s-0.853333-2.56-1.706667-3.413334z" fill="#FFFFFF" /><path d="M555.52 958.293333c-27.306667 0-46.08-26.453333-53.76-43.52-108.373333-168.96-107.52-378.026667 0.853333-546.133333 3.413333-5.12 8.533333-7.68 14.506667-7.68h76.8c5.973333 0 11.946667 3.413333 15.36 8.533333 3.413333 5.12 2.56 11.946667-0.853333 17.066667-99.84 154.453333-101.546667 347.306667-5.12 503.466667 0.853333 1.706667 2.56 3.413333 3.413333 5.12 1.706667 2.56 2.56 5.973333 2.56 7.68 5.12 22.186667-11.093333 43.52-39.253333 52.906666-5.12 1.706667-10.24 2.56-14.506667 2.56z m-29.013333-564.053333c-96.426667 156.16-94.72 348.16 5.12 503.466667 0.853333 0.853333 0.853333 1.706667 1.706666 2.56 0 0 11.946667 27.306667 26.453334 23.04 11.946667-3.413333 17.066667-10.24 17.066666-12.8v-0.853334l-0.853333-1.706666c-98.133333-158.72-102.4-352.426667-11.093333-513.706667h-38.4z m50.346666 517.973333z m-0.853333-1.706666z" fill="#EC407A" /><path d="M746.666667 453.973333h-469.333334V338.773333c0-40.106667 32.426667-71.68 71.68-71.68H674.133333c40.106667 0 71.68 32.426667 71.68 71.68v115.2z" fill="#F48FB1" /><path d="M746.666667 471.04h-469.333334c-9.386667 0-17.066667-7.68-17.066666-17.066667V338.773333c0-49.493333 40.106667-88.746667 88.746666-88.746666H674.133333c49.493333 0 88.746667 40.106667 88.746667 88.746666v116.053334c0.853333 9.386667-6.826667 16.213333-16.213333 16.213333z m-452.266667-34.133333h435.2V338.773333c0-30.72-24.746667-54.613333-54.613333-54.613333H349.013333c-30.72 0-54.613333 24.746667-54.613333 54.613333v98.133334z" fill="#EC407A" /><path d="M345.6 240.64h332.8v25.6h-332.8z" fill="#F48FB1" /><path d="M678.4 283.306667h-332.8c-9.386667 0-17.066667-7.68-17.066667-17.066667v-25.6c0-9.386667 7.68-17.066667 17.066667-17.066667h332.8c9.386667 0 17.066667 7.68 17.066667 17.066667v25.6c0 10.24-7.68 17.066667-17.066667 17.066667z" fill="#EC407A" /></svg>