<?xml version="1.0" encoding="iso-8859-1"?>
<!-- Uploaded to: SVG Repo, www.svgrepo.com, Generator: SVG Repo Mixer Tools -->
<svg height="800px" width="800px" version="1.1" id="Layer_1" xmlns="http://www.w3.org/2000/svg" xmlns:xlink="http://www.w3.org/1999/xlink" 
	 viewBox="0 0 512 512" xml:space="preserve">
<g transform="translate(1 1)">
	<path style="fill:#FFDD09;" d="M461.507,421.4H22.893c-8.533,0-15.36-6.827-15.36-15.36V103.96c0-8.533,6.827-15.36,15.36-15.36
		h438.613c8.533,0,15.36,6.827,15.36,15.36v302.08C476.867,414.573,470.04,421.4,461.507,421.4"/>
	<path style="fill:#FD9808;" d="M487.107,88.6h-25.6c8.533,0,15.36,6.827,15.36,15.36v302.08c0,8.533-6.827,15.36-15.36,15.36h25.6
		c8.533,0,15.36-6.827,15.36-15.36V103.96C502.467,95.427,495.64,88.6,487.107,88.6"/>
	<path style="fill:#FFFFFF;" d="M22.893,88.6h25.6c-8.533,0-15.36,6.827-15.36,15.36v302.08c0,8.533,6.827,15.36,15.36,15.36h-25.6
		c-8.533,0-15.36-6.827-15.36-15.36V103.96C7.533,95.427,14.36,88.6,22.893,88.6"/>
	<path style="fill:#54C9FD;" d="M92.867,310.467c28.16,0,51.2,15.36,51.2,34.133c0,18.773-23.04,34.133-51.2,34.133
		s-51.2-15.36-51.2-34.133C41.667,325.827,64.707,310.467,92.867,310.467"/>
	<path style="fill:#FCC309;" d="M365.933,344.6c0-5.973,2.56-11.947,6.827-17.067H137.24c4.267,5.12,6.827,11.093,6.827,17.067
		s-2.56,11.947-6.827,17.067h235.52C368.493,356.547,365.933,350.573,365.933,344.6"/>
	<path style="fill:#54C9FD;" d="M391.533,310.467c28.16,0,51.2,15.36,51.2,34.133c0,18.773-23.04,34.133-51.2,34.133
		s-17.067-15.36-17.067-34.133C374.467,325.827,363.373,310.467,391.533,310.467"/>
	<g>
		<path style="fill:#33A9F8;" d="M417.133,310.467c-4.267,0-8.533,0-12.8,0.853c22.187,3.413,38.4,17.067,38.4,33.28
			s-16.213,29.013-38.4,33.28c4.267,0.853,8.533,0.853,12.8,0.853c28.16,0,51.2-15.36,51.2-34.133
			C468.333,325.827,445.293,310.467,417.133,310.467"/>
		<path style="fill:#33A9F8;" d="M92.867,310.467c-4.267,0-8.533,0-12.8,0.853c22.187,3.413,38.4,17.067,38.4,33.28
			s-16.213,29.013-38.4,33.28c4.267,0.853,8.533,0.853,12.8,0.853c28.16,0,51.2-15.36,51.2-34.133
			C144.067,325.827,121.027,310.467,92.867,310.467"/>
	</g>
	<path style="fill:#DB4D6C;" d="M151.747,242.2h-92.16c-5.12,0-9.387-4.267-9.387-9.387v-92.16c0-5.12,4.267-9.387,9.387-9.387
		h92.16c5.12,0,9.387,4.267,9.387,9.387v92.16C161.133,237.933,156.867,242.2,151.747,242.2"/>
	<path style="fill:#1CD759;" d="M296.813,242.2h-83.627c-5.12,0-9.387-4.267-9.387-9.387v-92.16c0-5.12,4.267-9.387,9.387-9.387
		h83.627c5.12,0,9.387,4.267,9.387,9.387v92.16C306.2,237.933,301.933,242.2,296.813,242.2"/>
	<path style="fill:#54C9FD;" d="M424.813,242.2h-66.56c-5.12,0-9.387-4.267-9.387-9.387v-92.16c0-5.12,4.267-9.387,9.387-9.387
		h66.56c5.12,0,9.387,4.267,9.387,9.387v92.16C434.2,237.933,429.933,242.2,424.813,242.2"/>
	<path style="fill:#33A9F8;" d="M450.413,131.267h-25.6c5.12,0,9.387,4.267,9.387,9.387v92.16c0,5.12-4.267,9.387-9.387,9.387h25.6
		c5.12,0,9.387-4.267,9.387-9.387v-92.16C459.8,135.533,455.533,131.267,450.413,131.267"/>
	<path style="fill:#15A143;" d="M296.813,131.267h-25.6c5.12,0,9.387,4.267,9.387,9.387v92.16c0,5.12-4.267,9.387-9.387,9.387h25.6
		c5.12,0,9.387-4.267,9.387-9.387v-92.16C306.2,135.533,301.933,131.267,296.813,131.267"/>
	<path style="fill:#D21F47;" d="M152.6,131.267H127c5.12,0,9.387,4.267,9.387,9.387v92.16c0,5.12-4.267,9.387-9.387,9.387h25.6
		c5.12,0,9.387-4.267,9.387-9.387v-92.16C161.987,135.533,157.72,131.267,152.6,131.267"/>
	<path d="M487.107,429.933H22.893C10.093,429.933-1,419.693-1,406.04V103.96c0-12.8,10.24-23.893,23.893-23.893h464.213
		c12.8,0,23.893,10.24,23.893,23.893v302.08C511,419.693,500.76,429.933,487.107,429.933z M22.893,97.133
		c-3.413,0-6.827,3.413-6.827,6.827v302.08c0,3.413,3.413,6.827,6.827,6.827h464.213c3.413,0,6.827-3.413,6.827-6.827V103.96
		c0-3.413-3.413-6.827-6.827-6.827C487.107,97.133,22.893,97.133,22.893,97.133z"/>
	<path d="M151.747,250.733h-92.16c-10.24,0-17.92-7.68-17.92-17.92v-92.16c0-10.24,7.68-17.92,17.92-17.92h92.16
		c10.24,0,17.92,8.533,17.92,17.92v92.16C169.667,243.053,161.987,250.733,151.747,250.733z M59.587,139.8
		C58.733,139.8,58.733,140.653,59.587,139.8l-0.853,93.013c0,0.853,0,0.853,0.853,0.853h92.16c0.853,0,0.853,0,0.853-0.853v-92.16
		c0-0.853,0-0.853-0.853-0.853H59.587z"/>
	<path d="M296.813,250.733h-83.627c-10.24,0-17.92-7.68-17.92-17.92v-92.16c0-10.24,7.68-17.92,17.92-17.92h83.627
		c10.24,0,17.92,8.533,17.92,17.92v92.16C314.733,243.053,307.053,250.733,296.813,250.733z M213.187,139.8
		C212.333,139.8,212.333,140.653,213.187,139.8l-0.853,93.013c0,0.853,0,0.853,0.853,0.853h83.627c0.853,0,0.853,0,0.853-0.853
		v-92.16c0-0.853,0-0.853-0.853-0.853H213.187z"/>
	<path d="M450.413,250.733h-92.16c-10.24,0-17.92-7.68-17.92-17.92v-92.16c0-10.24,7.68-17.92,17.92-17.92h92.16
		c10.24,0,17.92,8.533,17.92,17.92v92.16C468.333,243.053,460.653,250.733,450.413,250.733z M358.253,139.8
		C357.4,139.8,357.4,140.653,358.253,139.8l-0.853,93.013c0,0.853,0,0.853,0.853,0.853h92.16c0.853,0,0.853,0,0.853-0.853v-92.16
		c0-0.853,0-0.853-0.853-0.853H358.253z"/>
	<path d="M92.867,387.267c-33.28,0-59.733-18.773-59.733-42.667c0-23.893,26.453-42.667,59.733-42.667S152.6,320.707,152.6,344.6
		C152.6,368.493,126.147,387.267,92.867,387.267z M92.867,319c-23.04,0-42.667,11.947-42.667,25.6c0,13.653,19.627,25.6,42.667,25.6
		s42.667-11.947,42.667-25.6S115.907,319,92.867,319z"/>
	<path d="M417.133,387.267c-33.28,0-59.733-18.773-59.733-42.667c0-23.893,26.453-42.667,59.733-42.667s59.733,18.773,59.733,42.667
		C476.867,368.493,450.413,387.267,417.133,387.267z M417.133,319c-23.04,0-42.667,11.947-42.667,25.6
		c0,13.653,19.627,25.6,42.667,25.6s42.667-11.947,42.667-25.6S440.173,319,417.133,319z"/>
	<path d="M391.533,370.2H118.467l11.947-14.507c3.413-3.413,5.12-7.68,5.12-11.093s-1.707-7.68-5.12-11.093L118.467,319h273.067
		l-11.947,14.507c-3.413,3.413-5.12,7.68-5.12,11.093s1.707,7.68,5.12,11.093L391.533,370.2z M151.747,353.133h207.36
		c-0.853-2.56-0.853-5.973-0.853-8.533s0-5.973,0.853-8.533h-207.36c0.853,2.56,0.853,5.973,0.853,8.533
		S152.6,350.573,151.747,353.133z"/>
</g>
</svg>