<?xml version="1.0" encoding="iso-8859-1"?>
<!-- Uploaded to: SVG Repo, www.svgrepo.com, Generator: SVG Repo Mixer Tools -->
<svg height="800px" width="800px" version="1.1" id="Layer_1" xmlns="http://www.w3.org/2000/svg" xmlns:xlink="http://www.w3.org/1999/xlink" 
	 viewBox="0 0 512 512" xml:space="preserve">
<g transform="translate(1 1)">
	<path style="fill:#FFDD09;" d="M461.507,447H22.893c-8.533,0-15.36-6.827-15.36-15.36V78.36c0-8.533,6.827-15.36,15.36-15.36
		h438.613c8.533,0,15.36,6.827,15.36,15.36v353.28C476.867,440.173,470.04,447,461.507,447"/>
	<path style="fill:#54C9FD;" d="M424.813,233.667h-83.627c-5.12,0-9.387-4.267-9.387-9.387V115.053c0-5.12,4.267-9.387,9.387-9.387
		h83.627c5.12,0,9.387,4.267,9.387,9.387V224.28C434.2,229.4,429.933,233.667,424.813,233.667"/>
	<path style="fill:#FD9808;" d="M487.107,63h-25.6c8.533,0,15.36,6.827,15.36,15.36v353.28c0,8.533-6.827,15.36-15.36,15.36h25.6
		c8.533,0,15.36-6.827,15.36-15.36V78.36C502.467,69.827,495.64,63,487.107,63"/>
	<path style="fill:#FFFFFF;" d="M22.893,447h25.6c-8.533,0-15.36-6.827-15.36-15.36V78.36c0-8.533,6.827-15.36,15.36-15.36h-25.6
		c-8.533,0-15.36,6.827-15.36,15.36v353.28C7.533,440.173,14.36,447,22.893,447"/>
	<path style="fill:#54C9FD;" d="M220.867,361.667c0-23.893,9.387-42.667,21.333-42.667s21.333,18.773,21.333,42.667
		c0,23.893-9.387,42.667-21.333,42.667S220.867,385.56,220.867,361.667"/>
	<g>
		<path style="fill:#33A9F8;" d="M220.867,361.667L220.867,361.667L220.867,361.667L220.867,361.667L220.867,361.667"/>
		<path style="fill:#33A9F8;" d="M255,319c-2.56,0-5.12,0.853-7.68,0.853c9.387,4.267,16.213,21.333,16.213,41.813
			s-6.827,36.693-16.213,41.813c2.56,0.853,5.12,0.853,7.68,0.853c18.773,0,34.133-18.773,34.133-42.667
			C289.133,338.627,273.773,319,255,319"/>
	</g>
	<path style="fill:#54C9FD;" d="M220.867,148.333c0-23.893,9.387-42.667,21.333-42.667s21.333,18.773,21.333,42.667
		S254.147,191,242.2,191S220.867,172.227,220.867,148.333"/>
	<g>
		<path style="fill:#33A9F8;" d="M220.867,148.333L220.867,148.333L220.867,148.333L220.867,148.333L220.867,148.333"/>
		<path style="fill:#33A9F8;" d="M255,105.667c-2.56,0-5.12,0.853-7.68,0.853c9.387,4.267,16.213,21.333,16.213,41.813
			s-6.827,36.693-16.213,41.813C249.88,191,252.44,191,255,191c18.773,0,34.133-18.773,34.133-42.667S273.773,105.667,255,105.667"
			/>
	</g>
	<g>
		<path style="fill:#1CD759;" d="M255,319c5.973,0,11.947,2.56,17.067,5.973V185.027C266.947,188.44,260.973,191,255,191
			s-11.947-2.56-17.067-5.973v139.947C243.053,321.56,249.027,319,255,319"/>
		<path style="fill:#1CD759;" d="M143.213,233.667H59.587c-5.12,0-9.387-4.267-9.387-9.387V115.053c0-5.12,4.267-9.387,9.387-9.387
			h83.627c5.12,0,9.387,4.267,9.387,9.387V224.28C152.6,229.4,148.333,233.667,143.213,233.667"/>
	</g>
	<path style="fill:#15A143;" d="M168.813,105.667h-25.6c5.12,0,9.387,4.267,9.387,9.387V224.28c0,5.12-4.267,9.387-9.387,9.387h25.6
		c5.12,0,9.387-4.267,9.387-9.387V115.053C178.2,109.933,173.933,105.667,168.813,105.667"/>
	<path style="fill:#54C9FD;" d="M168.813,404.333H59.587c-5.12,0-9.387-4.267-9.387-9.387V285.72c0-5.12,4.267-9.387,9.387-9.387
		H167.96c5.12,0,9.387,4.267,9.387,9.387v108.373C178.2,400.067,173.933,404.333,168.813,404.333"/>
	<path style="fill:#DB4D6C;" d="M424.813,404.333h-83.627c-5.12,0-9.387-4.267-9.387-9.387V285.72c0-5.12,4.267-9.387,9.387-9.387
		h83.627c5.12,0,9.387,4.267,9.387,9.387v108.373C434.2,400.067,429.933,404.333,424.813,404.333"/>
	<path style="fill:#D21F47;" d="M450.413,276.333h-25.6c5.12,0,9.387,4.267,9.387,9.387v108.373c0,5.12-4.267,9.387-9.387,9.387
		h25.6c5.12,0,9.387-4.267,9.387-9.387V285.72C459.8,280.6,455.533,276.333,450.413,276.333"/>
	<g>
		<path style="fill:#33A9F8;" d="M450.413,105.667h-25.6c5.12,0,9.387,4.267,9.387,9.387V224.28c0,5.12-4.267,9.387-9.387,9.387
			h25.6c5.12,0,9.387-4.267,9.387-9.387V115.053C459.8,109.933,455.533,105.667,450.413,105.667"/>
		<path style="fill:#33A9F8;" d="M168.813,276.333h-25.6c5.12,0,9.387,4.267,9.387,9.387v108.373c0,5.12-4.267,9.387-9.387,9.387
			h25.6c5.12,0,9.387-4.267,9.387-9.387V285.72C178.2,280.6,173.933,276.333,168.813,276.333"/>
	</g>
	<path d="M487.107,455.533H22.893C10.093,455.533-1,445.293-1,431.64V78.36c0-12.8,10.24-23.893,23.893-23.893h464.213
		c12.8,0,23.893,10.24,23.893,23.893v353.28C511,445.293,500.76,455.533,487.107,455.533z M22.893,71.533
		c-3.413,0-6.827,3.413-6.827,6.827v353.28c0,3.413,3.413,6.827,6.827,6.827h464.213c3.413,0,6.827-3.413,6.827-6.827V78.36
		c0-3.413-3.413-6.827-6.827-6.827C487.107,71.533,22.893,71.533,22.893,71.533z"/>
	<path d="M255,412.867c-23.893,0-42.667-23.04-42.667-51.2s18.773-51.2,42.667-51.2s42.667,23.04,42.667,51.2
		S278.893,412.867,255,412.867z M255,327.533c-14.507,0-25.6,15.36-25.6,34.133S240.493,395.8,255,395.8
		c14.507,0,25.6-15.36,25.6-34.133S269.507,327.533,255,327.533z"/>
	<path d="M255,199.533c-23.893,0-42.667-23.04-42.667-51.2s18.773-51.2,42.667-51.2s42.667,23.04,42.667,51.2
		S278.893,199.533,255,199.533z M255,114.2c-14.507,0-25.6,15.36-25.6,34.133s11.093,34.133,25.6,34.133
		c14.507,0,25.6-15.36,25.6-34.133S269.507,114.2,255,114.2z"/>
	<path d="M168.813,242.2H59.587c-9.387,0-17.92-7.68-17.92-17.92V115.053c0-10.24,8.533-17.92,17.92-17.92h109.227
		c9.387,0,17.92,8.533,17.92,17.92V224.28C186.733,234.52,178.2,242.2,168.813,242.2z M59.587,114.2l-0.853,0.853V224.28
		c0,0.853,0.853,0.853,0.853,0.853h109.227c0.853,0,0.853-0.853,0.853-0.853V115.053c0-0.853-0.853-0.853-0.853-0.853H59.587z"/>
	<path d="M168.813,412.867H59.587c-9.387,0-17.92-7.68-17.92-17.92V285.72c0-10.24,8.533-17.92,17.92-17.92h109.227
		c10.24,0,17.92,8.533,17.92,17.92v109.227C186.733,405.187,178.2,412.867,168.813,412.867z M59.587,284.867l-0.853,0.853v109.227
		c0,0.853,0.853,0.853,0.853,0.853h109.227c0.853,0,0.853-0.853,0.853-0.853V285.72c0-0.853-0.853-0.853-0.853-0.853H59.587z"/>
	<path d="M450.413,242.2H341.187c-10.24,0-17.92-8.533-17.92-17.92V115.053c0-10.24,8.533-17.92,17.92-17.92h109.227
		c9.387,0,17.92,8.533,17.92,17.92V224.28C468.333,234.52,459.8,242.2,450.413,242.2z M341.187,114.2l-0.853,0.853V224.28
		c0,0.853,0.853,0.853,0.853,0.853h109.227c0.853,0,0.853-0.853,0.853-0.853V115.053c0-0.853-0.853-0.853-0.853-0.853H341.187z"/>
	<path d="M450.413,412.867H341.187c-10.24,0-17.92-8.533-17.92-17.92V285.72c0-10.24,8.533-17.92,17.92-17.92h109.227
		c10.24,0,17.92,8.533,17.92,17.92v109.227C468.333,405.187,459.8,412.867,450.413,412.867z M341.187,284.867l-0.853,0.853v109.227
		c0,0.853,0.853,0.853,0.853,0.853h109.227c0.853,0,0.853-0.853,0.853-0.853V285.72c0-0.853-0.853-0.853-0.853-0.853H341.187z"/>
	<path d="M280.6,342.04l-13.653-10.24c-7.68-5.973-16.213-5.973-23.893,0L229.4,342.04V168.813l13.653,10.24
		c7.68,5.973,16.213,5.973,23.893,0l13.653-10.24V342.04z M255,310.467c2.56,0,5.973,0,8.533,0.853V198.68
		c-5.973,1.707-11.093,1.707-17.067,0v112.64C249.027,311.32,252.44,310.467,255,310.467z"/>
</g>
</svg>