<?xml version="1.0" encoding="iso-8859-1"?>
<!-- Uploaded to: SVG Repo, www.svgrepo.com, Generator: SVG Repo Mixer Tools -->
<svg height="800px" width="800px" version="1.1" id="Layer_1" xmlns="http://www.w3.org/2000/svg" xmlns:xlink="http://www.w3.org/1999/xlink" 
	 viewBox="0 0 512 512" xml:space="preserve">
<path style="fill:#B5E1F4;" d="M367.304,178.087v289.391c0,24.588-19.933,44.522-44.522,44.522H55.652
	c-24.588,0-44.522-19.933-44.522-44.522V178.087c0-24.588,19.933-44.522,44.522-44.522h22.261V89.043h222.609v44.522h22.261
	C347.371,133.565,367.304,153.499,367.304,178.087z"/>
<g>
	<path style="fill:#A2CCDB;" d="M189.217,512H55.652c-24.588,0-44.522-19.933-44.522-44.522V178.087
		c0-24.588,19.933-44.522,44.522-44.522h22.261V89.043h111.304V512z"/>
	<path style="fill:#A2CCDB;" d="M300.522,133.565H77.913V66.783h222.609V133.565z"/>
</g>
<path style="fill:#90B5BF;" d="M189.217,133.565H77.913V66.783h111.304V133.565z"/>
<path style="fill:#FFA669;" d="M322.783,22.261v44.522c0,12.295-9.966,22.261-22.261,22.261H77.913
	c-12.295,0-22.261-9.966-22.261-22.261V22.261C55.652,9.966,65.618,0,77.913,0h222.609C312.816,0,322.783,9.966,322.783,22.261z"/>
<path style="fill:#FF8D40;" d="M322.783,22.261v11.13H55.652v-11.13C55.652,9.966,65.618,0,77.913,0h222.609
	C312.816,0,322.783,9.966,322.783,22.261z"/>
<path style="fill:#FFF6B6;" d="M367.304,345.043H11.13c-6.147,0-11.13-4.983-11.13-11.13V200.348c0-6.147,4.983-11.13,11.13-11.13
	h356.174c6.147,0,11.13,4.983,11.13,11.13v133.565C378.435,340.06,373.452,345.043,367.304,345.043z"/>
<g>
	<path style="fill:#F4C064;" d="M230.957,244.87c0,4.61-3.738,8.348-8.348,8.348H55.652c-4.61,0-8.348-3.738-8.348-8.348
		s3.738-8.348,8.348-8.348h166.957C227.219,236.522,230.957,240.259,230.957,244.87z M178.087,281.043H55.652
		c-4.61,0-8.348,3.738-8.348,8.348s3.738,8.348,8.348,8.348h122.435c4.61,0,8.348-3.738,8.348-8.348
		S182.697,281.043,178.087,281.043z"/>
	<path style="fill:#F4C064;" d="M339.478,422.957h133.565c21.515,0,38.957,17.441,38.957,38.957v11.13
		C512,494.559,494.559,512,473.043,512H339.478c-21.515,0-38.957-17.441-38.957-38.957v-11.13
		C300.522,440.398,317.963,422.957,339.478,422.957z"/>
</g>
<path style="fill:#FFE77C;" d="M473.043,422.957c15.539,0,28.95,9.1,35.202,22.261c-6.253,13.161-19.663,22.261-35.202,22.261
	H339.478c-15.539,0-28.95-9.1-35.202-22.261c6.253-13.161,19.663-22.261,35.202-22.261H473.043z"/>
<path style="fill:#CEA05D;" d="M414.609,455.977V512h-16.696v-56.023c0-4.61,3.738-8.348,8.348-8.348
	C410.871,447.629,414.609,451.366,414.609,455.977z"/>
</svg>