<?xml version="1.0" encoding="UTF-8" standalone="no"?>
<!-- Created with Inkscape (http://www.inkscape.org/) -->
<svg xmlns:inkscape="http://www.inkscape.org/namespaces/inkscape" xmlns:rdf="http://www.w3.org/1999/02/22-rdf-syntax-ns#" xmlns="http://www.w3.org/2000/svg" xmlns:cc="http://web.resource.org/cc/" xmlns:xlink="http://www.w3.org/1999/xlink" xmlns:dc="http://purl.org/dc/elements/1.1/" xmlns:svg="http://www.w3.org/2000/svg" xmlns:sodipodi="http://sodipodi.sourceforge.net/DTD/sodipodi-0.dtd" xmlns:ns1="http://sozi.baierouge.fr" id="svg2" viewBox="0 0 1052.4 744.09" version="1.0" inkscape:version="0.91 r13725">
  <defs id="defs4">
    <linearGradient id="linearGradient3784" y2="-212.88" spreadMethod="reflect" gradientUnits="userSpaceOnUse" x2="33.412" y1="-212.88" x1="10.235">
      <stop id="stop3780" style="stop-color:#a90000" offset="0"/>
      <stop id="stop3782" style="stop-color:#c11f1f" offset="1"/>
    </linearGradient>
    <linearGradient id="linearGradient4093" y2="-201.87" spreadMethod="reflect" gradientUnits="userSpaceOnUse" x2="71.17" gradientTransform="translate(-25.33)" y1="-201.87" x1="54.884">
      <stop id="stop3694" style="stop-color:#e03131" offset="0"/>
      <stop id="stop3696" style="stop-color:#c50000" offset="1"/>
    </linearGradient>
  </defs>
  <g id="layer1">
    <g id="g4202">
      <g id="g3795" transform="matrix(.98188 0 -.050443 1.3816 -4.0983 407.43)">
        <path id="rect3455" style="fill-rule:evenodd;stroke:#800000;stroke-width:8;fill:url(#linearGradient3784)" d="m14.156-290.84c-2.494 0-4.5 2.3264-4.5 5.1875v148.88c0 1.4138 0.48425 2.6942 1.2812 3.625 2.8241-8.2395 10.086-14.125 18.625-14.125 9.0611 0 16.689 6.619 19.094 15.656h21.5c2.4047-9.0373 10.033-15.656 19.094-15.656 9.0611 0 16.689 6.619 19.094 15.656h21.531c2.4047-9.0373 10.033-15.656 19.094-15.656 9.0611 0 16.689 6.619 19.094 15.656h21.531c2.4047-9.0373 10.033-15.656 19.094-15.656 9.0611 0 16.665 6.619 19.062 15.656h21.531c2.4047-9.0373 10.033-15.656 19.094-15.656 9.0611 0 16.689 6.619 19.094 15.656h21.531c2.4047-9.0373 10.033-15.656 19.094-15.656 9.0611 0 16.689 6.619 19.094 15.656h21.531c2.3972-9.0373 10.001-15.656 19.062-15.656 9.0611 0 16.689 6.619 19.094 15.656h21.531c2.4047-9.0373 10.033-15.656 19.094-15.656 9.0611 0 16.689 6.619 19.094 15.656h21.531c2.4047-9.0373 10.033-15.656 19.094-15.656 9.0611 0 16.689 6.619 19.094 15.656h21.5c2.4047-9.0373 10.033-15.656 19.094-15.656 9.0611 0 16.689 6.619 19.094 15.656h21.531c2.4047-9.0373 10.033-15.656 19.094-15.656 9.0611 0 16.689 6.619 19.094 15.656h21.531c2.4047-9.0373 10.033-15.656 19.094-15.656 9.0611 0 16.689 6.619 19.094 15.656h21.5c2.4047-9.0373 10.033-15.656 19.094-15.656 9.0612 0 16.689 6.619 19.094 15.656h21.531c2.4047-9.0373 10.033-15.656 19.094-15.656 9.0611 0 16.689 6.619 19.094 15.656h21.531c2.4047-9.0373 10.033-15.656 19.094-15.656 9.0611 0 16.665 6.619 19.062 15.656h21.531c2.4047-9.0373 10.033-15.656 19.094-15.656 9.0611 0 16.689 6.619 19.094 15.656h21.531c2.4047-9.0373 10.033-15.656 19.094-15.656 9.0611 0 16.689 6.619 19.094 15.656h21.531c2.3973-9.0373 10.001-15.656 19.062-15.656 5.7298 0 10.866 2.6493 14.5 6.875v-145.25c0-2.8611-2.006-5.1875-4.5-5.1875h-1040.4z"/>
        <path id="path3457" style="fill-rule:evenodd;fill:url(#linearGradient4093)" d="m23.094-290.84c-9.8114 29.717-12.682 123.89-13.281 155.28 0.19234 0.92118 0.56652 1.754 1.125 2.4062 2.8241-8.2395 10.086-14.125 18.625-14.125 9.0611 0 16.689 6.619 19.094 15.656h0.78125c-0.0033-24.644-0.47656-127.7-12.281-159.22h-14.062z"/>
        <use id="use3521" xlink:href="#path3457" transform="translate(59.707)" height="744.09448" width="1052.3622" y="0" x="0"/>
        <use id="use3523" xlink:href="#path3457" transform="translate(119.41)" height="744.09448" width="1052.3622" y="0" x="0"/>
        <use id="use3525" xlink:href="#path3457" transform="translate(179.12)" height="744.09448" width="1052.3622" y="0" x="0"/>
        <use id="use3527" xlink:href="#path3457" transform="translate(238.83)" height="744.09448" width="1052.3622" y="0" x="0"/>
        <use id="use3529" xlink:href="#path3457" transform="translate(298.54)" height="744.09448" width="1052.3622" y="0" x="0"/>
        <use id="use3531" xlink:href="#path3457" transform="translate(358.24)" height="744.09448" width="1052.3622" y="0" x="0"/>
        <use id="use3533" xlink:href="#path3457" transform="translate(417.95)" height="744.09448" width="1052.3622" y="0" x="0"/>
        <use id="use3535" xlink:href="#path3457" transform="translate(477.66)" height="744.09448" width="1052.3622" y="0" x="0"/>
        <use id="use3537" xlink:href="#path3457" transform="translate(537.37)" height="744.09448" width="1052.3622" y="0" x="0"/>
        <use id="use3539" xlink:href="#path3457" transform="translate(597.07)" height="744.09448" width="1052.3622" y="0" x="0"/>
        <use id="use3541" xlink:href="#path3457" transform="translate(656.78)" height="744.09448" width="1052.3622" y="0" x="0"/>
        <use id="use3543" xlink:href="#path3457" transform="translate(716.49)" height="744.09448" width="1052.3622" y="0" x="0"/>
        <use id="use3545" xlink:href="#path3457" transform="translate(776.19)" height="744.09448" width="1052.3622" y="0" x="0"/>
        <use id="use3547" xlink:href="#path3457" transform="translate(835.9)" height="744.09448" width="1052.3622" y="0" x="0"/>
        <use id="use3549" xlink:href="#path3457" transform="translate(895.61)" height="744.09448" width="1052.3622" y="0" x="0"/>
        <use id="use3551" xlink:href="#path3457" transform="translate(955.32)" height="744.09448" width="1052.3622" y="0" x="0"/>
        <use id="use3553" xlink:href="#path3457" transform="translate(1015)" height="744.09448" width="1052.3622" y="0" x="0"/>
      </g>
      <g id="g3391" transform="translate(.46032 4.6198)">
        <path id="path3333" style="fill-rule:evenodd;fill:#ff3232" d="m2.8438-1.625s-2.8348 548.59 8.5938 662.88 11.415 85.687 22.844 85.688c11.429 0 28.589-19.978 42.875-11.406 14.286 8.5714 37.134 0.004 48.562-14.281 11.429-14.286 31.424 11.411 54.281-2.875s-8.567-14.281-54.281-54.281-45.728-131.44-57.156-217.16c-10.499-78.74 0.69759-34.569 0.375-66.719 1.6306-0.77489 2.75-2.6241 2.75-4.7812v-40.938c13.996-34.88 76.267-93.88 331.15-336.12h-400z"/>
        <path id="path3195" style="stroke:#550000;stroke-width:6;fill:none" d="m402.86-1.6198c-345.72 328.57-337.15 320-334.29 371.43 2.8571 51.429-11.429-8.5714 0 77.143 11.43 85.72 11.43 177.14 57.14 217.14 45.714 40 77.143 40 54.286 54.286s-42.857-11.429-54.286 2.8571-34.286 22.857-48.571 14.286c-14.286-8.5714-31.429 11.429-42.857 11.429-11.429 0-11.429 28.571-22.857-85.714-11.43-114.28-8.5729-662.85-8.5729-662.85h400z"/>
        <rect id="rect3197" style="fill-rule:evenodd;stroke:#550000;stroke-width:4;fill:#de0000" rx="4.5018" ry="5.1644" height="52.655" width="65.106" y="327.96" x="6.5942"/>
        <path id="path3253" style="stroke:#550000;stroke-width:6;fill:#d40000" d="m56.505 321.7c0-2.7765 7.652-17.526 13.878-26.75 12.433-18.42 35.653-45.93 85.977-101.86 55.898-62.126 78.735-91.975 83.403-109.01 1.3102-4.781 2.8684-21.742 3.4627-37.692s1.6203-32.454 2.2801-36.675l1.1996-7.6763 75.042-0.44471 75.042-0.44468-5.1029 4.9021c-2.8 2.6919-47.7 45.446-99.77 95.004-135.98 129.42-196.62 190.75-211.85 214.26-5.3064 8.1893-5.4537 8.2735-14.456 8.2735-5.501 0-9.0948-0.74469-9.0948-1.8846z"/>
        <path id="path3255" style="stroke:#550000;stroke-width:6;fill:#d40000" d="m37.756 322.31c0.03521-2.915 8.4914-38.365 11.808-49.502 2.6235-8.809 5.5532-14.231 10.96-20.282 13.208-14.782 22.409-28.661 32.145-48.492 30.521-62.17 49.991-129.32 53.581-184.79l1.1672-18.053h48.515 48.515l-0.98749 6.3969c-2.2729 14.723-4.4299 42.8-4.4299 57.661 0 15.144-0.32438 16.56-6.5537 28.598-9.9672 19.261-28.301 42.041-81.255 100.96-64.898 72.206-82.516 94.171-92.694 115.57l-6.2868 13.215-7.2498 0.005c-3.9874 0.003-7.2428-0.57067-7.2343-1.2743z"/>
        <path id="path3257" style="stroke:#550000;stroke-width:6;fill:#d40000" d="m15.104 317.19c12.303-15.92 17.077-27.56 26.757-65.25 3.976-15.48 17.002-57.97 28.947-94.44 28.204-86.091 33.392-106.23 34.692-134.56l0.99281-21.749h19.36c10.648 0 19.357 0.57572 19.354 1.2794-0.0325 7.1289-4.1365 43.662-6.18 55.013-12.907 71.693-47.771 157-77.735 190.2-10.68 11.834-12.191 15.366-19.366 45.29-3.4757 14.495-6.5819 27.315-6.9025 28.488-0.39686 1.4514-4.4588 2.1323-12.721 2.1323h-12.138l4.943-6.3969z"/>
        <path id="path3259" style="stroke:#550000;stroke-width:6;fill:#d40000" d="m5.3941 257.41-0.0641-67.04 16.464-50.67c25.218-77.602 34.155-106.41 38.216-123.16l3.719-15.35h20.529 20.529l-1.0711 17.507c-2.0355 33.269-5.074 44.94-39.185 150.52-12.731 39.405-25.179 80.473-27.662 91.262-5.0656 22.014-15.812 46.157-25.435 57.146l-5.9757 6.8234-0.064037-67.035z"/>
        <path id="path3261" style="stroke:#550000;stroke-width:6;fill:#d40000" d="m5.33 90.174v-88.988h27.293c25.309 0 27.293 0.22696 27.293 3.1209 0 6.0681-11.916 46.261-32.454 109.46-11.431 35.18-21.088 64.29-21.459 64.68-0.37 0.39-0.673-39.33-0.673-88.276v-0.000017z"/>
        <path id="path3263" style="stroke:#550000;stroke-width:6;fill:#c50000" d="m149.47 717.63c-6.5675-1.8249-13.931-3.3382-16.364-3.3629-10.07-0.1-40.003-26.91-49.096-43.98-5.797-10.88-21.099-88.25-30.954-156.5-12.981-89.91-14.311-108.83-8.542-121.54l3.2908-7.2498h9.6644c10.553 0 10.389-0.31585 5.7731 11.128-1.7414 4.3172-0.92182 15.435 5.03 68.233 12.497 110.86 17.765 138.52 31.996 167.98 10.668 22.089 28.027 39.337 60.794 60.407 15.806 10.163 23.366 16.003 23.023 17.784-0.66876 3.4726-9.1856 8.307-16.705 9.4821-3.5084 0.54836-10.895-0.43521-17.911-2.385v-0.00004z"/>
        <path id="path3265" style="stroke:#550000;stroke-width:6;fill:#c50000" d="m79.449 734c-2.8611-1.2462-7.2027-4.6434-9.6478-7.5494-12.775-15.18-32.183-103.12-41.36-187.41-5.302-48.69-6.884-118.32-3.335-146.79l0.90336-7.2498h9.1905 9.1905l-2.2808 5.544c-6.0413 14.684-5.3267 26.252 6.8759 111.31 11.003 76.694 19.696 125.04 28.022 155.84 3.2188 11.909 5.4522 16.268 13.548 26.44 11.106 13.956 18.89 21.16 29.721 27.507l7.6133 4.4616-7.2631 6.6949c-13.308 12.267-28.96 16.526-41.176 11.205l-0.000017-0.00003z"/>
        <path id="path3267" style="stroke:#550000;stroke-width:6;fill:#c50000" d="m22.634 736.02c-7.864-46.11-12.916-122.56-14.685-222.23-0.5162-29.08-1.3703-69.96-1.898-90.84l-0.95946-37.955h8.5367 8.5367l-0.97373 33.69c-1.1246 38.911 1.6219 96.874 6.4292 135.68 9.4588 76.361 26.823 153.92 38.223 170.71 3.7246 5.4884 3.8598 6.1978 1.1819 6.1978-1.6632 0-9.1244 2.9496-16.581 6.5545-7.456 3.605-16.353 7.0787-19.771 7.7193l-6.2143 1.1648-1.8257-10.705z"/>
        <path id="path3274" style="fill-opacity:.28455;fill:#ffacac" d="m57.906 324.72c1.5041 0.53025 4.123 0.875 7.6875 0.875 9.0022 0 9.1623-0.092 14.469-8.2812 15.234-23.51 75.866-84.834 211.84-214.25 52.071-49.558 96.975-92.304 99.781-95l5.09-4.9038-75.03 0.4376-5.28 0.0312c-1.3248 4.3683-2.6477 8.7383-4 12.781-1.7954 5.3677-3.6303 10.447-5.5312 15.344-1.9009 4.8969-3.8658 9.6129-5.9375 14.156-2.0717 4.5433-4.2547 8.9119-6.5625 13.219-2.3078 4.3069-4.7347 8.5312-7.3438 12.719-2.6091 4.1876-5.3994 8.3458-8.375 12.531-2.9756 4.1855-6.1551 8.4183-9.5625 12.719-3.4074 4.3005-7.033 8.686-10.938 13.219-3.9044 4.5327-8.0958 9.2117-12.562 14.094-8.9335 9.7642-19.051 20.323-30.625 32.188s-24.607 25.035-39.344 39.938c-7.6558 7.7419-15.236 15.592-22.719 23.5-7.4827 7.9077-14.868 15.868-22.125 23.781-14.515 15.826-28.513 31.489-41.812 46.375-11.023 12.337-21.199 23.646-31.125 34.531z"/>
        <path id="path3280" style="fill:#e03131" d="m198.62 3.7463c-4.62 34.316 1.68 72.586-15.26 102.46-43.06 75.92-99.87 146.08-142.27 217.2 1.1261 0.12603 2.4739 0.18699 3.9062 0.18601h7.25l6.2812-13.114c45.91-80.335 126.83-135.3 173.94-214.81 6.2293-11.942 6.5625-13.343 6.5625-28.367 0-14.743 2.1646-42.592 4.4375-57.199l0.96875-6.3554h-45.812z"/>
        <path id="path3287" style="fill:#e03131" d="m130.87 12.474c-2.9023 38.874-10.909 77.221-23.204 114.19-13.761 40.652-16.78 71.651-42.759 106.21-14.769 16.487-28.12 49.818-32.886 71.511-13.311 17.907-8.0233 16.098 3.0112 17.085 5.8315-20.665 8.2575-42.54 17.318-62.143 8.8736-12.793 20.272-23.816 27.574-37.771 27.156-47.14 45.156-99.21 56.796-152.22 4.54-22.02 6-42.761 7.61-65.165-16.5 0.1199-14.42-0.2117-13.46 8.299z"/>
        <path id="path3295" style="fill:#e03131" d="m79.531 1.1875c0.85821 23.151 1.6875 47.895 1.6875 58.219 0 16.806-31.794 131.17-75.812 198.22l0.0625 66.812 5.9688-6.8125c9.6238-10.989 20.372-35.143 25.438-57.156 2.4828-10.789 14.925-51.845 27.656-91.25 34.11-105.58 37.148-117.26 39.188-150.53l1.0625-17.5h-20.531-4.7188z"/>
        <path id="path3299" style="fill:#ff3232" d="m63.906 385.19-1.375 3.0625c-5.769 12.709-8.0684 32.528 4.9126 122.44 9.8545 68.254 11.872 121.5 34.556 155.6 10.71 16.099 39.021 43.898 49.094 44 2.4329 0.0247 9.8075 1.5188 16.375 3.3438 3.8929 1.0818 7.8862 1.8597 11.281 2.25 2.919-1.728 5.0255-3.6914 5.3438-5.3438 0.34298-1.7809-7.2257-7.6181-23.031-17.781-32.766-21.069-50.113-38.318-60.781-60.406-14.231-29.466-19.503-57.109-32-167.97-5.9518-52.799-6.7726-63.933-5.0312-68.25 3.3278-8.2504 4.3039-10.387 0.65625-10.938z"/>
        <path id="path3308" style="fill:#ff3232" d="m31.406 385-0.25 3.25c-2.2022 28.475 2.6473 98.092 10.25 146.78 13.161 84.286 36.726 172.22 50.219 187.41 2.5826 2.906 7.1112 6.3163 10.031 7.5625 1.9767 0.84361 4.0211 1.4442 6.125 1.8125 4.3854-2.2144 8.7352-5.2129 12.844-9l7.25-6.7188-7.5938-4.4375c-10.83-6.34-18.61-13.57-29.718-27.53-8.095-10.17-10.343-14.52-13.562-26.43-8.326-30.81-16.997-79.15-28-155.85-12.203-85.05-12.948-96.62-6.906-111.31l2.281-5.53h-9.1875-3.7812z"/>
        <path id="rect3379" style="fill-rule:evenodd;fill:#e03131" d="m11.75 334.25-5.1562 5.625v35.562c0 1.0371 0.2948 2.0051 0.75 2.8125 0.84397 0.64352 3.0253-0.48133 4.9688-2.5938l29.375-31.938c0.71402-0.7761 1.2761-1.5752 1.6875-2.3125-1.1283-1.2451-2.4717-2.5882-4.125-3.9688-6.007 4.8267-10.908 9.5933-11.688 11.281-1.0998 2.383-2.7107-6.4678-15.812-14.469z"/>
        <path id="path3366" style="fill-rule:evenodd;fill:#890000;fill-opacity:.55682" d="m37.138 358.25c-1.5285-0.22994-5.2632 13.181-28.812 20.938 0.34039 0.0938 0.69634 0.15625 1.0625 0.15625h53.469c-10.554-5.7712-24.032-17.809-25.375-20.719-0.11308-0.24501-0.20917-0.35475-0.34375-0.375z"/>
        <path id="path3368" style="fill-rule:evenodd;fill:#890000;fill-opacity:.55682" d="m33.219 328.94c-0.94482-0.00001-1.8118 0.31575-2.5312 0.875h-19.219c-1.5353 0-2.8757 0.84894-3.6875 2.1875 16.828 8.4579 18.578 19.326 19.781 16.719 0.77905-1.6879 5.6805-6.4546 11.688-11.281 7.912 6.607 9.1483 12.387 10.062 10.406 1.2145-2.6315 12.356-12.729 22.281-18.906h-38.375z"/>
      </g>
      <g id="g3413" transform="matrix(-1 0 0 1 1051.9 4.6198)">
        <path id="path3415" style="fill-rule:evenodd;fill:#ff3232" d="m2.8438-1.625s-2.8348 548.59 8.5938 662.88 11.415 85.687 22.844 85.688c11.429 0 28.589-19.978 42.875-11.406 14.286 8.5714 37.134 0.004 48.562-14.281 11.429-14.286 31.424 11.411 54.281-2.875s-8.567-14.281-54.281-54.281-45.728-131.44-57.156-217.16c-10.499-78.74 0.69759-34.569 0.375-66.719 1.6306-0.77489 2.75-2.6241 2.75-4.7812v-40.938c13.996-34.88 76.267-93.88 331.15-336.12h-400z"/>
        <path id="path3417" style="stroke:#550000;stroke-width:6;fill:none" d="m402.86-1.6198c-345.72 328.57-337.15 320-334.29 371.43 2.8571 51.429-11.429-8.5714 0 77.143 11.43 85.72 11.43 177.14 57.14 217.14 45.714 40 77.143 40 54.286 54.286s-42.857-11.429-54.286 2.8571-34.286 22.857-48.571 14.286c-14.286-8.5714-31.429 11.429-42.857 11.429-11.429 0-11.429 28.571-22.857-85.714-11.43-114.28-8.5729-662.85-8.5729-662.85h400z"/>
        <rect id="rect3419" style="fill-rule:evenodd;stroke:#550000;stroke-width:4;fill:#de0000" rx="4.5018" ry="5.1644" height="52.655" width="65.106" y="327.96" x="6.5942"/>
        <path id="path3421" style="stroke:#550000;stroke-width:6;fill:#d40000" d="m56.505 321.7c0-2.7765 7.652-17.526 13.878-26.75 12.433-18.42 35.653-45.93 85.977-101.86 55.898-62.126 78.735-91.975 83.403-109.01 1.3102-4.781 2.8684-21.742 3.4627-37.692s1.6203-32.454 2.2801-36.675l1.1996-7.6763 75.042-0.44471 75.042-0.44468-5.1029 4.9021c-2.8 2.6919-47.7 45.446-99.77 95.004-135.98 129.42-196.62 190.75-211.85 214.26-5.3064 8.1893-5.4537 8.2735-14.456 8.2735-5.501 0-9.0948-0.74469-9.0948-1.8846z"/>
        <path id="path3423" style="stroke:#550000;stroke-width:6;fill:#d40000" d="m37.756 322.31c0.03521-2.915 8.4914-38.365 11.808-49.502 2.6235-8.809 5.5532-14.231 10.96-20.282 13.208-14.782 22.409-28.661 32.145-48.492 30.521-62.17 49.991-129.32 53.581-184.79l1.1672-18.053h48.515 48.515l-0.98749 6.3969c-2.2729 14.723-4.4299 42.8-4.4299 57.661 0 15.144-0.32438 16.56-6.5537 28.598-9.9672 19.261-28.301 42.041-81.255 100.96-64.898 72.206-82.516 94.171-92.694 115.57l-6.2868 13.215-7.2498 0.005c-3.9874 0.003-7.2428-0.57067-7.2343-1.2743z"/>
        <path id="path3425" style="stroke:#550000;stroke-width:6;fill:#d40000" d="m15.104 317.19c12.303-15.92 17.077-27.56 26.757-65.25 3.976-15.48 17.002-57.97 28.947-94.44 28.204-86.091 33.392-106.23 34.692-134.56l0.99281-21.749h19.36c10.648 0 19.357 0.57572 19.354 1.2794-0.0325 7.1289-4.1365 43.662-6.18 55.013-12.907 71.693-47.771 157-77.735 190.2-10.68 11.834-12.191 15.366-19.366 45.29-3.4757 14.495-6.5819 27.315-6.9025 28.488-0.39686 1.4514-4.4588 2.1323-12.721 2.1323h-12.138l4.943-6.3969z"/>
        <path id="path3427" style="stroke:#550000;stroke-width:6;fill:#d40000" d="m5.3941 257.41-0.0641-67.04 16.464-50.67c25.218-77.602 34.155-106.41 38.216-123.16l3.719-15.35h20.529 20.529l-1.0711 17.507c-2.0355 33.269-5.074 44.94-39.185 150.52-12.731 39.405-25.179 80.473-27.662 91.262-5.0656 22.014-15.812 46.157-25.435 57.146l-5.9757 6.8234-0.064037-67.035z"/>
        <path id="path3429" style="stroke:#550000;stroke-width:6;fill:#d40000" d="m5.33 90.174v-88.988h27.293c25.309 0 27.293 0.22696 27.293 3.1209 0 6.0681-11.916 46.261-32.454 109.46-11.431 35.18-21.088 64.29-21.459 64.68-0.37 0.39-0.673-39.33-0.673-88.276v-0.000017z"/>
        <path id="path3431" style="stroke:#550000;stroke-width:6;fill:#c50000" d="m149.47 717.63c-6.5675-1.8249-13.931-3.3382-16.364-3.3629-10.07-0.1-40.003-26.91-49.096-43.98-5.797-10.88-21.099-88.25-30.954-156.5-12.981-89.91-14.311-108.83-8.542-121.54l3.2908-7.2498h9.6644c10.553 0 10.389-0.31585 5.7731 11.128-1.7414 4.3172-0.92182 15.435 5.03 68.233 12.497 110.86 17.765 138.52 31.996 167.98 10.668 22.089 28.027 39.337 60.794 60.407 15.806 10.163 23.366 16.003 23.023 17.784-0.66876 3.4726-9.1856 8.307-16.705 9.4821-3.5084 0.54836-10.895-0.43521-17.911-2.385v-0.00004z"/>
        <path id="path3433" style="stroke:#550000;stroke-width:6;fill:#c50000" d="m79.449 734c-2.8611-1.2462-7.2027-4.6434-9.6478-7.5494-12.775-15.18-32.183-103.12-41.36-187.41-5.302-48.69-6.884-118.32-3.335-146.79l0.90336-7.2498h9.1905 9.1905l-2.2808 5.544c-6.0413 14.684-5.3267 26.252 6.8759 111.31 11.003 76.694 19.696 125.04 28.022 155.84 3.2188 11.909 5.4522 16.268 13.548 26.44 11.106 13.956 18.89 21.16 29.721 27.507l7.6133 4.4616-7.2631 6.6949c-13.308 12.267-28.96 16.526-41.176 11.205l-0.000017-0.00003z"/>
        <path id="path3435" style="stroke:#550000;stroke-width:6;fill:#c50000" d="m22.634 736.02c-7.864-46.11-12.916-122.56-14.685-222.23-0.5162-29.08-1.3703-69.96-1.898-90.84l-0.95946-37.955h8.5367 8.5367l-0.97373 33.69c-1.1246 38.911 1.6219 96.874 6.4292 135.68 9.4588 76.361 26.823 153.92 38.223 170.71 3.7246 5.4884 3.8598 6.1978 1.1819 6.1978-1.6632 0-9.1244 2.9496-16.581 6.5545-7.456 3.605-16.353 7.0787-19.771 7.7193l-6.2143 1.1648-1.8257-10.705z"/>
        <path id="path3437" style="fill-opacity:.28455;fill:#ffacac" d="m57.906 324.72c1.5041 0.53025 4.123 0.875 7.6875 0.875 9.0022 0 9.1623-0.092 14.469-8.2812 15.234-23.51 75.866-84.834 211.84-214.25 52.071-49.558 96.975-92.304 99.781-95l5.09-4.9038-75.03 0.4376-5.28 0.0312c-1.3248 4.3683-2.6477 8.7383-4 12.781-1.7954 5.3677-3.6303 10.447-5.5312 15.344-1.9009 4.8969-3.8658 9.6129-5.9375 14.156-2.0717 4.5433-4.2547 8.9119-6.5625 13.219-2.3078 4.3069-4.7347 8.5312-7.3438 12.719-2.6091 4.1876-5.3994 8.3458-8.375 12.531-2.9756 4.1855-6.1551 8.4183-9.5625 12.719-3.4074 4.3005-7.033 8.686-10.938 13.219-3.9044 4.5327-8.0958 9.2117-12.562 14.094-8.9335 9.7642-19.051 20.323-30.625 32.188s-24.607 25.035-39.344 39.938c-7.6558 7.7419-15.236 15.592-22.719 23.5-7.4827 7.9077-14.868 15.868-22.125 23.781-14.515 15.826-28.513 31.489-41.812 46.375-11.023 12.337-21.199 23.646-31.125 34.531z"/>
        <path id="path3439" style="fill:#e03131" d="m198.62 3.7463c-4.62 34.316 1.68 72.586-15.26 102.46-43.06 75.92-99.87 146.08-142.27 217.2 1.1261 0.12603 2.4739 0.18699 3.9062 0.18601h7.25l6.2812-13.114c45.91-80.335 126.83-135.3 173.94-214.81 6.2293-11.942 6.5625-13.343 6.5625-28.367 0-14.743 2.1646-42.592 4.4375-57.199l0.96875-6.3554h-45.812z"/>
        <path id="path3441" style="fill:#e03131" d="m130.87 12.474c-2.9023 38.874-10.909 77.221-23.204 114.19-13.761 40.652-16.78 71.651-42.759 106.21-14.769 16.487-28.12 49.818-32.886 71.511-13.311 17.907-8.0233 16.098 3.0112 17.085 5.8315-20.665 8.2575-42.54 17.318-62.143 8.8736-12.793 20.272-23.816 27.574-37.771 27.156-47.14 45.156-99.21 56.796-152.22 4.54-22.02 6-42.761 7.61-65.165-16.5 0.1199-14.42-0.2117-13.46 8.299z"/>
        <path id="path3443" style="fill:#e03131" d="m79.531 1.1875c0.85821 23.151 1.6875 47.895 1.6875 58.219 0 16.806-31.794 131.17-75.812 198.22l0.0625 66.812 5.9688-6.8125c9.6238-10.989 20.372-35.143 25.438-57.156 2.4828-10.789 14.925-51.845 27.656-91.25 34.11-105.58 37.148-117.26 39.188-150.53l1.0625-17.5h-20.531-4.7188z"/>
        <path id="path3445" style="fill:#ff3232" d="m63.906 385.19-1.375 3.0625c-5.769 12.709-8.0684 32.528 4.9126 122.44 9.8545 68.254 11.872 121.5 34.556 155.6 10.71 16.099 39.021 43.898 49.094 44 2.4329 0.0247 9.8075 1.5188 16.375 3.3438 3.8929 1.0818 7.8862 1.8597 11.281 2.25 2.919-1.728 5.0255-3.6914 5.3438-5.3438 0.34298-1.7809-7.2257-7.6181-23.031-17.781-32.766-21.069-50.113-38.318-60.781-60.406-14.231-29.466-19.503-57.109-32-167.97-5.9518-52.799-6.7726-63.933-5.0312-68.25 3.3278-8.2504 4.3039-10.387 0.65625-10.938z"/>
        <path id="path3447" style="fill:#ff3232" d="m31.406 385-0.25 3.25c-2.2022 28.475 2.6473 98.092 10.25 146.78 13.161 84.286 36.726 172.22 50.219 187.41 2.5826 2.906 7.1112 6.3163 10.031 7.5625 1.9767 0.84361 4.0211 1.4442 6.125 1.8125 4.3854-2.2144 8.7352-5.2129 12.844-9l7.25-6.7188-7.5938-4.4375c-10.83-6.34-18.61-13.57-29.718-27.53-8.095-10.17-10.343-14.52-13.562-26.43-8.326-30.81-16.997-79.15-28-155.85-12.203-85.05-12.948-96.62-6.906-111.31l2.281-5.53h-9.1875-3.7812z"/>
        <path id="path3449" style="fill-rule:evenodd;fill:#e03131" d="m11.75 334.25-5.1562 5.625v35.562c0 1.0371 0.2948 2.0051 0.75 2.8125 0.84397 0.64352 3.0253-0.48133 4.9688-2.5938l29.375-31.938c0.71402-0.7761 1.2761-1.5752 1.6875-2.3125-1.1283-1.2451-2.4717-2.5882-4.125-3.9688-6.007 4.8267-10.908 9.5933-11.688 11.281-1.0998 2.383-2.7107-6.4678-15.812-14.469z"/>
        <path id="path3451" style="fill-rule:evenodd;fill:#890000;fill-opacity:.55682" d="m37.138 358.25c-1.5285-0.22994-5.2632 13.181-28.812 20.938 0.34039 0.0938 0.69634 0.15625 1.0625 0.15625h53.469c-10.554-5.7712-24.032-17.809-25.375-20.719-0.11308-0.24501-0.20917-0.35475-0.34375-0.375z"/>
        <path id="path3453" style="fill-rule:evenodd;fill:#890000;fill-opacity:.55682" d="m33.219 328.94c-0.94482-0.00001-1.8118 0.31575-2.5312 0.875h-19.219c-1.5353 0-2.8757 0.84894-3.6875 2.1875 16.828 8.4579 18.578 19.326 19.781 16.719 0.77905-1.6879 5.6805-6.4546 11.688-11.281 7.912 6.607 9.1483 12.387 10.062 10.406 1.2145-2.6315 12.356-12.729 22.281-18.906h-38.375z"/>
      </g>
    </g>
  </g>
  <metadata>
    <rdf:RDF>
      <cc:Work>
        <dc:format>image/svg+xml</dc:format>
        <dc:type rdf:resource="http://purl.org/dc/dcmitype/StillImage"/>
        <cc:license rdf:resource="http://creativecommons.org/licenses/publicdomain/"/>
        <dc:publisher>
          <cc:Agent rdf:about="http://openclipart.org/">
            <dc:title>Openclipart</dc:title>
          </cc:Agent>
        </dc:publisher>
        <dc:title>se abre el telon</dc:title>
        <dc:date>2010-11-09T23:05:07</dc:date>
        <dc:description>que se abra el telón</dc:description>
        <dc:source>https://openclipart.org/detail/94951/se-abre-el-telon-by-rastrojo</dc:source>
        <dc:creator>
          <cc:Agent>
            <dc:title>rastrojo</dc:title>
          </cc:Agent>
        </dc:creator>
        <dc:subject>
          <rdf:Bag>
            <rdf:li>cortina</rdf:li>
            <rdf:li>curtain</rdf:li>
            <rdf:li>escenario</rdf:li>
            <rdf:li>stage</rdf:li>
            <rdf:li>teatro</rdf:li>
            <rdf:li>telon</rdf:li>
            <rdf:li>theater</rdf:li>
          </rdf:Bag>
        </dc:subject>
      </cc:Work>
      <cc:License rdf:about="http://creativecommons.org/licenses/publicdomain/">
        <cc:permits rdf:resource="http://creativecommons.org/ns#Reproduction"/>
        <cc:permits rdf:resource="http://creativecommons.org/ns#Distribution"/>
        <cc:permits rdf:resource="http://creativecommons.org/ns#DerivativeWorks"/>
      </cc:License>
    </rdf:RDF>
  </metadata>
</svg>
