<?xml version="1.0" encoding="iso-8859-1"?>
<!-- Uploaded to: SVG Repo, www.svgrepo.com, Generator: SVG Repo Mixer Tools -->
<svg version="1.1" id="Capa_1" xmlns="http://www.w3.org/2000/svg" xmlns:xlink="http://www.w3.org/1999/xlink" 
	 viewBox="0 0 460 460" xml:space="preserve">
<g id="XMLID_1525_">
	<polygon id="XMLID_1526_" style="fill:#FFDA6B;" points="30,225 30,355 0,355 0,385 60,385 60,225 	"/>
	<polygon id="XMLID_1527_" style="fill:#FFCA2B;" points="90,105 30,105 30,75 0,75 0,205 30,225 60,225 60,385 90,385 	"/>
	<polygon id="XMLID_1528_" style="fill:#FFCA2B;" points="370,225 370,285 230,285 230,315 370,315 370,385 400,385 400,225 	"/>
	<circle id="XMLID_1529_" style="fill:#FFCA2B;" cx="178.333" cy="175" r="20"/>
	<circle id="XMLID_1530_" style="fill:#FFAA19;" cx="281.667" cy="175" r="20"/>
	<polygon id="XMLID_1531_" style="fill:#FFAA19;" points="430,225 460,205 460,105 370,105 370,225 400,225 400,385 460,385 
		460,355 430,355 	"/>
	<rect id="XMLID_1532_" x="30" y="75" style="fill:#404040;" width="60" height="30"/>
	<rect id="XMLID_1533_" x="90" y="195" style="fill:#404040;" width="280" height="30"/>
	<rect id="XMLID_1534_" x="230" y="105" style="fill:#FFCA2B;" width="140" height="50"/>
	<rect id="XMLID_1535_" x="90" y="285" style="fill:#FFDA6B;" width="140" height="30"/>
	<rect id="XMLID_1536_" x="90" y="255" style="fill:#BFBFBF;" width="280" height="30"/>
	<rect id="XMLID_1537_" x="90" y="105" style="fill:#FFDA6B;" width="140" height="50"/>
</g>
</svg>