<?xml version="1.0" ?>
<!DOCTYPE svg  PUBLIC '-//W3C//DTD SVG 1.1//EN'  'http://www.w3.org/Graphics/SVG/1.1/DTD/svg11.dtd'>
<!-- Uploaded to: SVG Repo, www.svgrepo.com, Generator: SVG Repo Mixer Tools -->
<svg width="800px" height="800px" viewBox="0 0 24 24" enable-background="new 0 0 24 24" version="1.1" xml:space="preserve" xmlns="http://www.w3.org/2000/svg" xmlns:xlink="http://www.w3.org/1999/xlink">
<g id="Layer_27"/>
<g id="Layer_2">
<g>
<path d="M16.0195,8C16.0156,8.001,16.0078,8.001,16,8H8C7.4473,8,7,7.5527,7,7c0-2.7568,2.2432-5,5-5    c2.6826,0,4.8779,2.123,4.9951,4.7773C17.0117,6.8486,17.0195,6.9238,17.0195,7C17.0195,7.5527,16.5723,8,16.0195,8z M9.1709,6    h5.6582C14.416,4.8359,13.3037,4,12,4S9.584,4.8359,9.1709,6z" fill="#4558A3"/>
</g>
<g>
<path d="M22,9v10c0,1.65-1.35,3-3,3H5c-1.65,0-3-1.35-3-3V9c0-1.65,1.35-3,3-3h14C20.65,6,22,7.35,22,9z" fill="#D34A4B"/>
</g>
<path d="M15,13h-2v-2c0-0.5527-0.4473-1-1-1s-1,0.4473-1,1v2H9c-0.5527,0-1,0.4473-1,1s0.4473,1,1,1h2v2   c0,0.5527,0.4473,1,1,1s1-0.4473,1-1v-2h2c0.5527,0,1-0.4473,1-1S15.5527,13,15,13z" fill="#FFFFFF"/>
</g>
<g id="Layer_3"/>
<g id="Layer_4"/>
<g id="Layer_5"/>
<g id="Layer_6"/>
<g id="Layer_7"/>
<g id="Layer_8"/>
<g id="Layer_9"/>
<g id="Layer_10"/>
<g id="Layer_11"/>
<g id="Layer_12"/>
<g id="Layer_13"/>
<g id="Layer_14"/>
<g id="Layer_15"/>
<g id="Layer_16">
<g id="Layer_17"/>
</g>
<g id="Layer_18"/>
<g id="Layer_19"/>
<g id="Layer_20"/>
<g id="Layer_21"/>
<g id="Layer_22"/>
<g id="Layer_23"/>
<g id="Layer_24"/>
<g id="Layer_25"/>
<g id="Layer_26"/>
</svg>