<?xml version="1.0" encoding="iso-8859-1"?>
<!-- Uploaded to: SVG Repo, www.svgrepo.com, Generator: SVG Repo Mixer Tools -->
<svg version="1.1" id="Layer_1" xmlns="http://www.w3.org/2000/svg" xmlns:xlink="http://www.w3.org/1999/xlink" 
	 viewBox="0 0 512 512" xml:space="preserve">
<g>
	<path style="fill:#E6E6E6;" d="M299.284,0v119.043H3.305V0H299.284z"/>
	<rect x="3.305" y="119.043" style="fill:#E6E6E6;" width="295.979" height="269.024"/>
	<path style="fill:#E6E6E6;" d="M508.695,278.018v232.072H342.327V278.018H508.695z"/>
	<path style="fill:#E6E6E6;" d="M508.695,138.657v99.102H342.327v-99.102H508.695z"/>
	<path style="fill:#E6E6E6;" d="M508.695,0v99.102H342.327V0H508.695z M450.749,49.551c0-13.927-11.298-25.225-25.238-25.225
		s-25.225,11.298-25.225,25.225c0,13.94,11.285,25.238,25.225,25.238S450.749,63.491,450.749,49.551z"/>
</g>
<g>
	<rect x="441.47" y="167.422" style="fill:#2BA5F7;" width="39.347" height="13.016"/>
	<rect x="441.47" y="195.979" style="fill:#2BA5F7;" width="39.347" height="13.016"/>
	<rect x="374.048" y="398.57" style="fill:#2BA5F7;" width="102.929" height="15.619"/>
	<rect x="374.048" y="428.129" style="fill:#2BA5F7;" width="102.929" height="15.619"/>
	<rect x="374.048" y="457.675" style="fill:#2BA5F7;" width="102.929" height="15.619"/>
</g>
<rect x="3.305" y="110.582" style="fill:#F95428;" width="295.979" height="16.921"/>
<g>
	<rect x="31.887" y="183.952" style="fill:#2BA5F7;" width="238.814" height="14.317"/>
	<rect x="31.887" y="214.448" style="fill:#2BA5F7;" width="238.814" height="14.317"/>
	<rect x="31.887" y="244.957" style="fill:#2BA5F7;" width="238.814" height="14.317"/>
	<rect x="220.475" y="289.693" style="fill:#2BA5F7;" width="50.228" height="14.317"/>
	<rect x="94.13" y="153.456" style="fill:#2BA5F7;" width="114.331" height="14.317"/>
</g>
<path style="fill:#F95428;" d="M425.511,24.327c13.94,0,25.238,11.298,25.238,25.225c0,13.94-11.298,25.238-25.238,25.238
	c-13.94,0-25.225-11.298-25.225-25.238C400.287,35.624,411.571,24.327,425.511,24.327z"/>
<path style="fill:#2BA5F7;" d="M425.511,81.297c-17.497,0-31.733-14.241-31.733-31.746c0-17.497,14.235-31.733,31.733-31.733
	c17.505,0,31.746,14.235,31.746,31.733C457.257,67.056,443.016,81.297,425.511,81.297z M425.511,30.834
	c-10.32,0-18.717,8.396-18.717,18.717c0,10.328,8.396,18.73,18.717,18.73c10.328,0,18.73-8.403,18.73-18.73
	C444.241,39.231,435.839,30.834,425.511,30.834z"/>
<path style="fill:#F95428;" d="M394.273,162.977c13.94,0,25.238,11.298,25.238,25.225c0,13.94-11.298,25.238-25.238,25.238
	c-13.94,0-25.225-11.298-25.225-25.238C369.049,174.275,380.333,162.977,394.273,162.977z"/>
<path style="fill:#2BA5F7;" d="M394.273,219.948c-17.497,0-31.733-14.241-31.733-31.746c0-17.497,14.235-31.733,31.733-31.733
	c17.505,0,31.746,14.235,31.746,31.733C426.019,205.707,411.778,219.948,394.273,219.948z M394.273,169.485
	c-10.32,0-18.717,8.396-18.717,18.717c0,10.328,8.396,18.73,18.717,18.73c10.328,0,18.73-8.403,18.73-18.73
	C413.003,177.882,404.601,169.485,394.273,169.485z"/>
<path style="fill:#F95428;" d="M425.505,313.889c13.94,0,25.238,11.298,25.238,25.225c0,13.94-11.298,25.238-25.238,25.238
	s-25.225-11.298-25.225-25.238C400.28,325.187,411.565,313.889,425.505,313.889z"/>
<path style="fill:#2BA5F7;" d="M425.505,370.859c-17.497,0-31.733-14.241-31.733-31.746c0-17.497,14.235-31.733,31.733-31.733
	c17.505,0,31.746,14.235,31.746,31.733C457.25,356.619,443.01,370.859,425.505,370.859z M425.505,320.397
	c-10.32,0-18.717,8.397-18.717,18.717c0,10.328,8.396,18.73,18.717,18.73c10.328,0,18.73-8.403,18.73-18.73
	C444.234,328.793,435.833,320.397,425.505,320.397z"/>
<path style="fill:#F95428;" d="M70.18,35.39c13.94,0,25.238,11.298,25.238,25.225c0,13.94-11.298,25.238-25.238,25.238
	S44.955,74.555,44.955,60.615C44.955,46.688,56.24,35.39,70.18,35.39z"/>
<path style="fill:#2BA5F7;" d="M70.18,92.36c-17.497,0-31.733-14.241-31.733-31.746c0-17.497,14.235-31.733,31.733-31.733
	c17.505,0,31.746,14.235,31.746,31.733C101.925,78.118,87.685,92.36,70.18,92.36z M70.18,41.898
	c-10.32,0-18.717,8.396-18.717,18.717c0,10.328,8.396,18.73,18.717,18.73c10.328,0,18.73-8.403,18.73-18.73
	C88.91,50.293,80.508,41.898,70.18,41.898z"/>
<g>
	<path style="fill:#F95428;" d="M249.224,471.849h0.509c0,13.762-3.128,27.495-9.383,40.151h-24.192H78.58v-0.014
		c5.528-12.802-5.165-26.462-5.165-40.137H249.224z"/>
	<path style="fill:#F95428;" d="M73.416,471.849c0-13.66,10.692-27.32,5.165-40.122v-0.014h137.577h24.192
		c6.255,12.642,9.383,26.404,9.383,40.137h-0.509L73.416,471.849L73.416,471.849z"/>
</g>
<rect x="73.422" y="464.573" style="fill:#E54728;" width="189.276" height="14.548"/>
<path style="fill:#2BA5F7;" d="M282.145,431.712c6.255,12.642,9.383,26.404,9.383,40.137c0,13.762-3.128,27.495-9.383,40.151
	h-46.159c6.255-12.657,9.383-26.39,9.383-40.151c0-13.733-3.128-27.495-9.383-40.137H282.145z"/>
<path style="fill:#F95428;" d="M50.49,450.551c4.103,6.081,22.926,13.413,22.926,21.298c0,7.899-18.809,15.217-22.926,21.312
	l-31.787-21.312L50.49,450.551z"/>
<path style="fill:#CCCCCC;" d="M78.58,431.726c5.528,12.802,8.307,26.462,8.307,40.122c0,13.674-2.779,27.334-8.307,40.137V512
	l-28.092-18.839c4.117-6.095,6.488-13.413,6.488-21.312c0-7.885-2.386-15.217-6.488-21.298l28.092-18.839
	C78.58,431.712,78.58,431.726,78.58,431.726z"/>
</svg>