<?xml version="1.0" encoding="iso-8859-1"?>
<!-- Uploaded to: SVG Repo, www.svgrepo.com, Generator: SVG Repo Mixer Tools -->
<svg version="1.1" id="Layer_1" xmlns="http://www.w3.org/2000/svg" xmlns:xlink="http://www.w3.org/1999/xlink" 
	 viewBox="0 0 512 512" xml:space="preserve">
<path style="fill:#95673F;" d="M217.043,0H116.87c-9.217,0-16.696,7.473-16.696,16.696v66.783h133.565V16.696
	C233.739,7.473,226.261,0,217.043,0z"/>
<path style="fill:#DBE9FD;" d="M0,200.348v294.956C0,504.525,7.475,512,16.696,512h478.609c9.22,0,16.696-7.475,16.696-16.696
	V200.348H0z"/>
<path style="fill:#C5DCFD;" d="M256,512h239.304c9.22,0,16.696-7.475,16.696-16.696V200.348H256V512z"/>
<path style="fill:#FF6243;" d="M512,200.348l-61.826-126.13c-3.098-4.647-8.304-7.435-13.891-7.435H91.24
	c-5.587,0-10.793,2.788-13.891,7.435L0,200.348H512z"/>
<path style="fill:#FF3501;" d="M436.283,66.783H256v133.565h256l-61.826-126.13C447.076,69.571,441.869,66.783,436.283,66.783z"/>
<rect x="294.957" y="250.435" style="fill:#DADFE4;" width="133.565" height="133.565"/>
<rect x="83.478" y="250.435" style="fill:#ECEFF0;" width="133.565" height="133.565"/>
<path style="fill:#A1AAB3;" d="M217.043,233.739c-49.134,0-84.953,0-133.565,0c-9.217,0-16.696,7.473-16.696,16.696
	c0,46.662,0,56.145,0,133.565c0,9.223,7.479,16.696,16.696,16.696h133.565c9.217,0,16.696-7.473,16.696-16.696
	c0-49.134,0-84.953,0-133.565C233.739,241.212,226.261,233.739,217.043,233.739z M100.174,267.13h33.391v33.391h-33.391V267.13z
	 M200.348,367.304H100.174v-33.391c32.416,0,61.319,0,100.174,0V367.304z M166.957,300.522V267.13h33.391v33.391H166.957z"/>
<path style="fill:#8A9199;" d="M428.522,233.739c-49.134,0-84.953,0-133.565,0c-9.217,0-16.696,7.473-16.696,16.696
	c0,46.662,0,56.145,0,133.565c0,9.223,7.479,16.696,16.696,16.696h133.565c9.217,0,16.696-7.473,16.696-16.696
	c0-49.134,0-84.953,0-133.565C445.217,241.212,437.739,233.739,428.522,233.739z M311.652,267.13h33.391v33.391h-33.391V267.13z
	 M411.826,367.304H311.652v-33.391c32.416,0,61.319,0,100.174,0V367.304z M378.435,300.522V267.13h33.391v33.391H378.435z"/>
</svg>