<?xml version="1.0" encoding="iso-8859-1"?>
<!-- Uploaded to: SVG Repo, www.svgrepo.com, Generator: SVG Repo Mixer Tools -->
<svg version="1.1" id="Layer_1" xmlns="http://www.w3.org/2000/svg" xmlns:xlink="http://www.w3.org/1999/xlink" 
	 viewBox="0 0 512 512" xml:space="preserve">
<path style="fill:#C7B299;" d="M191.962,47.877c-61.892,0-112.066,50.174-112.066,112.066s50.174,112.066,112.066,112.066
	s112.066-50.174,112.066-112.066S253.854,47.877,191.962,47.877z M191.962,247.995c-48.63,0-88.052-39.422-88.052-88.052
	c0-48.63,39.422-88.052,88.052-88.052s88.052,39.422,88.052,88.052C280.013,208.572,240.591,247.995,191.962,247.995z"/>
<path style="fill:#8CC63F;" d="M191.962,7.853c-83.997,0-152.09,68.093-152.09,152.09s152.09,336.2,152.09,336.2
	s25.735-42.676,56.034-98.764l54.997-109.357c23.342-51.145,41.059-99.41,41.059-128.079
	C344.052,75.946,275.959,7.853,191.962,7.853z M191.962,272.009c-61.892,0-112.066-50.174-112.066-112.066
	S130.069,47.877,191.962,47.877s112.066,50.174,112.066,112.066S253.854,272.009,191.962,272.009z"/>
<path style="fill:#69952F;" d="M119.918,159.943c0-70.122,47.521-128.999,112.066-146.59c-12.772-3.481-26.148-5.5-40.023-5.5
	c-83.997,0-152.09,68.093-152.09,152.09s152.09,336.2,152.09,336.2s17.201-28.528,40.026-69.569
	C186.927,345.551,119.918,215.708,119.918,159.943z"/>
<rect x="247.99" y="288.018" style="fill:#C7B299;" width="224.128" height="216.129"/>
<polygon style="fill:#998675;" points="296.023,504.147 247.995,504.147 247.995,288.019 440.109,288.019 "/>
<circle style="fill:#FFFFFF;" cx="191.963" cy="159.945" r="88.056"/>
<path style="fill:#998675;" d="M103.571,159.943c0-48.63,39.889-88.052,88.052-88.052V47.877
	c-61.775,0-112.066,50.174-112.066,112.066s50.291,112.066,112.066,112.066v-24.015C143.46,247.995,103.571,208.572,103.571,159.943
	z"/>
<polygon style="fill:#8CC63F;" points="392.08,472.128 280.013,472.128 280.013,376.071 336.047,344.052 392.08,376.071 "/>
<path d="M315.139,280.167c24.402-55.03,36.766-95.443,36.766-120.223C351.905,71.75,280.155,0,191.961,0
	C103.769,0,32.019,71.75,32.019,159.943c0,85.201,146.962,329.88,153.218,340.255l6.725,11.151l6.725-11.151
	c0.215-0.356,18.157-30.156,41.456-72.135V512h239.838V280.167H315.139z M191.962,480.758
	c-12.583-21.385-40.96-70.446-69.071-124.821c-49.175-95.124-75.168-162.898-75.168-195.992
	C47.724,80.41,112.428,15.706,191.961,15.706c79.534,0,144.238,64.705,144.238,144.237c0,23.518-12.875,63.956-38.267,120.223
	h-57.79V395.39C219.761,433.05,201.411,464.701,191.962,480.758z M464.275,496.294H255.848V295.872h208.427V496.294z"/>
<path d="M191.961,279.862c-66.123,0-119.919-53.796-119.919-119.919S125.837,40.024,191.961,40.024S311.88,93.82,311.88,159.944
	S258.085,279.862,191.961,279.862z M191.961,55.729c-57.463,0-104.213,46.75-104.213,104.215s46.75,104.213,104.213,104.213
	s104.213-46.75,104.213-104.213S249.424,55.729,191.961,55.729z"/>
<path d="M191.961,255.848c-52.883,0-95.905-43.023-95.905-95.905s43.023-95.905,95.905-95.905s95.905,43.023,95.905,95.905
	S244.843,255.848,191.961,255.848z M191.961,79.743c-44.222,0-80.2,35.977-80.2,80.2c0,44.222,35.977,80.2,80.2,80.2
	c44.222,0,80.2-35.977,80.2-80.2S236.183,79.743,191.961,79.743z"/>
<rect x="183.251" y="151.297" style="fill:#69952F;" width="16.753" height="15.706"/>
<rect x="160.217" y="151.297" width="15.706" height="15.706"/>
<rect x="208.38" y="151.297" width="15.706" height="15.706"/>
<polyline style="fill:#FFFFFF;" points="320.409,471.689 320.409,416.196 351.82,416.196 351.82,471.689 "/>
<path d="M336.047,335.007l-63.887,36.506v108.468h127.772V371.514L336.047,335.007z M344.491,464.275h-15.706v-39.703h15.706
	V464.275z M384.227,464.275h-24.03v-55.408H313.08v55.408h-25.214v-83.648l48.181-27.532l48.18,27.532v83.648H384.227z"/>
<g>
	<rect x="328.789" y="376.409" style="fill:#FFFFFF;" width="15.706" height="15.706"/>
	<rect x="367.53" y="312.54" style="fill:#FFFFFF;" width="80.622" height="15.706"/>
</g>
<rect x="399.988" y="335.575" style="fill:#69952F;" width="48.164" height="15.706"/>
<rect x="424.069" y="360.703" style="fill:#FFFFFF;" width="24.082" height="15.706"/>
<rect x="431.399" y="463.313" width="16.753" height="15.706"/>
<rect x="431.399" y="440.278" style="fill:#69952F;" width="16.753" height="15.706"/>
<rect x="431.399" y="416.196" width="16.753" height="15.706"/>
</svg>