<?xml version="1.0" encoding="iso-8859-1"?>
<!-- Uploaded to: SVG Repo, www.svgrepo.com, Generator: SVG Repo Mixer Tools -->
<svg height="800px" width="800px" version="1.1" id="Layer_1" xmlns="http://www.w3.org/2000/svg" xmlns:xlink="http://www.w3.org/1999/xlink" 
	 viewBox="0 0 512.003 512.003" xml:space="preserve">
<g>
	<path style="fill:#B3B3B3;" d="M376.014,21.628C357.997,7.362,335.496,0,312.517,0h-56.514h-56.514
		c-22.987,0-45.48,7.362-63.497,21.628C99.958,50.15,52.969,114.476,52.969,256c0,141.533,46.989,205.859,83.023,234.381
		C154.009,504.647,176.502,512,199.489,512h56.514h56.514c22.978,0,45.48-7.353,63.497-21.619
		c36.025-28.522,83.023-92.849,83.023-234.381C459.038,114.476,412.04,50.15,376.014,21.628"/>
	<path style="fill:#666666;" d="M388.415,247.175c0,87.755-31.62,158.897-70.621,158.897s-70.621-71.142-70.621-158.897
		s31.62-158.897,70.621-158.897S388.415,159.42,388.415,247.175"/>
	<path style="fill:#B3B3B3;" d="M317.803,335.451c-2.763,0-5.491-1.298-7.212-3.725c-38.303-54.087-38.285-118.007,0.044-170.982
		c2.878-3.946,8.386-4.838,12.332-1.977c3.946,2.86,4.838,8.377,1.986,12.332c-33.704,46.557-33.686,102.788,0.044,150.422
		c2.825,3.981,1.871,9.49-2.101,12.306C321.343,334.921,319.56,335.451,317.803,335.451"/>
	<path style="fill:#666666;" d="M272.754,0.003H256h-56.514c-22.978,0-45.48,7.362-63.497,21.628
		c-36.025,28.522-83.023,92.849-83.023,234.372s46.998,205.85,83.023,234.372c18.017,14.265,40.519,21.628,63.497,21.628H256h16.755
		C120.946,360.195,120.946,151.811,272.754,0.003"/>
</g>
</svg>