<?xml version="1.0" encoding="utf-8"?>
<!-- Uploaded to: SVG Repo, www.svgrepo.com, Generator: SVG Repo Mixer Tools -->
<svg width="800px" height="800px" viewBox="0 0 1024 1024" class="icon"  version="1.1" xmlns="http://www.w3.org/2000/svg"><path d="M774.503712 816.823294l-511.124023-2.099038 0.16941-40.90645 511.124024 2.099038z" fill="#EDE022" /><path d="M610.741559 867.24979l-102.224805-0.42146 0.590871-143.106463 102.220673 0.421461zM346.411518 508.380399l-51.095875-0.206598 1.888308-460.028149 51.095875 0.206598zM474.20492 508.90929l-51.095875-0.206598 1.888308-460.032281 51.095874 0.206598zM601.994189 509.43405l-51.095874-0.206598 1.888308-460.028149 51.095874 0.206598zM724.668087 509.942282l-51.095874-0.206599 1.884175-460.032281 51.095875 0.206599z" fill="#EDE022" /><path d="M28.865905 1023.995868c-1.508167 0-3.016334-0.016528-4.545161-0.045452l0.648718-31.481438c59.653173 1.351152 93.564207-23.568726 106.563368-78.015624V210.825231h31.48557v707.2188l-0.396668 1.727161c-15.585771 68.260056-61.793531 104.224676-133.755827 104.224676zM981.4325 1023.995868c-71.916844 0.004132-118.161792-35.948092-133.867389-104.199884l-0.400801-1.743689V210.825231h31.481439v703.615727c13.110724 54.459294 46.992834 79.408096 106.679062 78.032152l0.644587 31.481438c-1.516431 0.024792-3.032862 0.04132-4.536898 0.04132zM612.89018 850.135193h-133.735167v-51.062819H233.778294v-72.358964h245.376719v-51.066951h133.735167v51.066951h163.505972v72.358964h-163.505972v51.062819z m-102.249596-31.481439h70.764026v-51.062818h163.505972v-9.391956h-163.505972v-51.066951h-70.764026v51.066951H265.267997v9.391956h245.376719v51.062818zM347.018917 492.439279H264.466396V0.888372h82.552521v491.550907z m-51.066951-31.48557h19.58138V32.373943h-19.58138v428.579766zM474.799923 492.439279H392.247401V0.888372h82.552522v491.550907z m-51.062819-31.48557h19.58138V32.373943h-19.58138v428.579766zM602.58506 492.439279h-82.552521V0.888372h82.552521v491.550907z m-51.071082-31.48557h19.585512V32.373943h-19.585512v428.579766zM725.333333 492.439279h-82.552521V0.888372h82.552521v491.550907z m-51.071082-31.48557h19.585512V32.373943h-19.585512v428.579766z" fill="#332C2B" /></svg>