<?xml version="1.0" encoding="iso-8859-1"?>
<!-- Uploaded to: SVG Repo, www.svgrepo.com, Generator: SVG Repo Mixer Tools -->
<svg version="1.1" id="Layer_1" xmlns="http://www.w3.org/2000/svg" xmlns:xlink="http://www.w3.org/1999/xlink" 
	 viewBox="0 0 512 512" xml:space="preserve">
<path style="fill:#555558;" d="M284.096,265.152c-4.693,0-9.359-1.957-12.677-5.778l-54.765-63.062
	c-6.077-6.997-5.33-17.595,1.667-23.672c6.997-6.075,17.595-5.33,23.672,1.667l54.764,63.062c6.078,6.997,5.33,17.595-1.667,23.672
	C291.914,263.8,287.995,265.152,284.096,265.152z"/>
<path style="fill:#F6D433;" d="M507.645,410.753c4.252,4.252,5.524,10.646,3.223,16.201c-2.301,5.555-7.722,9.177-13.735,9.177
	H349.464V288.464c0-6.013,3.622-11.434,9.177-13.735c5.555-2.301,11.949-1.029,16.201,3.223L507.645,410.753z"/>
<path style="fill:#533F29;" d="M396.444,436.919h-64.464c-22.371,0-40.506-18.136-40.506-40.506v-63.169h33.56v63.168
	c0,3.837,3.111,6.947,6.947,6.947h30.904C381.418,403.36,396.444,418.385,396.444,436.919L396.444,436.919z"/>
<path style="fill:#FFDC35;" d="M284.088,269.532H115.59c-9.267,0-16.78-7.513-16.78-16.78V68.506c0-9.267,7.513-16.78,16.78-16.78
	h168.497c9.267,0,16.78,7.513,16.78,16.78v184.246C300.868,262.019,293.355,269.532,284.088,269.532z M132.37,235.972h134.938
	V85.286H132.37V235.972z"/>
<path style="fill:#FF4B00;" d="M267.308,215.676v20.296H132.37v-64.871c-11.21-4.529-22.403-9.102-33.56-13.765v95.416
	c0,9.267,7.513,16.78,16.78,16.78h168.497c9.267,0,16.78-7.513,16.78-16.78v-25.069C290.812,224.12,268.448,216.088,267.308,215.676
	z"/>
<path style="fill:#FF9900;" d="M84.3,174.293c-5.911-1.912-12.381-0.881-17.405,2.774s-7.996,9.493-7.996,15.706v26.034H19.423
	C8.696,218.806,0,227.503,0,238.23v149.772c5.933,0,320.698,0,325.032,0V270.118c0-10.702-6.899-20.184-17.081-23.477L84.3,174.293z
	"/>
<rect y="355.948" style="fill:#A9825A;" width="325.036" height="32.051"/>
<circle style="fill:#555558;" cx="75.062" cy="405.157" r="55.116"/>
<circle style="fill:#DFDEE1;" cx="75.073" cy="405.157" r="17.323"/>
<circle style="fill:#555558;" cx="217.847" cy="405.157" r="55.116"/>
<circle style="fill:#DFDEE1;" cx="217.847" cy="405.157" r="17.323"/>
<path style="fill:#A16125;" d="M157.371,328.498H0v-50.017h114.359c23.755,0,43.012,19.256,43.012,43.012V328.498z"/>
<path style="fill:#F6D433;" d="M157.371,319.549H0v-50.017h107.353C134.978,269.532,157.371,291.925,157.371,319.549
	L157.371,319.549z"/>
<g>
	<polygon style="fill:#A16125;" points="44.172,261.145 34.908,261.145 44.773,231.713 54.038,231.713 	"/>
	<polygon style="fill:#A16125;" points="63.303,261.145 54.038,261.145 63.903,231.713 73.169,231.713 	"/>
	<polygon style="fill:#A16125;" points="82.434,261.145 73.169,261.145 83.033,231.713 92.299,231.713 	"/>
</g>
<rect x="267.985" y="278.481" style="fill:#FF4B00;" width="57.051" height="57.051"/>
<rect x="204.814" y="278.481" style="fill:#F6D433;" width="129.529" height="13.82"/>
<rect x="204.814" y="292.296" style="fill:#A16125;" width="120.222" height="7.243"/>
</svg>