<?xml version="1.0" encoding="iso-8859-1"?>
<!-- Uploaded to: SVG Repo, www.svgrepo.com, Generator: SVG Repo Mixer Tools -->
<svg version="1.1" id="Layer_1" xmlns="http://www.w3.org/2000/svg" xmlns:xlink="http://www.w3.org/1999/xlink" 
	 viewBox="0 0 512 512" xml:space="preserve">
<path style="fill:#99DAEA;" d="M509.05,171.095l-98.879-98.879c-9.395-9.395-22.137-14.673-35.424-14.673H137.252
	c-13.286,0-26.029,5.278-35.423,14.673L2.949,171.095c-3.932,3.932-3.932,10.309,0,14.241l53.317,53.317
	c3.932,3.932,10.309,3.932,14.241,0l35.771-35.771c3.773-3.772,10.223-1.101,10.223,4.235v232.444
	c0,8.227,6.669,14.896,14.896,14.896h249.205c8.227,0,14.896-6.669,14.896-14.896V207.117c0-5.335,6.451-8.007,10.223-4.235
	l35.771,35.771c3.932,3.932,10.309,3.932,14.241,0l53.317-53.317C512.982,181.403,512.982,175.028,509.05,171.095z"/>
<path style="fill:#6DABE4;" d="M180.512,57.542c0,41.692,33.799,75.492,75.491,75.492s75.491-33.799,75.491-75.492
	C331.494,57.542,180.512,57.542,180.512,57.542z"/>
<path style="opacity:0.25;enable-background:new    ;" d="M210.063,57.542c0,25.372,20.568,45.94,45.94,45.94
	s45.94-20.568,45.94-45.94H210.063z"/>
<g>
	<rect x="116.502" y="328.202" style="fill:#FF6361;" width="278.995" height="50.41"/>
	<rect x="116.502" y="235.664" style="fill:#FF6361;" width="278.995" height="50.41"/>
</g>
<path style="opacity:0.1;enable-background:new    ;" d="M152.936,431.892c-8.227,0-14.896-6.669-14.896-14.896v-256.93
	c0-5.335-6.45-8.007-10.223-4.234l-55.47,55.275c-3.932,3.932-10.309,3.932-14.241,0l-47.584-47.585l-7.573,7.573
	c-3.932,3.932-3.932,10.309,0,14.241l53.317,53.317c3.932,3.932,10.309,3.932,14.241,0l35.771-35.771
	c3.773-3.772,10.223-1.101,10.223,4.235v232.444c0,8.227,6.669,14.896,14.896,14.896h249.205c8.227,0,14.896-6.669,14.896-14.896
	v-7.668H152.936V431.892z"/>
</svg>