<?xml version="1.0" encoding="iso-8859-1"?>
<!-- Uploaded to: SVG Repo, www.svgrepo.com, Generator: SVG Repo Mixer Tools -->
<svg version="1.1" id="Layer_1" xmlns="http://www.w3.org/2000/svg" xmlns:xlink="http://www.w3.org/1999/xlink" 
	 viewBox="0 0 512 512" xml:space="preserve">
<path style="fill:#6F6F6F;" d="M465.989,250.235c-25.37,0-46.01-20.64-46.01-46.011c0-19.271,11.906-35.812,28.752-42.653v-53.237
	H293.394V73.818h189.854V192.73h-17.259c-6.337,0-11.493,5.157-11.493,11.494c0,6.338,5.157,11.494,11.493,11.494
	c6.338,0,11.494-5.157,11.494-11.494H512C512,229.595,491.36,250.235,465.989,250.235z"/>
<path style="fill:#F4DA49;" d="M302.789,273.258V73.818H69.56L0,273.258v18.606v135.572h40.848h387.618h54.781V273.258H302.789z"/>
<path style="fill:#6F6F6F;" d="M87.664,474.252c-35.331,0-64.076-28.744-64.076-64.075c0-35.331,28.744-64.076,64.076-64.076
	s64.076,28.744,64.076,64.076C151.739,445.507,122.996,474.252,87.664,474.252z"/>
<path style="fill:#444444;" d="M477.483,204.224c0,6.338-5.157,11.494-11.494,11.494c-6.337,0-11.493-5.157-11.493-11.494
	c0-6.338,5.157-11.494,11.493-11.494h17.259v-30.703l-34.517-0.455c-16.845,6.841-28.752,23.382-28.752,42.653
	c0,25.371,20.64,46.011,46.01,46.011c25.371,0,46.011-20.64,46.011-46.011L477.483,204.224L477.483,204.224z"/>
<rect x="236.01" y="37.748" style="fill:#B0B0B0;" width="66.783" height="265.027"/>
<path style="fill:#E69824;" d="M236.006,273.258v154.178h192.46h54.781V273.258H236.006z"/>
<path style="fill:#444444;" d="M381.649,474.252c-35.331,0-64.076-28.744-64.076-64.075c0-35.331,28.744-64.076,64.076-64.076
	s64.076,28.744,64.076,64.076C445.725,445.507,416.981,474.252,381.649,474.252z"/>
<polygon style="fill:#C2E2FD;" points="202.615,108.334 94.301,108.334 44.4,255.486 202.615,255.486 "/>
</svg>