<?xml version="1.0" encoding="iso-8859-1"?>
<!-- Uploaded to: SVG Repo, www.svgrepo.com, Generator: SVG Repo Mixer Tools -->
<svg height="800px" width="800px" version="1.1" id="Layer_1" xmlns="http://www.w3.org/2000/svg" xmlns:xlink="http://www.w3.org/1999/xlink" 
	 viewBox="0 0 512 512" xml:space="preserve">
<path style="fill:#B7C5D2;" d="M391.642,21.705L155.826,257.522v70.826h70.826L462.468,92.532L391.642,21.705z"/>
<polygon style="fill:#A4B5C5;" points="256,299 462.468,92.532 391.642,21.705 256,157.348 "/>
<path style="fill:#8C6D50;" d="M461.913,439.652H155.826V306.087h306.087c27.662,0,50.087,22.424,50.087,50.087v33.391
	C512,417.228,489.576,439.652,461.913,439.652z"/>
<path style="fill:#6E6057;" d="M161.391,172.522H83.478c-27.619,0-50.087,22.468-50.087,50.087v50.087v9.783l-18.717,18.722
	c-1.514,1.513-2.727,3.225-4.019,4.886h167.432v-116.87C178.087,179.995,170.608,172.522,161.391,172.522z"/>
<path style="fill:#DA9A2B;" d="M33.391,282.479l-18.717,18.721c-1.514,1.513-2.727,3.225-4.019,4.886
	C3.866,314.823,0,325.376,0,336.614v52.951c0,27.619,22.468,50.087,50.087,50.087h128V282.479H33.391z"/>
<path style="fill:#8C6D50;" d="M50.087,339.478H0v33.391h50.087c9.217,0,16.696-7.473,16.696-16.696S59.304,339.478,50.087,339.478z
	"/>
<path style="fill:#6E6057;" d="M144.696,506.435c-36.826,0-66.783-29.956-66.783-66.783s29.956-66.783,66.783-66.783
	s66.783,29.956,66.783,66.783S181.522,506.435,144.696,506.435z"/>
<path style="fill:#615349;" d="M211.478,439.652c0-36.826-29.956-66.783-66.783-66.783v133.565
	C181.522,506.435,211.478,476.478,211.478,439.652z"/>
<path style="fill:#DBDFE3;" d="M144.696,406.261c-18.413,0-33.391,14.978-33.391,33.391c0,18.413,14.978,33.391,33.391,33.391
	s33.391-14.978,33.391-33.391C178.087,421.239,163.109,406.261,144.696,406.261z"/>
<path style="fill:#CAD1D7;" d="M178.087,439.652c0-18.413-14.978-33.391-33.391-33.391v66.783
	C163.109,473.043,178.087,458.065,178.087,439.652z"/>
<path style="fill:#765B43;" d="M461.913,306.087H256v133.565h205.913c27.664,0,50.087-22.424,50.087-50.087v-33.391
	C512,328.511,489.577,306.087,461.913,306.087z"/>
<path style="fill:#8C6D50;" d="M428.522,272.696c-27.619,0-50.087-22.468-50.087-50.087c0-9.223,7.479-16.696,16.696-16.696
	c9.217,0,16.696,7.473,16.696,16.696c0,9.206,7.49,16.696,16.696,16.696c9.206,0,16.696-7.49,16.696-16.696
	c0-6.223-3.424-11.892-8.946-14.799c-15.076-7.929-24.446-24.359-24.446-42.874V102.87c0-9.223,7.479-16.696,16.696-16.696
	c9.217,0,16.696,7.473,16.696,16.696v62.066c0,5.891,2.652,11.25,6.609,13.326c16.521,8.701,26.782,25.695,26.782,44.347
	C478.609,250.228,456.141,272.696,428.522,272.696z"/>
<path style="fill:#765B43;" d="M436.272,207.81c5.522,2.907,8.946,8.576,8.946,14.799c0,9.206-7.49,16.696-16.696,16.696v33.391
	c27.619,0,50.087-22.468,50.087-50.087c0-18.652-10.261-35.646-26.783-44.348c-3.957-2.076-6.609-7.435-6.609-13.326V102.87
	c0-9.223-7.479-16.696-16.696-16.696v116.261C430.916,204.466,433.457,206.329,436.272,207.81z"/>
<path style="fill:#E2E7EC;" d="M428.522,105.739c-27.619,0-50.087-22.468-50.087-50.087s22.468-50.087,50.087-50.087
	s50.087,22.468,50.087,50.087S456.141,105.739,428.522,105.739z"/>
<path style="fill:#CCD5E0;" d="M478.609,55.652c0-27.619-22.468-50.087-50.087-50.087v100.174
	C456.141,105.739,478.609,83.271,478.609,55.652z"/>
<path style="fill:#6E6057;" d="M378.435,506.435c-36.826,0-66.783-29.956-66.783-66.783s29.956-66.783,66.783-66.783
	s66.783,29.956,66.783,66.783S415.261,506.435,378.435,506.435z"/>
<path style="fill:#615349;" d="M445.217,439.652c0-36.826-29.956-66.783-66.783-66.783v133.565
	C415.261,506.435,445.217,476.478,445.217,439.652z"/>
<path style="fill:#DBDFE3;" d="M378.435,406.261c-18.413,0-33.391,14.978-33.391,33.391c0,18.413,14.978,33.391,33.391,33.391
	c18.413,0,33.391-14.978,33.391-33.391C411.826,421.239,396.848,406.261,378.435,406.261z"/>
<path style="fill:#CAD1D7;" d="M411.826,439.652c0-18.413-14.978-33.391-33.391-33.391v66.783
	C396.848,473.043,411.826,458.065,411.826,439.652z"/>
<path style="fill:#6E6057;" d="M428.522,38.957c-9.206,0-16.696,7.49-16.696,16.696s7.49,16.696,16.696,16.696
	c9.206,0,16.696-7.49,16.696-16.696S437.728,38.957,428.522,38.957z"/>
<path style="fill:#615349;" d="M445.217,55.652c0-9.206-7.49-16.696-16.696-16.696v33.391
	C437.728,72.348,445.217,64.858,445.217,55.652z"/>
</svg>