<?xml version="1.0" encoding="iso-8859-1"?>
<!-- Uploaded to: SVG Repo, www.svgrepo.com, Generator: SVG Repo Mixer Tools -->
<svg fill="#000000" height="800px" width="800px" version="1.1" id="Capa_1" xmlns="http://www.w3.org/2000/svg" xmlns:xlink="http://www.w3.org/1999/xlink" 
	 viewBox="0 0 490 490" xml:space="preserve">
<g>
	<path d="M490,335.688H341.4c-1.425,0-2.586-1.16-2.586-2.591V87.711h-20.851v196.762L172.26,37.065H63.22v202.223h-8.69
		c-24.578,0-44.568,19.991-44.568,44.568v63.128C3.643,357.498,0,369.795,0,382.93c0,38.602,31.404,70.005,70.005,70.005
		c38.383,0,69.636-31.052,69.99-69.352h68.781c0.354,38.301,31.606,69.352,69.99,69.352c38.602,0,70.005-31.404,70.005-70.005
		c0-9.336-1.852-18.242-5.189-26.39H490V335.688z M70.005,432.084c-27.102,0-49.154-22.052-49.154-49.154
		c0-27.102,22.052-49.15,49.154-49.15c27.102,0,49.155,22.048,49.155,49.15C119.161,410.032,97.108,432.084,70.005,432.084z
		 M211.743,362.732h-74.715c-8.691-28.78-35.442-49.803-67.023-49.803c-14.51,0-28.001,4.439-39.192,12.027v-41.1
		c0-13.078,10.639-23.717,23.717-23.717h29.541V57.916h76.318l157.573,267.044c-11.191-7.591-24.685-12.031-39.197-12.031
		C247.185,312.928,220.434,333.952,211.743,362.732z M278.766,432.084c-27.102,0-49.155-22.052-49.155-49.154
		c0-27.102,22.053-49.15,49.155-49.15c27.102,0,49.154,22.048,49.154,49.15C327.92,410.032,305.868,432.084,278.766,432.084z"/>
	<path d="M98.064,79v136.952h132.987L153.69,79H98.064z M118.916,195.101v-95.25h22.608l53.802,95.25H118.916z"/>
	<path d="M486.701,152.468h-56.318V178.4h-17.745v-25.931H356.32v167.587h130.381V152.468z M465.85,299.204h-88.679V173.319h14.616
		v25.932h59.447v-25.932h14.616V299.204z"/>
</g>
</svg>