<?xml version="1.0" encoding="utf-8"?>
<!-- Uploaded to: SVG Repo, www.svgrepo.com, Generator: SVG Repo Mixer Tools -->
<svg width="800px" height="800px" viewBox="0 0 1024 1024" class="icon"  version="1.1" xmlns="http://www.w3.org/2000/svg"><path d="M147.1625 206.808333l753.645833 3.070834-0.820833 197.2375c-0.358333 72.166667-59.645833 131.1-131.929167 130.866666l-490.858333-2.008333c-72.283333-0.354167-131.1-59.7625-130.8625-132.041667l0.825-197.125z" fill="#F08519" /><path d="M12.991667 146.2875h952.895833v31.75H12.991667z" fill="#332C2B" /><path d="M735.816667 506.616667H245.075c-81.2375 0-147.329167-66.091667-147.329167-147.329167v-213h785.395834v213c0 81.2375-66.0875 147.329167-147.325 147.329167zM129.495833 178.0375v181.25c0 63.729167 51.845833 115.579167 115.579167 115.579167h490.741667c63.729167 0 115.579167-51.85 115.579166-115.579167v-181.25H129.495833zM188.879167 588.508333l26.1375 18.029167-164.308334 238.216667-26.1375-18.029167zM481.716667 655.029167h31.75v295.745833h-31.75zM830.9125 596.554167l164.283333 229.958333-25.841666 18.458333-164.279167-229.958333z" fill="#332C2B" /></svg>