<?xml version="1.0" encoding="iso-8859-1"?>
<!-- Uploaded to: SVG Repo, www.svgrepo.com, Generator: SVG Repo Mixer Tools -->
<svg version="1.1" id="Layer_1" xmlns="http://www.w3.org/2000/svg" xmlns:xlink="http://www.w3.org/1999/xlink" 
	 viewBox="0 0 512 512" xml:space="preserve">
<g>
	<path style="fill:#FFE100;" d="M76.8,452.267h256c-5.12-6.827-8.533-16.213-8.533-25.6s3.413-18.773,8.533-25.6h-256
		c5.12,6.827,8.533,16.213,8.533,25.6S81.92,445.44,76.8,452.267z M290.133,418.133c5.12,0,8.533,3.413,8.533,8.533
		s-3.413,8.533-8.533,8.533c-5.12,0-8.533-3.413-8.533-8.533S285.013,418.133,290.133,418.133z M247.467,418.133
		c5.12,0,8.533,3.413,8.533,8.533s-3.413,8.533-8.533,8.533c-5.12,0-8.533-3.413-8.533-8.533S242.347,418.133,247.467,418.133z
		 M204.8,418.133c5.12,0,8.533,3.413,8.533,8.533s-3.413,8.533-8.533,8.533c-5.12,0-8.533-3.413-8.533-8.533
		S199.68,418.133,204.8,418.133z M162.133,418.133c5.12,0,8.533,3.413,8.533,8.533s-3.413,8.533-8.533,8.533
		c-5.12,0-8.533-3.413-8.533-8.533S157.013,418.133,162.133,418.133z M119.467,418.133c5.12,0,8.533,3.413,8.533,8.533
		s-3.413,8.533-8.533,8.533s-8.533-3.413-8.533-8.533S114.347,418.133,119.467,418.133z"/>
	<path style="fill:#FFE100;" d="M209.067,141.653C207.36,133.973,200.533,128,192,128h-21.333H102.4H82.773
		c-3.413,4.267-5.973,10.24-5.973,17.067v128h162.133L209.067,141.653z M189.44,232.107c-2.56,4.267-7.68,6.827-12.8,6.827H102.4
		c-9.387,0-17.067-7.68-17.067-17.067V179.2c0-9.387,7.68-17.067,17.067-17.067h61.44c7.68,0,14.507,5.12,16.213,11.947L192,216.747
		C193.707,221.867,192.853,226.987,189.44,232.107z"/>
</g>
<path style="fill:#FFFFFF;" d="M82.773,128H76.8c-9.387,0-17.067,7.68-17.067,17.067v128H76.8v-128
	C76.8,138.24,79.36,132.267,82.773,128z"/>
<path style="fill:#FFE100;" d="M196.267,307.2c5.12,0,8.533,3.413,8.533,8.533s-3.413,8.533-8.533,8.533H76.8v17.067h170.667
	c5.12,0,8.533,3.413,8.533,8.533c0,5.12-3.413,8.533-8.533,8.533H76.8V384h249.173l24.747-84.48c0.853-2.56,0.853-5.973,0.853-8.533
	H76.8V307.2H196.267z"/>
<g>
	<rect x="59.733" y="324.267" style="fill:#FFFFFF;" width="17.067" height="17.067"/>
	<rect x="59.733" y="358.4" style="fill:#FFFFFF;" width="17.067" height="25.6"/>
	<rect x="59.733" y="290.987" style="fill:#FFFFFF;" width="17.067" height="16.213"/>
</g>
<path style="fill:#FFA800;" d="M350.72,299.52L325.973,384h8.533c1.707,0,2.56-0.853,3.413-1.707l30.72-86.187
	c0.853-1.707,0-3.413,0-3.413c0-0.853-1.707-1.707-3.413-1.707h-13.653C351.573,293.547,351.573,296.96,350.72,299.52z"/>
<g>
	<path style="fill:#FFE100;" d="M384,86.187c0-3.413-0.853-6.827-1.707-9.387l15.36,21.333l0,0c0,0,0-0.853,0.853-0.853
		c0.853-1.707,1.707-3.413,1.707-5.12v-0.853c0.853-1.707,0.853-4.267,0.853-5.973s0-3.413-0.853-5.12V79.36
		c-2.56-11.093-11.947-19.627-24.747-19.627c-14.507,0-25.6,11.093-25.6,25.6c0,1.707,0,2.56,0,4.267c0,0.853,0,1.707,0.853,2.56
		c0,0,0,0,0,0.853c3.413,10.24,13.653,17.92,24.747,17.92c6.827,0,12.8-2.56,17.067-6.827C389.973,98.987,384,93.013,384,86.187z"/>
	<path style="fill:#FFE100;" d="M248.32,235.52l8.533,37.547h3.413L363.52,126.293c0,0-0.853,0-0.853-0.853
		c-10.24-3.413-18.773-10.24-23.893-18.773L247.467,232.96L248.32,235.52z"/>
	<path style="fill:#FFE100;" d="M435.2,196.267h-21.333l2.56,5.973c10.24,23.04,31.573,39.253,56.32,41.813l5.12,0.853v-48.64H435.2
		z"/>
</g>
<polygon style="fill:#FFA800;" points="477.867,244.907 494.933,246.613 494.933,196.267 486.4,196.267 477.867,196.267 "/>
<g>
	<path style="fill:#FFE100;" d="M407.893,113.493c-0.853,0.853-1.707,1.707-2.56,2.56l0,0L440.32,179.2h13.653l-34.987-49.493
		L407.893,113.493z"/>
	<path style="fill:#FFE100;" d="M382.293,76.8c0.853,2.56,1.707,5.973,1.707,9.387c0,6.827,5.973,12.8,8.533,17.92l0,0
		c0,0,0.853,0,0.853-0.853s0.853-0.853,0.853-1.707c0.853-0.853,1.707-2.56,2.56-3.413L382.293,76.8z"/>
</g>
<g>
	<path style="fill:#FFA800;" d="M418.987,129.707l34.987,49.493h16.213l-54.613-78.507c0,0.853-0.853,0.853-0.853,1.707
		c-1.707,4.267-4.267,7.68-6.827,11.093L418.987,129.707z"/>
	<polygon style="fill:#FFA800;" points="418.987,129.707 453.973,179.2 453.973,179.2 	"/>
</g>
<path style="fill:#FFFFFF;" d="M40.96,401.067c-13.653,0.853-23.893,11.947-23.893,25.6s10.24,24.747,23.893,25.6
	c-4.267-5.973-6.827-15.36-6.827-25.6C34.133,416.427,36.693,407.04,40.96,401.067z"/>
<path style="fill:#FECC00;" d="M68.267,426.667c0-14.507-11.093-25.6-25.6-25.6c-0.853,0-0.853,0-1.707,0
	c-4.267,5.973-6.827,15.36-6.827,25.6c0,10.24,2.56,19.627,6.827,25.6c0.853,0,0.853,0,1.707,0
	C57.173,452.267,68.267,441.173,68.267,426.667z"/>
<path style="fill:#FFA800;" d="M368.64,452.267c13.653-0.853,23.893-11.093,23.893-25.6s-10.24-24.747-23.893-25.6
	c4.267,5.973,6.827,15.36,6.827,25.6C375.467,436.907,372.907,446.293,368.64,452.267z"/>
<g>
	<path style="fill:#FECC00;" d="M341.333,426.667c0,14.507,11.093,25.6,25.6,25.6c0.853,0,0.853,0,1.707,0
		c4.267-5.973,6.827-15.36,6.827-25.6c0-10.24-2.56-19.627-6.827-25.6c-0.853,0-0.853,0-1.707,0
		C352.427,401.067,341.333,412.16,341.333,426.667z"/>
	<path style="fill:#FECC00;" d="M136.533,76.8c-9.387,0-17.067,7.68-17.067,17.067v17.067H153.6V93.867
		C153.6,84.48,145.92,76.8,136.533,76.8z"/>
</g>
<polygon style="fill:#63D3FD;" points="102.4,179.2 102.4,221.867 176.64,221.867 163.84,179.2 "/>
<path d="M51.2,145.067c0-14.507,11.093-25.6,25.6-25.6h25.6v-8.533H76.8c-18.773,0-34.133,15.36-34.133,34.133v128H51.2V145.067z"/>
<path d="M193.707,119.467c11.947,0,22.187,8.533,24.747,19.627l17.92,81.067l5.973-8.533l-16.213-74.24
	c-3.413-15.36-17.067-26.453-33.28-26.453h-22.187v8.533H193.707z"/>
<path d="M82.773,128H102.4v-8.533C94.72,119.467,87.893,122.88,82.773,128z"/>
<path d="M192,128c8.533,0,15.36,5.973,17.067,13.653l29.867,131.413l0,0L230.4,232.96c-0.853-2.56,0-5.12,1.707-6.827l4.267-5.973
	l-17.92-81.067c-2.56-11.093-12.8-19.627-24.747-19.627h-23.04V128H192z"/>
<path d="M59.733,145.067c0-9.387,7.68-17.067,17.067-17.067h5.973c4.267-5.12,11.093-8.533,19.627-8.533H76.8
	c-14.507,0-25.6,11.093-25.6,25.6v128h8.533V145.067z"/>
<path d="M247.467,232.96l0.853,2.56L247.467,232.96z"/>
<path d="M51.2,307.2v-17.067h-8.533v25.6C42.667,310.613,46.08,307.2,51.2,307.2z"/>
<path d="M341.333,281.6h23.893c8.533,0,14.507,9.387,11.093,17.92L346.453,384h9.387l29.013-81.067
	c3.413-5.973,2.56-13.653-0.853-19.627c-4.267-6.827-10.24-10.24-17.92-10.24H281.6l-5.973,8.533H341.333z"/>
<path d="M51.2,358.4c-5.12,0-8.533-3.413-8.533-8.533V384H51.2V358.4z"/>
<path d="M51.2,341.333v-17.067c-5.12,0-8.533-3.413-8.533-8.533v34.133C42.667,344.747,46.08,341.333,51.2,341.333z"/>
<path d="M264.533,290.133h-4.267h-10.24H76.8v0.853h274.773c-0.853-5.12-5.12-9.387-10.24-9.387h-65.707l-3.413,5.12
	C269.653,288.427,267.093,290.133,264.533,290.133z"/>
<polygon points="59.733,290.987 76.8,290.987 76.8,290.133 51.2,290.133 51.2,307.2 59.733,307.2 "/>
<rect x="51.2" y="324.267" width="8.533" height="17.067"/>
<rect x="51.2" y="358.4" width="8.533" height="25.6"/>
<path d="M351.573,290.987h13.653c1.707,0,3.413,0.853,3.413,1.707c0,0,0.853,1.707,0,3.413l-30.72,86.187
	c-0.853,0.853-1.707,1.707-3.413,1.707h11.947l29.867-84.48c3.413-8.533-2.56-17.92-11.093-17.92h-23.893
	C346.453,281.6,350.72,285.867,351.573,290.987z"/>
<polygon points="51.2,281.6 51.2,273.067 42.667,273.067 42.667,290.133 51.2,290.133 "/>
<polygon points="241.493,281.6 238.933,273.067 238.933,273.067 76.8,273.067 76.8,281.6 187.733,281.6 "/>
<polygon points="76.8,273.067 59.733,273.067 51.2,273.067 51.2,281.6 76.8,281.6 "/>
<path d="M241.493,283.307V281.6h-53.76H76.8v8.533h173.227C245.76,290.133,242.347,287.573,241.493,283.307z"/>
<rect x="51.2" y="281.6" width="25.6" height="8.533"/>
<path d="M180.053,174.08c-1.707-6.827-8.533-11.947-16.213-11.947H102.4c-9.387,0-17.067,7.68-17.067,17.067v42.667
	c0,9.387,7.68,17.067,17.067,17.067h74.24c5.12,0,10.24-2.56,12.8-6.827c3.413-5.12,4.267-10.24,2.56-15.36L180.053,174.08z
	 M176.64,230.4H102.4c-5.12,0-8.533-3.413-8.533-8.533V179.2c0-5.12,3.413-8.533,8.533-8.533h61.44c3.413,0,6.827,2.56,8.533,5.973
	l11.947,42.667C186.027,225.28,181.76,230.4,176.64,230.4z"/>
<path d="M172.373,176.64c-1.707-3.413-5.12-5.973-8.533-5.973H102.4c-5.12,0-8.533,3.413-8.533,8.533v42.667
	c0,5.12,3.413,8.533,8.533,8.533h74.24c5.12,0,9.387-5.12,7.68-11.093L172.373,176.64z M102.4,221.867V179.2h61.44l12.8,42.667
	H102.4z"/>
<path d="M196.267,324.267c5.12,0,8.533-3.413,8.533-8.533c0-5.12-3.413-8.533-8.533-8.533H76.8v17.067H196.267z"/>
<rect x="59.733" y="307.2" width="17.067" height="17.067"/>
<path d="M51.2,324.267V307.2c-5.12,0-8.533,3.413-8.533,8.533S46.08,324.267,51.2,324.267z"/>
<rect x="51.2" y="307.2" width="8.533" height="17.067"/>
<path d="M247.467,358.4c5.12,0,8.533-3.413,8.533-8.533c0-5.12-3.413-8.533-8.533-8.533H76.8V358.4H247.467z"/>
<rect x="59.733" y="341.333" width="17.067" height="17.067"/>
<path d="M51.2,358.4v-17.067c-5.12,0-8.533,3.413-8.533,8.533C42.667,354.987,46.08,358.4,51.2,358.4z"/>
<rect x="51.2" y="341.333" width="8.533" height="17.067"/>
<path d="M342.187,80.213C344.747,64,358.4,51.2,375.467,51.2c12.8,0,23.04,6.827,29.013,17.067c3.413-1.707,8.533-0.853,10.24,2.56
	l1.707,1.707c-5.973-17.067-21.333-29.867-40.96-29.867c-23.893,0-42.667,18.773-42.667,42.667c0,0,0,0,0,0.853l1.707-2.56
	C336.213,81.92,338.773,80.213,342.187,80.213z"/>
<path d="M387.413,124.587l-1.707,1.707c1.707,0,2.56-0.853,4.267-1.707l-1.707-3.413
	C388.267,122.88,388.267,123.733,387.413,124.587z"/>
<path d="M400.213,80.213c0.853,1.707,0.853,3.413,0.853,5.12C401.067,84.48,401.067,81.92,400.213,80.213z"/>
<path d="M398.507,97.28C397.653,97.28,397.653,98.133,398.507,97.28C397.653,98.133,397.653,97.28,398.507,97.28z"/>
<path d="M375.467,110.933c0.853,0,0.853,0,1.707,0h1.707c2.56,0,5.12,0.853,6.827,1.707c0.853-1.707,1.707-4.267,3.413-5.12
	c1.707-0.853,2.56-1.707,3.413-3.413l0,0C388.267,108.373,382.293,110.933,375.467,110.933z"/>
<path d="M349.867,87.893c0,0.853,0,0.853,0,1.707c0-1.707,0-2.56,0-4.267c0-14.507,11.093-25.6,25.6-25.6
	c12.8,0,22.187,8.533,24.747,19.627v-0.853c-0.853-4.267,0.853-8.533,4.267-10.24l0,0c-5.973-10.24-17.067-17.067-29.013-17.067
	c-17.067,0-30.72,12.8-33.28,29.013c0.853,0,1.707,0,1.707,0C347.307,81.067,349.867,84.48,349.867,87.893z"/>
<path d="M350.72,93.013C350.72,92.16,350.72,92.16,350.72,93.013C350.72,92.16,350.72,92.16,350.72,93.013z"/>
<path d="M400.213,91.307C400.213,91.307,400.213,92.16,400.213,91.307C400.213,92.16,400.213,91.307,400.213,91.307z"/>
<path d="M362.667,125.44c-9.387-3.413-18.773-10.24-23.893-18.773l0,0C343.893,116.053,352.427,122.88,362.667,125.44z"/>
<path d="M407.893,113.493L407.893,113.493c-0.853,0.853-1.707,1.707-2.56,2.56C406.187,115.2,407.04,114.347,407.893,113.493z"/>
<path d="M395.093,102.4c0,0.853-0.853,0.853-0.853,1.707C394.24,103.253,394.24,102.4,395.093,102.4z"/>
<path d="M392.533,104.107C392.533,104.107,393.387,104.107,392.533,104.107C393.387,104.107,392.533,104.107,392.533,104.107
	L392.533,104.107z"/>
<path d="M414.72,102.4c-1.707,4.267-4.267,7.68-6.827,11.093l0,0C410.453,110.08,413.013,105.813,414.72,102.4z"/>
<path d="M334.507,98.133c-0.853-4.267-1.707-7.68-1.707-11.947l-90.453,125.44l2.56,10.24L334.507,98.133z"/>
<path d="M373.76,128L270.507,273.067H281.6l104.107-146.773c-3.413,0.853-6.827,1.707-10.24,1.707
	C374.613,128,374.613,128,373.76,128z"/>
<path d="M350.72,93.013c3.413,10.24,12.8,17.92,24.747,17.92C364.373,110.933,354.133,103.253,350.72,93.013z"/>
<path d="M350.72,92.16c0-0.853,0-1.707-0.853-2.56C350.72,90.453,350.72,91.307,350.72,92.16z"/>
<path d="M363.52,126.293L260.267,273.067h10.24L373.76,128c-4.267,0-7.68-0.853-11.093-1.707
	C362.667,126.293,363.52,126.293,363.52,126.293z"/>
<path d="M338.773,106.667c-1.707-2.56-2.56-5.973-4.267-9.387l-89.6,124.587l2.56,11.093L338.773,106.667z"/>
<polygon points="256.853,273.067 256.853,273.067 248.32,235.52 "/>
<polygon points="238.933,230.4 244.907,221.867 242.347,211.627 236.373,220.16 "/>
<path d="M230.4,232.96l8.533,40.107h8.533l-9.387-41.813l0.853-0.853l-2.56-10.24l-4.267,5.973
	C230.4,227.84,229.547,230.4,230.4,232.96z"/>
<polygon points="256.853,273.067 248.32,235.52 247.467,232.96 247.467,232.96 244.907,221.867 238.933,230.4 248.32,273.067 "/>
<polygon points="247.467,273.067 248.32,273.067 238.933,230.4 238.08,231.253 "/>
<polygon points="264.533,281.6 275.627,281.6 281.6,273.067 270.507,273.067 "/>
<path d="M260.267,290.133h4.267c2.56,0,5.12-1.707,7.68-3.413l3.413-5.12h-11.093h-5.973L260.267,290.133z"/>
<polygon points="256.853,273.067 256.853,273.067 258.56,281.6 264.533,281.6 270.507,273.067 260.267,273.067 "/>
<polygon points="249.173,281.6 247.467,273.067 238.933,273.067 241.493,281.6 "/>
<path d="M249.173,281.6h-7.68v1.707c0.853,4.267,4.267,6.827,8.533,6.827h10.24l-1.707-8.533H249.173L249.173,281.6z"/>
<polygon points="250.027,281.6 258.56,281.6 256.853,273.067 248.32,273.067 "/>
<polygon points="250.027,281.6 248.32,273.067 247.467,273.067 249.173,281.6 "/>
<path d="M375.467,119.467c-2.56,0-4.267,0-6.827-0.853C371.2,119.467,372.907,119.467,375.467,119.467z"/>
<path d="M388.267,122.027l-1.707-3.413v-0.853c-3.413,0.853-7.68,1.707-11.093,1.707c1.707,0,2.56,0,4.267,0L373.76,128
	c0.853,0,0.853,0,1.707,0c3.413,0,6.827-0.853,10.24-1.707l1.707-1.707C388.267,123.733,388.267,122.88,388.267,122.027z"/>
<path d="M341.333,88.747c0.853,12.8,9.387,23.04,20.48,28.16c-11.947-5.973-20.48-17.92-20.48-31.573c0-1.707,0-3.413,0.853-5.12
	c-2.56,0-5.973,1.707-7.68,3.413l-1.707,2.56c0,4.267,0.853,7.68,1.707,11.947L341.333,88.747z"/>
<path d="M362.667,116.907c1.707,0.853,3.413,1.707,5.973,1.707C366.08,117.76,364.373,117.76,362.667,116.907z"/>
<path d="M385.707,112.64c-1.707-0.853-4.267-1.707-6.827-1.707h-1.707c-0.853,0-0.853,0-1.707,0c-11.947,0-21.333-7.68-24.747-17.92
	c0,0,0,0,0-0.853s0-1.707-0.853-2.56c0-0.853,0-0.853,0-1.707c0-3.413-2.56-6.827-5.973-7.68c-0.853,0-1.707,0-1.707,0
	c-0.853,1.707-0.853,3.413-0.853,5.12c0,13.653,8.533,25.6,20.48,31.573l0,0c1.707,0.853,3.413,1.707,5.973,1.707h0.853
	c2.56,0.853,4.267,0.853,6.827,0.853c3.413,0,7.68-0.853,11.093-1.707C385.707,116.053,384.853,114.347,385.707,112.64z"/>
<path d="M367.787,118.613c-1.707-0.853-3.413-0.853-5.973-1.707l0,0c-11.093-5.12-19.627-15.36-20.48-28.16l-6.827,9.387
	c0.853,3.413,2.56,5.973,4.267,9.387l0,0c5.12,9.387,13.653,15.36,23.893,18.773c3.413,0.853,7.68,1.707,11.093,1.707l5.973-8.533
	c-1.707,0-2.56,0-4.267,0C372.907,119.467,371.2,119.467,367.787,118.613C368.64,118.613,367.787,118.613,367.787,118.613z"/>
<path d="M361.813,116.907L361.813,116.907L361.813,116.907z"/>
<path d="M367.787,118.613C367.787,118.613,368.64,118.613,367.787,118.613C368.64,118.613,367.787,118.613,367.787,118.613z"/>
<path d="M494.933,187.733h8.533v59.733c3.413,0,5.973,1.707,7.68,4.267v-63.147c0-5.12-3.413-8.533-8.533-8.533H491.52l1.707,2.56
	C494.08,184.32,494.933,186.027,494.933,187.733z"/>
<path d="M494.933,255.147l-17.067-1.707V256l-5.973-3.413c-28.16-3.413-52.053-21.333-63.147-46.933l-7.68-17.92h23.893l-4.267-7.68
	h-20.48c-2.56,0-5.12,0.853-6.827,3.413c-1.707,1.707-1.707,5.12-0.853,7.68l7.68,17.92c12.8,28.16,40.107,48.64,70.827,52.053
	l23.04,2.56C494.08,261.12,494.933,258.56,494.933,255.147C494.933,256,494.933,255.147,494.933,255.147z"/>
<path d="M472.747,244.053c-24.747-2.56-46.08-18.773-56.32-41.813l-2.56-5.973H435.2c-3.413,0-5.973-1.707-7.68-4.267l-2.56-4.267
	h-23.893l7.68,17.92c11.093,25.6,34.987,43.52,63.147,46.933l5.973,3.413v-2.56v-8.533L472.747,244.053z"/>
<path d="M494.933,187.733c0,0.853,0,2.56-0.853,3.413c-1.707,3.413-4.267,5.12-7.68,5.12h8.533v50.347l-17.067-1.707v8.533
	l17.067,1.707c0-4.267,3.413-7.68,8.533-7.68v-59.733H494.933z"/>
<path d="M511.147,251.733v5.12c0,2.56-0.853,5.12-2.56,5.973c-0.853,0.853-3.413,1.707-5.12,1.707h-0.853l-8.533-0.853
	c-3.413,10.24-12.8,17.92-24.747,17.92c-5.12,0-8.533,3.413-8.533,8.533c0,5.12,3.413,8.533,8.533,8.533
	C493.227,298.667,512,279.893,512,256C512,254.293,512,253.44,511.147,251.733z"/>
<path d="M503.467,264.533c1.707,0,4.267-0.853,5.12-1.707c1.707-0.853,2.56-3.413,2.56-5.973v-5.12
	c-1.707-2.56-4.267-4.267-7.68-4.267V256l-8.533-0.853V256c0,2.56-0.853,5.12-0.853,7.68L503.467,264.533L503.467,264.533z"/>
<path d="M494.933,255.147l8.533,0.853v-8.533C498.347,247.467,495.787,250.88,494.933,255.147z"/>
<path d="M396.8,122.027c-1.707,0.853-4.267,2.56-5.973,2.56l30.72,54.613h9.387L396.8,122.027z"/>
<path d="M417.28,89.6l63.147,90.453h10.24l-74.24-107.52c0.853,4.267,1.707,8.533,1.707,12.8
	C418.133,87.04,418.133,88.747,417.28,89.6z"/>
<path d="M400.213,79.36C400.213,80.213,400.213,80.213,400.213,79.36C400.213,80.213,400.213,80.213,400.213,79.36z"/>
<path d="M400.213,92.16c-0.853,1.707-0.853,3.413-1.707,5.12C399.36,95.573,399.36,93.867,400.213,92.16z"/>
<path d="M401.067,85.333c0,1.707,0,4.267-0.853,5.973C401.067,89.6,401.067,87.04,401.067,85.333z"/>
<path d="M397.653,98.133L397.653,98.133L397.653,98.133L397.653,98.133z"/>
<path d="M453.973,179.2H440.32l-34.987-63.147l0,0c-2.56,2.56-5.973,4.267-8.533,6.827l33.28,58.027L453.973,179.2L453.973,179.2z"
	/>
<path d="M393.387,103.253C393.387,104.107,393.387,104.107,393.387,103.253C393.387,104.107,393.387,104.107,393.387,103.253z"/>
<path d="M395.093,102.4c0.853-0.853,1.707-2.56,2.56-3.413l0,0C396.8,99.84,395.947,100.693,395.093,102.4z"/>
<path d="M415.573,100.693l54.613,78.507h-16.213l0.853,0.853h26.453l-64-90.453c-0.853,4.267-1.707,8.533-2.56,11.947
	C414.72,101.547,415.573,101.547,415.573,100.693z"/>
<polygon points="453.973,179.2 453.973,179.2 454.827,180.053 454.827,180.053 "/>
<path d="M408.747,91.307c0.853-1.707,0.853-3.413,0.853-5.973C409.6,87.893,409.6,89.6,408.747,91.307z"/>
<path d="M407.04,97.28c0.853-0.853,0.853-2.56,0.853-3.413C407.893,94.72,407.893,96.427,407.04,97.28z"/>
<path d="M404.48,68.267c1.707,2.56,2.56,5.12,3.413,8.533l9.387,13.653c0.853-1.707,0.853-3.413,0.853-5.12
	c0-4.267-0.853-8.533-1.707-12.8l-1.707-1.707C413.013,67.413,407.893,66.56,404.48,68.267z"/>
<path d="M404.48,103.253c0.853-0.853,0.853-1.707,1.707-3.413C405.333,100.693,405.333,102.4,404.48,103.253z"/>
<path d="M402.773,105.813c0,0,0-0.853,0.853-0.853C402.773,104.96,402.773,105.813,402.773,105.813l5.12,7.68l0,0L402.773,105.813z"
	/>
<path d="M392.533,115.2c0.853,0,0.853-0.853,1.707-0.853c-1.707,0.853-3.413,2.56-5.973,3.413c0.853,1.707,0.853,3.413,0,5.12
	l1.707,3.413c2.56-0.853,4.267-1.707,5.973-2.56L392.533,115.2z"/>
<path d="M400.213,78.507v0.853v0.853c0.853,1.707,0.853,4.267,0.853,5.12c0,1.707,0,4.267-0.853,5.973v0.853
	c-0.853,1.707-0.853,3.413-1.707,5.12c0,0,0,0.853-0.853,0.853l0,0l5.12,7.68l0.853-0.853c0-0.853,0.853-0.853,0.853-1.707
	c0.853-0.853,0.853-1.707,1.707-3.413c0-0.853,0.853-1.707,0.853-2.56c0.853-0.853,0.853-2.56,0.853-3.413s0-1.707,0.853-2.56
	c0.853-1.707,0.853-3.413,0.853-5.973c0-3.413-0.853-5.973-1.707-9.387V76.8c-0.853-2.56-1.707-5.973-3.413-8.533l0,0
	C401.067,69.973,399.36,74.24,400.213,78.507z"/>
<path d="M392.533,104.107c-0.853,0.853-2.56,2.56-3.413,3.413c-1.707,1.707-3.413,3.413-3.413,5.12
	c0.853,0.853,1.707,1.707,1.707,2.56c0,0.853,0.853,0.853,0.853,1.707c1.707-0.853,4.267-1.707,5.973-3.413
	C395.947,110.933,395.093,107.52,392.533,104.107z"/>
<path d="M407.893,113.493l-5.12-7.68c-2.56,3.413-5.12,5.973-8.533,8.533c0,0.853-0.853,0.853-1.707,0.853l4.267,6.827
	c3.413-1.707,5.973-4.267,8.533-6.827C406.187,115.2,407.04,114.347,407.893,113.493z"/>
<path d="M402.773,105.813l-5.12-7.68c-0.853,1.707-1.707,2.56-2.56,3.413c0,0.853-0.853,0.853-0.853,1.707c0,0-0.853,0-0.853,0.853
	l0,0c2.56,3.413,3.413,6.827,0.853,9.387C397.653,111.787,400.213,109.227,402.773,105.813z"/>
<path d="M408.747,91.307c0,0.853,0,1.707-0.853,2.56c0,0.853-0.853,2.56-0.853,3.413s-0.853,1.707-0.853,2.56
	c-0.853,0.853-0.853,2.56-1.707,3.413c0,0.853-0.853,0.853-0.853,1.707c0,0,0,0.853-0.853,0.853l5.12,6.827
	c2.56-3.413,5.12-6.827,6.827-11.093c1.707-3.413,2.56-7.68,2.56-11.947l-9.387-12.8c0.853,2.56,1.707,5.12,1.707,8.533
	C409.6,87.893,409.6,89.6,408.747,91.307z"/>
<path d="M409.6,85.333c0-3.413-0.853-5.973-1.707-8.533v-0.853C408.747,79.36,409.6,81.92,409.6,85.333z"/>
<path d="M406.187,99.84c0-0.853,0.853-1.707,0.853-2.56C407.04,98.133,406.187,98.987,406.187,99.84z"/>
<path d="M403.627,104.96c0-0.853,0.853-0.853,0.853-1.707C404.48,104.107,403.627,104.107,403.627,104.96z"/>
<path d="M408.747,93.867c0-0.853,0-1.707,0.853-2.56C408.747,92.16,408.747,93.013,408.747,93.867z"/>
<path d="M386.56,118.613l1.707,3.413c0-1.707,0-3.413,0-5.12c-0.853,0-1.707,0-1.707,0.853
	C386.56,117.76,386.56,118.613,386.56,118.613z"/>
<path d="M385.707,112.64c0,1.707,0,3.413,0.853,4.267c0.853,0,1.707,0,1.707-0.853c0-0.853,0-0.853-0.853-1.707
	C386.56,114.347,386.56,113.493,385.707,112.64z"/>
<path d="M486.4,187.733h8.533c0-1.707,0-3.413-1.707-5.12l-1.707-2.56h-10.24L486.4,187.733z"/>
<polygon points="434.347,187.733 430.08,180.053 420.693,180.053 424.96,187.733 "/>
<path d="M435.2,196.267h42.667v-8.533h-17.92l0.853,0.853h-25.6l-0.853-0.853h-9.387l2.56,4.267
	C429.227,194.56,431.787,196.267,435.2,196.267z"/>
<path d="M477.867,196.267h8.533c3.413,0,5.973-1.707,7.68-5.12c0-0.853,0.853-2.56,0.853-3.413H486.4h-8.533V196.267z"/>
<polygon points="454.827,180.053 430.08,180.053 434.347,187.733 459.947,187.733 "/>
<polygon points="460.8,188.587 459.947,187.733 459.947,187.733 434.347,187.733 435.2,188.587 "/>
<polygon points="459.947,187.733 477.867,187.733 486.4,187.733 481.28,180.053 454.827,180.053 "/>
<polygon points="454.827,180.053 459.947,187.733 459.947,187.733 "/>
<path d="M110.933,93.867c0-14.507,11.947-25.6,25.6-25.6s25.6,11.093,25.6,25.6v17.067h8.533V93.867
	c0-18.773-15.36-34.133-34.133-34.133S102.4,75.093,102.4,93.867v17.067h8.533V93.867z"/>
<path d="M119.467,93.867c0-9.387,7.68-17.067,17.067-17.067S153.6,84.48,153.6,93.867v17.067h8.533V93.867
	c0-14.507-11.947-25.6-25.6-25.6s-25.6,11.093-25.6,25.6v17.067h8.533V93.867z"/>
<rect x="162.133" y="110.933" width="8.533" height="8.533"/>
<rect x="102.4" y="110.933" width="8.533" height="8.533"/>
<polygon points="170.667,128 170.667,119.467 162.133,119.467 110.933,119.467 102.4,119.467 102.4,128 "/>
<polygon points="162.133,110.933 153.6,110.933 119.467,110.933 110.933,110.933 110.933,119.467 162.133,119.467 "/>
<path d="M366.933,384h-11.947l-0.853,1.707C358.4,384.853,362.667,384,366.933,384z"/>
<path d="M68.267,460.8c-6.827,5.12-16.213,8.533-25.6,8.533h324.267c-9.387,0-18.773-3.413-25.6-8.533H68.267z"/>
<path d="M332.8,452.267h-256c-2.56,3.413-5.12,5.973-8.533,8.533h273.067C337.92,458.24,335.36,455.68,332.8,452.267z"/>
<path d="M345.6,385.707c-1.707,4.267-6.827,6.827-11.093,6.827h6.827c4.267-2.56,8.533-5.12,13.653-6.827L355.84,384h-9.387
	L345.6,385.707z"/>
<path d="M51.2,384h-8.533C45.227,384,48.64,384,51.2,384L51.2,384z"/>
<path d="M300.373,392.533h-7.68H76.8h-8.533c3.413,2.56,5.973,5.12,8.533,8.533h256c2.56-3.413,5.12-5.973,8.533-8.533h-6.827
	h-18.773H300.373z"/>
<path d="M76.8,392.533h215.893h7.68h15.36c4.267,0,7.68-2.56,9.387-6.827l0.853-1.707H76.8V392.533z"/>
<path d="M76.8,392.533V384H59.733H51.2v0.853c5.973,0.853,11.947,4.267,17.067,7.68H76.8z"/>
<path d="M325.973,384l-0.853,1.707c-1.707,4.267-5.12,6.827-9.387,6.827h18.773c4.267,0,9.387-2.56,11.093-6.827l0.853-1.707
	h-11.947H325.973z"/>
<path d="M119.467,435.2c5.12,0,8.533-3.413,8.533-8.533s-3.413-8.533-8.533-8.533s-8.533,3.413-8.533,8.533
	S114.347,435.2,119.467,435.2z"/>
<path d="M162.133,435.2c5.12,0,8.533-3.413,8.533-8.533s-3.413-8.533-8.533-8.533c-5.12,0-8.533,3.413-8.533,8.533
	S157.013,435.2,162.133,435.2z"/>
<path d="M204.8,435.2c5.12,0,8.533-3.413,8.533-8.533s-3.413-8.533-8.533-8.533c-5.12,0-8.533,3.413-8.533,8.533
	S199.68,435.2,204.8,435.2z"/>
<path d="M247.467,435.2c5.12,0,8.533-3.413,8.533-8.533s-3.413-8.533-8.533-8.533c-5.12,0-8.533,3.413-8.533,8.533
	S242.347,435.2,247.467,435.2z"/>
<path d="M290.133,435.2c5.12,0,8.533-3.413,8.533-8.533s-3.413-8.533-8.533-8.533c-5.12,0-8.533,3.413-8.533,8.533
	S285.013,435.2,290.133,435.2z"/>
<path d="M76.8,426.667c0,10.24-2.56,19.627-7.68,25.6h7.68c5.12-6.827,8.533-16.213,8.533-25.6s-3.413-18.773-8.533-25.6h-7.68
	C74.24,407.04,76.8,416.427,76.8,426.667z"/>
<path d="M76.8,426.667c0-10.24-2.56-19.627-7.68-25.6h-4.267C72.533,407.04,76.8,416.427,76.8,426.667z"/>
<path d="M64.853,452.267h4.267c5.12-5.973,7.68-15.36,7.68-25.6C76.8,436.907,72.533,446.293,64.853,452.267z"/>
<path d="M76.8,426.667c0-10.24-4.267-19.627-11.947-25.6H42.667c14.507,0,25.6,11.093,25.6,25.6s-11.093,25.6-25.6,25.6h22.187
	C72.533,446.293,76.8,436.907,76.8,426.667z"/>
<path d="M55.467,460.8h-12.8c-18.773,0-34.133-15.36-34.133-34.133s15.36-34.133,34.133-34.133V384C18.773,384,0,402.773,0,426.667
	s18.773,42.667,42.667,42.667c9.387,0,18.773-3.413,25.6-8.533H55.467z"/>
<path d="M76.8,452.267h-7.68c-3.413,5.12-8.533,8.533-13.653,8.533h12.8C71.68,458.24,74.24,455.68,76.8,452.267z"/>
<path d="M42.667,460.8h12.8c-1.707,0-3.413,0-5.12-0.853C47.787,460.8,45.227,460.8,42.667,460.8z"/>
<path d="M40.96,452.267c-13.653-0.853-23.893-11.947-23.893-25.6s10.24-24.747,23.893-25.6c0-0.853,0.853-0.853,1.707-1.707v-6.827
	c-18.773,0-34.133,15.36-34.133,34.133S23.893,460.8,42.667,460.8c2.56,0,5.12,0,7.68-0.853
	C46.933,458.24,43.52,455.68,40.96,452.267z"/>
<path d="M69.12,452.267h-4.267c-4.267,3.413-9.387,5.973-14.507,7.68c1.707,0.853,3.413,0.853,5.12,0.853
	C60.587,460.8,65.707,457.387,69.12,452.267z"/>
<path d="M40.96,452.267c2.56,3.413,5.973,5.973,9.387,7.68c5.12-1.707,10.24-4.267,14.507-7.68H42.667
	C41.813,452.267,41.813,452.267,40.96,452.267z"/>
<path d="M42.667,399.36c-0.853,0.853-0.853,0.853-1.707,1.707c0.853,0,0.853,0,1.707,0V399.36z"/>
<path d="M51.2,392.533v-7.68C48.64,384,45.227,384,42.667,384v8.533H51.2z"/>
<path d="M55.467,392.533H51.2h-8.533c2.56,0,5.12,0,7.68,0.853C52.053,392.533,53.76,392.533,55.467,392.533z"/>
<path d="M69.12,401.067h7.68c-2.56-3.413-5.12-5.973-8.533-8.533h-12.8C60.587,392.533,65.707,395.947,69.12,401.067z"/>
<path d="M68.267,392.533c-5.12-3.413-11.093-6.827-17.067-7.68v7.68h4.267H68.267z"/>
<path d="M50.347,393.387c-2.56-0.853-5.12-0.853-7.68-0.853v6.827C45.227,396.8,47.787,394.24,50.347,393.387z"/>
<path d="M69.12,401.067c-3.413-5.12-8.533-8.533-13.653-8.533c-1.707,0-3.413,0-5.12,0.853c5.12,1.707,10.24,4.267,14.507,7.68
	H69.12z"/>
<path d="M64.853,401.067c-4.267-3.413-9.387-5.973-14.507-7.68c-2.56,0.853-5.12,3.413-7.68,5.973v1.707H64.853z"/>
<path d="M332.8,452.267h7.68c-4.267-5.973-7.68-15.36-7.68-25.6c0-10.24,2.56-19.627,7.68-25.6h-5.973H332.8
	c-5.12,6.827-8.533,16.213-8.533,25.6S327.68,445.44,332.8,452.267z"/>
<path d="M344.747,401.067h-4.267c-4.267,5.973-7.68,15.36-7.68,25.6C332.8,416.427,337.067,407.04,344.747,401.067z"/>
<path d="M332.8,426.667c0,10.24,2.56,19.627,7.68,25.6h4.267C337.067,446.293,332.8,436.907,332.8,426.667z"/>
<path d="M332.8,426.667c0,10.24,4.267,19.627,11.947,25.6h22.187c-14.507,0-25.6-11.093-25.6-25.6s11.093-25.6,25.6-25.6h-22.187
	C337.067,407.04,332.8,416.427,332.8,426.667z"/>
<path d="M353.28,389.973c-0.853,0.853-0.853,1.707-1.707,2.56h2.56h12.8c18.773,0,34.133,15.36,34.133,34.133
	s-15.36,34.133-34.133,34.133h-12.8h-12.8c6.827,5.12,16.213,8.533,25.6,8.533c23.893,0,42.667-18.773,42.667-42.667
	S390.827,384,366.933,384c-4.267,0-8.533,0.853-11.947,1.707L353.28,389.973z"/>
<path d="M354.133,460.8h12.8c-2.56,0-5.12,0-7.68-0.853C357.547,460.8,355.84,460.8,354.133,460.8z"/>
<path d="M366.933,392.533h-12.8c1.707,0,3.413,0,5.12,0.853C361.813,392.533,364.373,392.533,366.933,392.533z"/>
<path d="M340.48,452.267h-7.68c2.56,3.413,5.12,5.973,8.533,8.533h12.8C349.013,460.8,343.893,457.387,340.48,452.267z"/>
<path d="M341.333,400.213c-2.56,0.853-4.267,0.853-6.827,0.853h5.973C340.48,401.067,340.48,400.213,341.333,400.213z"/>
<path d="M354.133,392.533h-2.56c0,0,0,0,0,0.853C352.427,392.533,353.28,392.533,354.133,392.533z"/>
<path d="M368.64,401.067c13.653,0.853,23.893,11.093,23.893,25.6s-10.24,24.747-23.893,25.6c-2.56,3.413-5.973,5.973-9.387,7.68
	c2.56,0.853,5.12,0.853,7.68,0.853c18.773,0,34.133-15.36,34.133-34.133s-15.36-34.133-34.133-34.133c-2.56,0-5.12,0-7.68,0.853
	C362.667,395.093,366.08,397.653,368.64,401.067z"/>
<path d="M344.747,452.267h-4.267c3.413,5.12,8.533,8.533,13.653,8.533c1.707,0,3.413,0,5.12-0.853
	C353.28,458.24,349.013,455.68,344.747,452.267z"/>
<path d="M341.333,400.213l-0.853,0.853h4.267c4.267-3.413,9.387-5.973,14.507-7.68c-1.707-0.853-3.413-0.853-5.12-0.853
	c-0.853,0-1.707,0-3.413,0.853C348.16,395.947,344.747,398.507,341.333,400.213z"/>
<path d="M368.64,401.067c-2.56-3.413-5.973-5.973-9.387-7.68c-5.12,1.707-10.24,4.267-14.507,7.68h22.187
	C367.787,401.067,367.787,401.067,368.64,401.067z"/>
<path d="M344.747,452.267c4.267,3.413,9.387,5.973,14.507,7.68c3.413-1.707,6.827-4.267,9.387-7.68c-0.853,0-0.853,0-1.707,0
	H344.747z"/>
<path d="M353.28,389.973l1.707-4.267c-5.12,1.707-9.387,4.267-13.653,6.827h10.24C352.427,391.68,352.427,390.827,353.28,389.973z"
	/>
<path d="M332.8,401.067h1.707c2.56,0,4.267,0,6.827-0.853c2.56-3.413,5.973-5.973,10.24-6.827c0,0,0,0,0-0.853h-10.24
	C337.92,395.093,335.36,397.653,332.8,401.067z"/>
<path d="M350.72,393.387c-4.267,0.853-7.68,3.413-10.24,6.827C344.747,398.507,348.16,395.947,350.72,393.387z"/>
</svg>