<?xml version="1.0" ?>
<!-- Uploaded to: SVG Repo, www.svgrepo.com, Generator: SVG Repo Mixer Tools -->
<svg width="800px" height="800px" viewBox="0 0 32 32" xmlns="http://www.w3.org/2000/svg">
<title/>
<g>
<path d="M16.71,18A7,7,0,0,0,3.29,18Z" style="fill: #0bf"/>
<path d="M3.29,22a7,7,0,0,0,13.41,0Z" style="fill: #0bf"/>
</g>
<circle cx="26" cy="23" r="4" style="fill: none;stroke: #000000;stroke-linecap: round;stroke-linejoin: round;stroke-width: 2px"/>
<line style="fill: none;stroke: #000000;stroke-linecap: round;stroke-linejoin: round;stroke-width: 2px" x1="24" x2="17" y1="12" y2="12"/>
<line style="fill: none;stroke: #000000;stroke-linecap: round;stroke-linejoin: round;stroke-width: 2px" x1="19" x2="22" y1="22" y2="22"/>
<line style="fill: none;stroke: #000000;stroke-linecap: round;stroke-linejoin: round;stroke-width: 2px" x1="29" x2="30" y1="16" y2="16"/>
<path d="M30,22h0a1,1,0,0,0,1-1V14.73a2,2,0,0,0-1.72-2L24,12,22,6.6" style="fill: none;stroke: #000000;stroke-linecap: round;stroke-linejoin: round;stroke-width: 2px"/>
<line style="fill: none;stroke: #000000;stroke-linecap: round;stroke-linejoin: round;stroke-width: 2px" x1="17" x2="16" y1="6" y2="13"/>
<line style="fill: none;stroke: #000000;stroke-linecap: round;stroke-linejoin: round;stroke-width: 2px" x1="24" x2="16" y1="6" y2="6"/>
<path d="M1,21V19a1,1,0,0,1,1-1H19a1,1,0,0,1,1,1v3H2A1,1,0,0,1,1,21Z" style="fill: none;stroke: #000000;stroke-linecap: round;stroke-linejoin: round;stroke-width: 2px"/>
<path d="M29,12.2V8.41a1,1,0,0,1,.29-.71L30,7" style="fill: none;stroke: #000000;stroke-linecap: round;stroke-linejoin: round;stroke-width: 2px"/>
<path d="M16.57,22.43a7,7,0,0,1-13.12,0" style="fill: none;stroke: #000000;stroke-linecap: round;stroke-linejoin: round;stroke-width: 2px"/>
<path d="M3.39,17.69a7,7,0,0,1,13.22,0" style="fill: none;stroke: #000000;stroke-linecap: round;stroke-linejoin: round;stroke-width: 2px"/>
<circle cx="10" cy="19" r="0.5" style="stroke: #000000;stroke-miterlimit: 10" transform="translate(-10.51 12.64) rotate(-45)"/>
</svg>