<?xml version="1.0" encoding="iso-8859-1"?>
<!-- Uploaded to: SVG Repo, www.svgrepo.com, Generator: SVG Repo Mixer Tools -->
<svg height="800px" width="800px" version="1.1" id="Layer_1" xmlns="http://www.w3.org/2000/svg" xmlns:xlink="http://www.w3.org/1999/xlink" 
	 viewBox="0 0 511.999 511.999" xml:space="preserve">
<g>
	<path style="fill:#16153B;" d="M374.417,491.855h-265.44c-31.106,0-59.503-18.307-72.344-46.639L3.435,371.968
		c-5.395-11.906-4.388-25.572,2.695-36.557c7.081-10.985,19.114-17.543,32.183-17.543h435.371c14.38,0,27.414,7.936,34.016,20.709
		c6.604,12.775,5.54,27.998-2.776,39.729l-48.759,68.782c-4.719,6.66-13.946,8.231-20.606,3.51
		c-6.66-4.721-8.231-13.947-3.51-20.606l48.759-68.782c2.774-3.914,1.367-7.639,0.633-9.059c-0.733-1.419-2.959-4.722-7.755-4.722
		H38.314c-4.297,0-6.563,2.798-7.34,4.001c-0.775,1.202-2.387,4.422-0.613,8.336l33.197,73.247
		c8.061,17.787,25.891,29.282,45.42,29.282h265.44c8.162,0,14.781,6.617,14.781,14.781S382.58,491.855,374.417,491.855z"/>
	<path style="fill:#16153B;" d="M451.018,345.949c-4.003,0-7.989-1.614-10.905-4.799L322.795,213.034
		c-5.512-6.02-5.101-15.369,0.919-20.882c6.02-5.513,15.369-5.101,20.882,0.919l117.317,128.116
		c5.512,6.02,5.101,15.369-0.918,20.882C458.158,344.668,454.583,345.949,451.018,345.949z"/>
</g>
<polygon style="fill:#97C4E8;" points="272.368,331.136 272.368,73.466 59.851,332.648 "/>
<g>
	<path style="fill:#16153B;" d="M59.85,347.429c-5.692,0-10.88-3.27-13.335-8.41c-2.471-5.173-1.728-11.309,1.908-15.741
		L260.939,64.095c3.96-4.829,10.524-6.647,16.407-4.545c5.88,2.102,9.804,7.673,9.804,13.917v257.67
		c0,8.122-6.554,14.722-14.676,14.781L59.958,347.43C59.922,347.429,59.885,347.429,59.85,347.429z M257.587,114.804L91.269,317.643
		l166.318-1.184L257.587,114.804L257.587,114.804z"/>
	<path style="fill:#16153B;" d="M272.483,347.429c-8.162,0-14.781-6.617-14.781-14.781V34.925c0-8.163,6.619-14.781,14.781-14.781
		s14.781,6.617,14.781,14.781v297.723C287.264,340.811,280.646,347.429,272.483,347.429z"/>
</g>
</svg>