<?xml version="1.0" encoding="utf-8"?>
<!-- Uploaded to: SVG Repo, www.svgrepo.com, Generator: SVG Repo Mixer Tools -->
<svg width="800px" height="800px" viewBox="0 -1 20 20" xmlns="http://www.w3.org/2000/svg">
  <g id="tractor-2" transform="translate(-2 -2.992)">
    <path id="secondary" fill="#2ca9bc" d="M6,14a3,3,0,0,1,2.82,4H17a2,2,0,0,1,3-1.72V11a1,1,0,0,0-1-1H5a1,1,0,0,0-1,1v3.78A3,3,0,0,1,6,14Z"/>
    <path id="primary" d="M17,10V8a1,1,0,0,1,1-1h1" fill="none" stroke="#000000" stroke-linecap="round" stroke-linejoin="round" stroke-width="2"/>
    <path id="primary-2" data-name="primary" d="M4,14.66V11a1,1,0,0,1,1-1H19a1,1,0,0,1,1,1v5.09" fill="none" stroke="#000000" stroke-linecap="round" stroke-linejoin="round" stroke-width="2"/>
    <path id="primary-3" data-name="primary" d="M16.81,18H9M4,4H14M5,4.11V9.88m7-5.73,1,5.68M6,14a3,3,0,1,0,3,3A3,3,0,0,0,6,14Zm13,2a2,2,0,1,0,2,2A2,2,0,0,0,19,16Z" fill="none" stroke="#000000" stroke-linecap="round" stroke-linejoin="round" stroke-width="2"/>
  </g>
</svg>