<?xml version="1.0" encoding="iso-8859-1"?>
<!-- Uploaded to: SVG Repo, www.svgrepo.com, Generator: SVG Repo Mixer Tools -->
<svg height="800px" width="800px" version="1.1" id="Layer_1" xmlns="http://www.w3.org/2000/svg" xmlns:xlink="http://www.w3.org/1999/xlink" 
	 viewBox="0 0 512 512" xml:space="preserve">
<path style="fill:#B5E1F4;" d="M363.789,180.547V460.8c0,23.812-19.304,43.116-43.116,43.116H61.979
	c-23.812,0-43.116-19.304-43.116-43.116V180.547c0-23.812,19.304-43.116,43.116-43.116h21.558V94.316h215.579v43.116h21.558
	C344.485,137.432,363.789,156.736,363.789,180.547z"/>
<g>
	<path style="fill:#A2CCDB;" d="M191.326,503.916H61.979c-23.812,0-43.116-19.304-43.116-43.116V180.547
		c0-23.812,19.304-43.116,43.116-43.116h21.558V94.316h107.789V503.916z"/>
	<path style="fill:#A2CCDB;" d="M299.116,137.432H83.537V72.758h215.579V137.432z"/>
</g>
<path style="fill:#90B5BF;" d="M191.326,137.432H83.537V72.758h107.789V137.432z"/>
<path style="fill:#FFA669;" d="M320.674,29.642v43.116c0,11.906-9.651,21.558-21.558,21.558H83.537
	c-11.906,0-21.558-9.651-21.558-21.558V29.642c0-11.906,9.651-21.558,21.558-21.558h215.579
	C311.022,8.084,320.674,17.736,320.674,29.642z"/>
<path style="fill:#FF8D40;" d="M320.674,29.642v10.779H61.979V29.642c0-11.906,9.651-21.558,21.558-21.558h215.579
	C311.022,8.084,320.674,17.736,320.674,29.642z"/>
<path style="fill:#FFF6B6;" d="M363.789,342.232H18.863c-5.953,0-10.779-4.826-10.779-10.779V202.105
	c0-5.953,4.826-10.779,10.779-10.779h344.926c5.953,0,10.779,4.826,10.779,10.779v129.347
	C374.568,337.406,369.743,342.232,363.789,342.232z"/>
<path style="fill:#F4C064;" d="M336.842,417.684h129.347c20.836,0,37.726,16.891,37.726,37.726v10.779
	c0,20.836-16.891,37.726-37.726,37.726H336.842c-20.836,0-37.726-16.891-37.726-37.726V455.41
	C299.116,434.575,316.006,417.684,336.842,417.684z"/>
<path style="fill:#FFE77C;" d="M466.189,417.684c15.048,0,28.036,8.813,34.091,21.558c-6.056,12.745-19.042,21.558-34.091,21.558
	H336.842c-15.048,0-28.036-8.813-34.091-21.558c6.056-12.745,19.042-21.558,34.091-21.558H466.189z"/>
<path d="M53.895,288.337c0-4.465,3.62-8.084,8.084-8.084h118.568c4.465,0,8.084,3.62,8.084,8.084s-3.62,8.084-8.084,8.084H61.979
	C57.514,296.421,53.895,292.801,53.895,288.337z M285.642,503.916c0,4.465-3.62,8.084-8.084,8.084H61.979
	c-28.231,0-51.2-22.969-51.2-51.2V348.494C4.411,345.462,0,338.962,0,331.453V202.105c0-7.51,4.411-14.009,10.779-17.042v-4.516
	c0-28.231,22.969-51.2,51.2-51.2h13.474v-28.068c-12.428-3.527-21.558-14.977-21.558-28.521V29.642C53.895,13.297,67.192,0,83.537,0
	h215.579c16.345,0,29.642,13.297,29.642,29.642v43.116c0,13.544-9.13,24.994-21.558,28.521v28.068h13.474
	c28.231,0,51.2,22.969,51.2,51.2v4.516c6.368,3.032,10.779,9.532,10.779,17.042v129.347c0,7.51-4.411,14.009-10.779,17.042v36.853
	c0,4.465-3.62,8.084-8.084,8.084s-8.084-3.62-8.084-8.084v-35.032H94.316c-4.465,0-8.084-3.62-8.084-8.084s3.62-8.084,8.084-8.084
	h269.474c1.485,0,2.695-1.209,2.695-2.695V202.105c0-1.485-1.209-2.695-2.695-2.695H18.863c-1.485,0-2.695,1.209-2.695,2.695
	v129.347c0,1.485,1.209,2.695,2.695,2.695h43.116c4.465,0,8.084,3.62,8.084,8.084s-3.62,8.084-8.084,8.084H26.947V460.8
	c0,19.316,15.716,35.032,35.032,35.032h215.579C282.023,495.832,285.642,499.451,285.642,503.916z M26.947,183.242h328.758v-2.695
	c0-19.316-15.716-35.032-35.032-35.032h-21.558c-4.465,0-8.084-3.62-8.084-8.084V102.4h-24.253c-4.465,0-8.084-3.62-8.084-8.084
	s3.62-8.084,8.084-8.084h32.337c7.43,0,13.474-6.044,13.474-13.474V29.642c0-7.43-6.044-13.474-13.474-13.474H83.537
	c-7.43,0-13.474,6.044-13.474,13.474v2.695h78.147c4.465,0,8.084,3.62,8.084,8.084s-3.62,8.084-8.084,8.084H70.063v24.253
	c0,7.43,6.044,13.474,13.474,13.474h150.905c4.465,0,8.084,3.62,8.084,8.084s-3.62,8.084-8.084,8.084H91.621v26.947h132.042
	c4.465,0,8.084,3.62,8.084,8.084c0,4.465-3.62,8.084-8.084,8.084H61.979c-19.316,0-35.032,15.716-35.032,35.032V183.242z
	 M512,455.41v10.779C512,491.45,491.45,512,466.189,512H336.842c-25.26,0-45.811-20.55-45.811-45.811V455.41
	c0-25.26,20.55-45.811,45.811-45.811h129.347C491.45,409.6,512,430.15,512,455.41z M495.832,455.41
	c0-16.345-13.297-29.642-29.642-29.642H336.842c-16.345,0-29.642,13.297-29.642,29.642v10.779c0,16.345,13.297,29.642,29.642,29.642
	h56.589v-46.169c0-4.465,3.62-8.084,8.084-8.084s8.084,3.62,8.084,8.084v46.169h56.589c16.345,0,29.642-13.297,29.642-29.642V455.41
	z M61.979,253.305h161.684c4.465,0,8.084-3.62,8.084-8.084c0-4.465-3.62-8.084-8.084-8.084H61.979c-4.465,0-8.084,3.62-8.084,8.084
	C53.895,249.686,57.514,253.305,61.979,253.305z"/>
</svg>