<svg xmlns="http://www.w3.org/2000/svg" xml:space="preserve" width="6.09506in" height="1.44374in" shape-rendering="geometricPrecision" text-rendering="geometricPrecision" image-rendering="optimizeQuality" fill-rule="evenodd" clip-rule="evenodd"
viewBox="0 0 4.74597 1.12418"
 xmlns:xlink="http://www.w3.org/1999/xlink">
 <g id="Layer_x0020_1">
  <metadata id="CorelCorpID_0Corel-Layer"/>
  <path fill="#C2C1C1" d="M4.27855 1.10024l-0.0305945 -0.201663 -0.398532 -0.607905 -0.44553 -0.155667 -3.32269 0.71929c-0.0406772,0.0094144 -0.0679578,0.0362444 -0.0697818,0.064414l-0.0114254 0.182019 0.0232524 0.0234548 0.0239698 -0.0239422 0.0239728 0.0239422 0.0239637 -0.0239422 0.0239728 0.0239422 0.0239637 -0.0239422 0.0239728 0.0239422 0.0239698 -0.0239422 0.0239667 0.0239422 0.0239698 -0.0239422 0.0239728 0.0239422 0.0248312 -0.0239422 0.0248312 0.0239422 0.0239637 -0.0239422 0.0239728 0.0239422 0.0239698 -0.0239422 0.0239667 0.0239422 0.0239698 -0.0239422 0.0239637 0.0239422 0.0239728 -0.0239422 0.0239728 0.0239422 0.0239637 -0.0239422 0.0239728 0.0239422 0.023841 -0.0239422 0.0238349 0.0239422 0.0239728 -0.0239422 0.0239637 0.0239422 0.0239728 -0.0239422 0.0239698 0.0239422 0.0239637 -0.0239422 0.0239728 0.0239422 0.0239637 -0.0239422 0.0239728 0.0239422 0.0239698 -0.0239422 0.0239667 0.0239422 0.0248312 -0.0239422 0.0248312 0.0239422 0.0239698 -0.0239422 0.0239728 0.0239422 0.0239637 -0.0239422 0.0239728 0.0239422 0.0239728 -0.0239422 0.0239637 0.0239422 0.0239698 -0.0239422 0.0239667 0.0239422 0.0239698 -0.0239422 0.0239728 0.0239422 0.0238809 -0.0239422 0.023887 0.0239422 0.0239728 -0.0239422 0.0239698 0.0239422 0.0239667 -0.0239422 0.0239698 0.0239422 0.0239637 -0.0239422 0.0239728 0.0239422 0.0239728 -0.0239422 0.0239637 0.0239422 0.0239728 -0.0239422 0.0239698 0.0239422 0.0248312 -0.0239422 0.0248312 0.0239422 0.0239667 -0.0239422 0.0239698 0.0239422 0.0239728 -0.0239422 0.0239637 0.0239422 0.0239728 -0.0239422 0.0239637 0.0239422 0.0239698 -0.0239422 0.0239728 0.0239422 0.0239637 -0.0239422 0.0239728 0.0239422 0.0238349 -0.0239422 0.023841 0.0239422 0.0239728 -0.0239422 0.0239637 0.0239422 0.0239728 -0.0239422 0.0239728 0.0239422 0.0239637 -0.0239422 0.0239698 0.0239422 0.0239667 -0.0239422 0.0239698 0.0239422 0.0239728 -0.0239422 0.0239637 0.0239422 0.0248312 -0.0239422 0.0248312 0.0239422 0.0239728 -0.0239422 0.0239698 0.0239422 0.0239667 -0.0239422 0.0239698 0.0239422 0.0239637 -0.0239422 0.0239728 0.0239422 0.0239728 -0.0239422 0.0239637 0.0239422 0.0239728 -0.0239422 0.0239698 0.0239422 0.0250059 -0.0239422 0.025009 0.0239422 0.0239698 -0.0239422 0.0239728 0.0239422 0.0239637 -0.0239422 0.0239728 0.0239422 0.0239637 -0.0239422 0.0239698 0.0239422 0.0239728 -0.0239422 0.0239637 0.0239422 0.0239728 -0.0239422 0.0239728 0.0239422 0.0248312 -0.0239422 0.0248312 0.0239422 0.0239637 -0.0239422 0.0239728 0.0239422 0.0239698 -0.0239422 0.0239637 0.0239422 0.0239728 -0.0239422 0.0239637 0.0239422 0.0239728 -0.0239422 0.0239728 0.0239422 0.0239637 -0.0239422 0.0239698 0.0239422 0.0238441 -0.0239422 0.0238349 0.0239422 0.0239698 -0.0239422 0.0239667 0.0239422 0.0239698 -0.0239422 0.0239728 0.0239422 0.0239637 -0.0239422 0.0239728 0.0239422 0.0239637 -0.0239422 0.0239728 0.0239422 0.0239698 -0.0239422 0.0239637 0.0239422 0.0248312 -0.0239422 0.0248343 0.0239422 0.0239698 -0.0239422 0.0239728 0.0239422 0.0239637 -0.0239422 0.0239728 0.0239422 0.0239698 -0.0239422 0.0239667 0.0239422 0.0239698 -0.0239422 0.0239637 0.0239422 0.0239728 -0.0239422 0.0239728 0.0239422 0.0238809 -0.0239422 0.023887 0.0239422 0.0239728 -0.0239422 0.0239698 0.0239422 0.0239637 -0.0239422 0.0239728 0.0239422 0.0239637 -0.0239422 0.0239728 0.0239422 0.0239698 -0.0239422 0.0239667 0.0239422 0.0239698 -0.0239422 0.0239728 0.0239422 0.0248312 -0.0239422 0.0248312 0.0239422 0.0239637 -0.0239422 0.0239728 0.0239422 0.0239728 -0.0239422 0.0239637 0.0239422 0.0239698 -0.0239422 0.0239667 0.0239422 0.0239698 -0.0239422 0.0239728 0.0239422 0.0239637 -0.0239422 0.0239728 0.0239422 0.0238349 -0.0239422 0.023841 0.0239422 0.0239728 -0.0239422 0.0239637 0.0239422 0.0239728 -0.0239422 0.0239698 0.0239422 0.0239637 -0.0239422 0.0239728 0.0239422 0.0239637 -0.0239422 0.0239728 0.0239422 0.0239728 -0.0239422zm-4.14742 -0.149588c0.014819,0 0.0268392,0.0120201 0.0268392,0.0268392 0,0.014819 -0.0120201,0.0268392 -0.0268392,0.0268392 -0.014819,0 -0.0268392,-0.0120201 -0.0268392,-0.0268392 0,-0.014819 0.0120201,-0.0268392 0.0268392,-0.0268392z"/>
  <path fill="#A57372" d="M4.05043 0.386496c-0.0341782,-0.0444203 -0.0434117,-0.114858 0.0375534,-0.158261 0.0664587,-0.0356251 0.13006,-0.00337521 0.160943,0.0375534 0.0887609,0.117632 0.146011,0.25463 0.182402,0.399675 0.0128019,0.0510297 -0.00740951,0.0954162 -0.0509653,0.118025 -0.0506802,0.0263119 -0.112452,0.00827094 -0.143463,-0.0670596 -0.0472284,-0.114726 -0.104334,-0.223177 -0.18647,-0.329933zm-0.667583 -0.247773c0.11705,-0.0210268 0.23628,-0.0556526 0.359645,-0.0751497 0.0809283,-0.0127896 0.140115,0.0116768 0.203978,0.032207 0.095171,0.0305945 0.167522,-0.0321702 0.24692,-0.0429427 0.067826,-0.00919981 0.125992,0.0202666 0.203978,-0.0107357 0.0803979,-0.0319618 0.16552,-0.0431174 0.230817,-0.0161035 0.0526973,0.0218024 0.0309992,0.0792821 -0.0107357,0.101989 -0.144781,0.0787732 -0.11335,0.141952 -0.0751497,0.19861 0.0808608,0.119935 0.123282,0.211246 0.118092,0.316702 -0.00315448,0.0641228 0.000573264,0.117875 0.0375748,0.144932 0.0482308,0.0352695 0.0456833,0.0725868 0.0145309,0.10064 -0.0311524,0.0280562 -0.0790276,0.0257601 -0.132623,0.00671669 -0.0853703,-0.0303309 -0.172703,-0.00947265 -0.24692,0.0214713 -0.11884,0.0495459 -0.205253,0.0349507 -0.27376,-0.0268392 -0.075775,-0.0683441 -0.160351,-0.106397 -0.257656,-0.118092 -0.0859773,-0.0103341 -0.143199,-0.0600517 -0.150299,-0.150299 -0.00409255,-0.0520045 -0.00889632,-0.104003 -0.0161035,-0.155667 -0.0133905,-0.0959834 -0.0849043,-0.0880006 -0.166403,-0.118092 -0.0666335,-0.0246044 -0.108187,-0.0973077 -0.139564,-0.161035 -0.0185192,-0.0376178 0.0181084,-0.0419218 0.0536783,-0.0483105z"/>
  <path fill="#69332B" fill-rule="nonzero" d="M4.0419 0.393087c-0.00463209,-0.00602387 -0.00887179,-0.0125352 -0.0125536,-0.0194113 -0.0113702,-0.0212108 -0.0173205,-0.0456956 -0.0137491,-0.0701466 0.00359899,-0.0246228 0.0167197,-0.0489481 0.0434424,-0.0695059 0.0069558,-0.00535251 0.0148834,-0.0104659 0.0238441,-0.0152758l-9.19674e-006 -1.53279e-005 3.98526e-005 -2.14591e-005 0.00060392 -0.000297361c0.00983439,-0.00521455 0.0196504,-0.00907106 0.0293376,-0.0117136 0.00995088,-0.00271611 0.0197454,-0.00415693 0.0292824,-0.00449721 0.0488991,-0.00175045 0.0913758,0.0252359 0.115407,0.0570811 0.0448556,0.0594478 0.0817683,0.123822 0.112065,0.191669 0.0302512,0.0677432 0.0538715,0.138849 0.0721944,0.211893l1.83935e-005 7.3574e-005c0.00194051,0.00775592 0.00318207,0.015377 0.00374614,0.0228079 0.000567133,0.00744323 0.000447575,0.01477 -0.000315755,0.0219097 -0.00396073,0.0368728 -0.0252788,0.0674428 -0.0599474,0.0854408 -0.00303186,0.00157264 -0.00618328,0.00303493 -0.00942666,0.00436845 -0.0252512,0.0103954 -0.0524398,0.0111434 -0.0776328,0.00104843 -0.0248006,-0.00993862 -0.0474675,-0.0303462 -0.064089,-0.0623478l-1.83935e-005 9.19674e-006c-0.00246166,-0.00473632 -0.00487121,-0.00994781 -0.00720718,-0.0156283 -0.0234578,-0.0569892 -0.0493681,-0.112415 -0.0795948,-0.166817 -0.0301929,-0.0543436 -0.0647175,-0.1077 -0.105438,-0.160624zm0.00645305 -0.0295522c0.00306865,0.00572957 0.00665231,0.0112262 0.01061,0.0163702 0.0414129,0.0538255 0.0765169,0.10808 0.107216,0.163328 0.030665,0.0551927 0.0569279,0.11137 0.0806922,0.169097 0.00192519,0.00468114 0.00408642,0.00931017 0.00644692,0.0138564l-1.83935e-005 9.19674e-006 1.83935e-005 3.37214e-005c0.0140526,0.0270691 0.0327496,0.0441444 0.0529549,0.0522406 0.0198221,0.00794292 0.0413302,0.00730222 0.0614097,-0.000962593 0.00253217,-0.0010423 0.00511952,-0.00224707 0.00774059,-0.00360819 0.0280041,-0.014537 0.0452051,-0.0390616 0.0483718,-0.0685433 0.000616182,-0.00576636 0.000702018,-0.0117902 0.000229919,-0.0180226 -0.000475165,-0.00624152 -0.00152053,-0.0126517 -0.00315142,-0.0191783l-1.83935e-005 -7.3574e-005c-0.0180593,-0.0719952 -0.0412719,-0.141924 -0.0709314,-0.208343 -0.0296135,-0.0663177 -0.0657138,-0.129266 -0.109613,-0.187445 -0.020426,-0.0270691 -0.0563239,-0.050018 -0.0974119,-0.0485466 -0.00796132,0.000282034 -0.0161219,0.00148374 -0.0243836,0.00373694 -0.00816058,0.00222561 -0.0164806,0.00549659 -0.0248711,0.00994168l-0.000508887 0.00029123 -3.98526e-005 2.14591e-005 -9.19674e-006 -1.53279e-005 -3.06558e-005 1.53279e-005c-0.00781723,0.00419065 -0.0147454,0.00866333 -0.0208337,0.0133475 -0.021781,0.0167565 -0.0324155,0.0361585 -0.0352511,0.0555698 -0.00286019,0.019586 0.00205087,0.0394724 0.0113825,0.0568788zm-0.666657 -0.235547c0.0516918,-0.00931017 0.104484,-0.0214529 0.157874,-0.0337214 0.0658364,-0.0151317 0.132611,-0.0304841 0.201277,-0.0413363 0.0746592,-0.0117994 0.130664,0.00673202 0.188098,0.0257356 0.0082832,0.00274063 0.016548,0.00547819 0.0208214,0.00685157 0.0583717,0.0187644 0.108883,-0.000217656 0.158006,-0.0186786 0.0278263,-0.0104567 0.0552418,-0.0207632 0.0841839,-0.0246871 0.0274952,-0.00373081 0.05301,-0.00141017 0.0787916,0.000928871 0.0383443,0.00347944 0.0773416,0.00702018 0.122651,-0.0109901l1.22623e-005 -6.13116e-006 -1.22623e-005 -3.37214e-005 0.00013182 -5.21149e-005c0.000288165,-0.000113427 0.000570198,-0.00020846 0.000861428,-0.000294296 0.0115021,-0.00454319 0.022811,-0.00860815 0.0338318,-0.0121029 0.0115603,-0.00366644 0.0232279,-0.00689143 0.0349262,-0.0096198 0.0604012,-0.0140894 0.11991,-0.0143132 0.169134,0.00604839 0.0155486,0.00643159 0.0257969,0.0157387 0.0316767,0.026551 0.00418758,0.00770074 0.00608825,0.0160422 0.00605146,0.0245614 -3.6787e-005,0.0081943 -0.00187307,0.0165051 -0.00517777,0.0245001 -0.00756279,0.0182739 -0.0230378,0.0353676 -0.0422315,0.045809 -0.0689357,0.0375043 -0.0957565,0.0702754 -0.100701,0.0999104 -0.00481909,0.0288563 0.0114929,0.0567041 0.0293529,0.0831968 0.0408305,0.0605606 0.0720074,0.114024 0.092412,0.165894 0.0206099,0.0523908 0.0301715,0.103013 0.0274983,0.157353 -0.00153586,0.0312659 -0.00142243,0.0599015 0.00351622,0.0836628 0.00463823,0.022299 0.0135836,0.0403001 0.0296656,0.0520597 0.00857137,0.00626911 0.0156958,0.0126363 0.0214591,0.0190403 0.0127681,0.0141814 0.0191078,0.0287184 0.0200428,0.0429825 0.000947265,0.014491 -0.00371242,0.0282892 -0.0128908,0.0408427 -0.00370935,0.00507354 -0.00815445,0.00992635 -0.0132372,0.0145033l-4.59837e-005 3.98526e-005 3.06558e-006 3.06558e-006 -0.000251378 0.000223787c-0.000217656,0.000193132 -0.000447575,0.000380132 -0.000677494,0.00055487 -0.00485282,0.00424583 -0.00998153,0.00783256 -0.0153678,0.0108031 -0.00564987,0.00311463 -0.01164,0.00560695 -0.0179122,0.00750148l3.06558e-006 1.22623e-005c-0.0309011,0.00933163 -0.0686752,0.00412627 -0.109187,-0.0102666 -0.0409838,-0.0145584 -0.0825009,-0.016827 -0.1227,-0.0117381 -0.040619,0.00514405 -0.0801128,0.0178294 -0.116492,0.0329979 -0.0611859,0.0255087 -0.114285,0.0344755 -0.161121,0.0290924 -0.0473908,-0.00545367 -0.0880864,-0.0254872 -0.124,-0.0578751 -0.0370966,-0.0334608 -0.0762809,-0.0594753 -0.11801,-0.0785157 -0.0416888,-0.0190189 -0.0860969,-0.0311555 -0.13369,-0.0368728l-4.29181e-005 -6.13116e-006 0 6.13116e-006 -0.000223787 -2.75902e-005 -0.000355607 -4.59837e-005c-0.012339,-0.0015144 -0.0242089,-0.00383811 -0.0355393,-0.00697726 -0.0115419,-0.00319434 -0.0223604,-0.00718572 -0.0323725,-0.011968 -0.0525594,-0.0250979 -0.0858332,-0.0720166 -0.0912716,-0.141164 -0.00209073,-0.0265939 -0.00432247,-0.0527157 -0.00683931,-0.0777523 -0.00258735,-0.0256957 -0.00557629,-0.0514589 -0.00917835,-0.0772833 -0.00934389,-0.0669922 -0.0512749,-0.0783256 -0.104849,-0.0927982 -0.0172255,-0.00465355 -0.0355669,-0.0096106 -0.0545857,-0.0166338 -0.0354657,-0.0130962 -0.0640431,-0.0387122 -0.0878167,-0.0693925 -0.0232095,-0.0299538 -0.0417685,-0.0646501 -0.0577004,-0.0970073 -0.0135867,-0.0276056 -0.00483442,-0.0424062 0.0140465,-0.051698 0.0115634,-0.00569279 0.0266767,-0.00836291 0.0420966,-0.011079l0.00534944 -0.00095033 0.000705084 -9.19674e-005zm0.162687 -0.0126854c-0.0532492,0.0122409 -0.10591,0.0243468 -0.158763,0.0338685 -0.000297361,7.97051e-005 -0.000600854,0.000141017 -0.000913543,0.000196197l-0.00534944 0.00095033c-0.0139361,0.00245553 -0.0275964,0.00486814 -0.0362658,0.00913543 -0.00739725,0.00363885 -0.0105333,0.0100398 -0.0042489,0.0228079 0.0154444,0.031364 0.0333566,0.0648984 0.0554196,0.0933715 0.0214989,0.0277435 0.047026,0.0507936 0.0781907,0.0622988 0.0181605,0.00670443 0.0359838,0.0115235 0.0527219,0.0160453 0.061327,0.0165664 0.109328,0.0295399 0.120649,0.110707 0.00360512,0.0258337 0.00662472,0.0519156 0.00926419,0.0781294 0.00270078,0.0268668 0.00492946,0.0527617 0.00692515,0.0781693 0.00477311,0.0606617 0.0335743,0.101639 0.0790215,0.123341 0.00905573,0.00432554 0.0186909,0.00789387 0.0288226,0.0106989 0.0101961,0.0028234 0.0210881,0.00493559 0.0326086,0.00633349l0.00015941 1.53279e-005 0.000223787 2.75902e-005 0 6.13116e-006c0.0496961,0.00597175 0.0962194,0.0187184 0.140073,0.0387244 0.0438194,0.0199937 0.0848277,0.0471885 0.123497,0.0820656 0.0325963,0.0293989 0.0693649,0.0475625 0.112007,0.0524674 0.0432063,0.00496624 0.09274,-0.00353768 0.150391,-0.0275718 0.0378354,-0.0157724 0.0791288,-0.0289973 0.122065,-0.0344326 0.0433565,-0.00549046 0.0881998,-0.00301653 0.132583,0.0127498 0.0363915,0.0129306 0.0696561,0.017811 0.0957534,0.00992942l3.06558e-006 1.22623e-005 3.98526e-005 -1.22623e-005c0.00481603,-0.00145309 0.00940827,-0.00336294 0.0137277,-0.00574183 0.00412321,-0.0022716 0.00796438,-0.00492946 0.0114929,-0.00800423 0.000183935,-0.000190066 0.000383198,-0.000383198 0.000585526,-0.000564067l0.000251378 -0.000223787 3.06558e-006 3.06558e-006c0.00399445,-0.00359593 0.00743097,-0.00734207 0.0102298,-0.011171 0.00619247,-0.0084702 0.00935309,-0.0175198 0.00875224,-0.0267349 -0.000619247,-0.00945119 -0.00521762,-0.0195216 -0.0145493,-0.0298864 -0.00481296,-0.00534637 -0.0108399,-0.0107203 -0.0181666,-0.016079 -0.0209134,-0.0152911 -0.0323388,-0.0377097 -0.0380285,-0.06507 -0.00538316,-0.0259072 -0.00555177,-0.0562228 -0.00393927,-0.0890705 0.00251378,-0.0511063 -0.00654502,-0.0988865 -0.0260574,-0.148488 -0.0197178,-0.0501284 -0.0501866,-0.102302 -0.090217,-0.16167 -0.020334,-0.0301592 -0.0388409,-0.0622436 -0.0327312,-0.0988252 0.00597788,-0.0358121 0.0358428,-0.0740246 0.111682,-0.115287 0.0149079,-0.00810846 0.0268545,-0.0211985 0.0325994,-0.0350795 0.00228079,-0.00551805 0.00354994,-0.0110851 0.0035714,-0.0163886 2.14591e-005,-0.0049785 -0.00105763,-0.00980066 -0.00343345,-0.0141691 -0.00360819,-0.00663392 -0.0103555,-0.0125382 -0.0209471,-0.0169189 -0.0447299,-0.0185039 -0.0997203,-0.0180869 -0.156038,-0.00495091 -0.0110054,0.00256589 -0.0221396,0.00564987 -0.0333198,0.00919674 -0.0111679,0.00354381 -0.022017,0.00740951 -0.0324706,0.0115419 -0.000257509,0.000125689 -0.000515018,0.000239115 -0.000787854,0.000346411l-0.00013182 5.21149e-005 -1.22623e-005 -3.37214e-005c-0.0500763,0.0199018 -0.0916486,0.016128 -0.132522,0.0124187 -0.0245247,-0.00222561 -0.0487918,-0.00442977 -0.0739786,-0.00101471 -0.0264621,0.0035898 -0.0527617,0.0134732 -0.0794507,0.0235038 -0.052587,0.0197638 -0.106661,0.0400825 -0.1722,0.0190158 -0.00974242,-0.00312996 -0.0154076,-0.00500609 -0.020987,-0.00685157 -0.0550027,-0.0181973 -0.108635,-0.0359439 -0.178049,-0.0249753 -0.0673018,0.0106345 -0.133997,0.0259716 -0.199756,0.0410849z"/>
  <g id="_93549216">
   <circle id="_93636920" fill="#C2C1C1" transform="matrix(0.819152 -0.573576 0.573576 0.819152 3.53873 0.233042)" r="0.0429427"/>
   <path id="_119964656" fill="#838281" d="M3.5205 0.194152l0.0485312 0.0693128c-0.00172286,0.00171059 -0.00360512,0.00331083 -0.00566519,0.00475472 -0.00205701,0.00143776 -0.00420291,0.00266399 -0.006404,0.00370016l-0.0485343 -0.0693159c0.00172286,-0.00171366 0.00361739,-0.00329857 0.00567439,-0.00473939 0.00206314,-0.00144389 0.00419985,-0.00267625 0.00639787,-0.00371242z"/>
  </g>
  <g id="_91669504">
   <circle id="_92315816" fill="#C2C1C1" transform="matrix(0.819152 0.573576 -0.573576 0.819152 4.05447 0.745703)" r="0.0429427"/>
   <path id="_92316464" fill="#838281" d="M4.08478 0.715268l-0.0485312 0.0693128c-0.00219802,-0.00103617 -0.00434393,-0.00225627 -0.00640707,-0.00370016 -0.00205701,-0.00144082 -0.00394234,-0.00303799 -0.00566519,-0.00475165l0.0485343 -0.0693159c0.00219802,0.0010331 0.0043378,0.00227466 0.0063948,0.00371242 0.00206007,0.00144389 0.00395153,0.00303186 0.00567439,0.00474245z"/>
  </g>
  <g id="_93383408">
   <circle id="_93550008" fill="#C2C1C1" transform="matrix(0.906308 0.422618 -0.422618 0.906308 3.83439 0.606139)" r="0.0429427"/>
   <path id="_93383576" fill="#838281" d="M3.85895 0.570903l-0.03576 0.0766855c-0.0023421,-0.000637641 -0.00466888,-0.00146535 -0.00694967,-0.0025291 -0.00227466,-0.00106376 -0.00441137,-0.00230838 -0.00640707,-0.00369403l0.0357631 -0.0766917c0.00234517,0.000634575 0.00466582,0.00148374 0.00694048,0.00254443 0.00228079,0.00106376 0.0044175,0.00229919 0.0064132,0.00368483z"/>
  </g>
  <g id="_93539096">
   <circle id="_93552152" fill="#C2C1C1" transform="matrix(0.707107 -0.707107 0.707107 0.707107 3.81292 0.337747)" r="0.0429427"/>
   <path id="_92316440" fill="#838281" d="M3.78821 0.302616l0.059831 0.059831c-0.00140097,0.00198343 -0.00297668,0.00388716 -0.00475778,0.00566519 -0.00177497,0.00177497 -0.00367563,0.00335681 -0.00566213,0.00475778l-0.059834 -0.0598371c0.00140097,-0.00198343 0.00299201,-0.0038749 0.00476698,-0.00564987 0.00177804,-0.0017811 0.0036695,-0.00336601 0.005656,-0.00476698z"/>
  </g>
 </g>
</svg>
