<?xml version="1.0" standalone="no"?><!-- Generator: Gravit.io --><svg xmlns="http://www.w3.org/2000/svg" xmlns:xlink="http://www.w3.org/1999/xlink" style="isolation:isolate" viewBox="0 0 450 450" width="450" height="450"><defs><clipPath id="_clipPath_ygLvNbLhduskxncJ3OyI13QTWp3BcSiw"><rect width="450" height="450"/></clipPath></defs><g clip-path="url(#_clipPath_ygLvNbLhduskxncJ3OyI13QTWp3BcSiw)"><g id="Group"><rect x="101.728" y="35.754" width="123.272" height="357.483" transform="matrix(1,0,0,1,0,0)" fill="rgb(247,178,76)"/><rect x="105" y="35.754" width="114" height="360.246" transform="matrix(1,0,0,1,0,0)" fill="rgb(247,178,76)"/><rect x="117.667" y="75.782" width="88.667" height="280.191" transform="matrix(1,0,0,1,0,0)" fill="rgb(245,159,56)"/><rect x="94" y="389.968" width="131" height="21.798" transform="matrix(1,0,0,1,0,0)" fill="rgb(248,189,92)"/><rect x="213.225" y="28.125" width="11.775" height="383.64" transform="matrix(1,0,0,1,0,0)" fill="rgb(248,189,92)"/><rect x="94" y="28.125" width="11.775" height="383.64" transform="matrix(1,0,0,1,0,0)" fill="rgb(248,189,92)"/><rect x="99.888" y="28.125" width="125.112" height="15.258" transform="matrix(1,0,0,1,0,0)" fill="rgb(248,189,92)"/><rect x="189" y="175" width="4" height="18" transform="matrix(1,0,0,1,0,0)" fill="rgb(198,126,39)"/></g><g id="Group"><rect x="225" y="35.754" width="123.272" height="357.483" transform="matrix(1,0,0,1,0,0)" fill="rgb(247,178,76)"/><rect x="231" y="35.754" width="114" height="360.246" transform="matrix(1,0,0,1,0,0)" fill="rgb(247,178,76)"/><rect x="243.667" y="75.782" width="88.667" height="280.191" transform="matrix(1,0,0,1,0,0)" fill="rgb(245,159,56)"/><rect x="225" y="389.968" width="131" height="21.798" transform="matrix(1,0,0,1,0,0)" fill="rgb(248,189,92)"/><rect x="225" y="28.125" width="11.775" height="383.64" transform="matrix(1,0,0,1,0,0)" fill="rgb(248,189,92)"/><rect x="344.225" y="28.125" width="11.775" height="383.64" transform="matrix(1,0,0,1,0,0)" fill="rgb(248,189,92)"/><rect x="225" y="28.125" width="125.112" height="15.258" transform="matrix(1,0,0,1,0,0)" fill="rgb(248,189,92)"/><rect x="257" y="175" width="4" height="18" transform="matrix(1,0,0,1,0,0)" fill="rgb(198,126,39)"/></g></g></svg>